<?xml version="1.0" encoding="utf-8" standalone="no"?>
<!DOCTYPE svg PUBLIC "-//W3C//DTD SVG 1.1//EN"
  "http://www.w3.org/Graphics/SVG/1.1/DTD/svg11.dtd">
<!-- Created with matplotlib (https://matplotlib.org/) -->
<svg height="168.9334pt" version="1.1" viewBox="0 0 739.79796 168.9334" width="739.79796pt" xmlns="http://www.w3.org/2000/svg" xmlns:xlink="http://www.w3.org/1999/xlink">
 <defs>
  <style type="text/css">
*{stroke-linecap:butt;stroke-linejoin:round;}
  </style>
 </defs>
 <g id="figure_1">
  <g id="patch_1">
   <path d="M 0 168.9334 
L 739.79796 168.9334 
L 739.79796 0 
L 0 0 
z
" style="fill:#ffffff;"/>
  </g>
  <g id="axes_1">
   <g id="line2d_1">
    <path clip-path="url(#p20946e5d7e)" d="M 114.46436 43.5608 
L 728.05286 43.5608 
" style="fill:none;stroke:#000000;stroke-linecap:square;stroke-width:2;"/>
   </g>
   <g id="line2d_2">
    <path clip-path="url(#p20946e5d7e)" d="M 114.46436 89.0118 
L 728.05286 89.0118 
" style="fill:none;stroke:#000000;stroke-linecap:square;stroke-width:2;"/>
   </g>
   <g id="line2d_3">
    <path clip-path="url(#p20946e5d7e)" d="M 114.46436 134.4628 
L 728.05286 134.4628 
" style="fill:none;stroke:#000000;stroke-linecap:square;stroke-width:2;"/>
   </g>
   <g id="line2d_4">
    <path clip-path="url(#p20946e5d7e)" d="M 228.09186 134.4628 
L 228.09186 89.0118 
" style="fill:none;stroke:#6fa4ff;stroke-linecap:square;stroke-width:2;"/>
   </g>
   <g id="line2d_5">
    <path clip-path="url(#p20946e5d7e)" d="M 318.99386 134.4628 
L 318.99386 43.5608 
" style="fill:none;stroke:#6fa4ff;stroke-linecap:square;stroke-width:2;"/>
   </g>
   <g id="line2d_6">
    <path clip-path="url(#p20946e5d7e)" d="M 409.89586 134.4628 
L 409.89586 89.0118 
" style="fill:none;stroke:#6fa4ff;stroke-linecap:square;stroke-width:2;"/>
   </g>
   <g id="line2d_7">
    <path clip-path="url(#p20946e5d7e)" d="M 500.79786 134.4628 
L 500.79786 43.5608 
" style="fill:none;stroke:#6fa4ff;stroke-linecap:square;stroke-width:2;"/>
   </g>
   <g id="line2d_8">
    <path clip-path="url(#p20946e5d7e)" d="M 546.24886 89.0118 
L 546.24886 43.5608 
" style="fill:none;stroke:#6fa4ff;stroke-linecap:square;stroke-width:2;"/>
   </g>
   <g id="line2d_9">
    <path clip-path="url(#p20946e5d7e)" d="M 682.60186 89.0118 
L 682.60186 43.5608 
" style="fill:none;stroke:#6fa4ff;stroke-linecap:square;stroke-width:2;"/>
   </g>
   <g id="patch_2">
    <path clip-path="url(#p20946e5d7e)" d="M 145.143785 149.234375 
L 174.686935 149.234375 
L 174.686935 119.691225 
L 145.143785 119.691225 
z
" style="fill:#fa74a6;"/>
   </g>
   <g id="patch_3">
    <path clip-path="url(#p20946e5d7e)" d="M 228.09186 93.443273 
C 229.2671 93.443273 230.394364 92.976345 231.225384 92.145324 
C 232.056405 91.314304 232.523332 90.18704 232.523332 89.0118 
C 232.523332 87.83656 232.056405 86.709296 231.225384 85.878276 
C 230.394364 85.047255 229.2671 84.580328 228.09186 84.580328 
C 226.91662 84.580328 225.789356 85.047255 224.958336 85.878276 
C 224.127315 86.709296 223.660387 87.83656 223.660387 89.0118 
C 223.660387 90.18704 224.127315 91.314304 224.958336 92.145324 
C 225.789356 92.976345 226.91662 93.443273 228.09186 93.443273 
z
" style="fill:#6fa4ff;stroke:#6fa4ff;stroke-linejoin:miter;stroke-width:1.5;"/>
   </g>
   <g id="patch_4">
    <path clip-path="url(#p20946e5d7e)" d="M 228.09186 144.802903 
C 230.834087 144.802903 233.464369 143.713404 235.403417 141.774357 
C 237.342464 139.835309 238.431962 137.205027 238.431962 134.4628 
C 238.431962 131.720573 237.342464 129.090291 235.403417 127.151243 
C 233.464369 125.212196 230.834087 124.122698 228.09186 124.122698 
C 225.349633 124.122698 222.719351 125.212196 220.780303 127.151243 
C 218.841256 129.090291 217.751757 131.720573 217.751757 134.4628 
C 217.751757 137.205027 218.841256 139.835309 220.780303 141.774357 
C 222.719351 143.713404 225.349633 144.802903 228.09186 144.802903 
z
" style="fill:#6fa4ff;stroke:#6fa4ff;stroke-linejoin:miter;stroke-width:2;"/>
   </g>
   <g id="patch_5">
    <path clip-path="url(#p20946e5d7e)" d="M 258.771285 149.234375 
L 288.314435 149.234375 
L 288.314435 119.691225 
L 258.771285 119.691225 
z
" style="fill:#fa74a6;"/>
   </g>
   <g id="patch_6">
    <path clip-path="url(#p20946e5d7e)" d="M 318.99386 47.992273 
C 320.1691 47.992273 321.296364 47.525345 322.127384 46.694324 
C 322.958405 45.863304 323.425332 44.73604 323.425332 43.5608 
C 323.425332 42.38556 322.958405 41.258296 322.127384 40.427276 
C 321.296364 39.596255 320.1691 39.129328 318.99386 39.129328 
C 317.81862 39.129328 316.691356 39.596255 315.860336 40.427276 
C 315.029315 41.258296 314.562387 42.38556 314.562387 43.5608 
C 314.562387 44.73604 315.029315 45.863304 315.860336 46.694324 
C 316.691356 47.525345 317.81862 47.992273 318.99386 47.992273 
z
" style="fill:#6fa4ff;stroke:#6fa4ff;stroke-linejoin:miter;stroke-width:1.5;"/>
   </g>
   <g id="patch_7">
    <path clip-path="url(#p20946e5d7e)" d="M 318.99386 144.802903 
C 321.736087 144.802903 324.366369 143.713404 326.305417 141.774357 
C 328.244464 139.835309 329.333962 137.205027 329.333962 134.4628 
C 329.333962 131.720573 328.244464 129.090291 326.305417 127.151243 
C 324.366369 125.212196 321.736087 124.122698 318.99386 124.122698 
C 316.251633 124.122698 313.621351 125.212196 311.682303 127.151243 
C 309.743256 129.090291 308.653757 131.720573 308.653757 134.4628 
C 308.653757 137.205027 309.743256 139.835309 311.682303 141.774357 
C 313.621351 143.713404 316.251633 144.802903 318.99386 144.802903 
z
" style="fill:#6fa4ff;stroke:#6fa4ff;stroke-linejoin:miter;stroke-width:2;"/>
   </g>
   <g id="patch_8">
    <path clip-path="url(#p20946e5d7e)" d="M 349.673285 149.234375 
L 379.216435 149.234375 
L 379.216435 119.691225 
L 349.673285 119.691225 
z
" style="fill:#fa74a6;"/>
   </g>
   <g id="patch_9">
    <path clip-path="url(#p20946e5d7e)" d="M 409.89586 93.443273 
C 411.0711 93.443273 412.198364 92.976345 413.029384 92.145324 
C 413.860405 91.314304 414.327332 90.18704 414.327332 89.0118 
C 414.327332 87.83656 413.860405 86.709296 413.029384 85.878276 
C 412.198364 85.047255 411.0711 84.580328 409.89586 84.580328 
C 408.72062 84.580328 407.593356 85.047255 406.762336 85.878276 
C 405.931315 86.709296 405.464387 87.83656 405.464387 89.0118 
C 405.464387 90.18704 405.931315 91.314304 406.762336 92.145324 
C 407.593356 92.976345 408.72062 93.443273 409.89586 93.443273 
z
" style="fill:#6fa4ff;stroke:#6fa4ff;stroke-linejoin:miter;stroke-width:1.5;"/>
   </g>
   <g id="patch_10">
    <path clip-path="url(#p20946e5d7e)" d="M 409.89586 144.802903 
C 412.638087 144.802903 415.268369 143.713404 417.207417 141.774357 
C 419.146464 139.835309 420.235962 137.205027 420.235962 134.4628 
C 420.235962 131.720573 419.146464 129.090291 417.207417 127.151243 
C 415.268369 125.212196 412.638087 124.122698 409.89586 124.122698 
C 407.153633 124.122698 404.523351 125.212196 402.584303 127.151243 
C 400.645256 129.090291 399.555757 131.720573 399.555757 134.4628 
C 399.555757 137.205027 400.645256 139.835309 402.584303 141.774357 
C 404.523351 143.713404 407.153633 144.802903 409.89586 144.802903 
z
" style="fill:#6fa4ff;stroke:#6fa4ff;stroke-linejoin:miter;stroke-width:2;"/>
   </g>
   <g id="patch_11">
    <path clip-path="url(#p20946e5d7e)" d="M 440.575285 103.783375 
L 470.118435 103.783375 
L 470.118435 74.240225 
L 440.575285 74.240225 
z
" style="fill:#fa74a6;"/>
   </g>
   <g id="patch_12">
    <path clip-path="url(#p20946e5d7e)" d="M 440.575285 149.234375 
L 470.118435 149.234375 
L 470.118435 119.691225 
L 440.575285 119.691225 
z
" style="fill:#fa74a6;"/>
   </g>
   <g id="patch_13">
    <path clip-path="url(#p20946e5d7e)" d="M 500.79786 47.992273 
C 501.9731 47.992273 503.100364 47.525345 503.931384 46.694324 
C 504.762405 45.863304 505.229332 44.73604 505.229332 43.5608 
C 505.229332 42.38556 504.762405 41.258296 503.931384 40.427276 
C 503.100364 39.596255 501.9731 39.129328 500.79786 39.129328 
C 499.62262 39.129328 498.495356 39.596255 497.664336 40.427276 
C 496.833315 41.258296 496.366387 42.38556 496.366387 43.5608 
C 496.366387 44.73604 496.833315 45.863304 497.664336 46.694324 
C 498.495356 47.525345 499.62262 47.992273 500.79786 47.992273 
z
" style="fill:#6fa4ff;stroke:#6fa4ff;stroke-linejoin:miter;stroke-width:1.5;"/>
   </g>
   <g id="patch_14">
    <path clip-path="url(#p20946e5d7e)" d="M 500.79786 144.802903 
C 503.540087 144.802903 506.170369 143.713404 508.109417 141.774357 
C 510.048464 139.835309 511.137962 137.205027 511.137962 134.4628 
C 511.137962 131.720573 510.048464 129.090291 508.109417 127.151243 
C 506.170369 125.212196 503.540087 124.122698 500.79786 124.122698 
C 498.055633 124.122698 495.425351 125.212196 493.486303 127.151243 
C 491.547256 129.090291 490.457757 131.720573 490.457757 134.4628 
C 490.457757 137.205027 491.547256 139.835309 493.486303 141.774357 
C 495.425351 143.713404 498.055633 144.802903 500.79786 144.802903 
z
" style="fill:#6fa4ff;stroke:#6fa4ff;stroke-linejoin:miter;stroke-width:2;"/>
   </g>
   <g id="patch_15">
    <path clip-path="url(#p20946e5d7e)" d="M 546.24886 47.992273 
C 547.4241 47.992273 548.551364 47.525345 549.382384 46.694324 
C 550.213405 45.863304 550.680332 44.73604 550.680332 43.5608 
C 550.680332 42.38556 550.213405 41.258296 549.382384 40.427276 
C 548.551364 39.596255 547.4241 39.129328 546.24886 39.129328 
C 545.07362 39.129328 543.946356 39.596255 543.115336 40.427276 
C 542.284315 41.258296 541.817387 42.38556 541.817387 43.5608 
C 541.817387 44.73604 542.284315 45.863304 543.115336 46.694324 
C 543.946356 47.525345 545.07362 47.992273 546.24886 47.992273 
z
" style="fill:#6fa4ff;stroke:#6fa4ff;stroke-linejoin:miter;stroke-width:1.5;"/>
   </g>
   <g id="patch_16">
    <path clip-path="url(#p20946e5d7e)" d="M 546.24886 99.351903 
C 548.991087 99.351903 551.621369 98.262404 553.560417 96.323357 
C 555.499464 94.384309 556.588962 91.754027 556.588962 89.0118 
C 556.588962 86.269573 555.499464 83.639291 553.560417 81.700243 
C 551.621369 79.761196 548.991087 78.671698 546.24886 78.671698 
C 543.506633 78.671698 540.876351 79.761196 538.937303 81.700243 
C 536.998256 83.639291 535.908757 86.269573 535.908757 89.0118 
C 535.908757 91.754027 536.998256 94.384309 538.937303 96.323357 
C 540.876351 98.262404 543.506633 99.351903 546.24886 99.351903 
z
" style="fill:#6fa4ff;stroke:#6fa4ff;stroke-linejoin:miter;stroke-width:2;"/>
   </g>
   <g id="patch_17">
    <path clip-path="url(#p20946e5d7e)" d="M 531.477285 149.234375 
L 561.020435 149.234375 
L 561.020435 119.691225 
L 531.477285 119.691225 
z
" style="fill:#fa74a6;"/>
   </g>
   <g id="patch_18">
    <path clip-path="url(#p20946e5d7e)" d="M 599.653785 58.332375 
L 629.196935 58.332375 
L 629.196935 28.789225 
L 599.653785 28.789225 
z
" style="fill:#fa74a6;"/>
   </g>
   <g id="patch_19">
    <path clip-path="url(#p20946e5d7e)" d="M 599.653785 103.783375 
L 629.196935 103.783375 
L 629.196935 74.240225 
L 599.653785 74.240225 
z
" style="fill:#fa74a6;"/>
   </g>
   <g id="patch_20">
    <path clip-path="url(#p20946e5d7e)" d="M 599.653785 149.234375 
L 629.196935 149.234375 
L 629.196935 119.691225 
L 599.653785 119.691225 
z
" style="fill:#fa74a6;"/>
   </g>
   <g id="patch_21">
    <path clip-path="url(#p20946e5d7e)" d="M 682.60186 47.992273 
C 683.7771 47.992273 684.904364 47.525345 685.735384 46.694324 
C 686.566405 45.863304 687.033332 44.73604 687.033332 43.5608 
C 687.033332 42.38556 686.566405 41.258296 685.735384 40.427276 
C 684.904364 39.596255 683.7771 39.129328 682.60186 39.129328 
C 681.42662 39.129328 680.299356 39.596255 679.468336 40.427276 
C 678.637315 41.258296 678.170387 42.38556 678.170387 43.5608 
C 678.170387 44.73604 678.637315 45.863304 679.468336 46.694324 
C 680.299356 47.525345 681.42662 47.992273 682.60186 47.992273 
z
" style="fill:#6fa4ff;stroke:#6fa4ff;stroke-linejoin:miter;stroke-width:1.5;"/>
   </g>
   <g id="patch_22">
    <path clip-path="url(#p20946e5d7e)" d="M 682.60186 99.351903 
C 685.344087 99.351903 687.974369 98.262404 689.913417 96.323357 
C 691.852464 94.384309 692.941962 91.754027 692.941962 89.0118 
C 692.941962 86.269573 691.852464 83.639291 689.913417 81.700243 
C 687.974369 79.761196 685.344087 78.671698 682.60186 78.671698 
C 679.859633 78.671698 677.229351 79.761196 675.290303 81.700243 
C 673.351256 83.639291 672.261757 86.269573 672.261757 89.0118 
C 672.261757 91.754027 673.351256 94.384309 675.290303 96.323357 
C 677.229351 98.262404 679.859633 99.351903 682.60186 99.351903 
z
" style="fill:#6fa4ff;stroke:#6fa4ff;stroke-linejoin:miter;stroke-width:2;"/>
   </g>
   <g id="line2d_10">
    <path clip-path="url(#p20946e5d7e)" d="M 228.09186 140.37143 
L 228.09186 128.55417 
" style="fill:none;stroke:#ffffff;stroke-linecap:square;stroke-width:2;"/>
   </g>
   <g id="line2d_11">
    <path clip-path="url(#p20946e5d7e)" d="M 222.18323 134.4628 
L 234.00049 134.4628 
" style="fill:none;stroke:#ffffff;stroke-linecap:square;stroke-width:2;"/>
   </g>
   <g id="line2d_12">
    <path clip-path="url(#p20946e5d7e)" d="M 318.99386 140.37143 
L 318.99386 128.55417 
" style="fill:none;stroke:#ffffff;stroke-linecap:square;stroke-width:2;"/>
   </g>
   <g id="line2d_13">
    <path clip-path="url(#p20946e5d7e)" d="M 313.08523 134.4628 
L 324.90249 134.4628 
" style="fill:none;stroke:#ffffff;stroke-linecap:square;stroke-width:2;"/>
   </g>
   <g id="line2d_14">
    <path clip-path="url(#p20946e5d7e)" d="M 409.89586 140.37143 
L 409.89586 128.55417 
" style="fill:none;stroke:#ffffff;stroke-linecap:square;stroke-width:2;"/>
   </g>
   <g id="line2d_15">
    <path clip-path="url(#p20946e5d7e)" d="M 403.98723 134.4628 
L 415.80449 134.4628 
" style="fill:none;stroke:#ffffff;stroke-linecap:square;stroke-width:2;"/>
   </g>
   <g id="line2d_16">
    <path clip-path="url(#p20946e5d7e)" d="M 500.79786 140.37143 
L 500.79786 128.55417 
" style="fill:none;stroke:#ffffff;stroke-linecap:square;stroke-width:2;"/>
   </g>
   <g id="line2d_17">
    <path clip-path="url(#p20946e5d7e)" d="M 494.88923 134.4628 
L 506.70649 134.4628 
" style="fill:none;stroke:#ffffff;stroke-linecap:square;stroke-width:2;"/>
   </g>
   <g id="line2d_18">
    <path clip-path="url(#p20946e5d7e)" d="M 546.24886 94.92043 
L 546.24886 83.10317 
" style="fill:none;stroke:#ffffff;stroke-linecap:square;stroke-width:2;"/>
   </g>
   <g id="line2d_19">
    <path clip-path="url(#p20946e5d7e)" d="M 540.34023 89.0118 
L 552.15749 89.0118 
" style="fill:none;stroke:#ffffff;stroke-linecap:square;stroke-width:2;"/>
   </g>
   <g id="line2d_20">
    <path clip-path="url(#p20946e5d7e)" d="M 682.60186 94.92043 
L 682.60186 83.10317 
" style="fill:none;stroke:#ffffff;stroke-linecap:square;stroke-width:2;"/>
   </g>
   <g id="line2d_21">
    <path clip-path="url(#p20946e5d7e)" d="M 676.69323 89.0118 
L 688.51049 89.0118 
" style="fill:none;stroke:#ffffff;stroke-linecap:square;stroke-width:2;"/>
   </g>
   <g id="text_1">
    <g clip-path="url(#p20946e5d7e)">
     <!-- $U_2$ -->
     <defs>
      <path d="M 15.484375 72.90625 
L 25.390625 72.90625 
L 16.796875 28.609375 
Q 16.265625 25.640625 16.046875 23.703125 
Q 15.828125 21.78125 15.828125 20.3125 
Q 15.828125 13.578125 19.578125 10.078125 
Q 23.34375 6.59375 30.609375 6.59375 
Q 40.046875 6.59375 45.28125 11.765625 
Q 50.53125 16.9375 52.78125 28.609375 
L 61.375 72.90625 
L 71.296875 72.90625 
L 62.5 27.390625 
Q 59.625 12.640625 51.5625 5.609375 
Q 43.5 -1.421875 29.5 -1.421875 
Q 18.5625 -1.421875 12.1875 4.078125 
Q 5.8125 9.578125 5.8125 19 
Q 5.8125 20.703125 6.046875 22.828125 
Q 6.296875 24.953125 6.78125 27.390625 
z
" id="DejaVuSans-Oblique-85"/>
      <path d="M 19.1875 8.296875 
L 53.609375 8.296875 
L 53.609375 0 
L 7.328125 0 
L 7.328125 8.296875 
Q 12.9375 14.109375 22.625 23.890625 
Q 32.328125 33.6875 34.8125 36.53125 
Q 39.546875 41.84375 41.421875 45.53125 
Q 43.3125 49.21875 43.3125 52.78125 
Q 43.3125 58.59375 39.234375 62.25 
Q 35.15625 65.921875 28.609375 65.921875 
Q 23.96875 65.921875 18.8125 64.3125 
Q 13.671875 62.703125 7.8125 59.421875 
L 7.8125 69.390625 
Q 13.765625 71.78125 18.9375 73 
Q 24.125 74.21875 28.421875 74.21875 
Q 39.75 74.21875 46.484375 68.546875 
Q 53.21875 62.890625 53.21875 53.421875 
Q 53.21875 48.921875 51.53125 44.890625 
Q 49.859375 40.875 45.40625 35.40625 
Q 44.1875 33.984375 37.640625 27.21875 
Q 31.109375 20.453125 19.1875 8.296875 
z
" id="DejaVuSans-50"/>
     </defs>
     <g transform="translate(152.05036 133.618515)scale(0.13 -0.13)">
      <use transform="translate(0 0.09375)" xlink:href="#DejaVuSans-Oblique-85"/>
      <use transform="translate(73.193359 -16.3125)scale(0.7)" xlink:href="#DejaVuSans-50"/>
     </g>
    </g>
   </g>
   <g id="text_2">
    <g clip-path="url(#p20946e5d7e)">
     <!-- 0, $\pi$ -->
     <defs>
      <path d="M 31.78125 66.40625 
Q 24.171875 66.40625 20.328125 58.90625 
Q 16.5 51.421875 16.5 36.375 
Q 16.5 21.390625 20.328125 13.890625 
Q 24.171875 6.390625 31.78125 6.390625 
Q 39.453125 6.390625 43.28125 13.890625 
Q 47.125 21.390625 47.125 36.375 
Q 47.125 51.421875 43.28125 58.90625 
Q 39.453125 66.40625 31.78125 66.40625 
z
M 31.78125 74.21875 
Q 44.046875 74.21875 50.515625 64.515625 
Q 56.984375 54.828125 56.984375 36.375 
Q 56.984375 17.96875 50.515625 8.265625 
Q 44.046875 -1.421875 31.78125 -1.421875 
Q 19.53125 -1.421875 13.0625 8.265625 
Q 6.59375 17.96875 6.59375 36.375 
Q 6.59375 54.828125 13.0625 64.515625 
Q 19.53125 74.21875 31.78125 74.21875 
z
" id="DejaVuSans-48"/>
      <path d="M 11.71875 12.40625 
L 22.015625 12.40625 
L 22.015625 4 
L 14.015625 -11.625 
L 7.71875 -11.625 
L 11.71875 4 
z
" id="DejaVuSans-44"/>
      <path id="DejaVuSans-32"/>
      <path d="M 9.125 54.6875 
L 61.53125 54.6875 
L 59.765625 45.703125 
L 52.875 45.703125 
L 46.34375 12.109375 
Q 45.65625 8.59375 46.578125 7.03125 
Q 47.46875 5.515625 50.140625 5.515625 
Q 50.875 5.515625 51.953125 5.671875 
Q 53.078125 5.765625 53.421875 5.8125 
L 52.15625 -0.6875 
Q 50.34375 -1.3125 48.484375 -1.609375 
Q 46.578125 -1.90625 44.78125 -1.90625 
Q 38.921875 -1.90625 37.3125 1.265625 
Q 35.6875 4.5 37.359375 13.09375 
L 43.703125 45.703125 
L 23.53125 45.703125 
L 14.65625 0 
L 5.46875 0 
L 14.359375 45.703125 
L 7.375 45.703125 
z
" id="DejaVuSans-Oblique-960"/>
     </defs>
     <g transform="translate(152.39536 145.533245)scale(0.08 -0.08)">
      <use transform="translate(0 0.78125)" xlink:href="#DejaVuSans-48"/>
      <use transform="translate(63.623047 0.78125)" xlink:href="#DejaVuSans-44"/>
      <use transform="translate(95.410156 0.78125)" xlink:href="#DejaVuSans-32"/>
      <use transform="translate(127.197266 0.78125)" xlink:href="#DejaVuSans-Oblique-960"/>
     </g>
    </g>
   </g>
   <g id="text_3">
    <g clip-path="url(#p20946e5d7e)">
     <!-- $U_1$ -->
     <defs>
      <path d="M 12.40625 8.296875 
L 28.515625 8.296875 
L 28.515625 63.921875 
L 10.984375 60.40625 
L 10.984375 69.390625 
L 28.421875 72.90625 
L 38.28125 72.90625 
L 38.28125 8.296875 
L 54.390625 8.296875 
L 54.390625 0 
L 12.40625 0 
z
" id="DejaVuSans-49"/>
     </defs>
     <g transform="translate(265.67786 133.618515)scale(0.13 -0.13)">
      <use transform="translate(0 0.09375)" xlink:href="#DejaVuSans-Oblique-85"/>
      <use transform="translate(73.193359 -16.3125)scale(0.7)" xlink:href="#DejaVuSans-49"/>
     </g>
    </g>
   </g>
   <g id="text_4">
    <g clip-path="url(#p20946e5d7e)">
     <!-- $-$$\pi$/4 -->
     <defs>
      <path d="M 10.59375 35.5 
L 73.1875 35.5 
L 73.1875 27.203125 
L 10.59375 27.203125 
z
" id="DejaVuSans-8722"/>
      <path d="M 25.390625 72.90625 
L 33.6875 72.90625 
L 8.296875 -9.28125 
L 0 -9.28125 
z
" id="DejaVuSans-47"/>
      <path d="M 37.796875 64.3125 
L 12.890625 25.390625 
L 37.796875 25.390625 
z
M 35.203125 72.90625 
L 47.609375 72.90625 
L 47.609375 25.390625 
L 58.015625 25.390625 
L 58.015625 17.1875 
L 47.609375 17.1875 
L 47.609375 0 
L 37.796875 0 
L 37.796875 17.1875 
L 4.890625 17.1875 
L 4.890625 26.703125 
z
" id="DejaVuSans-52"/>
     </defs>
     <g transform="translate(263.86286 145.533245)scale(0.08 -0.08)">
      <use transform="translate(0 0.09375)" xlink:href="#DejaVuSans-8722"/>
      <use transform="translate(83.789062 0.09375)" xlink:href="#DejaVuSans-Oblique-960"/>
      <use transform="translate(143.994141 0.09375)" xlink:href="#DejaVuSans-47"/>
      <use transform="translate(177.685547 0.09375)" xlink:href="#DejaVuSans-52"/>
     </g>
    </g>
   </g>
   <g id="text_5">
    <g clip-path="url(#p20946e5d7e)">
     <!-- $U_1$ -->
     <g transform="translate(356.57986 133.618515)scale(0.13 -0.13)">
      <use transform="translate(0 0.09375)" xlink:href="#DejaVuSans-Oblique-85"/>
      <use transform="translate(73.193359 -16.3125)scale(0.7)" xlink:href="#DejaVuSans-49"/>
     </g>
    </g>
   </g>
   <g id="text_6">
    <g clip-path="url(#p20946e5d7e)">
     <!-- $\pi$/4 -->
     <g transform="translate(358.12486 145.533245)scale(0.08 -0.08)">
      <use transform="translate(0 0.09375)" xlink:href="#DejaVuSans-Oblique-960"/>
      <use transform="translate(60.205078 0.09375)" xlink:href="#DejaVuSans-47"/>
      <use transform="translate(93.896484 0.09375)" xlink:href="#DejaVuSans-52"/>
     </g>
    </g>
   </g>
   <g id="text_7">
    <g clip-path="url(#p20946e5d7e)">
     <!-- $U_1$ -->
     <g transform="translate(447.48186 88.167515)scale(0.13 -0.13)">
      <use transform="translate(0 0.09375)" xlink:href="#DejaVuSans-Oblique-85"/>
      <use transform="translate(73.193359 -16.3125)scale(0.7)" xlink:href="#DejaVuSans-49"/>
     </g>
    </g>
   </g>
   <g id="text_8">
    <g clip-path="url(#p20946e5d7e)">
     <!-- $\pi$/4 -->
     <g transform="translate(449.02686 100.082245)scale(0.08 -0.08)">
      <use transform="translate(0 0.09375)" xlink:href="#DejaVuSans-Oblique-960"/>
      <use transform="translate(60.205078 0.09375)" xlink:href="#DejaVuSans-47"/>
      <use transform="translate(93.896484 0.09375)" xlink:href="#DejaVuSans-52"/>
     </g>
    </g>
   </g>
   <g id="text_9">
    <g clip-path="url(#p20946e5d7e)">
     <!-- $U_1$ -->
     <g transform="translate(447.48186 133.618515)scale(0.13 -0.13)">
      <use transform="translate(0 0.09375)" xlink:href="#DejaVuSans-Oblique-85"/>
      <use transform="translate(73.193359 -16.3125)scale(0.7)" xlink:href="#DejaVuSans-49"/>
     </g>
    </g>
   </g>
   <g id="text_10">
    <g clip-path="url(#p20946e5d7e)">
     <!-- $-$$\pi$/4 -->
     <g transform="translate(445.66686 145.533245)scale(0.08 -0.08)">
      <use transform="translate(0 0.09375)" xlink:href="#DejaVuSans-8722"/>
      <use transform="translate(83.789062 0.09375)" xlink:href="#DejaVuSans-Oblique-960"/>
      <use transform="translate(143.994141 0.09375)" xlink:href="#DejaVuSans-47"/>
      <use transform="translate(177.685547 0.09375)" xlink:href="#DejaVuSans-52"/>
     </g>
    </g>
   </g>
   <g id="text_11">
    <g clip-path="url(#p20946e5d7e)">
     <!-- $U_1$ -->
     <g transform="translate(538.38386 133.618515)scale(0.13 -0.13)">
      <use transform="translate(0 0.09375)" xlink:href="#DejaVuSans-Oblique-85"/>
      <use transform="translate(73.193359 -16.3125)scale(0.7)" xlink:href="#DejaVuSans-49"/>
     </g>
    </g>
   </g>
   <g id="text_12">
    <g clip-path="url(#p20946e5d7e)">
     <!-- $\pi$/4 -->
     <g transform="translate(539.92886 145.533245)scale(0.08 -0.08)">
      <use transform="translate(0 0.09375)" xlink:href="#DejaVuSans-Oblique-960"/>
      <use transform="translate(60.205078 0.09375)" xlink:href="#DejaVuSans-47"/>
      <use transform="translate(93.896484 0.09375)" xlink:href="#DejaVuSans-52"/>
     </g>
    </g>
   </g>
   <g id="text_13">
    <g clip-path="url(#p20946e5d7e)">
     <!-- $U_1$ -->
     <g transform="translate(606.56036 42.716515)scale(0.13 -0.13)">
      <use transform="translate(0 0.09375)" xlink:href="#DejaVuSans-Oblique-85"/>
      <use transform="translate(73.193359 -16.3125)scale(0.7)" xlink:href="#DejaVuSans-49"/>
     </g>
    </g>
   </g>
   <g id="text_14">
    <g clip-path="url(#p20946e5d7e)">
     <!-- $\pi$/4 -->
     <g transform="translate(608.10536 54.631245)scale(0.08 -0.08)">
      <use transform="translate(0 0.09375)" xlink:href="#DejaVuSans-Oblique-960"/>
      <use transform="translate(60.205078 0.09375)" xlink:href="#DejaVuSans-47"/>
      <use transform="translate(93.896484 0.09375)" xlink:href="#DejaVuSans-52"/>
     </g>
    </g>
   </g>
   <g id="text_15">
    <g clip-path="url(#p20946e5d7e)">
     <!-- $U_1$ -->
     <g transform="translate(606.56036 88.167515)scale(0.13 -0.13)">
      <use transform="translate(0 0.09375)" xlink:href="#DejaVuSans-Oblique-85"/>
      <use transform="translate(73.193359 -16.3125)scale(0.7)" xlink:href="#DejaVuSans-49"/>
     </g>
    </g>
   </g>
   <g id="text_16">
    <g clip-path="url(#p20946e5d7e)">
     <!-- $-$$\pi$/4 -->
     <g transform="translate(604.74536 100.082245)scale(0.08 -0.08)">
      <use transform="translate(0 0.09375)" xlink:href="#DejaVuSans-8722"/>
      <use transform="translate(83.789062 0.09375)" xlink:href="#DejaVuSans-Oblique-960"/>
      <use transform="translate(143.994141 0.09375)" xlink:href="#DejaVuSans-47"/>
      <use transform="translate(177.685547 0.09375)" xlink:href="#DejaVuSans-52"/>
     </g>
    </g>
   </g>
   <g id="text_17">
    <g clip-path="url(#p20946e5d7e)">
     <!-- $U_2$ -->
     <g transform="translate(606.56036 133.618515)scale(0.13 -0.13)">
      <use transform="translate(0 0.09375)" xlink:href="#DejaVuSans-Oblique-85"/>
      <use transform="translate(73.193359 -16.3125)scale(0.7)" xlink:href="#DejaVuSans-50"/>
     </g>
    </g>
   </g>
   <g id="text_18">
    <g clip-path="url(#p20946e5d7e)">
     <!-- 0, $\pi$ -->
     <g transform="translate(606.90536 145.533245)scale(0.08 -0.08)">
      <use transform="translate(0 0.78125)" xlink:href="#DejaVuSans-48"/>
      <use transform="translate(63.623047 0.78125)" xlink:href="#DejaVuSans-44"/>
      <use transform="translate(95.410156 0.78125)" xlink:href="#DejaVuSans-32"/>
      <use transform="translate(127.197266 0.78125)" xlink:href="#DejaVuSans-Oblique-960"/>
     </g>
    </g>
   </g>
   <g id="text_19">
    <g clip-path="url(#p20946e5d7e)">
     <!-- ${q}_{0}$ -->
     <defs>
      <path d="M 41.703125 8.203125 
Q 38.09375 3.46875 33.171875 1.015625 
Q 28.265625 -1.421875 22.3125 -1.421875 
Q 14.015625 -1.421875 9.296875 4.171875 
Q 4.59375 9.765625 4.59375 19.578125 
Q 4.59375 27.484375 7.5 34.859375 
Q 10.40625 42.234375 15.828125 48.09375 
Q 19.34375 51.90625 23.90625 53.953125 
Q 28.46875 56 33.5 56 
Q 39.546875 56 43.453125 53.609375 
Q 47.359375 51.21875 49.125 46.390625 
L 50.6875 54.59375 
L 59.71875 54.59375 
L 45.125 -20.609375 
L 36.078125 -20.609375 
z
M 13.921875 20.90625 
Q 13.921875 13.671875 16.9375 9.890625 
Q 19.96875 6.109375 25.6875 6.109375 
Q 34.1875 6.109375 40.1875 14.234375 
Q 46.1875 22.359375 46.1875 33.984375 
Q 46.1875 41.015625 43.078125 44.75 
Q 39.984375 48.484375 34.1875 48.484375 
Q 29.9375 48.484375 26.3125 46.5 
Q 22.703125 44.53125 20.015625 40.71875 
Q 17.1875 36.71875 15.546875 31.34375 
Q 13.921875 25.984375 13.921875 20.90625 
z
" id="DejaVuSans-Oblique-113"/>
     </defs>
     <g transform="translate(73.70136 48.011777)scale(0.1625 -0.1625)">
      <use xlink:href="#DejaVuSans-Oblique-113"/>
      <use transform="translate(63.476562 -16.40625)scale(0.7)" xlink:href="#DejaVuSans-48"/>
     </g>
    </g>
   </g>
   <g id="text_20">
    <g clip-path="url(#p20946e5d7e)">
     <!-- ${q}_{1}$ -->
     <g transform="translate(73.70136 93.462777)scale(0.1625 -0.1625)">
      <use xlink:href="#DejaVuSans-Oblique-113"/>
      <use transform="translate(63.476562 -16.40625)scale(0.7)" xlink:href="#DejaVuSans-49"/>
     </g>
    </g>
   </g>
   <g id="text_21">
    <g clip-path="url(#p20946e5d7e)">
     <!-- ${q}_{2}$ -->
     <g transform="translate(73.70136 138.913777)scale(0.1625 -0.1625)">
      <use xlink:href="#DejaVuSans-Oblique-113"/>
      <use transform="translate(63.476562 -16.40625)scale(0.7)" xlink:href="#DejaVuSans-50"/>
     </g>
    </g>
   </g>
  </g>
 </g>
 <defs>
  <clipPath id="p20946e5d7e">
   <rect height="154.5334" width="725.39796" x="7.2" y="7.2"/>
  </clipPath>
 </defs>
</svg>
