<?xml version="1.0" encoding="utf-8" standalone="no"?>
<!DOCTYPE svg PUBLIC "-//W3C//DTD SVG 1.1//EN"
  "http://www.w3.org/Graphics/SVG/1.1/DTD/svg11.dtd">
<!-- Created with matplotlib (https://matplotlib.org/) -->
<svg height="168.9334pt" version="1.1" viewBox="0 0 330.73896 168.9334" width="330.73896pt" xmlns="http://www.w3.org/2000/svg" xmlns:xlink="http://www.w3.org/1999/xlink">
 <defs>
  <style type="text/css">
*{stroke-linecap:butt;stroke-linejoin:round;}
  </style>
 </defs>
 <g id="figure_1">
  <g id="patch_1">
   <path d="M 0 168.9334 
L 330.73896 168.9334 
L 330.73896 0 
L 0 0 
z
" style="fill:#ffffff;"/>
  </g>
  <g id="axes_1">
   <g id="line2d_1">
    <path clip-path="url(#pf34c94e683)" d="M 114.46436 43.5608 
L 318.99386 43.5608 
" style="fill:none;stroke:#000000;stroke-linecap:square;stroke-width:2;"/>
   </g>
   <g id="line2d_2">
    <path clip-path="url(#pf34c94e683)" d="M 114.46436 89.0118 
L 318.99386 89.0118 
" style="fill:none;stroke:#000000;stroke-linecap:square;stroke-width:2;"/>
   </g>
   <g id="line2d_3">
    <path clip-path="url(#pf34c94e683)" d="M 114.46436 134.4628 
L 318.99386 134.4628 
" style="fill:none;stroke:#000000;stroke-linecap:square;stroke-width:2;"/>
   </g>
   <g id="line2d_4">
    <path clip-path="url(#pf34c94e683)" d="M 137.18986 89.0118 
L 137.18986 43.5608 
" style="fill:none;stroke:#6fa4ff;stroke-linecap:square;stroke-width:2;"/>
   </g>
   <g id="line2d_5">
    <path clip-path="url(#pf34c94e683)" d="M 182.64086 134.4628 
L 182.64086 89.0118 
" style="fill:none;stroke:#6fa4ff;stroke-linecap:square;stroke-width:2;"/>
   </g>
   <g id="line2d_6">
    <path clip-path="url(#pf34c94e683)" d="M 228.09186 89.0118 
L 228.09186 43.5608 
" style="fill:none;stroke:#6fa4ff;stroke-linecap:square;stroke-width:2;"/>
   </g>
   <g id="line2d_7">
    <path clip-path="url(#pf34c94e683)" d="M 273.54286 134.4628 
L 273.54286 89.0118 
" style="fill:none;stroke:#6fa4ff;stroke-linecap:square;stroke-width:2;"/>
   </g>
   <g id="patch_2">
    <path clip-path="url(#pf34c94e683)" d="M 137.18986 47.992273 
C 138.3651 47.992273 139.492364 47.525345 140.323384 46.694324 
C 141.154405 45.863304 141.621332 44.73604 141.621332 43.5608 
C 141.621332 42.38556 141.154405 41.258296 140.323384 40.427276 
C 139.492364 39.596255 138.3651 39.129328 137.18986 39.129328 
C 136.01462 39.129328 134.887356 39.596255 134.056336 40.427276 
C 133.225315 41.258296 132.758387 42.38556 132.758387 43.5608 
C 132.758387 44.73604 133.225315 45.863304 134.056336 46.694324 
C 134.887356 47.525345 136.01462 47.992273 137.18986 47.992273 
z
" style="fill:#6fa4ff;stroke:#6fa4ff;stroke-linejoin:miter;stroke-width:1.5;"/>
   </g>
   <g id="patch_3">
    <path clip-path="url(#pf34c94e683)" d="M 137.18986 99.351903 
C 139.932087 99.351903 142.562369 98.262404 144.501417 96.323357 
C 146.440464 94.384309 147.529962 91.754027 147.529962 89.0118 
C 147.529962 86.269573 146.440464 83.639291 144.501417 81.700243 
C 142.562369 79.761196 139.932087 78.671698 137.18986 78.671698 
C 134.447633 78.671698 131.817351 79.761196 129.878303 81.700243 
C 127.939256 83.639291 126.849757 86.269573 126.849757 89.0118 
C 126.849757 91.754027 127.939256 94.384309 129.878303 96.323357 
C 131.817351 98.262404 134.447633 99.351903 137.18986 99.351903 
z
" style="fill:#6fa4ff;stroke:#6fa4ff;stroke-linejoin:miter;stroke-width:2;"/>
   </g>
   <g id="patch_4">
    <path clip-path="url(#pf34c94e683)" d="M 182.64086 93.443273 
C 183.8161 93.443273 184.943364 92.976345 185.774384 92.145324 
C 186.605405 91.314304 187.072332 90.18704 187.072332 89.0118 
C 187.072332 87.83656 186.605405 86.709296 185.774384 85.878276 
C 184.943364 85.047255 183.8161 84.580328 182.64086 84.580328 
C 181.46562 84.580328 180.338356 85.047255 179.507336 85.878276 
C 178.676315 86.709296 178.209387 87.83656 178.209387 89.0118 
C 178.209387 90.18704 178.676315 91.314304 179.507336 92.145324 
C 180.338356 92.976345 181.46562 93.443273 182.64086 93.443273 
z
" style="fill:#6fa4ff;stroke:#6fa4ff;stroke-linejoin:miter;stroke-width:1.5;"/>
   </g>
   <g id="patch_5">
    <path clip-path="url(#pf34c94e683)" d="M 182.64086 144.802902 
C 185.383087 144.802902 188.013369 143.713404 189.952417 141.774357 
C 191.891464 139.835309 192.980962 137.205027 192.980962 134.4628 
C 192.980962 131.720573 191.891464 129.090291 189.952417 127.151243 
C 188.013369 125.212196 185.383087 124.122697 182.64086 124.122697 
C 179.898633 124.122697 177.268351 125.212196 175.329303 127.151243 
C 173.390256 129.090291 172.300757 131.720573 172.300757 134.4628 
C 172.300757 137.205027 173.390256 139.835309 175.329303 141.774357 
C 177.268351 143.713404 179.898633 144.802902 182.64086 144.802902 
z
" style="fill:#6fa4ff;stroke:#6fa4ff;stroke-linejoin:miter;stroke-width:2;"/>
   </g>
   <g id="patch_6">
    <path clip-path="url(#pf34c94e683)" d="M 228.09186 47.992273 
C 229.2671 47.992273 230.394364 47.525345 231.225384 46.694324 
C 232.056405 45.863304 232.523332 44.73604 232.523332 43.5608 
C 232.523332 42.38556 232.056405 41.258296 231.225384 40.427276 
C 230.394364 39.596255 229.2671 39.129328 228.09186 39.129328 
C 226.91662 39.129328 225.789356 39.596255 224.958336 40.427276 
C 224.127315 41.258296 223.660387 42.38556 223.660387 43.5608 
C 223.660387 44.73604 224.127315 45.863304 224.958336 46.694324 
C 225.789356 47.525345 226.91662 47.992273 228.09186 47.992273 
z
" style="fill:#6fa4ff;stroke:#6fa4ff;stroke-linejoin:miter;stroke-width:1.5;"/>
   </g>
   <g id="patch_7">
    <path clip-path="url(#pf34c94e683)" d="M 228.09186 99.351903 
C 230.834087 99.351903 233.464369 98.262404 235.403417 96.323357 
C 237.342464 94.384309 238.431962 91.754027 238.431962 89.0118 
C 238.431962 86.269573 237.342464 83.639291 235.403417 81.700243 
C 233.464369 79.761196 230.834087 78.671698 228.09186 78.671698 
C 225.349633 78.671698 222.719351 79.761196 220.780303 81.700243 
C 218.841256 83.639291 217.751757 86.269573 217.751757 89.0118 
C 217.751757 91.754027 218.841256 94.384309 220.780303 96.323357 
C 222.719351 98.262404 225.349633 99.351903 228.09186 99.351903 
z
" style="fill:#6fa4ff;stroke:#6fa4ff;stroke-linejoin:miter;stroke-width:2;"/>
   </g>
   <g id="patch_8">
    <path clip-path="url(#pf34c94e683)" d="M 273.54286 93.443273 
C 274.7181 93.443273 275.845364 92.976345 276.676384 92.145324 
C 277.507405 91.314304 277.974332 90.18704 277.974332 89.0118 
C 277.974332 87.83656 277.507405 86.709296 276.676384 85.878276 
C 275.845364 85.047255 274.7181 84.580328 273.54286 84.580328 
C 272.36762 84.580328 271.240356 85.047255 270.409336 85.878276 
C 269.578315 86.709296 269.111387 87.83656 269.111387 89.0118 
C 269.111387 90.18704 269.578315 91.314304 270.409336 92.145324 
C 271.240356 92.976345 272.36762 93.443273 273.54286 93.443273 
z
" style="fill:#6fa4ff;stroke:#6fa4ff;stroke-linejoin:miter;stroke-width:1.5;"/>
   </g>
   <g id="patch_9">
    <path clip-path="url(#pf34c94e683)" d="M 273.54286 144.802902 
C 276.285087 144.802902 278.915369 143.713404 280.854417 141.774357 
C 282.793464 139.835309 283.882962 137.205027 283.882962 134.4628 
C 283.882962 131.720573 282.793464 129.090291 280.854417 127.151243 
C 278.915369 125.212196 276.285087 124.122697 273.54286 124.122697 
C 270.800633 124.122697 268.170351 125.212196 266.231303 127.151243 
C 264.292256 129.090291 263.202757 131.720573 263.202757 134.4628 
C 263.202757 137.205027 264.292256 139.835309 266.231303 141.774357 
C 268.170351 143.713404 270.800633 144.802902 273.54286 144.802902 
z
" style="fill:#6fa4ff;stroke:#6fa4ff;stroke-linejoin:miter;stroke-width:2;"/>
   </g>
   <g id="line2d_8">
    <path clip-path="url(#pf34c94e683)" d="M 137.18986 94.92043 
L 137.18986 83.10317 
" style="fill:none;stroke:#ffffff;stroke-linecap:square;stroke-width:2;"/>
   </g>
   <g id="line2d_9">
    <path clip-path="url(#pf34c94e683)" d="M 131.28123 89.0118 
L 143.09849 89.0118 
" style="fill:none;stroke:#ffffff;stroke-linecap:square;stroke-width:2;"/>
   </g>
   <g id="line2d_10">
    <path clip-path="url(#pf34c94e683)" d="M 182.64086 140.37143 
L 182.64086 128.55417 
" style="fill:none;stroke:#ffffff;stroke-linecap:square;stroke-width:2;"/>
   </g>
   <g id="line2d_11">
    <path clip-path="url(#pf34c94e683)" d="M 176.73223 134.4628 
L 188.54949 134.4628 
" style="fill:none;stroke:#ffffff;stroke-linecap:square;stroke-width:2;"/>
   </g>
   <g id="line2d_12">
    <path clip-path="url(#pf34c94e683)" d="M 228.09186 94.92043 
L 228.09186 83.10317 
" style="fill:none;stroke:#ffffff;stroke-linecap:square;stroke-width:2;"/>
   </g>
   <g id="line2d_13">
    <path clip-path="url(#pf34c94e683)" d="M 222.18323 89.0118 
L 234.00049 89.0118 
" style="fill:none;stroke:#ffffff;stroke-linecap:square;stroke-width:2;"/>
   </g>
   <g id="line2d_14">
    <path clip-path="url(#pf34c94e683)" d="M 273.54286 140.37143 
L 273.54286 128.55417 
" style="fill:none;stroke:#ffffff;stroke-linecap:square;stroke-width:2;"/>
   </g>
   <g id="line2d_15">
    <path clip-path="url(#pf34c94e683)" d="M 267.63423 134.4628 
L 279.45149 134.4628 
" style="fill:none;stroke:#ffffff;stroke-linecap:square;stroke-width:2;"/>
   </g>
   <g id="text_1">
    <g clip-path="url(#pf34c94e683)">
     <!-- ${q}_{0}$ -->
     <defs>
      <path d="M 41.703125 8.203125 
Q 38.09375 3.46875 33.171875 1.015625 
Q 28.265625 -1.421875 22.3125 -1.421875 
Q 14.015625 -1.421875 9.296875 4.171875 
Q 4.59375 9.765625 4.59375 19.578125 
Q 4.59375 27.484375 7.5 34.859375 
Q 10.40625 42.234375 15.828125 48.09375 
Q 19.34375 51.90625 23.90625 53.953125 
Q 28.46875 56 33.5 56 
Q 39.546875 56 43.453125 53.609375 
Q 47.359375 51.21875 49.125 46.390625 
L 50.6875 54.59375 
L 59.71875 54.59375 
L 45.125 -20.609375 
L 36.078125 -20.609375 
z
M 13.921875 20.90625 
Q 13.921875 13.671875 16.9375 9.890625 
Q 19.96875 6.109375 25.6875 6.109375 
Q 34.1875 6.109375 40.1875 14.234375 
Q 46.1875 22.359375 46.1875 33.984375 
Q 46.1875 41.015625 43.078125 44.75 
Q 39.984375 48.484375 34.1875 48.484375 
Q 29.9375 48.484375 26.3125 46.5 
Q 22.703125 44.53125 20.015625 40.71875 
Q 17.1875 36.71875 15.546875 31.34375 
Q 13.921875 25.984375 13.921875 20.90625 
z
" id="DejaVuSans-Oblique-113"/>
      <path d="M 31.78125 66.40625 
Q 24.171875 66.40625 20.328125 58.90625 
Q 16.5 51.421875 16.5 36.375 
Q 16.5 21.390625 20.328125 13.890625 
Q 24.171875 6.390625 31.78125 6.390625 
Q 39.453125 6.390625 43.28125 13.890625 
Q 47.125 21.390625 47.125 36.375 
Q 47.125 51.421875 43.28125 58.90625 
Q 39.453125 66.40625 31.78125 66.40625 
z
M 31.78125 74.21875 
Q 44.046875 74.21875 50.515625 64.515625 
Q 56.984375 54.828125 56.984375 36.375 
Q 56.984375 17.96875 50.515625 8.265625 
Q 44.046875 -1.421875 31.78125 -1.421875 
Q 19.53125 -1.421875 13.0625 8.265625 
Q 6.59375 17.96875 6.59375 36.375 
Q 6.59375 54.828125 13.0625 64.515625 
Q 19.53125 74.21875 31.78125 74.21875 
z
" id="DejaVuSans-48"/>
     </defs>
     <g transform="translate(73.70136 48.011777)scale(0.1625 -0.1625)">
      <use xlink:href="#DejaVuSans-Oblique-113"/>
      <use transform="translate(63.476562 -16.40625)scale(0.7)" xlink:href="#DejaVuSans-48"/>
     </g>
    </g>
   </g>
   <g id="text_2">
    <g clip-path="url(#pf34c94e683)">
     <!-- ${q}_{1}$ -->
     <defs>
      <path d="M 12.40625 8.296875 
L 28.515625 8.296875 
L 28.515625 63.921875 
L 10.984375 60.40625 
L 10.984375 69.390625 
L 28.421875 72.90625 
L 38.28125 72.90625 
L 38.28125 8.296875 
L 54.390625 8.296875 
L 54.390625 0 
L 12.40625 0 
z
" id="DejaVuSans-49"/>
     </defs>
     <g transform="translate(73.70136 93.462777)scale(0.1625 -0.1625)">
      <use xlink:href="#DejaVuSans-Oblique-113"/>
      <use transform="translate(63.476562 -16.40625)scale(0.7)" xlink:href="#DejaVuSans-49"/>
     </g>
    </g>
   </g>
   <g id="text_3">
    <g clip-path="url(#pf34c94e683)">
     <!-- ${q}_{2}$ -->
     <defs>
      <path d="M 19.1875 8.296875 
L 53.609375 8.296875 
L 53.609375 0 
L 7.328125 0 
L 7.328125 8.296875 
Q 12.9375 14.109375 22.625 23.890625 
Q 32.328125 33.6875 34.8125 36.53125 
Q 39.546875 41.84375 41.421875 45.53125 
Q 43.3125 49.21875 43.3125 52.78125 
Q 43.3125 58.59375 39.234375 62.25 
Q 35.15625 65.921875 28.609375 65.921875 
Q 23.96875 65.921875 18.8125 64.3125 
Q 13.671875 62.703125 7.8125 59.421875 
L 7.8125 69.390625 
Q 13.765625 71.78125 18.9375 73 
Q 24.125 74.21875 28.421875 74.21875 
Q 39.75 74.21875 46.484375 68.546875 
Q 53.21875 62.890625 53.21875 53.421875 
Q 53.21875 48.921875 51.53125 44.890625 
Q 49.859375 40.875 45.40625 35.40625 
Q 44.1875 33.984375 37.640625 27.21875 
Q 31.109375 20.453125 19.1875 8.296875 
z
" id="DejaVuSans-50"/>
     </defs>
     <g transform="translate(73.70136 138.913777)scale(0.1625 -0.1625)">
      <use xlink:href="#DejaVuSans-Oblique-113"/>
      <use transform="translate(63.476562 -16.40625)scale(0.7)" xlink:href="#DejaVuSans-50"/>
     </g>
    </g>
   </g>
  </g>
 </g>
 <defs>
  <clipPath id="pf34c94e683">
   <rect height="154.5334" width="316.33896" x="7.2" y="7.2"/>
  </clipPath>
 </defs>
</svg>
