<?xml version="1.0" encoding="utf-8" standalone="no"?>
<!DOCTYPE svg PUBLIC "-//W3C//DTD SVG 1.1//EN"
  "http://www.w3.org/Graphics/SVG/1.1/DTD/svg11.dtd">
<!-- Created with matplotlib (https://matplotlib.org/) -->
<svg height="214.3844pt" version="1.1" viewBox="0 0 830.69996 214.3844" width="830.69996pt" xmlns="http://www.w3.org/2000/svg" xmlns:xlink="http://www.w3.org/1999/xlink">
 <defs>
  <style type="text/css">
*{stroke-linecap:butt;stroke-linejoin:round;}
  </style>
 </defs>
 <g id="figure_1">
  <g id="patch_1">
   <path d="M 0 214.3844 
L 830.69996 214.3844 
L 830.69996 0 
L 0 0 
z
" style="fill:#ffffff;"/>
  </g>
  <g id="axes_1">
   <g id="patch_2">
    <path clip-path="url(#p624e90e45e)" d="M 676.69323 169.573697 
L 688.51049 169.573697 
L 682.60186 179.9138 
z
" style="fill:#778899;"/>
   </g>
   <g id="patch_3">
    <path clip-path="url(#p624e90e45e)" d="M 722.14423 169.573697 
L 733.96149 169.573697 
L 728.05286 179.9138 
z
" style="fill:#778899;"/>
   </g>
   <g id="patch_4">
    <path clip-path="url(#p624e90e45e)" d="M 767.59523 169.573697 
L 779.41249 169.573697 
L 773.50386 179.9138 
z
" style="fill:#778899;"/>
   </g>
   <g id="line2d_1">
    <path clip-path="url(#p624e90e45e)" d="M 114.46436 43.5608 
L 818.95486 43.5608 
" style="fill:none;stroke:#000000;stroke-linecap:square;stroke-width:2;"/>
   </g>
   <g id="line2d_2">
    <path clip-path="url(#p624e90e45e)" d="M 114.46436 89.0118 
L 818.95486 89.0118 
" style="fill:none;stroke:#000000;stroke-linecap:square;stroke-width:2;"/>
   </g>
   <g id="line2d_3">
    <path clip-path="url(#p624e90e45e)" d="M 114.46436 134.4628 
L 818.95486 134.4628 
" style="fill:none;stroke:#000000;stroke-linecap:square;stroke-width:2;"/>
   </g>
   <g id="line2d_4">
    <path clip-path="url(#p624e90e45e)" d="M 114.46436 178.436642 
L 818.95486 178.436642 
" style="fill:none;stroke:#778899;stroke-linecap:square;stroke-width:2;"/>
   </g>
   <g id="line2d_5">
    <path clip-path="url(#p624e90e45e)" d="M 114.46436 181.390957 
L 818.95486 181.390957 
" style="fill:none;stroke:#778899;stroke-linecap:square;stroke-width:2;"/>
   </g>
   <g id="patch_5">
    <path clip-path="url(#p624e90e45e)" d="M 219.228915 157.1883 
L 236.954805 157.1883 
L 236.954805 20.8353 
L 219.228915 20.8353 
z
" style="fill:#bdbdbd;opacity:0.6;"/>
   </g>
   <g id="patch_6">
    <path clip-path="url(#p624e90e45e)" d="M 355.581915 157.1883 
L 373.307805 157.1883 
L 373.307805 20.8353 
L 355.581915 20.8353 
z
" style="fill:#bdbdbd;opacity:0.6;"/>
   </g>
   <g id="patch_7">
    <path clip-path="url(#p624e90e45e)" d="M 628.287915 157.1883 
L 646.013805 157.1883 
L 646.013805 20.8353 
L 628.287915 20.8353 
z
" style="fill:#bdbdbd;opacity:0.6;"/>
   </g>
   <g id="line2d_6">
    <path clip-path="url(#p624e90e45e)" d="M 318.99386 134.4628 
L 318.99386 89.0118 
" style="fill:none;stroke:#6fa4ff;stroke-linecap:square;stroke-width:2;"/>
   </g>
   <g id="line2d_7">
    <path clip-path="url(#p624e90e45e)" d="M 409.89586 89.0118 
L 409.89586 43.5608 
" style="fill:none;stroke:#6fa4ff;stroke-linecap:square;stroke-width:2;"/>
   </g>
   <g id="line2d_8">
    <path clip-path="url(#p624e90e45e)" d="M 455.34686 134.4628 
L 455.34686 89.0118 
" style="fill:none;stroke:#6fa4ff;stroke-linecap:square;stroke-width:2;"/>
   </g>
   <g id="line2d_9">
    <path clip-path="url(#p624e90e45e)" d="M 500.79786 134.4628 
L 500.79786 43.5608 
" style="fill:none;stroke:#bb8bff;stroke-linecap:square;stroke-width:2;"/>
   </g>
   <g id="line2d_10">
    <path clip-path="url(#p624e90e45e)" d="M 684.079017 43.5608 
L 684.079017 169.573697 
" style="fill:none;stroke:#778899;stroke-linecap:square;stroke-width:2;"/>
   </g>
   <g id="line2d_11">
    <path clip-path="url(#p624e90e45e)" d="M 681.124702 43.5608 
L 681.124702 169.573697 
" style="fill:none;stroke:#778899;stroke-linecap:square;stroke-width:2;"/>
   </g>
   <g id="line2d_12">
    <path clip-path="url(#p624e90e45e)" d="M 729.530017 89.0118 
L 729.530017 169.573697 
" style="fill:none;stroke:#778899;stroke-linecap:square;stroke-width:2;"/>
   </g>
   <g id="line2d_13">
    <path clip-path="url(#p624e90e45e)" d="M 726.575702 89.0118 
L 726.575702 169.573697 
" style="fill:none;stroke:#778899;stroke-linecap:square;stroke-width:2;"/>
   </g>
   <g id="line2d_14">
    <path clip-path="url(#p624e90e45e)" d="M 774.981017 134.4628 
L 774.981017 169.573697 
" style="fill:none;stroke:#778899;stroke-linecap:square;stroke-width:2;"/>
   </g>
   <g id="line2d_15">
    <path clip-path="url(#p624e90e45e)" d="M 772.026702 134.4628 
L 772.026702 169.573697 
" style="fill:none;stroke:#778899;stroke-linecap:square;stroke-width:2;"/>
   </g>
   <g id="line2d_16">
    <path clip-path="url(#p624e90e45e)" d="M 141.73496 184.4589 
L 146.28006 175.3687 
" style="fill:none;stroke:#778899;stroke-linecap:square;stroke-width:1.5;"/>
   </g>
   <g id="patch_8">
    <path clip-path="url(#p624e90e45e)" d="M 122.418285 58.332375 
L 151.961435 58.332375 
L 151.961435 28.789225 
L 122.418285 28.789225 
z
" style="fill:#05bab6;"/>
   </g>
   <g id="patch_9">
    <path clip-path="url(#p624e90e45e)" d="M 167.869285 58.332375 
L 197.412435 58.332375 
L 197.412435 28.789225 
L 167.869285 28.789225 
z
" style="fill:#6fa4ff;"/>
   </g>
   <g id="patch_10">
    <path clip-path="url(#p624e90e45e)" d="M 258.771285 103.783375 
L 288.314435 103.783375 
L 288.314435 74.240225 
L 258.771285 74.240225 
z
" style="fill:#6fa4ff;"/>
   </g>
   <g id="patch_11">
    <path clip-path="url(#p624e90e45e)" d="M 318.99386 93.443273 
C 320.1691 93.443273 321.296364 92.976345 322.127384 92.145324 
C 322.958405 91.314304 323.425332 90.18704 323.425332 89.0118 
C 323.425332 87.83656 322.958405 86.709296 322.127384 85.878276 
C 321.296364 85.047255 320.1691 84.580328 318.99386 84.580328 
C 317.81862 84.580328 316.691356 85.047255 315.860336 85.878276 
C 315.029315 86.709296 314.562387 87.83656 314.562387 89.0118 
C 314.562387 90.18704 315.029315 91.314304 315.860336 92.145324 
C 316.691356 92.976345 317.81862 93.443273 318.99386 93.443273 
z
" style="fill:#6fa4ff;stroke:#6fa4ff;stroke-linejoin:miter;stroke-width:1.5;"/>
   </g>
   <g id="patch_12">
    <path clip-path="url(#p624e90e45e)" d="M 318.99386 144.802903 
C 321.736087 144.802903 324.366369 143.713404 326.305417 141.774357 
C 328.244464 139.835309 329.333962 137.205027 329.333962 134.4628 
C 329.333962 131.720573 328.244464 129.090291 326.305417 127.151243 
C 324.366369 125.212196 321.736087 124.122698 318.99386 124.122698 
C 316.251633 124.122698 313.621351 125.212196 311.682303 127.151243 
C 309.743256 129.090291 308.653757 131.720573 308.653757 134.4628 
C 308.653757 137.205027 309.743256 139.835309 311.682303 141.774357 
C 313.621351 143.713404 316.251633 144.802903 318.99386 144.802903 
z
" style="fill:#6fa4ff;stroke:#6fa4ff;stroke-linejoin:miter;stroke-width:2;"/>
   </g>
   <g id="patch_13">
    <path clip-path="url(#p624e90e45e)" d="M 409.89586 47.992273 
C 411.0711 47.992273 412.198364 47.525345 413.029384 46.694324 
C 413.860405 45.863304 414.327332 44.73604 414.327332 43.5608 
C 414.327332 42.38556 413.860405 41.258296 413.029384 40.427276 
C 412.198364 39.596255 411.0711 39.129328 409.89586 39.129328 
C 408.72062 39.129328 407.593356 39.596255 406.762336 40.427276 
C 405.931315 41.258296 405.464387 42.38556 405.464387 43.5608 
C 405.464387 44.73604 405.931315 45.863304 406.762336 46.694324 
C 407.593356 47.525345 408.72062 47.992273 409.89586 47.992273 
z
" style="fill:#6fa4ff;stroke:#6fa4ff;stroke-linejoin:miter;stroke-width:1.5;"/>
   </g>
   <g id="patch_14">
    <path clip-path="url(#p624e90e45e)" d="M 409.89586 99.351903 
C 412.638087 99.351903 415.268369 98.262404 417.207417 96.323357 
C 419.146464 94.384309 420.235962 91.754027 420.235962 89.0118 
C 420.235962 86.269573 419.146464 83.639291 417.207417 81.700243 
C 415.268369 79.761196 412.638087 78.671698 409.89586 78.671698 
C 407.153633 78.671698 404.523351 79.761196 402.584303 81.700243 
C 400.645256 83.639291 399.555757 86.269573 399.555757 89.0118 
C 399.555757 91.754027 400.645256 94.384309 402.584303 96.323357 
C 404.523351 98.262404 407.153633 99.351903 409.89586 99.351903 
z
" style="fill:#6fa4ff;stroke:#6fa4ff;stroke-linejoin:miter;stroke-width:2;"/>
   </g>
   <g id="patch_15">
    <path clip-path="url(#p624e90e45e)" d="M 440.575285 58.332375 
L 470.118435 58.332375 
L 470.118435 28.789225 
L 440.575285 28.789225 
z
" style="fill:#6fa4ff;"/>
   </g>
   <g id="patch_16">
    <path clip-path="url(#p624e90e45e)" d="M 455.34686 93.443273 
C 456.5221 93.443273 457.649364 92.976345 458.480384 92.145324 
C 459.311405 91.314304 459.778332 90.18704 459.778332 89.0118 
C 459.778332 87.83656 459.311405 86.709296 458.480384 85.878276 
C 457.649364 85.047255 456.5221 84.580328 455.34686 84.580328 
C 454.17162 84.580328 453.044356 85.047255 452.213336 85.878276 
C 451.382315 86.709296 450.915387 87.83656 450.915387 89.0118 
C 450.915387 90.18704 451.382315 91.314304 452.213336 92.145324 
C 453.044356 92.976345 454.17162 93.443273 455.34686 93.443273 
z
" style="fill:#6fa4ff;stroke:#6fa4ff;stroke-linejoin:miter;stroke-width:1.5;"/>
   </g>
   <g id="patch_17">
    <path clip-path="url(#p624e90e45e)" d="M 455.34686 144.802903 
C 458.089087 144.802903 460.719369 143.713404 462.658417 141.774357 
C 464.597464 139.835309 465.686962 137.205027 465.686962 134.4628 
C 465.686962 131.720573 464.597464 129.090291 462.658417 127.151243 
C 460.719369 125.212196 458.089087 124.122698 455.34686 124.122698 
C 452.604633 124.122698 449.974351 125.212196 448.035303 127.151243 
C 446.096256 129.090291 445.006757 131.720573 445.006757 134.4628 
C 445.006757 137.205027 446.096256 139.835309 448.035303 141.774357 
C 449.974351 143.713404 452.604633 144.802903 455.34686 144.802903 
z
" style="fill:#6fa4ff;stroke:#6fa4ff;stroke-linejoin:miter;stroke-width:2;"/>
   </g>
   <g id="patch_18">
    <path clip-path="url(#p624e90e45e)" d="M 500.79786 47.992273 
C 501.9731 47.992273 503.100364 47.525345 503.931384 46.694324 
C 504.762405 45.863304 505.229332 44.73604 505.229332 43.5608 
C 505.229332 42.38556 504.762405 41.258296 503.931384 40.427276 
C 503.100364 39.596255 501.9731 39.129328 500.79786 39.129328 
C 499.62262 39.129328 498.495356 39.596255 497.664336 40.427276 
C 496.833315 41.258296 496.366387 42.38556 496.366387 43.5608 
C 496.366387 44.73604 496.833315 45.863304 497.664336 46.694324 
C 498.495356 47.525345 499.62262 47.992273 500.79786 47.992273 
z
" style="fill:#bb8bff;stroke:#bb8bff;stroke-linejoin:miter;stroke-width:1.5;"/>
   </g>
   <g id="patch_19">
    <path clip-path="url(#p624e90e45e)" d="M 486.026285 149.234375 
L 515.569435 149.234375 
L 515.569435 119.691225 
L 486.026285 119.691225 
z
" style="fill:#bb8bff;"/>
   </g>
   <g id="patch_20">
    <path clip-path="url(#p624e90e45e)" d="M 531.477285 149.234375 
L 561.020435 149.234375 
L 561.020435 119.691225 
L 531.477285 119.691225 
z
" style="fill:#6fa4ff;"/>
   </g>
   <g id="patch_21">
    <path clip-path="url(#p624e90e45e)" d="M 576.928285 149.234375 
L 606.471435 149.234375 
L 606.471435 119.691225 
L 576.928285 119.691225 
z
" style="fill:#05bab6;"/>
   </g>
   <g id="patch_22">
    <path clip-path="url(#p624e90e45e)" d="M 667.830285 58.332375 
L 697.373435 58.332375 
L 697.373435 28.789225 
L 667.830285 28.789225 
z
"/>
   </g>
   <g id="patch_23">
    <path clip-path="url(#p624e90e45e)" d="M 692.941962 47.992273 
C 692.941962 45.250959 691.851818 42.619118 689.913417 40.680716 
C 687.975015 38.742314 685.343174 37.65217 682.60186 37.65217 
C 679.860546 37.65217 677.228705 38.742314 675.290303 40.680716 
C 673.351902 42.619118 672.261757 45.250959 672.261757 47.992273 
" style="fill:none;stroke:#ffffff;stroke-linejoin:miter;stroke-width:2;"/>
   </g>
   <g id="patch_24">
    <path clip-path="url(#p624e90e45e)" d="M 713.281285 103.783375 
L 742.824435 103.783375 
L 742.824435 74.240225 
L 713.281285 74.240225 
z
"/>
   </g>
   <g id="patch_25">
    <path clip-path="url(#p624e90e45e)" d="M 738.392962 93.443273 
C 738.392962 90.701959 737.302818 88.070118 735.364417 86.131716 
C 733.426015 84.193314 730.794174 83.10317 728.05286 83.10317 
C 725.311546 83.10317 722.679705 84.193314 720.741303 86.131716 
C 718.802902 88.070118 717.712757 90.701959 717.712757 93.443273 
" style="fill:none;stroke:#ffffff;stroke-linejoin:miter;stroke-width:2;"/>
   </g>
   <g id="patch_26">
    <path clip-path="url(#p624e90e45e)" d="M 758.732285 149.234375 
L 788.275435 149.234375 
L 788.275435 119.691225 
L 758.732285 119.691225 
z
"/>
   </g>
   <g id="patch_27">
    <path clip-path="url(#p624e90e45e)" d="M 783.843962 138.894272 
C 783.843962 136.152959 782.753818 133.521118 780.815417 131.582716 
C 778.877015 129.644314 776.245174 128.55417 773.50386 128.55417 
C 770.762546 128.55417 768.130705 129.644314 766.192303 131.582716 
C 764.253902 133.521118 763.163757 136.152959 763.163757 138.894272 
" style="fill:none;stroke:#ffffff;stroke-linejoin:miter;stroke-width:2;"/>
   </g>
   <g id="line2d_17">
    <path clip-path="url(#p624e90e45e)" d="M 682.60186 47.992273 
L 692.941962 37.65217 
" style="fill:none;stroke:#ffffff;stroke-linecap:square;stroke-width:2;"/>
   </g>
   <g id="line2d_18">
    <path clip-path="url(#p624e90e45e)" d="M 728.05286 93.443273 
L 738.392962 83.10317 
" style="fill:none;stroke:#ffffff;stroke-linecap:square;stroke-width:2;"/>
   </g>
   <g id="line2d_19">
    <path clip-path="url(#p624e90e45e)" d="M 773.50386 138.894272 
L 783.843962 128.55417 
" style="fill:none;stroke:#ffffff;stroke-linecap:square;stroke-width:2;"/>
   </g>
   <g id="line2d_20">
    <path clip-path="url(#p624e90e45e)" d="M 228.09186 20.8353 
L 228.09186 66.2863 
" style="fill:none;stroke:#000000;stroke-dasharray:3.7,1.6;stroke-dashoffset:0;"/>
   </g>
   <g id="line2d_21">
    <path clip-path="url(#p624e90e45e)" d="M 228.09186 66.2863 
L 228.09186 111.7373 
" style="fill:none;stroke:#000000;stroke-dasharray:3.7,1.6;stroke-dashoffset:0;"/>
   </g>
   <g id="line2d_22">
    <path clip-path="url(#p624e90e45e)" d="M 228.09186 111.7373 
L 228.09186 157.1883 
" style="fill:none;stroke:#000000;stroke-dasharray:3.7,1.6;stroke-dashoffset:0;"/>
   </g>
   <g id="line2d_23">
    <path clip-path="url(#p624e90e45e)" d="M 318.99386 140.37143 
L 318.99386 128.55417 
" style="fill:none;stroke:#ffffff;stroke-linecap:square;stroke-width:2;"/>
   </g>
   <g id="line2d_24">
    <path clip-path="url(#p624e90e45e)" d="M 313.08523 134.4628 
L 324.90249 134.4628 
" style="fill:none;stroke:#ffffff;stroke-linecap:square;stroke-width:2;"/>
   </g>
   <g id="line2d_25">
    <path clip-path="url(#p624e90e45e)" d="M 364.44486 20.8353 
L 364.44486 66.2863 
" style="fill:none;stroke:#000000;stroke-dasharray:3.7,1.6;stroke-dashoffset:0;"/>
   </g>
   <g id="line2d_26">
    <path clip-path="url(#p624e90e45e)" d="M 364.44486 66.2863 
L 364.44486 111.7373 
" style="fill:none;stroke:#000000;stroke-dasharray:3.7,1.6;stroke-dashoffset:0;"/>
   </g>
   <g id="line2d_27">
    <path clip-path="url(#p624e90e45e)" d="M 364.44486 111.7373 
L 364.44486 157.1883 
" style="fill:none;stroke:#000000;stroke-dasharray:3.7,1.6;stroke-dashoffset:0;"/>
   </g>
   <g id="line2d_28">
    <path clip-path="url(#p624e90e45e)" d="M 409.89586 94.92043 
L 409.89586 83.10317 
" style="fill:none;stroke:#ffffff;stroke-linecap:square;stroke-width:2;"/>
   </g>
   <g id="line2d_29">
    <path clip-path="url(#p624e90e45e)" d="M 403.98723 89.0118 
L 415.80449 89.0118 
" style="fill:none;stroke:#ffffff;stroke-linecap:square;stroke-width:2;"/>
   </g>
   <g id="line2d_30">
    <path clip-path="url(#p624e90e45e)" d="M 455.34686 140.37143 
L 455.34686 128.55417 
" style="fill:none;stroke:#ffffff;stroke-linecap:square;stroke-width:2;"/>
   </g>
   <g id="line2d_31">
    <path clip-path="url(#p624e90e45e)" d="M 449.43823 134.4628 
L 461.25549 134.4628 
" style="fill:none;stroke:#ffffff;stroke-linecap:square;stroke-width:2;"/>
   </g>
   <g id="line2d_32">
    <path clip-path="url(#p624e90e45e)" d="M 637.15086 20.8353 
L 637.15086 66.2863 
" style="fill:none;stroke:#000000;stroke-dasharray:3.7,1.6;stroke-dashoffset:0;"/>
   </g>
   <g id="line2d_33">
    <path clip-path="url(#p624e90e45e)" d="M 637.15086 66.2863 
L 637.15086 111.7373 
" style="fill:none;stroke:#000000;stroke-dasharray:3.7,1.6;stroke-dashoffset:0;"/>
   </g>
   <g id="line2d_34">
    <path clip-path="url(#p624e90e45e)" d="M 637.15086 111.7373 
L 637.15086 157.1883 
" style="fill:none;stroke:#000000;stroke-dasharray:3.7,1.6;stroke-dashoffset:0;"/>
   </g>
   <g id="text_1">
    <g clip-path="url(#p624e90e45e)">
     <!-- $Z$ -->
     <defs>
      <path d="M 13.09375 72.90625 
L 70.3125 72.90625 
L 68.890625 65.375 
L 12.40625 8.296875 
L 58.890625 8.296875 
L 57.328125 0 
L -2.203125 0 
L -0.78125 7.515625 
L 55.71875 64.59375 
L 11.53125 64.59375 
z
" id="DejaVuSans-Oblique-90"/>
     </defs>
     <g transform="translate(132.70486 47.147988)scale(0.13 -0.13)">
      <use transform="translate(0 0.09375)" xlink:href="#DejaVuSans-Oblique-90"/>
     </g>
    </g>
   </g>
   <g id="text_2">
    <g clip-path="url(#p624e90e45e)">
     <!-- $H$ -->
     <defs>
      <path d="M 16.890625 72.90625 
L 26.8125 72.90625 
L 21 43.015625 
L 56.78125 43.015625 
L 62.59375 72.90625 
L 72.515625 72.90625 
L 58.296875 0 
L 48.390625 0 
L 55.171875 34.71875 
L 19.390625 34.71875 
L 12.59375 0 
L 2.6875 0 
z
" id="DejaVuSans-Oblique-72"/>
     </defs>
     <g transform="translate(177.70086 47.147988)scale(0.13 -0.13)">
      <use transform="translate(0 0.09375)" xlink:href="#DejaVuSans-Oblique-72"/>
     </g>
    </g>
   </g>
   <g id="text_3">
    <g clip-path="url(#p624e90e45e)">
     <!-- $H$ -->
     <g transform="translate(268.60286 92.598988)scale(0.13 -0.13)">
      <use transform="translate(0 0.09375)" xlink:href="#DejaVuSans-Oblique-72"/>
     </g>
    </g>
   </g>
   <g id="text_4">
    <g clip-path="url(#p624e90e45e)">
     <!-- $H$ -->
     <g transform="translate(450.40686 47.147988)scale(0.13 -0.13)">
      <use transform="translate(0 0.09375)" xlink:href="#DejaVuSans-Oblique-72"/>
     </g>
    </g>
   </g>
   <g id="text_5">
    <g clip-path="url(#p624e90e45e)">
     <!-- $Z$ -->
     <g transform="translate(496.31286 138.049987)scale(0.13 -0.13)">
      <use transform="translate(0 0.09375)" xlink:href="#DejaVuSans-Oblique-90"/>
     </g>
    </g>
   </g>
   <g id="text_6">
    <g clip-path="url(#p624e90e45e)">
     <!-- $H$ -->
     <g transform="translate(541.30886 138.049987)scale(0.13 -0.13)">
      <use transform="translate(0 0.09375)" xlink:href="#DejaVuSans-Oblique-72"/>
     </g>
    </g>
   </g>
   <g id="text_7">
    <g clip-path="url(#p624e90e45e)">
     <!-- $Z$ -->
     <g transform="translate(587.21486 138.049987)scale(0.13 -0.13)">
      <use transform="translate(0 0.09375)" xlink:href="#DejaVuSans-Oblique-90"/>
     </g>
    </g>
   </g>
   <g id="text_8">
    <g clip-path="url(#p624e90e45e)">
     <!-- 0 -->
     <defs>
      <path d="M 31.78125 66.40625 
Q 24.171875 66.40625 20.328125 58.90625 
Q 16.5 51.421875 16.5 36.375 
Q 16.5 21.390625 20.328125 13.890625 
Q 24.171875 6.390625 31.78125 6.390625 
Q 39.453125 6.390625 43.28125 13.890625 
Q 47.125 21.390625 47.125 36.375 
Q 47.125 51.421875 43.28125 58.90625 
Q 39.453125 66.40625 31.78125 66.40625 
z
M 31.78125 74.21875 
Q 44.046875 74.21875 50.515625 64.515625 
Q 56.984375 54.828125 56.984375 36.375 
Q 56.984375 17.96875 50.515625 8.265625 
Q 44.046875 -1.421875 31.78125 -1.421875 
Q 19.53125 -1.421875 13.0625 8.265625 
Q 6.59375 17.96875 6.59375 36.375 
Q 6.59375 54.828125 13.0625 64.515625 
Q 19.53125 74.21875 31.78125 74.21875 
z
" id="DejaVuSans-48"/>
     </defs>
     <g transform="translate(693.96461 173.205825)scale(0.104 -0.104)">
      <use xlink:href="#DejaVuSans-48"/>
     </g>
    </g>
   </g>
   <g id="text_9">
    <g clip-path="url(#p624e90e45e)">
     <!-- 1 -->
     <defs>
      <path d="M 12.40625 8.296875 
L 28.515625 8.296875 
L 28.515625 63.921875 
L 10.984375 60.40625 
L 10.984375 69.390625 
L 28.421875 72.90625 
L 38.28125 72.90625 
L 38.28125 8.296875 
L 54.390625 8.296875 
L 54.390625 0 
L 12.40625 0 
z
" id="DejaVuSans-49"/>
     </defs>
     <g transform="translate(739.41561 173.205825)scale(0.104 -0.104)">
      <use xlink:href="#DejaVuSans-49"/>
     </g>
    </g>
   </g>
   <g id="text_10">
    <g clip-path="url(#p624e90e45e)">
     <!-- 2 -->
     <defs>
      <path d="M 19.1875 8.296875 
L 53.609375 8.296875 
L 53.609375 0 
L 7.328125 0 
L 7.328125 8.296875 
Q 12.9375 14.109375 22.625 23.890625 
Q 32.328125 33.6875 34.8125 36.53125 
Q 39.546875 41.84375 41.421875 45.53125 
Q 43.3125 49.21875 43.3125 52.78125 
Q 43.3125 58.59375 39.234375 62.25 
Q 35.15625 65.921875 28.609375 65.921875 
Q 23.96875 65.921875 18.8125 64.3125 
Q 13.671875 62.703125 7.8125 59.421875 
L 7.8125 69.390625 
Q 13.765625 71.78125 18.9375 73 
Q 24.125 74.21875 28.421875 74.21875 
Q 39.75 74.21875 46.484375 68.546875 
Q 53.21875 62.890625 53.21875 53.421875 
Q 53.21875 48.921875 51.53125 44.890625 
Q 49.859375 40.875 45.40625 35.40625 
Q 44.1875 33.984375 37.640625 27.21875 
Q 31.109375 20.453125 19.1875 8.296875 
z
" id="DejaVuSans-50"/>
     </defs>
     <g transform="translate(784.86661 173.205825)scale(0.104 -0.104)">
      <use xlink:href="#DejaVuSans-50"/>
     </g>
    </g>
   </g>
   <g id="text_11">
    <g clip-path="url(#p624e90e45e)">
     <!-- ${q}_{0}$ -->
     <defs>
      <path d="M 41.703125 8.203125 
Q 38.09375 3.46875 33.171875 1.015625 
Q 28.265625 -1.421875 22.3125 -1.421875 
Q 14.015625 -1.421875 9.296875 4.171875 
Q 4.59375 9.765625 4.59375 19.578125 
Q 4.59375 27.484375 7.5 34.859375 
Q 10.40625 42.234375 15.828125 48.09375 
Q 19.34375 51.90625 23.90625 53.953125 
Q 28.46875 56 33.5 56 
Q 39.546875 56 43.453125 53.609375 
Q 47.359375 51.21875 49.125 46.390625 
L 50.6875 54.59375 
L 59.71875 54.59375 
L 45.125 -20.609375 
L 36.078125 -20.609375 
z
M 13.921875 20.90625 
Q 13.921875 13.671875 16.9375 9.890625 
Q 19.96875 6.109375 25.6875 6.109375 
Q 34.1875 6.109375 40.1875 14.234375 
Q 46.1875 22.359375 46.1875 33.984375 
Q 46.1875 41.015625 43.078125 44.75 
Q 39.984375 48.484375 34.1875 48.484375 
Q 29.9375 48.484375 26.3125 46.5 
Q 22.703125 44.53125 20.015625 40.71875 
Q 17.1875 36.71875 15.546875 31.34375 
Q 13.921875 25.984375 13.921875 20.90625 
z
" id="DejaVuSans-Oblique-113"/>
     </defs>
     <g transform="translate(73.70136 48.011777)scale(0.1625 -0.1625)">
      <use xlink:href="#DejaVuSans-Oblique-113"/>
      <use transform="translate(63.476562 -16.40625)scale(0.7)" xlink:href="#DejaVuSans-48"/>
     </g>
    </g>
   </g>
   <g id="text_12">
    <g clip-path="url(#p624e90e45e)">
     <!-- ${q}_{1}$ -->
     <g transform="translate(73.70136 93.462777)scale(0.1625 -0.1625)">
      <use xlink:href="#DejaVuSans-Oblique-113"/>
      <use transform="translate(63.476562 -16.40625)scale(0.7)" xlink:href="#DejaVuSans-49"/>
     </g>
    </g>
   </g>
   <g id="text_13">
    <g clip-path="url(#p624e90e45e)">
     <!-- ${q}_{2}$ -->
     <g transform="translate(73.70136 138.913777)scale(0.1625 -0.1625)">
      <use xlink:href="#DejaVuSans-Oblique-113"/>
      <use transform="translate(63.476562 -16.40625)scale(0.7)" xlink:href="#DejaVuSans-50"/>
     </g>
    </g>
   </g>
   <g id="text_14">
    <g clip-path="url(#p624e90e45e)">
     <!-- 3 -->
     <defs>
      <path d="M 40.578125 39.3125 
Q 47.65625 37.796875 51.625 33 
Q 55.609375 28.21875 55.609375 21.1875 
Q 55.609375 10.40625 48.1875 4.484375 
Q 40.765625 -1.421875 27.09375 -1.421875 
Q 22.515625 -1.421875 17.65625 -0.515625 
Q 12.796875 0.390625 7.625 2.203125 
L 7.625 11.71875 
Q 11.71875 9.328125 16.59375 8.109375 
Q 21.484375 6.890625 26.8125 6.890625 
Q 36.078125 6.890625 40.9375 10.546875 
Q 45.796875 14.203125 45.796875 21.1875 
Q 45.796875 27.640625 41.28125 31.265625 
Q 36.765625 34.90625 28.71875 34.90625 
L 20.21875 34.90625 
L 20.21875 43.015625 
L 29.109375 43.015625 
Q 36.375 43.015625 40.234375 45.921875 
Q 44.09375 48.828125 44.09375 54.296875 
Q 44.09375 59.90625 40.109375 62.90625 
Q 36.140625 65.921875 28.71875 65.921875 
Q 24.65625 65.921875 20.015625 65.03125 
Q 15.375 64.15625 9.8125 62.3125 
L 9.8125 71.09375 
Q 15.4375 72.65625 20.34375 73.4375 
Q 25.25 74.21875 29.59375 74.21875 
Q 40.828125 74.21875 47.359375 69.109375 
Q 53.90625 64.015625 53.90625 55.328125 
Q 53.90625 49.265625 50.4375 45.09375 
Q 46.96875 40.921875 40.578125 39.3125 
z
" id="DejaVuSans-51"/>
     </defs>
     <g transform="translate(137.18986 173.205825)scale(0.104 -0.104)">
      <use xlink:href="#DejaVuSans-51"/>
     </g>
    </g>
   </g>
   <g id="text_15">
    <g clip-path="url(#p624e90e45e)">
     <!-- $c$ -->
     <defs>
      <path d="M 53.609375 52.59375 
L 51.8125 43.703125 
Q 48.578125 46.046875 44.9375 47.21875 
Q 41.3125 48.390625 37.40625 48.390625 
Q 33.109375 48.390625 29.21875 46.875 
Q 25.34375 45.359375 22.703125 42.578125 
Q 18.5 38.328125 16.203125 32.609375 
Q 13.921875 26.90625 13.921875 20.796875 
Q 13.921875 13.421875 17.609375 9.8125 
Q 21.296875 6.203125 28.8125 6.203125 
Q 32.515625 6.203125 36.6875 7.328125 
Q 40.875 8.453125 45.40625 10.6875 
L 43.703125 1.8125 
Q 39.796875 0.203125 35.671875 -0.609375 
Q 31.546875 -1.421875 27.203125 -1.421875 
Q 16.3125 -1.421875 10.453125 4.015625 
Q 4.59375 9.46875 4.59375 19.578125 
Q 4.59375 28.078125 7.640625 35.234375 
Q 10.6875 42.390625 16.703125 48.09375 
Q 20.796875 52 26.3125 54 
Q 31.84375 56 38.375 56 
Q 42.1875 56 45.9375 55.140625 
Q 49.703125 54.296875 53.609375 52.59375 
z
" id="DejaVuSans-Oblique-99"/>
     </defs>
     <g transform="translate(81.01386 185.294581)scale(0.195 -0.195)">
      <use xlink:href="#DejaVuSans-Oblique-99"/>
     </g>
    </g>
   </g>
  </g>
 </g>
 <defs>
  <clipPath id="p624e90e45e">
   <rect height="199.9844" width="816.29996" x="7.2" y="7.2"/>
  </clipPath>
 </defs>
</svg>
