<?xml version="1.0" encoding="utf-8" standalone="no"?>
<!DOCTYPE svg PUBLIC "-//W3C//DTD SVG 1.1//EN"
  "http://www.w3.org/Graphics/SVG/1.1/DTD/svg11.dtd">
<!-- Created with matplotlib (https://matplotlib.org/) -->
<svg height="214.3844pt" version="1.1" viewBox="0 0 975.23414 214.3844" width="975.23414pt" xmlns="http://www.w3.org/2000/svg" xmlns:xlink="http://www.w3.org/1999/xlink">
 <defs>
  <style type="text/css">
*{stroke-linecap:butt;stroke-linejoin:round;}
  </style>
 </defs>
 <g id="figure_1">
  <g id="patch_1">
   <path d="M 0 214.3844 
L 975.23414 214.3844 
L 975.23414 0 
L 0 0 
z
" style="fill:#ffffff;"/>
  </g>
  <g id="axes_1">
   <g id="patch_2">
    <path clip-path="url(#pc7289fba48)" d="M 821.22741 169.573697 
L 833.04467 169.573697 
L 827.13604 179.9138 
z
" style="fill:#778899;"/>
   </g>
   <g id="patch_3">
    <path clip-path="url(#pc7289fba48)" d="M 866.67841 169.573697 
L 878.49567 169.573697 
L 872.58704 179.9138 
z
" style="fill:#778899;"/>
   </g>
   <g id="patch_4">
    <path clip-path="url(#pc7289fba48)" d="M 912.12941 169.573697 
L 923.94667 169.573697 
L 918.03804 179.9138 
z
" style="fill:#778899;"/>
   </g>
   <g id="line2d_1">
    <path clip-path="url(#pc7289fba48)" d="M 122.64554 43.5608 
L 963.48904 43.5608 
" style="fill:none;stroke:#000000;stroke-linecap:square;stroke-width:2;"/>
   </g>
   <g id="line2d_2">
    <path clip-path="url(#pc7289fba48)" d="M 122.64554 89.0118 
L 963.48904 89.0118 
" style="fill:none;stroke:#000000;stroke-linecap:square;stroke-width:2;"/>
   </g>
   <g id="line2d_3">
    <path clip-path="url(#pc7289fba48)" d="M 122.64554 134.4628 
L 963.48904 134.4628 
" style="fill:none;stroke:#000000;stroke-linecap:square;stroke-width:2;"/>
   </g>
   <g id="line2d_4">
    <path clip-path="url(#pc7289fba48)" d="M 122.64554 178.436643 
L 963.48904 178.436643 
" style="fill:none;stroke:#778899;stroke-linecap:square;stroke-width:2;"/>
   </g>
   <g id="line2d_5">
    <path clip-path="url(#pc7289fba48)" d="M 122.64554 181.390958 
L 963.48904 181.390958 
" style="fill:none;stroke:#778899;stroke-linecap:square;stroke-width:2;"/>
   </g>
   <g id="patch_5">
    <path clip-path="url(#pc7289fba48)" d="M 181.959095 157.1883 
L 199.684985 157.1883 
L 199.684985 20.8353 
L 181.959095 20.8353 
z
" style="fill:#bdbdbd;opacity:0.6;"/>
   </g>
   <g id="patch_6">
    <path clip-path="url(#pc7289fba48)" d="M 318.312095 157.1883 
L 336.037985 157.1883 
L 336.037985 20.8353 
L 318.312095 20.8353 
z
" style="fill:#bdbdbd;opacity:0.6;"/>
   </g>
   <g id="patch_7">
    <path clip-path="url(#pc7289fba48)" d="M 454.665095 157.1883 
L 472.390985 157.1883 
L 472.390985 20.8353 
L 454.665095 20.8353 
z
" style="fill:#bdbdbd;opacity:0.6;"/>
   </g>
   <g id="patch_8">
    <path clip-path="url(#pc7289fba48)" d="M 636.469095 157.1883 
L 654.194985 157.1883 
L 654.194985 20.8353 
L 636.469095 20.8353 
z
" style="fill:#bdbdbd;opacity:0.6;"/>
   </g>
   <g id="patch_9">
    <path clip-path="url(#pc7289fba48)" d="M 772.822095 157.1883 
L 790.547985 157.1883 
L 790.547985 20.8353 
L 772.822095 20.8353 
z
" style="fill:#bdbdbd;opacity:0.6;"/>
   </g>
   <g id="line2d_6">
    <path clip-path="url(#pc7289fba48)" d="M 236.27304 134.4628 
L 236.27304 43.5608 
" style="fill:none;stroke:#bb8bff;stroke-linecap:square;stroke-width:2;"/>
   </g>
   <g id="line2d_7">
    <path clip-path="url(#pc7289fba48)" d="M 281.72404 134.4628 
L 281.72404 89.0118 
" style="fill:none;stroke:#bb8bff;stroke-linecap:square;stroke-width:2;"/>
   </g>
   <g id="line2d_8">
    <path clip-path="url(#pc7289fba48)" d="M 554.43004 134.4628 
L 554.43004 43.5608 
" style="fill:none;stroke:#bb8bff;stroke-linecap:square;stroke-width:2;"/>
   </g>
   <g id="line2d_9">
    <path clip-path="url(#pc7289fba48)" d="M 828.613197 43.5608 
L 828.613197 169.573697 
" style="fill:none;stroke:#778899;stroke-linecap:square;stroke-width:2;"/>
   </g>
   <g id="line2d_10">
    <path clip-path="url(#pc7289fba48)" d="M 825.658883 43.5608 
L 825.658883 169.573697 
" style="fill:none;stroke:#778899;stroke-linecap:square;stroke-width:2;"/>
   </g>
   <g id="line2d_11">
    <path clip-path="url(#pc7289fba48)" d="M 874.064197 89.0118 
L 874.064197 169.573697 
" style="fill:none;stroke:#778899;stroke-linecap:square;stroke-width:2;"/>
   </g>
   <g id="line2d_12">
    <path clip-path="url(#pc7289fba48)" d="M 871.109883 89.0118 
L 871.109883 169.573697 
" style="fill:none;stroke:#778899;stroke-linecap:square;stroke-width:2;"/>
   </g>
   <g id="line2d_13">
    <path clip-path="url(#pc7289fba48)" d="M 919.515197 134.4628 
L 919.515197 169.573697 
" style="fill:none;stroke:#778899;stroke-linecap:square;stroke-width:2;"/>
   </g>
   <g id="line2d_14">
    <path clip-path="url(#pc7289fba48)" d="M 916.560883 134.4628 
L 916.560883 169.573697 
" style="fill:none;stroke:#778899;stroke-linecap:square;stroke-width:2;"/>
   </g>
   <g id="line2d_15">
    <path clip-path="url(#pc7289fba48)" d="M 149.91614 184.4589 
L 154.46124 175.3687 
" style="fill:none;stroke:#778899;stroke-linecap:square;stroke-width:1.5;"/>
   </g>
   <g id="patch_10">
    <path clip-path="url(#pc7289fba48)" d="M 130.599465 58.332375 
L 160.142615 58.332375 
L 160.142615 28.789225 
L 130.599465 28.789225 
z
" style="fill:#6fa4ff;"/>
   </g>
   <g id="patch_11">
    <path clip-path="url(#pc7289fba48)" d="M 130.599465 103.783375 
L 160.142615 103.783375 
L 160.142615 74.240225 
L 130.599465 74.240225 
z
" style="fill:#6fa4ff;"/>
   </g>
   <g id="patch_12">
    <path clip-path="url(#pc7289fba48)" d="M 130.599465 149.234375 
L 160.142615 149.234375 
L 160.142615 119.691225 
L 130.599465 119.691225 
z
" style="fill:#6fa4ff;"/>
   </g>
   <g id="patch_13">
    <path clip-path="url(#pc7289fba48)" d="M 236.27304 138.894273 
C 237.44828 138.894273 238.575544 138.427345 239.406564 137.596324 
C 240.237585 136.765304 240.704513 135.63804 240.704513 134.4628 
C 240.704513 133.28756 240.237585 132.160296 239.406564 131.329276 
C 238.575544 130.498255 237.44828 130.031328 236.27304 130.031328 
C 235.0978 130.031328 233.970536 130.498255 233.139516 131.329276 
C 232.308495 132.160296 231.841568 133.28756 231.841568 134.4628 
C 231.841568 135.63804 232.308495 136.765304 233.139516 137.596324 
C 233.970536 138.427345 235.0978 138.894273 236.27304 138.894273 
z
" style="fill:#bb8bff;stroke:#bb8bff;stroke-linejoin:miter;stroke-width:1.5;"/>
   </g>
   <g id="patch_14">
    <path clip-path="url(#pc7289fba48)" d="M 221.501465 58.332375 
L 251.044615 58.332375 
L 251.044615 28.789225 
L 221.501465 28.789225 
z
" style="fill:#bb8bff;"/>
   </g>
   <g id="patch_15">
    <path clip-path="url(#pc7289fba48)" d="M 281.72404 138.894273 
C 282.89928 138.894273 284.026544 138.427345 284.857564 137.596324 
C 285.688585 136.765304 286.155512 135.63804 286.155512 134.4628 
C 286.155512 133.28756 285.688585 132.160296 284.857564 131.329276 
C 284.026544 130.498255 282.89928 130.031328 281.72404 130.031328 
C 280.5488 130.031328 279.421536 130.498255 278.590516 131.329276 
C 277.759495 132.160296 277.292568 133.28756 277.292568 134.4628 
C 277.292568 135.63804 277.759495 136.765304 278.590516 137.596324 
C 279.421536 138.427345 280.5488 138.894273 281.72404 138.894273 
z
" style="fill:#bb8bff;stroke:#bb8bff;stroke-linejoin:miter;stroke-width:1.5;"/>
   </g>
   <g id="patch_16">
    <path clip-path="url(#pc7289fba48)" d="M 266.952465 103.783375 
L 296.495615 103.783375 
L 296.495615 74.240225 
L 266.952465 74.240225 
z
" style="fill:#bb8bff;"/>
   </g>
   <g id="patch_17">
    <path clip-path="url(#pc7289fba48)" d="M 357.854465 58.332375 
L 387.397615 58.332375 
L 387.397615 28.789225 
L 357.854465 28.789225 
z
" style="fill:#6fa4ff;"/>
   </g>
   <g id="patch_18">
    <path clip-path="url(#pc7289fba48)" d="M 357.854465 103.783375 
L 387.397615 103.783375 
L 387.397615 74.240225 
L 357.854465 74.240225 
z
" style="fill:#6fa4ff;"/>
   </g>
   <g id="patch_19">
    <path clip-path="url(#pc7289fba48)" d="M 357.854465 149.234375 
L 387.397615 149.234375 
L 387.397615 119.691225 
L 357.854465 119.691225 
z
" style="fill:#6fa4ff;"/>
   </g>
   <g id="patch_20">
    <path clip-path="url(#pc7289fba48)" d="M 403.305465 58.332375 
L 432.848615 58.332375 
L 432.848615 28.789225 
L 403.305465 28.789225 
z
" style="fill:#05bab6;"/>
   </g>
   <g id="patch_21">
    <path clip-path="url(#pc7289fba48)" d="M 403.305465 103.783375 
L 432.848615 103.783375 
L 432.848615 74.240225 
L 403.305465 74.240225 
z
" style="fill:#05bab6;"/>
   </g>
   <g id="patch_22">
    <path clip-path="url(#pc7289fba48)" d="M 403.305465 149.234375 
L 432.848615 149.234375 
L 432.848615 119.691225 
L 403.305465 119.691225 
z
" style="fill:#05bab6;"/>
   </g>
   <g id="patch_23">
    <path clip-path="url(#pc7289fba48)" d="M 494.207465 149.234375 
L 523.750615 149.234375 
L 523.750615 119.691225 
L 494.207465 119.691225 
z
" style="fill:#6fa4ff;"/>
   </g>
   <g id="patch_24">
    <path clip-path="url(#pc7289fba48)" d="M 554.43004 47.992272 
C 555.60528 47.992272 556.732544 47.525345 557.563564 46.694324 
C 558.394585 45.863304 558.861513 44.73604 558.861513 43.5608 
C 558.861513 42.38556 558.394585 41.258296 557.563564 40.427276 
C 556.732544 39.596255 555.60528 39.129328 554.43004 39.129328 
C 553.2548 39.129328 552.127536 39.596255 551.296516 40.427276 
C 550.465495 41.258296 549.998567 42.38556 549.998567 43.5608 
C 549.998567 44.73604 550.465495 45.863304 551.296516 46.694324 
C 552.127536 47.525345 553.2548 47.992272 554.43004 47.992272 
z
" style="fill:#bb8bff;stroke:#bb8bff;stroke-linejoin:miter;stroke-width:1.5;"/>
   </g>
   <g id="patch_25">
    <path clip-path="url(#pc7289fba48)" d="M 554.43004 93.443272 
C 555.60528 93.443272 556.732544 92.976345 557.563564 92.145324 
C 558.394585 91.314304 558.861513 90.18704 558.861513 89.0118 
C 558.861513 87.83656 558.394585 86.709296 557.563564 85.878276 
C 556.732544 85.047255 555.60528 84.580327 554.43004 84.580327 
C 553.2548 84.580327 552.127536 85.047255 551.296516 85.878276 
C 550.465495 86.709296 549.998567 87.83656 549.998567 89.0118 
C 549.998567 90.18704 550.465495 91.314304 551.296516 92.145324 
C 552.127536 92.976345 553.2548 93.443272 554.43004 93.443272 
z
" style="fill:#bb8bff;stroke:#bb8bff;stroke-linejoin:miter;stroke-width:1.5;"/>
   </g>
   <g id="patch_26">
    <path clip-path="url(#pc7289fba48)" d="M 554.43004 144.802903 
C 557.172267 144.802903 559.802549 143.713404 561.741597 141.774357 
C 563.680644 139.835309 564.770142 137.205027 564.770142 134.4628 
C 564.770142 131.720573 563.680644 129.090291 561.741597 127.151243 
C 559.802549 125.212196 557.172267 124.122698 554.43004 124.122698 
C 551.687813 124.122698 549.057531 125.212196 547.118483 127.151243 
C 545.179436 129.090291 544.089938 131.720573 544.089938 134.4628 
C 544.089938 137.205027 545.179436 139.835309 547.118483 141.774357 
C 549.057531 143.713404 551.687813 144.802903 554.43004 144.802903 
z
" style="fill:#bb8bff;stroke:#bb8bff;stroke-linejoin:miter;stroke-width:2;"/>
   </g>
   <g id="patch_27">
    <path clip-path="url(#pc7289fba48)" d="M 585.109465 149.234375 
L 614.652615 149.234375 
L 614.652615 119.691225 
L 585.109465 119.691225 
z
" style="fill:#6fa4ff;"/>
   </g>
   <g id="patch_28">
    <path clip-path="url(#pc7289fba48)" d="M 676.011465 58.332375 
L 705.554615 58.332375 
L 705.554615 28.789225 
L 676.011465 28.789225 
z
" style="fill:#05bab6;"/>
   </g>
   <g id="patch_29">
    <path clip-path="url(#pc7289fba48)" d="M 676.011465 103.783375 
L 705.554615 103.783375 
L 705.554615 74.240225 
L 676.011465 74.240225 
z
" style="fill:#05bab6;"/>
   </g>
   <g id="patch_30">
    <path clip-path="url(#pc7289fba48)" d="M 676.011465 149.234375 
L 705.554615 149.234375 
L 705.554615 119.691225 
L 676.011465 119.691225 
z
" style="fill:#05bab6;"/>
   </g>
   <g id="patch_31">
    <path clip-path="url(#pc7289fba48)" d="M 721.462465 58.332375 
L 751.005615 58.332375 
L 751.005615 28.789225 
L 721.462465 28.789225 
z
" style="fill:#6fa4ff;"/>
   </g>
   <g id="patch_32">
    <path clip-path="url(#pc7289fba48)" d="M 721.462465 103.783375 
L 751.005615 103.783375 
L 751.005615 74.240225 
L 721.462465 74.240225 
z
" style="fill:#6fa4ff;"/>
   </g>
   <g id="patch_33">
    <path clip-path="url(#pc7289fba48)" d="M 721.462465 149.234375 
L 751.005615 149.234375 
L 751.005615 119.691225 
L 721.462465 119.691225 
z
" style="fill:#6fa4ff;"/>
   </g>
   <g id="patch_34">
    <path clip-path="url(#pc7289fba48)" d="M 812.364465 58.332375 
L 841.907615 58.332375 
L 841.907615 28.789225 
L 812.364465 28.789225 
z
"/>
   </g>
   <g id="patch_35">
    <path clip-path="url(#pc7289fba48)" d="M 837.476142 47.992273 
C 837.476142 45.250959 836.385998 42.619118 834.447597 40.680716 
C 832.509195 38.742314 829.877354 37.65217 827.13604 37.65217 
C 824.394726 37.65217 821.762885 38.742314 819.824483 40.680716 
C 817.886082 42.619118 816.795938 45.250959 816.795938 47.992273 
" style="fill:none;stroke:#ffffff;stroke-linejoin:miter;stroke-width:2;"/>
   </g>
   <g id="patch_36">
    <path clip-path="url(#pc7289fba48)" d="M 857.815465 103.783375 
L 887.358615 103.783375 
L 887.358615 74.240225 
L 857.815465 74.240225 
z
"/>
   </g>
   <g id="patch_37">
    <path clip-path="url(#pc7289fba48)" d="M 882.927142 93.443273 
C 882.927142 90.701959 881.836998 88.070118 879.898597 86.131716 
C 877.960195 84.193314 875.328354 83.10317 872.58704 83.10317 
C 869.845726 83.10317 867.213885 84.193314 865.275483 86.131716 
C 863.337082 88.070118 862.246938 90.701959 862.246938 93.443273 
" style="fill:none;stroke:#ffffff;stroke-linejoin:miter;stroke-width:2;"/>
   </g>
   <g id="patch_38">
    <path clip-path="url(#pc7289fba48)" d="M 903.266465 149.234375 
L 932.809615 149.234375 
L 932.809615 119.691225 
L 903.266465 119.691225 
z
"/>
   </g>
   <g id="patch_39">
    <path clip-path="url(#pc7289fba48)" d="M 928.378142 138.894272 
C 928.378142 136.152959 927.287998 133.521118 925.349597 131.582716 
C 923.411195 129.644314 920.779354 128.55417 918.03804 128.55417 
C 915.296726 128.55417 912.664885 129.644314 910.726483 131.582716 
C 908.788082 133.521118 907.697937 136.152959 907.697937 138.894272 
" style="fill:none;stroke:#ffffff;stroke-linejoin:miter;stroke-width:2;"/>
   </g>
   <g id="line2d_16">
    <path clip-path="url(#pc7289fba48)" d="M 827.13604 47.992272 
L 837.476142 37.65217 
" style="fill:none;stroke:#ffffff;stroke-linecap:square;stroke-width:2;"/>
   </g>
   <g id="line2d_17">
    <path clip-path="url(#pc7289fba48)" d="M 872.58704 93.443273 
L 882.927142 83.10317 
" style="fill:none;stroke:#ffffff;stroke-linecap:square;stroke-width:2;"/>
   </g>
   <g id="line2d_18">
    <path clip-path="url(#pc7289fba48)" d="M 918.03804 138.894272 
L 928.378142 128.55417 
" style="fill:none;stroke:#ffffff;stroke-linecap:square;stroke-width:2;"/>
   </g>
   <g id="line2d_19">
    <path clip-path="url(#pc7289fba48)" d="M 190.82204 20.8353 
L 190.82204 66.2863 
" style="fill:none;stroke:#000000;stroke-dasharray:3.7,1.6;stroke-dashoffset:0;"/>
   </g>
   <g id="line2d_20">
    <path clip-path="url(#pc7289fba48)" d="M 190.82204 66.2863 
L 190.82204 111.7373 
" style="fill:none;stroke:#000000;stroke-dasharray:3.7,1.6;stroke-dashoffset:0;"/>
   </g>
   <g id="line2d_21">
    <path clip-path="url(#pc7289fba48)" d="M 190.82204 111.7373 
L 190.82204 157.1883 
" style="fill:none;stroke:#000000;stroke-dasharray:3.7,1.6;stroke-dashoffset:0;"/>
   </g>
   <g id="line2d_22">
    <path clip-path="url(#pc7289fba48)" d="M 327.17504 20.8353 
L 327.17504 66.2863 
" style="fill:none;stroke:#000000;stroke-dasharray:3.7,1.6;stroke-dashoffset:0;"/>
   </g>
   <g id="line2d_23">
    <path clip-path="url(#pc7289fba48)" d="M 327.17504 66.2863 
L 327.17504 111.7373 
" style="fill:none;stroke:#000000;stroke-dasharray:3.7,1.6;stroke-dashoffset:0;"/>
   </g>
   <g id="line2d_24">
    <path clip-path="url(#pc7289fba48)" d="M 327.17504 111.7373 
L 327.17504 157.1883 
" style="fill:none;stroke:#000000;stroke-dasharray:3.7,1.6;stroke-dashoffset:0;"/>
   </g>
   <g id="line2d_25">
    <path clip-path="url(#pc7289fba48)" d="M 463.52804 20.8353 
L 463.52804 66.2863 
" style="fill:none;stroke:#000000;stroke-dasharray:3.7,1.6;stroke-dashoffset:0;"/>
   </g>
   <g id="line2d_26">
    <path clip-path="url(#pc7289fba48)" d="M 463.52804 66.2863 
L 463.52804 111.7373 
" style="fill:none;stroke:#000000;stroke-dasharray:3.7,1.6;stroke-dashoffset:0;"/>
   </g>
   <g id="line2d_27">
    <path clip-path="url(#pc7289fba48)" d="M 463.52804 111.7373 
L 463.52804 157.1883 
" style="fill:none;stroke:#000000;stroke-dasharray:3.7,1.6;stroke-dashoffset:0;"/>
   </g>
   <g id="line2d_28">
    <path clip-path="url(#pc7289fba48)" d="M 554.43004 140.37143 
L 554.43004 128.55417 
" style="fill:none;stroke:#ffffff;stroke-linecap:square;stroke-width:2;"/>
   </g>
   <g id="line2d_29">
    <path clip-path="url(#pc7289fba48)" d="M 548.52141 134.4628 
L 560.33867 134.4628 
" style="fill:none;stroke:#ffffff;stroke-linecap:square;stroke-width:2;"/>
   </g>
   <g id="line2d_30">
    <path clip-path="url(#pc7289fba48)" d="M 645.33204 20.8353 
L 645.33204 66.2863 
" style="fill:none;stroke:#000000;stroke-dasharray:3.7,1.6;stroke-dashoffset:0;"/>
   </g>
   <g id="line2d_31">
    <path clip-path="url(#pc7289fba48)" d="M 645.33204 66.2863 
L 645.33204 111.7373 
" style="fill:none;stroke:#000000;stroke-dasharray:3.7,1.6;stroke-dashoffset:0;"/>
   </g>
   <g id="line2d_32">
    <path clip-path="url(#pc7289fba48)" d="M 645.33204 111.7373 
L 645.33204 157.1883 
" style="fill:none;stroke:#000000;stroke-dasharray:3.7,1.6;stroke-dashoffset:0;"/>
   </g>
   <g id="line2d_33">
    <path clip-path="url(#pc7289fba48)" d="M 781.68504 20.8353 
L 781.68504 66.2863 
" style="fill:none;stroke:#000000;stroke-dasharray:3.7,1.6;stroke-dashoffset:0;"/>
   </g>
   <g id="line2d_34">
    <path clip-path="url(#pc7289fba48)" d="M 781.68504 66.2863 
L 781.68504 111.7373 
" style="fill:none;stroke:#000000;stroke-dasharray:3.7,1.6;stroke-dashoffset:0;"/>
   </g>
   <g id="line2d_35">
    <path clip-path="url(#pc7289fba48)" d="M 781.68504 111.7373 
L 781.68504 157.1883 
" style="fill:none;stroke:#000000;stroke-dasharray:3.7,1.6;stroke-dashoffset:0;"/>
   </g>
   <g id="text_1">
    <g clip-path="url(#pc7289fba48)">
     <!-- $H$ -->
     <defs>
      <path d="M 16.890625 72.90625 
L 26.8125 72.90625 
L 21 43.015625 
L 56.78125 43.015625 
L 62.59375 72.90625 
L 72.515625 72.90625 
L 58.296875 0 
L 48.390625 0 
L 55.171875 34.71875 
L 19.390625 34.71875 
L 12.59375 0 
L 2.6875 0 
z
" id="DejaVuSans-Oblique-72"/>
     </defs>
     <g transform="translate(140.43104 47.147987)scale(0.13 -0.13)">
      <use transform="translate(0 0.09375)" xlink:href="#DejaVuSans-Oblique-72"/>
     </g>
    </g>
   </g>
   <g id="text_2">
    <g clip-path="url(#pc7289fba48)">
     <!-- $H$ -->
     <g transform="translate(140.43104 92.598987)scale(0.13 -0.13)">
      <use transform="translate(0 0.09375)" xlink:href="#DejaVuSans-Oblique-72"/>
     </g>
    </g>
   </g>
   <g id="text_3">
    <g clip-path="url(#pc7289fba48)">
     <!-- $H$ -->
     <g transform="translate(140.43104 138.049987)scale(0.13 -0.13)">
      <use transform="translate(0 0.09375)" xlink:href="#DejaVuSans-Oblique-72"/>
     </g>
    </g>
   </g>
   <g id="text_4">
    <g clip-path="url(#pc7289fba48)">
     <!-- $Z$ -->
     <defs>
      <path d="M 13.09375 72.90625 
L 70.3125 72.90625 
L 68.890625 65.375 
L 12.40625 8.296875 
L 58.890625 8.296875 
L 57.328125 0 
L -2.203125 0 
L -0.78125 7.515625 
L 55.71875 64.59375 
L 11.53125 64.59375 
z
" id="DejaVuSans-Oblique-90"/>
     </defs>
     <g transform="translate(231.78804 47.147987)scale(0.13 -0.13)">
      <use transform="translate(0 0.09375)" xlink:href="#DejaVuSans-Oblique-90"/>
     </g>
    </g>
   </g>
   <g id="text_5">
    <g clip-path="url(#pc7289fba48)">
     <!-- $Z$ -->
     <g transform="translate(277.23904 92.598987)scale(0.13 -0.13)">
      <use transform="translate(0 0.09375)" xlink:href="#DejaVuSans-Oblique-90"/>
     </g>
    </g>
   </g>
   <g id="text_6">
    <g clip-path="url(#pc7289fba48)">
     <!-- $H$ -->
     <g transform="translate(367.68604 47.147987)scale(0.13 -0.13)">
      <use transform="translate(0 0.09375)" xlink:href="#DejaVuSans-Oblique-72"/>
     </g>
    </g>
   </g>
   <g id="text_7">
    <g clip-path="url(#pc7289fba48)">
     <!-- $H$ -->
     <g transform="translate(367.68604 92.598987)scale(0.13 -0.13)">
      <use transform="translate(0 0.09375)" xlink:href="#DejaVuSans-Oblique-72"/>
     </g>
    </g>
   </g>
   <g id="text_8">
    <g clip-path="url(#pc7289fba48)">
     <!-- $H$ -->
     <g transform="translate(367.68604 138.049987)scale(0.13 -0.13)">
      <use transform="translate(0 0.09375)" xlink:href="#DejaVuSans-Oblique-72"/>
     </g>
    </g>
   </g>
   <g id="text_9">
    <g clip-path="url(#pc7289fba48)">
     <!-- $X$ -->
     <defs>
      <path d="M 13.71875 72.90625 
L 23.6875 72.90625 
L 36.1875 46.578125 
L 58.796875 72.90625 
L 70.3125 72.90625 
L 40.28125 38.09375 
L 58.40625 0 
L 48.484375 0 
L 33.796875 30.71875 
L 7.171875 0 
L -4.296875 0 
L 29.78125 39.203125 
z
" id="DejaVuSans-Oblique-88"/>
     </defs>
     <g transform="translate(413.59204 47.147987)scale(0.13 -0.13)">
      <use transform="translate(0 0.09375)" xlink:href="#DejaVuSans-Oblique-88"/>
     </g>
    </g>
   </g>
   <g id="text_10">
    <g clip-path="url(#pc7289fba48)">
     <!-- $X$ -->
     <g transform="translate(413.59204 92.598987)scale(0.13 -0.13)">
      <use transform="translate(0 0.09375)" xlink:href="#DejaVuSans-Oblique-88"/>
     </g>
    </g>
   </g>
   <g id="text_11">
    <g clip-path="url(#pc7289fba48)">
     <!-- $X$ -->
     <g transform="translate(413.59204 138.049987)scale(0.13 -0.13)">
      <use transform="translate(0 0.09375)" xlink:href="#DejaVuSans-Oblique-88"/>
     </g>
    </g>
   </g>
   <g id="text_12">
    <g clip-path="url(#pc7289fba48)">
     <!-- $H$ -->
     <g transform="translate(504.03904 138.049987)scale(0.13 -0.13)">
      <use transform="translate(0 0.09375)" xlink:href="#DejaVuSans-Oblique-72"/>
     </g>
    </g>
   </g>
   <g id="text_13">
    <g clip-path="url(#pc7289fba48)">
     <!-- $H$ -->
     <g transform="translate(594.94104 138.049987)scale(0.13 -0.13)">
      <use transform="translate(0 0.09375)" xlink:href="#DejaVuSans-Oblique-72"/>
     </g>
    </g>
   </g>
   <g id="text_14">
    <g clip-path="url(#pc7289fba48)">
     <!-- $X$ -->
     <g transform="translate(686.29804 47.147987)scale(0.13 -0.13)">
      <use transform="translate(0 0.09375)" xlink:href="#DejaVuSans-Oblique-88"/>
     </g>
    </g>
   </g>
   <g id="text_15">
    <g clip-path="url(#pc7289fba48)">
     <!-- $X$ -->
     <g transform="translate(686.29804 92.598987)scale(0.13 -0.13)">
      <use transform="translate(0 0.09375)" xlink:href="#DejaVuSans-Oblique-88"/>
     </g>
    </g>
   </g>
   <g id="text_16">
    <g clip-path="url(#pc7289fba48)">
     <!-- $X$ -->
     <g transform="translate(686.29804 138.049987)scale(0.13 -0.13)">
      <use transform="translate(0 0.09375)" xlink:href="#DejaVuSans-Oblique-88"/>
     </g>
    </g>
   </g>
   <g id="text_17">
    <g clip-path="url(#pc7289fba48)">
     <!-- $H$ -->
     <g transform="translate(731.29404 47.147987)scale(0.13 -0.13)">
      <use transform="translate(0 0.09375)" xlink:href="#DejaVuSans-Oblique-72"/>
     </g>
    </g>
   </g>
   <g id="text_18">
    <g clip-path="url(#pc7289fba48)">
     <!-- $H$ -->
     <g transform="translate(731.29404 92.598987)scale(0.13 -0.13)">
      <use transform="translate(0 0.09375)" xlink:href="#DejaVuSans-Oblique-72"/>
     </g>
    </g>
   </g>
   <g id="text_19">
    <g clip-path="url(#pc7289fba48)">
     <!-- $H$ -->
     <g transform="translate(731.29404 138.049987)scale(0.13 -0.13)">
      <use transform="translate(0 0.09375)" xlink:href="#DejaVuSans-Oblique-72"/>
     </g>
    </g>
   </g>
   <g id="text_20">
    <g clip-path="url(#pc7289fba48)">
     <!-- 0 -->
     <defs>
      <path d="M 31.78125 66.40625 
Q 24.171875 66.40625 20.328125 58.90625 
Q 16.5 51.421875 16.5 36.375 
Q 16.5 21.390625 20.328125 13.890625 
Q 24.171875 6.390625 31.78125 6.390625 
Q 39.453125 6.390625 43.28125 13.890625 
Q 47.125 21.390625 47.125 36.375 
Q 47.125 51.421875 43.28125 58.90625 
Q 39.453125 66.40625 31.78125 66.40625 
z
M 31.78125 74.21875 
Q 44.046875 74.21875 50.515625 64.515625 
Q 56.984375 54.828125 56.984375 36.375 
Q 56.984375 17.96875 50.515625 8.265625 
Q 44.046875 -1.421875 31.78125 -1.421875 
Q 19.53125 -1.421875 13.0625 8.265625 
Q 6.59375 17.96875 6.59375 36.375 
Q 6.59375 54.828125 13.0625 64.515625 
Q 19.53125 74.21875 31.78125 74.21875 
z
" id="DejaVuSans-48"/>
     </defs>
     <g transform="translate(838.49879 173.205825)scale(0.104 -0.104)">
      <use xlink:href="#DejaVuSans-48"/>
     </g>
    </g>
   </g>
   <g id="text_21">
    <g clip-path="url(#pc7289fba48)">
     <!-- 1 -->
     <defs>
      <path d="M 12.40625 8.296875 
L 28.515625 8.296875 
L 28.515625 63.921875 
L 10.984375 60.40625 
L 10.984375 69.390625 
L 28.421875 72.90625 
L 38.28125 72.90625 
L 38.28125 8.296875 
L 54.390625 8.296875 
L 54.390625 0 
L 12.40625 0 
z
" id="DejaVuSans-49"/>
     </defs>
     <g transform="translate(883.94979 173.205825)scale(0.104 -0.104)">
      <use xlink:href="#DejaVuSans-49"/>
     </g>
    </g>
   </g>
   <g id="text_22">
    <g clip-path="url(#pc7289fba48)">
     <!-- 2 -->
     <defs>
      <path d="M 19.1875 8.296875 
L 53.609375 8.296875 
L 53.609375 0 
L 7.328125 0 
L 7.328125 8.296875 
Q 12.9375 14.109375 22.625 23.890625 
Q 32.328125 33.6875 34.8125 36.53125 
Q 39.546875 41.84375 41.421875 45.53125 
Q 43.3125 49.21875 43.3125 52.78125 
Q 43.3125 58.59375 39.234375 62.25 
Q 35.15625 65.921875 28.609375 65.921875 
Q 23.96875 65.921875 18.8125 64.3125 
Q 13.671875 62.703125 7.8125 59.421875 
L 7.8125 69.390625 
Q 13.765625 71.78125 18.9375 73 
Q 24.125 74.21875 28.421875 74.21875 
Q 39.75 74.21875 46.484375 68.546875 
Q 53.21875 62.890625 53.21875 53.421875 
Q 53.21875 48.921875 51.53125 44.890625 
Q 49.859375 40.875 45.40625 35.40625 
Q 44.1875 33.984375 37.640625 27.21875 
Q 31.109375 20.453125 19.1875 8.296875 
z
" id="DejaVuSans-50"/>
     </defs>
     <g transform="translate(929.40079 173.205825)scale(0.104 -0.104)">
      <use xlink:href="#DejaVuSans-50"/>
     </g>
    </g>
   </g>
   <g id="text_23">
    <g clip-path="url(#pc7289fba48)">
     <!-- ${q1}_{0}$ -->
     <defs>
      <path d="M 41.703125 8.203125 
Q 38.09375 3.46875 33.171875 1.015625 
Q 28.265625 -1.421875 22.3125 -1.421875 
Q 14.015625 -1.421875 9.296875 4.171875 
Q 4.59375 9.765625 4.59375 19.578125 
Q 4.59375 27.484375 7.5 34.859375 
Q 10.40625 42.234375 15.828125 48.09375 
Q 19.34375 51.90625 23.90625 53.953125 
Q 28.46875 56 33.5 56 
Q 39.546875 56 43.453125 53.609375 
Q 47.359375 51.21875 49.125 46.390625 
L 50.6875 54.59375 
L 59.71875 54.59375 
L 45.125 -20.609375 
L 36.078125 -20.609375 
z
M 13.921875 20.90625 
Q 13.921875 13.671875 16.9375 9.890625 
Q 19.96875 6.109375 25.6875 6.109375 
Q 34.1875 6.109375 40.1875 14.234375 
Q 46.1875 22.359375 46.1875 33.984375 
Q 46.1875 41.015625 43.078125 44.75 
Q 39.984375 48.484375 34.1875 48.484375 
Q 29.9375 48.484375 26.3125 46.5 
Q 22.703125 44.53125 20.015625 40.71875 
Q 17.1875 36.71875 15.546875 31.34375 
Q 13.921875 25.984375 13.921875 20.90625 
z
" id="DejaVuSans-Oblique-113"/>
     </defs>
     <g transform="translate(71.32004 48.011777)scale(0.1625 -0.1625)">
      <use transform="translate(0 0.09375)" xlink:href="#DejaVuSans-Oblique-113"/>
      <use transform="translate(63.476562 0.09375)" xlink:href="#DejaVuSans-49"/>
      <use transform="translate(128.056641 -16.3125)scale(0.7)" xlink:href="#DejaVuSans-48"/>
     </g>
    </g>
   </g>
   <g id="text_24">
    <g clip-path="url(#pc7289fba48)">
     <!-- ${q1}_{1}$ -->
     <g transform="translate(71.32004 93.462777)scale(0.1625 -0.1625)">
      <use transform="translate(0 0.09375)" xlink:href="#DejaVuSans-Oblique-113"/>
      <use transform="translate(63.476562 0.09375)" xlink:href="#DejaVuSans-49"/>
      <use transform="translate(128.056641 -16.3125)scale(0.7)" xlink:href="#DejaVuSans-49"/>
     </g>
    </g>
   </g>
   <g id="text_25">
    <g clip-path="url(#pc7289fba48)">
     <!-- ${q1}_{2}$ -->
     <g transform="translate(71.32004 138.913777)scale(0.1625 -0.1625)">
      <use transform="translate(0 0.09375)" xlink:href="#DejaVuSans-Oblique-113"/>
      <use transform="translate(63.476562 0.09375)" xlink:href="#DejaVuSans-49"/>
      <use transform="translate(128.056641 -16.3125)scale(0.7)" xlink:href="#DejaVuSans-50"/>
     </g>
    </g>
   </g>
   <g id="text_26">
    <g clip-path="url(#pc7289fba48)">
     <!-- 3 -->
     <defs>
      <path d="M 40.578125 39.3125 
Q 47.65625 37.796875 51.625 33 
Q 55.609375 28.21875 55.609375 21.1875 
Q 55.609375 10.40625 48.1875 4.484375 
Q 40.765625 -1.421875 27.09375 -1.421875 
Q 22.515625 -1.421875 17.65625 -0.515625 
Q 12.796875 0.390625 7.625 2.203125 
L 7.625 11.71875 
Q 11.71875 9.328125 16.59375 8.109375 
Q 21.484375 6.890625 26.8125 6.890625 
Q 36.078125 6.890625 40.9375 10.546875 
Q 45.796875 14.203125 45.796875 21.1875 
Q 45.796875 27.640625 41.28125 31.265625 
Q 36.765625 34.90625 28.71875 34.90625 
L 20.21875 34.90625 
L 20.21875 43.015625 
L 29.109375 43.015625 
Q 36.375 43.015625 40.234375 45.921875 
Q 44.09375 48.828125 44.09375 54.296875 
Q 44.09375 59.90625 40.109375 62.90625 
Q 36.140625 65.921875 28.71875 65.921875 
Q 24.65625 65.921875 20.015625 65.03125 
Q 15.375 64.15625 9.8125 62.3125 
L 9.8125 71.09375 
Q 15.4375 72.65625 20.34375 73.4375 
Q 25.25 74.21875 29.59375 74.21875 
Q 40.828125 74.21875 47.359375 69.109375 
Q 53.90625 64.015625 53.90625 55.328125 
Q 53.90625 49.265625 50.4375 45.09375 
Q 46.96875 40.921875 40.578125 39.3125 
z
" id="DejaVuSans-51"/>
     </defs>
     <g transform="translate(145.37104 173.205825)scale(0.104 -0.104)">
      <use xlink:href="#DejaVuSans-51"/>
     </g>
    </g>
   </g>
   <g id="text_27">
    <g clip-path="url(#pc7289fba48)">
     <!-- $c1$ -->
     <defs>
      <path d="M 53.609375 52.59375 
L 51.8125 43.703125 
Q 48.578125 46.046875 44.9375 47.21875 
Q 41.3125 48.390625 37.40625 48.390625 
Q 33.109375 48.390625 29.21875 46.875 
Q 25.34375 45.359375 22.703125 42.578125 
Q 18.5 38.328125 16.203125 32.609375 
Q 13.921875 26.90625 13.921875 20.796875 
Q 13.921875 13.421875 17.609375 9.8125 
Q 21.296875 6.203125 28.8125 6.203125 
Q 32.515625 6.203125 36.6875 7.328125 
Q 40.875 8.453125 45.40625 10.6875 
L 43.703125 1.8125 
Q 39.796875 0.203125 35.671875 -0.609375 
Q 31.546875 -1.421875 27.203125 -1.421875 
Q 16.3125 -1.421875 10.453125 4.015625 
Q 4.59375 9.46875 4.59375 19.578125 
Q 4.59375 28.078125 7.640625 35.234375 
Q 10.6875 42.390625 16.703125 48.09375 
Q 20.796875 52 26.3125 54 
Q 31.84375 56 38.375 56 
Q 42.1875 56 45.9375 55.140625 
Q 49.703125 54.296875 53.609375 52.59375 
z
" id="DejaVuSans-Oblique-99"/>
     </defs>
     <g transform="translate(76.71504 185.294581)scale(0.195 -0.195)">
      <use transform="translate(0 0.09375)" xlink:href="#DejaVuSans-Oblique-99"/>
      <use transform="translate(54.980469 0.09375)" xlink:href="#DejaVuSans-49"/>
     </g>
    </g>
   </g>
  </g>
 </g>
 <defs>
  <clipPath id="pc7289fba48">
   <rect height="199.9844" width="960.83414" x="7.2" y="7.2"/>
  </clipPath>
 </defs>
</svg>
