<?xml version="1.0" encoding="utf-8" standalone="no"?>
<!DOCTYPE svg PUBLIC "-//W3C//DTD SVG 1.1//EN"
  "http://www.w3.org/Graphics/SVG/1.1/DTD/svg11.dtd">
<!-- Created with matplotlib (https://matplotlib.org/) -->
<svg height="168.9334pt" version="1.1" viewBox="0 0 520.72414 168.9334" width="520.72414pt" xmlns="http://www.w3.org/2000/svg" xmlns:xlink="http://www.w3.org/1999/xlink">
 <defs>
  <style type="text/css">
*{stroke-linecap:butt;stroke-linejoin:round;}
  </style>
 </defs>
 <g id="figure_1">
  <g id="patch_1">
   <path d="M -0 168.9334 
L 520.72414 168.9334 
L 520.72414 0 
L -0 0 
z
" style="fill:#ffffff;"/>
  </g>
  <g id="axes_1">
   <g id="line2d_1">
    <path clip-path="url(#p5e7c525cf8)" d="M 122.64554 43.5608 
L 508.97904 43.5608 
" style="fill:none;stroke:#000000;stroke-linecap:square;stroke-width:2;"/>
   </g>
   <g id="line2d_2">
    <path clip-path="url(#p5e7c525cf8)" d="M 122.64554 89.0118 
L 508.97904 89.0118 
" style="fill:none;stroke:#000000;stroke-linecap:square;stroke-width:2;"/>
   </g>
   <g id="line2d_3">
    <path clip-path="url(#p5e7c525cf8)" d="M 122.64554 132.985642 
L 508.97904 132.985642 
" style="fill:none;stroke:#778899;stroke-linecap:square;stroke-width:2;"/>
   </g>
   <g id="line2d_4">
    <path clip-path="url(#p5e7c525cf8)" d="M 122.64554 135.939957 
L 508.97904 135.939957 
" style="fill:none;stroke:#778899;stroke-linecap:square;stroke-width:2;"/>
   </g>
   <g id="line2d_5">
    <path clip-path="url(#p5e7c525cf8)" d="M 236.27304 89.0118 
L 236.27304 43.5608 
" style="fill:none;stroke:#bb8bff;stroke-linecap:square;stroke-width:2;"/>
   </g>
   <g id="line2d_6">
    <path clip-path="url(#p5e7c525cf8)" d="M 418.07704 89.0118 
L 418.07704 43.5608 
" style="fill:none;stroke:#bb8bff;stroke-linecap:square;stroke-width:2;"/>
   </g>
   <g id="line2d_7">
    <path clip-path="url(#p5e7c525cf8)" d="M 149.91614 139.0079 
L 154.46124 129.9177 
" style="fill:none;stroke:#778899;stroke-linecap:square;stroke-width:1.5;"/>
   </g>
   <g id="patch_2">
    <path clip-path="url(#p5e7c525cf8)" d="M 130.599465 58.332375 
L 160.142615 58.332375 
L 160.142615 28.789225 
L 130.599465 28.789225 
z
" style="fill:#6fa4ff;"/>
   </g>
   <g id="patch_3">
    <path clip-path="url(#p5e7c525cf8)" d="M 130.599465 103.783375 
L 160.142615 103.783375 
L 160.142615 74.240225 
L 130.599465 74.240225 
z
" style="fill:#6fa4ff;"/>
   </g>
   <g id="patch_4">
    <path clip-path="url(#p5e7c525cf8)" d="M 176.050465 58.332375 
L 205.593615 58.332375 
L 205.593615 28.789225 
L 176.050465 28.789225 
z
" style="fill:#05bab6;"/>
   </g>
   <g id="patch_5">
    <path clip-path="url(#p5e7c525cf8)" d="M 176.050465 103.783375 
L 205.593615 103.783375 
L 205.593615 74.240225 
L 176.050465 74.240225 
z
" style="fill:#05bab6;"/>
   </g>
   <g id="patch_6">
    <path clip-path="url(#p5e7c525cf8)" d="M 236.27304 47.992272 
C 237.44828 47.992272 238.575544 47.525345 239.406564 46.694324 
C 240.237585 45.863304 240.704512 44.73604 240.704512 43.5608 
C 240.704512 42.38556 240.237585 41.258296 239.406564 40.427276 
C 238.575544 39.596255 237.44828 39.129327 236.27304 39.129327 
C 235.0978 39.129327 233.970536 39.596255 233.139516 40.427276 
C 232.308495 41.258296 231.841567 42.38556 231.841567 43.5608 
C 231.841567 44.73604 232.308495 45.863304 233.139516 46.694324 
C 233.970536 47.525345 235.0978 47.992272 236.27304 47.992272 
z
" style="fill:#bb8bff;stroke:#bb8bff;stroke-linejoin:miter;stroke-width:1.5;"/>
   </g>
   <g id="patch_7">
    <path clip-path="url(#p5e7c525cf8)" d="M 221.501465 103.783375 
L 251.044615 103.783375 
L 251.044615 74.240225 
L 221.501465 74.240225 
z
" style="fill:#bb8bff;"/>
   </g>
   <g id="patch_8">
    <path clip-path="url(#p5e7c525cf8)" d="M 266.952465 58.332375 
L 296.495615 58.332375 
L 296.495615 28.789225 
L 266.952465 28.789225 
z
" style="fill:#05bab6;"/>
   </g>
   <g id="patch_9">
    <path clip-path="url(#p5e7c525cf8)" d="M 266.952465 103.783375 
L 296.495615 103.783375 
L 296.495615 74.240225 
L 266.952465 74.240225 
z
" style="fill:#05bab6;"/>
   </g>
   <g id="patch_10">
    <path clip-path="url(#p5e7c525cf8)" d="M 312.403465 58.332375 
L 341.946615 58.332375 
L 341.946615 28.789225 
L 312.403465 28.789225 
z
" style="fill:#6fa4ff;"/>
   </g>
   <g id="patch_11">
    <path clip-path="url(#p5e7c525cf8)" d="M 312.403465 103.783375 
L 341.946615 103.783375 
L 341.946615 74.240225 
L 312.403465 74.240225 
z
" style="fill:#6fa4ff;"/>
   </g>
   <g id="patch_12">
    <path clip-path="url(#p5e7c525cf8)" d="M 357.854465 58.332375 
L 387.397615 58.332375 
L 387.397615 28.789225 
L 357.854465 28.789225 
z
" style="fill:#05bab6;"/>
   </g>
   <g id="patch_13">
    <path clip-path="url(#p5e7c525cf8)" d="M 357.854465 103.783375 
L 387.397615 103.783375 
L 387.397615 74.240225 
L 357.854465 74.240225 
z
" style="fill:#05bab6;"/>
   </g>
   <g id="patch_14">
    <path clip-path="url(#p5e7c525cf8)" d="M 418.07704 47.992272 
C 419.25228 47.992272 420.379544 47.525345 421.210564 46.694324 
C 422.041585 45.863304 422.508512 44.73604 422.508512 43.5608 
C 422.508512 42.38556 422.041585 41.258296 421.210564 40.427276 
C 420.379544 39.596255 419.25228 39.129327 418.07704 39.129327 
C 416.9018 39.129327 415.774536 39.596255 414.943516 40.427276 
C 414.112495 41.258296 413.645567 42.38556 413.645567 43.5608 
C 413.645567 44.73604 414.112495 45.863304 414.943516 46.694324 
C 415.774536 47.525345 416.9018 47.992272 418.07704 47.992272 
z
" style="fill:#bb8bff;stroke:#bb8bff;stroke-linejoin:miter;stroke-width:1.5;"/>
   </g>
   <g id="patch_15">
    <path clip-path="url(#p5e7c525cf8)" d="M 403.305465 103.783375 
L 432.848615 103.783375 
L 432.848615 74.240225 
L 403.305465 74.240225 
z
" style="fill:#bb8bff;"/>
   </g>
   <g id="patch_16">
    <path clip-path="url(#p5e7c525cf8)" d="M 448.756465 58.332375 
L 478.299615 58.332375 
L 478.299615 28.789225 
L 448.756465 28.789225 
z
" style="fill:#6fa4ff;"/>
   </g>
   <g id="patch_17">
    <path clip-path="url(#p5e7c525cf8)" d="M 448.756465 103.783375 
L 478.299615 103.783375 
L 478.299615 74.240225 
L 448.756465 74.240225 
z
" style="fill:#6fa4ff;"/>
   </g>
   <g id="text_1">
    <g clip-path="url(#p5e7c525cf8)">
     <!-- $H$ -->
     <defs>
      <path d="M 16.890625 72.90625 
L 26.8125 72.90625 
L 21 43.015625 
L 56.78125 43.015625 
L 62.59375 72.90625 
L 72.515625 72.90625 
L 58.296875 0 
L 48.390625 0 
L 55.171875 34.71875 
L 19.390625 34.71875 
L 12.59375 0 
L 2.6875 0 
z
" id="DejaVuSans-Oblique-72"/>
     </defs>
     <g transform="translate(140.43104 47.147987)scale(0.13 -0.13)">
      <use transform="translate(0 0.09375)" xlink:href="#DejaVuSans-Oblique-72"/>
     </g>
    </g>
   </g>
   <g id="text_2">
    <g clip-path="url(#p5e7c525cf8)">
     <!-- $H$ -->
     <g transform="translate(140.43104 92.598987)scale(0.13 -0.13)">
      <use transform="translate(0 0.09375)" xlink:href="#DejaVuSans-Oblique-72"/>
     </g>
    </g>
   </g>
   <g id="text_3">
    <g clip-path="url(#p5e7c525cf8)">
     <!-- $X$ -->
     <defs>
      <path d="M 13.71875 72.90625 
L 23.6875 72.90625 
L 36.1875 46.578125 
L 58.796875 72.90625 
L 70.3125 72.90625 
L 40.28125 38.09375 
L 58.40625 0 
L 48.484375 0 
L 33.796875 30.71875 
L 7.171875 0 
L -4.296875 0 
L 29.78125 39.203125 
z
" id="DejaVuSans-Oblique-88"/>
     </defs>
     <g transform="translate(186.33704 47.147987)scale(0.13 -0.13)">
      <use transform="translate(0 0.09375)" xlink:href="#DejaVuSans-Oblique-88"/>
     </g>
    </g>
   </g>
   <g id="text_4">
    <g clip-path="url(#p5e7c525cf8)">
     <!-- $X$ -->
     <g transform="translate(186.33704 92.598987)scale(0.13 -0.13)">
      <use transform="translate(0 0.09375)" xlink:href="#DejaVuSans-Oblique-88"/>
     </g>
    </g>
   </g>
   <g id="text_5">
    <g clip-path="url(#p5e7c525cf8)">
     <!-- $Z$ -->
     <defs>
      <path d="M 13.09375 72.90625 
L 70.3125 72.90625 
L 68.890625 65.375 
L 12.40625 8.296875 
L 58.890625 8.296875 
L 57.328125 0 
L -2.203125 0 
L -0.78125 7.515625 
L 55.71875 64.59375 
L 11.53125 64.59375 
z
" id="DejaVuSans-Oblique-90"/>
     </defs>
     <g transform="translate(231.78804 92.598987)scale(0.13 -0.13)">
      <use transform="translate(0 0.09375)" xlink:href="#DejaVuSans-Oblique-90"/>
     </g>
    </g>
   </g>
   <g id="text_6">
    <g clip-path="url(#p5e7c525cf8)">
     <!-- $X$ -->
     <g transform="translate(277.23904 47.147987)scale(0.13 -0.13)">
      <use transform="translate(0 0.09375)" xlink:href="#DejaVuSans-Oblique-88"/>
     </g>
    </g>
   </g>
   <g id="text_7">
    <g clip-path="url(#p5e7c525cf8)">
     <!-- $X$ -->
     <g transform="translate(277.23904 92.598987)scale(0.13 -0.13)">
      <use transform="translate(0 0.09375)" xlink:href="#DejaVuSans-Oblique-88"/>
     </g>
    </g>
   </g>
   <g id="text_8">
    <g clip-path="url(#p5e7c525cf8)">
     <!-- $H$ -->
     <g transform="translate(322.23504 47.147987)scale(0.13 -0.13)">
      <use transform="translate(0 0.09375)" xlink:href="#DejaVuSans-Oblique-72"/>
     </g>
    </g>
   </g>
   <g id="text_9">
    <g clip-path="url(#p5e7c525cf8)">
     <!-- $H$ -->
     <g transform="translate(322.23504 92.598987)scale(0.13 -0.13)">
      <use transform="translate(0 0.09375)" xlink:href="#DejaVuSans-Oblique-72"/>
     </g>
    </g>
   </g>
   <g id="text_10">
    <g clip-path="url(#p5e7c525cf8)">
     <!-- $Z$ -->
     <g transform="translate(368.14104 47.147987)scale(0.13 -0.13)">
      <use transform="translate(0 0.09375)" xlink:href="#DejaVuSans-Oblique-90"/>
     </g>
    </g>
   </g>
   <g id="text_11">
    <g clip-path="url(#p5e7c525cf8)">
     <!-- $Z$ -->
     <g transform="translate(368.14104 92.598987)scale(0.13 -0.13)">
      <use transform="translate(0 0.09375)" xlink:href="#DejaVuSans-Oblique-90"/>
     </g>
    </g>
   </g>
   <g id="text_12">
    <g clip-path="url(#p5e7c525cf8)">
     <!-- $Z$ -->
     <g transform="translate(413.59204 92.598987)scale(0.13 -0.13)">
      <use transform="translate(0 0.09375)" xlink:href="#DejaVuSans-Oblique-90"/>
     </g>
    </g>
   </g>
   <g id="text_13">
    <g clip-path="url(#p5e7c525cf8)">
     <!-- $H$ -->
     <g transform="translate(458.58804 47.147987)scale(0.13 -0.13)">
      <use transform="translate(0 0.09375)" xlink:href="#DejaVuSans-Oblique-72"/>
     </g>
    </g>
   </g>
   <g id="text_14">
    <g clip-path="url(#p5e7c525cf8)">
     <!-- $H$ -->
     <g transform="translate(458.58804 92.598987)scale(0.13 -0.13)">
      <use transform="translate(0 0.09375)" xlink:href="#DejaVuSans-Oblique-72"/>
     </g>
    </g>
   </g>
   <g id="text_15">
    <g clip-path="url(#p5e7c525cf8)">
     <!-- ${q0}_{0}$ -->
     <defs>
      <path d="M 41.703125 8.203125 
Q 38.09375 3.46875 33.171875 1.015625 
Q 28.265625 -1.421875 22.3125 -1.421875 
Q 14.015625 -1.421875 9.296875 4.171875 
Q 4.59375 9.765625 4.59375 19.578125 
Q 4.59375 27.484375 7.5 34.859375 
Q 10.40625 42.234375 15.828125 48.09375 
Q 19.34375 51.90625 23.90625 53.953125 
Q 28.46875 56 33.5 56 
Q 39.546875 56 43.453125 53.609375 
Q 47.359375 51.21875 49.125 46.390625 
L 50.6875 54.59375 
L 59.71875 54.59375 
L 45.125 -20.609375 
L 36.078125 -20.609375 
z
M 13.921875 20.90625 
Q 13.921875 13.671875 16.9375 9.890625 
Q 19.96875 6.109375 25.6875 6.109375 
Q 34.1875 6.109375 40.1875 14.234375 
Q 46.1875 22.359375 46.1875 33.984375 
Q 46.1875 41.015625 43.078125 44.75 
Q 39.984375 48.484375 34.1875 48.484375 
Q 29.9375 48.484375 26.3125 46.5 
Q 22.703125 44.53125 20.015625 40.71875 
Q 17.1875 36.71875 15.546875 31.34375 
Q 13.921875 25.984375 13.921875 20.90625 
z
" id="DejaVuSans-Oblique-113"/>
      <path d="M 31.78125 66.40625 
Q 24.171875 66.40625 20.328125 58.90625 
Q 16.5 51.421875 16.5 36.375 
Q 16.5 21.390625 20.328125 13.890625 
Q 24.171875 6.390625 31.78125 6.390625 
Q 39.453125 6.390625 43.28125 13.890625 
Q 47.125 21.390625 47.125 36.375 
Q 47.125 51.421875 43.28125 58.90625 
Q 39.453125 66.40625 31.78125 66.40625 
z
M 31.78125 74.21875 
Q 44.046875 74.21875 50.515625 64.515625 
Q 56.984375 54.828125 56.984375 36.375 
Q 56.984375 17.96875 50.515625 8.265625 
Q 44.046875 -1.421875 31.78125 -1.421875 
Q 19.53125 -1.421875 13.0625 8.265625 
Q 6.59375 17.96875 6.59375 36.375 
Q 6.59375 54.828125 13.0625 64.515625 
Q 19.53125 74.21875 31.78125 74.21875 
z
" id="DejaVuSans-48"/>
     </defs>
     <g transform="translate(71.32004 48.011777)scale(0.1625 -0.1625)">
      <use transform="translate(0 0.78125)" xlink:href="#DejaVuSans-Oblique-113"/>
      <use transform="translate(63.476562 0.78125)" xlink:href="#DejaVuSans-48"/>
      <use transform="translate(128.056641 -15.625)scale(0.7)" xlink:href="#DejaVuSans-48"/>
     </g>
    </g>
   </g>
   <g id="text_16">
    <g clip-path="url(#p5e7c525cf8)">
     <!-- ${q0}_{1}$ -->
     <defs>
      <path d="M 12.40625 8.296875 
L 28.515625 8.296875 
L 28.515625 63.921875 
L 10.984375 60.40625 
L 10.984375 69.390625 
L 28.421875 72.90625 
L 38.28125 72.90625 
L 38.28125 8.296875 
L 54.390625 8.296875 
L 54.390625 0 
L 12.40625 0 
z
" id="DejaVuSans-49"/>
     </defs>
     <g transform="translate(71.32004 93.462777)scale(0.1625 -0.1625)">
      <use transform="translate(0 0.78125)" xlink:href="#DejaVuSans-Oblique-113"/>
      <use transform="translate(63.476562 0.78125)" xlink:href="#DejaVuSans-48"/>
      <use transform="translate(128.056641 -15.625)scale(0.7)" xlink:href="#DejaVuSans-49"/>
     </g>
    </g>
   </g>
   <g id="text_17">
    <g clip-path="url(#p5e7c525cf8)">
     <!-- 2 -->
     <defs>
      <path d="M 19.1875 8.296875 
L 53.609375 8.296875 
L 53.609375 0 
L 7.328125 0 
L 7.328125 8.296875 
Q 12.9375 14.109375 22.625 23.890625 
Q 32.328125 33.6875 34.8125 36.53125 
Q 39.546875 41.84375 41.421875 45.53125 
Q 43.3125 49.21875 43.3125 52.78125 
Q 43.3125 58.59375 39.234375 62.25 
Q 35.15625 65.921875 28.609375 65.921875 
Q 23.96875 65.921875 18.8125 64.3125 
Q 13.671875 62.703125 7.8125 59.421875 
L 7.8125 69.390625 
Q 13.765625 71.78125 18.9375 73 
Q 24.125 74.21875 28.421875 74.21875 
Q 39.75 74.21875 46.484375 68.546875 
Q 53.21875 62.890625 53.21875 53.421875 
Q 53.21875 48.921875 51.53125 44.890625 
Q 49.859375 40.875 45.40625 35.40625 
Q 44.1875 33.984375 37.640625 27.21875 
Q 31.109375 20.453125 19.1875 8.296875 
z
" id="DejaVuSans-50"/>
     </defs>
     <g transform="translate(145.37104 127.754825)scale(0.104 -0.104)">
      <use xlink:href="#DejaVuSans-50"/>
     </g>
    </g>
   </g>
   <g id="text_18">
    <g clip-path="url(#p5e7c525cf8)">
     <!-- $c0$ -->
     <defs>
      <path d="M 53.609375 52.59375 
L 51.8125 43.703125 
Q 48.578125 46.046875 44.9375 47.21875 
Q 41.3125 48.390625 37.40625 48.390625 
Q 33.109375 48.390625 29.21875 46.875 
Q 25.34375 45.359375 22.703125 42.578125 
Q 18.5 38.328125 16.203125 32.609375 
Q 13.921875 26.90625 13.921875 20.796875 
Q 13.921875 13.421875 17.609375 9.8125 
Q 21.296875 6.203125 28.8125 6.203125 
Q 32.515625 6.203125 36.6875 7.328125 
Q 40.875 8.453125 45.40625 10.6875 
L 43.703125 1.8125 
Q 39.796875 0.203125 35.671875 -0.609375 
Q 31.546875 -1.421875 27.203125 -1.421875 
Q 16.3125 -1.421875 10.453125 4.015625 
Q 4.59375 9.46875 4.59375 19.578125 
Q 4.59375 28.078125 7.640625 35.234375 
Q 10.6875 42.390625 16.703125 48.09375 
Q 20.796875 52 26.3125 54 
Q 31.84375 56 38.375 56 
Q 42.1875 56 45.9375 55.140625 
Q 49.703125 54.296875 53.609375 52.59375 
z
" id="DejaVuSans-Oblique-99"/>
     </defs>
     <g transform="translate(76.71504 139.843581)scale(0.195 -0.195)">
      <use transform="translate(0 0.78125)" xlink:href="#DejaVuSans-Oblique-99"/>
      <use transform="translate(54.980469 0.78125)" xlink:href="#DejaVuSans-48"/>
     </g>
    </g>
   </g>
  </g>
 </g>
 <defs>
  <clipPath id="p5e7c525cf8">
   <rect height="154.5334" width="506.32414" x="7.2" y="7.2"/>
  </clipPath>
 </defs>
</svg>
