<?xml version="1.0" encoding="utf-8" standalone="no"?>
<!DOCTYPE svg PUBLIC "-//W3C//DTD SVG 1.1//EN"
  "http://www.w3.org/Graphics/SVG/1.1/DTD/svg11.dtd">
<!-- Created with matplotlib (https://matplotlib.org/) -->
<svg height="502.765719pt" version="1.1" viewBox="0 0 637.02875 502.765719" width="637.02875pt" xmlns="http://www.w3.org/2000/svg" xmlns:xlink="http://www.w3.org/1999/xlink">
 <defs>
  <style type="text/css">
*{stroke-linecap:butt;stroke-linejoin:round;}
  </style>
 </defs>
 <g id="figure_1">
  <g id="patch_1">
   <path d="M 0 502.765719 
L 637.02875 502.765719 
L 637.02875 0 
L 0 0 
z
" style="fill:none;"/>
  </g>
  <g id="axes_1">
   <g id="patch_2">
    <path d="M 71.82875 442.08 
L 629.82875 442.08 
L 629.82875 7.2 
L 71.82875 7.2 
z
" style="fill:#ffffff;"/>
   </g>
   <g id="matplotlib.axis_1">
    <g id="xtick_1">
     <g id="line2d_1">
      <defs>
       <path d="M 0 0 
L 0 3.5 
" id="m34c63cceac" style="stroke:#000000;stroke-width:0.8;"/>
      </defs>
      <g>
       <use style="stroke:#000000;stroke-width:0.8;" x="101.21836" xlink:href="#m34c63cceac" y="442.08"/>
      </g>
     </g>
     <g id="text_1">
      <!-- 00000 -->
      <defs>
       <path d="M 31.78125 66.40625 
Q 24.171875 66.40625 20.328125 58.90625 
Q 16.5 51.421875 16.5 36.375 
Q 16.5 21.390625 20.328125 13.890625 
Q 24.171875 6.390625 31.78125 6.390625 
Q 39.453125 6.390625 43.28125 13.890625 
Q 47.125 21.390625 47.125 36.375 
Q 47.125 51.421875 43.28125 58.90625 
Q 39.453125 66.40625 31.78125 66.40625 
z
M 31.78125 74.21875 
Q 44.046875 74.21875 50.515625 64.515625 
Q 56.984375 54.828125 56.984375 36.375 
Q 56.984375 17.96875 50.515625 8.265625 
Q 44.046875 -1.421875 31.78125 -1.421875 
Q 19.53125 -1.421875 13.0625 8.265625 
Q 6.59375 17.96875 6.59375 36.375 
Q 6.59375 54.828125 13.0625 64.515625 
Q 19.53125 74.21875 31.78125 74.21875 
z
" id="DejaVuSans-48"/>
      </defs>
      <g transform="translate(97.232149 494.569906)rotate(-70)scale(0.14 -0.14)">
       <use xlink:href="#DejaVuSans-48"/>
       <use x="63.623047" xlink:href="#DejaVuSans-48"/>
       <use x="127.246094" xlink:href="#DejaVuSans-48"/>
       <use x="190.869141" xlink:href="#DejaVuSans-48"/>
       <use x="254.492188" xlink:href="#DejaVuSans-48"/>
      </g>
     </g>
    </g>
    <g id="xtick_2">
     <g id="line2d_2">
      <g>
       <use style="stroke:#000000;stroke-width:0.8;" x="117.322256" xlink:href="#m34c63cceac" y="442.08"/>
      </g>
     </g>
     <g id="text_2">
      <!-- 00001 -->
      <defs>
       <path d="M 12.40625 8.296875 
L 28.515625 8.296875 
L 28.515625 63.921875 
L 10.984375 60.40625 
L 10.984375 69.390625 
L 28.421875 72.90625 
L 38.28125 72.90625 
L 38.28125 8.296875 
L 54.390625 8.296875 
L 54.390625 0 
L 12.40625 0 
z
" id="DejaVuSans-49"/>
      </defs>
      <g transform="translate(113.336045 494.569906)rotate(-70)scale(0.14 -0.14)">
       <use xlink:href="#DejaVuSans-48"/>
       <use x="63.623047" xlink:href="#DejaVuSans-48"/>
       <use x="127.246094" xlink:href="#DejaVuSans-48"/>
       <use x="190.869141" xlink:href="#DejaVuSans-48"/>
       <use x="254.492188" xlink:href="#DejaVuSans-49"/>
      </g>
     </g>
    </g>
    <g id="xtick_3">
     <g id="line2d_3">
      <g>
       <use style="stroke:#000000;stroke-width:0.8;" x="133.426153" xlink:href="#m34c63cceac" y="442.08"/>
      </g>
     </g>
     <g id="text_3">
      <!-- 00010 -->
      <g transform="translate(129.439942 494.569906)rotate(-70)scale(0.14 -0.14)">
       <use xlink:href="#DejaVuSans-48"/>
       <use x="63.623047" xlink:href="#DejaVuSans-48"/>
       <use x="127.246094" xlink:href="#DejaVuSans-48"/>
       <use x="190.869141" xlink:href="#DejaVuSans-49"/>
       <use x="254.492188" xlink:href="#DejaVuSans-48"/>
      </g>
     </g>
    </g>
    <g id="xtick_4">
     <g id="line2d_4">
      <g>
       <use style="stroke:#000000;stroke-width:0.8;" x="149.530049" xlink:href="#m34c63cceac" y="442.08"/>
      </g>
     </g>
     <g id="text_4">
      <!-- 00011 -->
      <g transform="translate(145.543838 494.569906)rotate(-70)scale(0.14 -0.14)">
       <use xlink:href="#DejaVuSans-48"/>
       <use x="63.623047" xlink:href="#DejaVuSans-48"/>
       <use x="127.246094" xlink:href="#DejaVuSans-48"/>
       <use x="190.869141" xlink:href="#DejaVuSans-49"/>
       <use x="254.492188" xlink:href="#DejaVuSans-49"/>
      </g>
     </g>
    </g>
    <g id="xtick_5">
     <g id="line2d_5">
      <g>
       <use style="stroke:#000000;stroke-width:0.8;" x="165.633945" xlink:href="#m34c63cceac" y="442.08"/>
      </g>
     </g>
     <g id="text_5">
      <!-- 00100 -->
      <g transform="translate(161.647734 494.569906)rotate(-70)scale(0.14 -0.14)">
       <use xlink:href="#DejaVuSans-48"/>
       <use x="63.623047" xlink:href="#DejaVuSans-48"/>
       <use x="127.246094" xlink:href="#DejaVuSans-49"/>
       <use x="190.869141" xlink:href="#DejaVuSans-48"/>
       <use x="254.492188" xlink:href="#DejaVuSans-48"/>
      </g>
     </g>
    </g>
    <g id="xtick_6">
     <g id="line2d_6">
      <g>
       <use style="stroke:#000000;stroke-width:0.8;" x="181.737841" xlink:href="#m34c63cceac" y="442.08"/>
      </g>
     </g>
     <g id="text_6">
      <!-- 00101 -->
      <g transform="translate(177.75163 494.569906)rotate(-70)scale(0.14 -0.14)">
       <use xlink:href="#DejaVuSans-48"/>
       <use x="63.623047" xlink:href="#DejaVuSans-48"/>
       <use x="127.246094" xlink:href="#DejaVuSans-49"/>
       <use x="190.869141" xlink:href="#DejaVuSans-48"/>
       <use x="254.492188" xlink:href="#DejaVuSans-49"/>
      </g>
     </g>
    </g>
    <g id="xtick_7">
     <g id="line2d_7">
      <g>
       <use style="stroke:#000000;stroke-width:0.8;" x="197.841737" xlink:href="#m34c63cceac" y="442.08"/>
      </g>
     </g>
     <g id="text_7">
      <!-- 00110 -->
      <g transform="translate(193.855526 494.569906)rotate(-70)scale(0.14 -0.14)">
       <use xlink:href="#DejaVuSans-48"/>
       <use x="63.623047" xlink:href="#DejaVuSans-48"/>
       <use x="127.246094" xlink:href="#DejaVuSans-49"/>
       <use x="190.869141" xlink:href="#DejaVuSans-49"/>
       <use x="254.492188" xlink:href="#DejaVuSans-48"/>
      </g>
     </g>
    </g>
    <g id="xtick_8">
     <g id="line2d_8">
      <g>
       <use style="stroke:#000000;stroke-width:0.8;" x="213.945633" xlink:href="#m34c63cceac" y="442.08"/>
      </g>
     </g>
     <g id="text_8">
      <!-- 00111 -->
      <g transform="translate(209.959422 494.569906)rotate(-70)scale(0.14 -0.14)">
       <use xlink:href="#DejaVuSans-48"/>
       <use x="63.623047" xlink:href="#DejaVuSans-48"/>
       <use x="127.246094" xlink:href="#DejaVuSans-49"/>
       <use x="190.869141" xlink:href="#DejaVuSans-49"/>
       <use x="254.492188" xlink:href="#DejaVuSans-49"/>
      </g>
     </g>
    </g>
    <g id="xtick_9">
     <g id="line2d_9">
      <g>
       <use style="stroke:#000000;stroke-width:0.8;" x="230.049529" xlink:href="#m34c63cceac" y="442.08"/>
      </g>
     </g>
     <g id="text_9">
      <!-- 01000 -->
      <g transform="translate(226.063318 494.569906)rotate(-70)scale(0.14 -0.14)">
       <use xlink:href="#DejaVuSans-48"/>
       <use x="63.623047" xlink:href="#DejaVuSans-49"/>
       <use x="127.246094" xlink:href="#DejaVuSans-48"/>
       <use x="190.869141" xlink:href="#DejaVuSans-48"/>
       <use x="254.492188" xlink:href="#DejaVuSans-48"/>
      </g>
     </g>
    </g>
    <g id="xtick_10">
     <g id="line2d_10">
      <g>
       <use style="stroke:#000000;stroke-width:0.8;" x="246.153425" xlink:href="#m34c63cceac" y="442.08"/>
      </g>
     </g>
     <g id="text_10">
      <!-- 01001 -->
      <g transform="translate(242.167214 494.569906)rotate(-70)scale(0.14 -0.14)">
       <use xlink:href="#DejaVuSans-48"/>
       <use x="63.623047" xlink:href="#DejaVuSans-49"/>
       <use x="127.246094" xlink:href="#DejaVuSans-48"/>
       <use x="190.869141" xlink:href="#DejaVuSans-48"/>
       <use x="254.492188" xlink:href="#DejaVuSans-49"/>
      </g>
     </g>
    </g>
    <g id="xtick_11">
     <g id="line2d_11">
      <g>
       <use style="stroke:#000000;stroke-width:0.8;" x="262.257321" xlink:href="#m34c63cceac" y="442.08"/>
      </g>
     </g>
     <g id="text_11">
      <!-- 01010 -->
      <g transform="translate(258.27111 494.569906)rotate(-70)scale(0.14 -0.14)">
       <use xlink:href="#DejaVuSans-48"/>
       <use x="63.623047" xlink:href="#DejaVuSans-49"/>
       <use x="127.246094" xlink:href="#DejaVuSans-48"/>
       <use x="190.869141" xlink:href="#DejaVuSans-49"/>
       <use x="254.492188" xlink:href="#DejaVuSans-48"/>
      </g>
     </g>
    </g>
    <g id="xtick_12">
     <g id="line2d_12">
      <g>
       <use style="stroke:#000000;stroke-width:0.8;" x="278.361218" xlink:href="#m34c63cceac" y="442.08"/>
      </g>
     </g>
     <g id="text_12">
      <!-- 01011 -->
      <g transform="translate(274.375007 494.569906)rotate(-70)scale(0.14 -0.14)">
       <use xlink:href="#DejaVuSans-48"/>
       <use x="63.623047" xlink:href="#DejaVuSans-49"/>
       <use x="127.246094" xlink:href="#DejaVuSans-48"/>
       <use x="190.869141" xlink:href="#DejaVuSans-49"/>
       <use x="254.492188" xlink:href="#DejaVuSans-49"/>
      </g>
     </g>
    </g>
    <g id="xtick_13">
     <g id="line2d_13">
      <g>
       <use style="stroke:#000000;stroke-width:0.8;" x="294.465114" xlink:href="#m34c63cceac" y="442.08"/>
      </g>
     </g>
     <g id="text_13">
      <!-- 01100 -->
      <g transform="translate(290.478903 494.569906)rotate(-70)scale(0.14 -0.14)">
       <use xlink:href="#DejaVuSans-48"/>
       <use x="63.623047" xlink:href="#DejaVuSans-49"/>
       <use x="127.246094" xlink:href="#DejaVuSans-49"/>
       <use x="190.869141" xlink:href="#DejaVuSans-48"/>
       <use x="254.492188" xlink:href="#DejaVuSans-48"/>
      </g>
     </g>
    </g>
    <g id="xtick_14">
     <g id="line2d_14">
      <g>
       <use style="stroke:#000000;stroke-width:0.8;" x="310.56901" xlink:href="#m34c63cceac" y="442.08"/>
      </g>
     </g>
     <g id="text_14">
      <!-- 01101 -->
      <g transform="translate(306.582799 494.569906)rotate(-70)scale(0.14 -0.14)">
       <use xlink:href="#DejaVuSans-48"/>
       <use x="63.623047" xlink:href="#DejaVuSans-49"/>
       <use x="127.246094" xlink:href="#DejaVuSans-49"/>
       <use x="190.869141" xlink:href="#DejaVuSans-48"/>
       <use x="254.492188" xlink:href="#DejaVuSans-49"/>
      </g>
     </g>
    </g>
    <g id="xtick_15">
     <g id="line2d_15">
      <g>
       <use style="stroke:#000000;stroke-width:0.8;" x="326.672906" xlink:href="#m34c63cceac" y="442.08"/>
      </g>
     </g>
     <g id="text_15">
      <!-- 01110 -->
      <g transform="translate(322.686695 494.569906)rotate(-70)scale(0.14 -0.14)">
       <use xlink:href="#DejaVuSans-48"/>
       <use x="63.623047" xlink:href="#DejaVuSans-49"/>
       <use x="127.246094" xlink:href="#DejaVuSans-49"/>
       <use x="190.869141" xlink:href="#DejaVuSans-49"/>
       <use x="254.492188" xlink:href="#DejaVuSans-48"/>
      </g>
     </g>
    </g>
    <g id="xtick_16">
     <g id="line2d_16">
      <g>
       <use style="stroke:#000000;stroke-width:0.8;" x="342.776802" xlink:href="#m34c63cceac" y="442.08"/>
      </g>
     </g>
     <g id="text_16">
      <!-- 01111 -->
      <g transform="translate(338.790591 494.569906)rotate(-70)scale(0.14 -0.14)">
       <use xlink:href="#DejaVuSans-48"/>
       <use x="63.623047" xlink:href="#DejaVuSans-49"/>
       <use x="127.246094" xlink:href="#DejaVuSans-49"/>
       <use x="190.869141" xlink:href="#DejaVuSans-49"/>
       <use x="254.492188" xlink:href="#DejaVuSans-49"/>
      </g>
     </g>
    </g>
    <g id="xtick_17">
     <g id="line2d_17">
      <g>
       <use style="stroke:#000000;stroke-width:0.8;" x="358.880698" xlink:href="#m34c63cceac" y="442.08"/>
      </g>
     </g>
     <g id="text_17">
      <!-- 10000 -->
      <g transform="translate(354.894487 494.569906)rotate(-70)scale(0.14 -0.14)">
       <use xlink:href="#DejaVuSans-49"/>
       <use x="63.623047" xlink:href="#DejaVuSans-48"/>
       <use x="127.246094" xlink:href="#DejaVuSans-48"/>
       <use x="190.869141" xlink:href="#DejaVuSans-48"/>
       <use x="254.492188" xlink:href="#DejaVuSans-48"/>
      </g>
     </g>
    </g>
    <g id="xtick_18">
     <g id="line2d_18">
      <g>
       <use style="stroke:#000000;stroke-width:0.8;" x="374.984594" xlink:href="#m34c63cceac" y="442.08"/>
      </g>
     </g>
     <g id="text_18">
      <!-- 10001 -->
      <g transform="translate(370.998383 494.569906)rotate(-70)scale(0.14 -0.14)">
       <use xlink:href="#DejaVuSans-49"/>
       <use x="63.623047" xlink:href="#DejaVuSans-48"/>
       <use x="127.246094" xlink:href="#DejaVuSans-48"/>
       <use x="190.869141" xlink:href="#DejaVuSans-48"/>
       <use x="254.492188" xlink:href="#DejaVuSans-49"/>
      </g>
     </g>
    </g>
    <g id="xtick_19">
     <g id="line2d_19">
      <g>
       <use style="stroke:#000000;stroke-width:0.8;" x="391.08849" xlink:href="#m34c63cceac" y="442.08"/>
      </g>
     </g>
     <g id="text_19">
      <!-- 10010 -->
      <g transform="translate(387.102279 494.569906)rotate(-70)scale(0.14 -0.14)">
       <use xlink:href="#DejaVuSans-49"/>
       <use x="63.623047" xlink:href="#DejaVuSans-48"/>
       <use x="127.246094" xlink:href="#DejaVuSans-48"/>
       <use x="190.869141" xlink:href="#DejaVuSans-49"/>
       <use x="254.492188" xlink:href="#DejaVuSans-48"/>
      </g>
     </g>
    </g>
    <g id="xtick_20">
     <g id="line2d_20">
      <g>
       <use style="stroke:#000000;stroke-width:0.8;" x="407.192386" xlink:href="#m34c63cceac" y="442.08"/>
      </g>
     </g>
     <g id="text_20">
      <!-- 10011 -->
      <g transform="translate(403.206175 494.569906)rotate(-70)scale(0.14 -0.14)">
       <use xlink:href="#DejaVuSans-49"/>
       <use x="63.623047" xlink:href="#DejaVuSans-48"/>
       <use x="127.246094" xlink:href="#DejaVuSans-48"/>
       <use x="190.869141" xlink:href="#DejaVuSans-49"/>
       <use x="254.492188" xlink:href="#DejaVuSans-49"/>
      </g>
     </g>
    </g>
    <g id="xtick_21">
     <g id="line2d_21">
      <g>
       <use style="stroke:#000000;stroke-width:0.8;" x="423.296282" xlink:href="#m34c63cceac" y="442.08"/>
      </g>
     </g>
     <g id="text_21">
      <!-- 10100 -->
      <g transform="translate(419.310071 494.569906)rotate(-70)scale(0.14 -0.14)">
       <use xlink:href="#DejaVuSans-49"/>
       <use x="63.623047" xlink:href="#DejaVuSans-48"/>
       <use x="127.246094" xlink:href="#DejaVuSans-49"/>
       <use x="190.869141" xlink:href="#DejaVuSans-48"/>
       <use x="254.492188" xlink:href="#DejaVuSans-48"/>
      </g>
     </g>
    </g>
    <g id="xtick_22">
     <g id="line2d_22">
      <g>
       <use style="stroke:#000000;stroke-width:0.8;" x="439.400179" xlink:href="#m34c63cceac" y="442.08"/>
      </g>
     </g>
     <g id="text_22">
      <!-- 10101 -->
      <g transform="translate(435.413968 494.569906)rotate(-70)scale(0.14 -0.14)">
       <use xlink:href="#DejaVuSans-49"/>
       <use x="63.623047" xlink:href="#DejaVuSans-48"/>
       <use x="127.246094" xlink:href="#DejaVuSans-49"/>
       <use x="190.869141" xlink:href="#DejaVuSans-48"/>
       <use x="254.492188" xlink:href="#DejaVuSans-49"/>
      </g>
     </g>
    </g>
    <g id="xtick_23">
     <g id="line2d_23">
      <g>
       <use style="stroke:#000000;stroke-width:0.8;" x="455.504075" xlink:href="#m34c63cceac" y="442.08"/>
      </g>
     </g>
     <g id="text_23">
      <!-- 10110 -->
      <g transform="translate(451.517864 494.569906)rotate(-70)scale(0.14 -0.14)">
       <use xlink:href="#DejaVuSans-49"/>
       <use x="63.623047" xlink:href="#DejaVuSans-48"/>
       <use x="127.246094" xlink:href="#DejaVuSans-49"/>
       <use x="190.869141" xlink:href="#DejaVuSans-49"/>
       <use x="254.492188" xlink:href="#DejaVuSans-48"/>
      </g>
     </g>
    </g>
    <g id="xtick_24">
     <g id="line2d_24">
      <g>
       <use style="stroke:#000000;stroke-width:0.8;" x="471.607971" xlink:href="#m34c63cceac" y="442.08"/>
      </g>
     </g>
     <g id="text_24">
      <!-- 10111 -->
      <g transform="translate(467.62176 494.569906)rotate(-70)scale(0.14 -0.14)">
       <use xlink:href="#DejaVuSans-49"/>
       <use x="63.623047" xlink:href="#DejaVuSans-48"/>
       <use x="127.246094" xlink:href="#DejaVuSans-49"/>
       <use x="190.869141" xlink:href="#DejaVuSans-49"/>
       <use x="254.492188" xlink:href="#DejaVuSans-49"/>
      </g>
     </g>
    </g>
    <g id="xtick_25">
     <g id="line2d_25">
      <g>
       <use style="stroke:#000000;stroke-width:0.8;" x="487.711867" xlink:href="#m34c63cceac" y="442.08"/>
      </g>
     </g>
     <g id="text_25">
      <!-- 11000 -->
      <g transform="translate(483.725656 494.569906)rotate(-70)scale(0.14 -0.14)">
       <use xlink:href="#DejaVuSans-49"/>
       <use x="63.623047" xlink:href="#DejaVuSans-49"/>
       <use x="127.246094" xlink:href="#DejaVuSans-48"/>
       <use x="190.869141" xlink:href="#DejaVuSans-48"/>
       <use x="254.492188" xlink:href="#DejaVuSans-48"/>
      </g>
     </g>
    </g>
    <g id="xtick_26">
     <g id="line2d_26">
      <g>
       <use style="stroke:#000000;stroke-width:0.8;" x="503.815763" xlink:href="#m34c63cceac" y="442.08"/>
      </g>
     </g>
     <g id="text_26">
      <!-- 11001 -->
      <g transform="translate(499.829552 494.569906)rotate(-70)scale(0.14 -0.14)">
       <use xlink:href="#DejaVuSans-49"/>
       <use x="63.623047" xlink:href="#DejaVuSans-49"/>
       <use x="127.246094" xlink:href="#DejaVuSans-48"/>
       <use x="190.869141" xlink:href="#DejaVuSans-48"/>
       <use x="254.492188" xlink:href="#DejaVuSans-49"/>
      </g>
     </g>
    </g>
    <g id="xtick_27">
     <g id="line2d_27">
      <g>
       <use style="stroke:#000000;stroke-width:0.8;" x="519.919659" xlink:href="#m34c63cceac" y="442.08"/>
      </g>
     </g>
     <g id="text_27">
      <!-- 11010 -->
      <g transform="translate(515.933448 494.569906)rotate(-70)scale(0.14 -0.14)">
       <use xlink:href="#DejaVuSans-49"/>
       <use x="63.623047" xlink:href="#DejaVuSans-49"/>
       <use x="127.246094" xlink:href="#DejaVuSans-48"/>
       <use x="190.869141" xlink:href="#DejaVuSans-49"/>
       <use x="254.492188" xlink:href="#DejaVuSans-48"/>
      </g>
     </g>
    </g>
    <g id="xtick_28">
     <g id="line2d_28">
      <g>
       <use style="stroke:#000000;stroke-width:0.8;" x="536.023555" xlink:href="#m34c63cceac" y="442.08"/>
      </g>
     </g>
     <g id="text_28">
      <!-- 11011 -->
      <g transform="translate(532.037344 494.569906)rotate(-70)scale(0.14 -0.14)">
       <use xlink:href="#DejaVuSans-49"/>
       <use x="63.623047" xlink:href="#DejaVuSans-49"/>
       <use x="127.246094" xlink:href="#DejaVuSans-48"/>
       <use x="190.869141" xlink:href="#DejaVuSans-49"/>
       <use x="254.492188" xlink:href="#DejaVuSans-49"/>
      </g>
     </g>
    </g>
    <g id="xtick_29">
     <g id="line2d_29">
      <g>
       <use style="stroke:#000000;stroke-width:0.8;" x="552.127451" xlink:href="#m34c63cceac" y="442.08"/>
      </g>
     </g>
     <g id="text_29">
      <!-- 11100 -->
      <g transform="translate(548.14124 494.569906)rotate(-70)scale(0.14 -0.14)">
       <use xlink:href="#DejaVuSans-49"/>
       <use x="63.623047" xlink:href="#DejaVuSans-49"/>
       <use x="127.246094" xlink:href="#DejaVuSans-49"/>
       <use x="190.869141" xlink:href="#DejaVuSans-48"/>
       <use x="254.492188" xlink:href="#DejaVuSans-48"/>
      </g>
     </g>
    </g>
    <g id="xtick_30">
     <g id="line2d_30">
      <g>
       <use style="stroke:#000000;stroke-width:0.8;" x="568.231347" xlink:href="#m34c63cceac" y="442.08"/>
      </g>
     </g>
     <g id="text_30">
      <!-- 11101 -->
      <g transform="translate(564.245136 494.569906)rotate(-70)scale(0.14 -0.14)">
       <use xlink:href="#DejaVuSans-49"/>
       <use x="63.623047" xlink:href="#DejaVuSans-49"/>
       <use x="127.246094" xlink:href="#DejaVuSans-49"/>
       <use x="190.869141" xlink:href="#DejaVuSans-48"/>
       <use x="254.492188" xlink:href="#DejaVuSans-49"/>
      </g>
     </g>
    </g>
    <g id="xtick_31">
     <g id="line2d_31">
      <g>
       <use style="stroke:#000000;stroke-width:0.8;" x="584.335244" xlink:href="#m34c63cceac" y="442.08"/>
      </g>
     </g>
     <g id="text_31">
      <!-- 11110 -->
      <g transform="translate(580.349032 494.569906)rotate(-70)scale(0.14 -0.14)">
       <use xlink:href="#DejaVuSans-49"/>
       <use x="63.623047" xlink:href="#DejaVuSans-49"/>
       <use x="127.246094" xlink:href="#DejaVuSans-49"/>
       <use x="190.869141" xlink:href="#DejaVuSans-49"/>
       <use x="254.492188" xlink:href="#DejaVuSans-48"/>
      </g>
     </g>
    </g>
    <g id="xtick_32">
     <g id="line2d_32">
      <g>
       <use style="stroke:#000000;stroke-width:0.8;" x="600.43914" xlink:href="#m34c63cceac" y="442.08"/>
      </g>
     </g>
     <g id="text_32">
      <!-- 11111 -->
      <g transform="translate(596.452929 494.569906)rotate(-70)scale(0.14 -0.14)">
       <use xlink:href="#DejaVuSans-49"/>
       <use x="63.623047" xlink:href="#DejaVuSans-49"/>
       <use x="127.246094" xlink:href="#DejaVuSans-49"/>
       <use x="190.869141" xlink:href="#DejaVuSans-49"/>
       <use x="254.492188" xlink:href="#DejaVuSans-49"/>
      </g>
     </g>
    </g>
   </g>
   <g id="matplotlib.axis_2">
    <g id="ytick_1">
     <g id="line2d_33">
      <path clip-path="url(#pabcd4321dd)" d="M 71.82875 442.08 
L 629.82875 442.08 
" style="fill:none;stroke:#b0b0b0;stroke-dasharray:2.96,1.28;stroke-dashoffset:0;stroke-width:0.8;"/>
     </g>
     <g id="line2d_34">
      <defs>
       <path d="M 0 0 
L -3.5 0 
" id="md6a073c1a4" style="stroke:#000000;stroke-width:0.8;"/>
      </defs>
      <g>
       <use style="stroke:#000000;stroke-width:0.8;" x="71.82875" xlink:href="#md6a073c1a4" y="442.08"/>
      </g>
     </g>
     <g id="text_33">
      <!-- 0.000 -->
      <defs>
       <path d="M 10.6875 12.40625 
L 21 12.40625 
L 21 0 
L 10.6875 0 
z
" id="DejaVuSans-46"/>
      </defs>
      <g transform="translate(24.749375 447.398906)scale(0.14 -0.14)">
       <use xlink:href="#DejaVuSans-48"/>
       <use x="63.623047" xlink:href="#DejaVuSans-46"/>
       <use x="95.410156" xlink:href="#DejaVuSans-48"/>
       <use x="159.033203" xlink:href="#DejaVuSans-48"/>
       <use x="222.65625" xlink:href="#DejaVuSans-48"/>
      </g>
     </g>
    </g>
    <g id="ytick_2">
     <g id="line2d_35">
      <path clip-path="url(#pabcd4321dd)" d="M 71.82875 336.654545 
L 629.82875 336.654545 
" style="fill:none;stroke:#b0b0b0;stroke-dasharray:2.96,1.28;stroke-dashoffset:0;stroke-width:0.8;"/>
     </g>
     <g id="line2d_36">
      <g>
       <use style="stroke:#000000;stroke-width:0.8;" x="71.82875" xlink:href="#md6a073c1a4" y="336.654545"/>
      </g>
     </g>
     <g id="text_34">
      <!-- 0.025 -->
      <defs>
       <path d="M 19.1875 8.296875 
L 53.609375 8.296875 
L 53.609375 0 
L 7.328125 0 
L 7.328125 8.296875 
Q 12.9375 14.109375 22.625 23.890625 
Q 32.328125 33.6875 34.8125 36.53125 
Q 39.546875 41.84375 41.421875 45.53125 
Q 43.3125 49.21875 43.3125 52.78125 
Q 43.3125 58.59375 39.234375 62.25 
Q 35.15625 65.921875 28.609375 65.921875 
Q 23.96875 65.921875 18.8125 64.3125 
Q 13.671875 62.703125 7.8125 59.421875 
L 7.8125 69.390625 
Q 13.765625 71.78125 18.9375 73 
Q 24.125 74.21875 28.421875 74.21875 
Q 39.75 74.21875 46.484375 68.546875 
Q 53.21875 62.890625 53.21875 53.421875 
Q 53.21875 48.921875 51.53125 44.890625 
Q 49.859375 40.875 45.40625 35.40625 
Q 44.1875 33.984375 37.640625 27.21875 
Q 31.109375 20.453125 19.1875 8.296875 
z
" id="DejaVuSans-50"/>
       <path d="M 10.796875 72.90625 
L 49.515625 72.90625 
L 49.515625 64.59375 
L 19.828125 64.59375 
L 19.828125 46.734375 
Q 21.96875 47.46875 24.109375 47.828125 
Q 26.265625 48.1875 28.421875 48.1875 
Q 40.625 48.1875 47.75 41.5 
Q 54.890625 34.8125 54.890625 23.390625 
Q 54.890625 11.625 47.5625 5.09375 
Q 40.234375 -1.421875 26.90625 -1.421875 
Q 22.3125 -1.421875 17.546875 -0.640625 
Q 12.796875 0.140625 7.71875 1.703125 
L 7.71875 11.625 
Q 12.109375 9.234375 16.796875 8.0625 
Q 21.484375 6.890625 26.703125 6.890625 
Q 35.15625 6.890625 40.078125 11.328125 
Q 45.015625 15.765625 45.015625 23.390625 
Q 45.015625 31 40.078125 35.4375 
Q 35.15625 39.890625 26.703125 39.890625 
Q 22.75 39.890625 18.8125 39.015625 
Q 14.890625 38.140625 10.796875 36.28125 
z
" id="DejaVuSans-53"/>
      </defs>
      <g transform="translate(24.749375 341.973452)scale(0.14 -0.14)">
       <use xlink:href="#DejaVuSans-48"/>
       <use x="63.623047" xlink:href="#DejaVuSans-46"/>
       <use x="95.410156" xlink:href="#DejaVuSans-48"/>
       <use x="159.033203" xlink:href="#DejaVuSans-50"/>
       <use x="222.65625" xlink:href="#DejaVuSans-53"/>
      </g>
     </g>
    </g>
    <g id="ytick_3">
     <g id="line2d_37">
      <path clip-path="url(#pabcd4321dd)" d="M 71.82875 231.229091 
L 629.82875 231.229091 
" style="fill:none;stroke:#b0b0b0;stroke-dasharray:2.96,1.28;stroke-dashoffset:0;stroke-width:0.8;"/>
     </g>
     <g id="line2d_38">
      <g>
       <use style="stroke:#000000;stroke-width:0.8;" x="71.82875" xlink:href="#md6a073c1a4" y="231.229091"/>
      </g>
     </g>
     <g id="text_35">
      <!-- 0.050 -->
      <g transform="translate(24.749375 236.547997)scale(0.14 -0.14)">
       <use xlink:href="#DejaVuSans-48"/>
       <use x="63.623047" xlink:href="#DejaVuSans-46"/>
       <use x="95.410156" xlink:href="#DejaVuSans-48"/>
       <use x="159.033203" xlink:href="#DejaVuSans-53"/>
       <use x="222.65625" xlink:href="#DejaVuSans-48"/>
      </g>
     </g>
    </g>
    <g id="ytick_4">
     <g id="line2d_39">
      <path clip-path="url(#pabcd4321dd)" d="M 71.82875 125.803636 
L 629.82875 125.803636 
" style="fill:none;stroke:#b0b0b0;stroke-dasharray:2.96,1.28;stroke-dashoffset:0;stroke-width:0.8;"/>
     </g>
     <g id="line2d_40">
      <g>
       <use style="stroke:#000000;stroke-width:0.8;" x="71.82875" xlink:href="#md6a073c1a4" y="125.803636"/>
      </g>
     </g>
     <g id="text_36">
      <!-- 0.075 -->
      <defs>
       <path d="M 8.203125 72.90625 
L 55.078125 72.90625 
L 55.078125 68.703125 
L 28.609375 0 
L 18.3125 0 
L 43.21875 64.59375 
L 8.203125 64.59375 
z
" id="DejaVuSans-55"/>
      </defs>
      <g transform="translate(24.749375 131.122543)scale(0.14 -0.14)">
       <use xlink:href="#DejaVuSans-48"/>
       <use x="63.623047" xlink:href="#DejaVuSans-46"/>
       <use x="95.410156" xlink:href="#DejaVuSans-48"/>
       <use x="159.033203" xlink:href="#DejaVuSans-55"/>
       <use x="222.65625" xlink:href="#DejaVuSans-53"/>
      </g>
     </g>
    </g>
    <g id="ytick_5">
     <g id="line2d_41">
      <path clip-path="url(#pabcd4321dd)" d="M 71.82875 20.378182 
L 629.82875 20.378182 
" style="fill:none;stroke:#b0b0b0;stroke-dasharray:2.96,1.28;stroke-dashoffset:0;stroke-width:0.8;"/>
     </g>
     <g id="line2d_42">
      <g>
       <use style="stroke:#000000;stroke-width:0.8;" x="71.82875" xlink:href="#md6a073c1a4" y="20.378182"/>
      </g>
     </g>
     <g id="text_37">
      <!-- 0.100 -->
      <g transform="translate(24.749375 25.697088)scale(0.14 -0.14)">
       <use xlink:href="#DejaVuSans-48"/>
       <use x="63.623047" xlink:href="#DejaVuSans-46"/>
       <use x="95.410156" xlink:href="#DejaVuSans-49"/>
       <use x="159.033203" xlink:href="#DejaVuSans-48"/>
       <use x="222.65625" xlink:href="#DejaVuSans-48"/>
      </g>
     </g>
    </g>
    <g id="text_38">
     <!-- Probabilities -->
     <defs>
      <path d="M 19.671875 64.796875 
L 19.671875 37.40625 
L 32.078125 37.40625 
Q 38.96875 37.40625 42.71875 40.96875 
Q 46.484375 44.53125 46.484375 51.125 
Q 46.484375 57.671875 42.71875 61.234375 
Q 38.96875 64.796875 32.078125 64.796875 
z
M 9.8125 72.90625 
L 32.078125 72.90625 
Q 44.34375 72.90625 50.609375 67.359375 
Q 56.890625 61.8125 56.890625 51.125 
Q 56.890625 40.328125 50.609375 34.8125 
Q 44.34375 29.296875 32.078125 29.296875 
L 19.671875 29.296875 
L 19.671875 0 
L 9.8125 0 
z
" id="DejaVuSans-80"/>
      <path d="M 41.109375 46.296875 
Q 39.59375 47.171875 37.8125 47.578125 
Q 36.03125 48 33.890625 48 
Q 26.265625 48 22.1875 43.046875 
Q 18.109375 38.09375 18.109375 28.8125 
L 18.109375 0 
L 9.078125 0 
L 9.078125 54.6875 
L 18.109375 54.6875 
L 18.109375 46.1875 
Q 20.953125 51.171875 25.484375 53.578125 
Q 30.03125 56 36.53125 56 
Q 37.453125 56 38.578125 55.875 
Q 39.703125 55.765625 41.0625 55.515625 
z
" id="DejaVuSans-114"/>
      <path d="M 30.609375 48.390625 
Q 23.390625 48.390625 19.1875 42.75 
Q 14.984375 37.109375 14.984375 27.296875 
Q 14.984375 17.484375 19.15625 11.84375 
Q 23.34375 6.203125 30.609375 6.203125 
Q 37.796875 6.203125 41.984375 11.859375 
Q 46.1875 17.53125 46.1875 27.296875 
Q 46.1875 37.015625 41.984375 42.703125 
Q 37.796875 48.390625 30.609375 48.390625 
z
M 30.609375 56 
Q 42.328125 56 49.015625 48.375 
Q 55.71875 40.765625 55.71875 27.296875 
Q 55.71875 13.875 49.015625 6.21875 
Q 42.328125 -1.421875 30.609375 -1.421875 
Q 18.84375 -1.421875 12.171875 6.21875 
Q 5.515625 13.875 5.515625 27.296875 
Q 5.515625 40.765625 12.171875 48.375 
Q 18.84375 56 30.609375 56 
z
" id="DejaVuSans-111"/>
      <path d="M 48.6875 27.296875 
Q 48.6875 37.203125 44.609375 42.84375 
Q 40.53125 48.484375 33.40625 48.484375 
Q 26.265625 48.484375 22.1875 42.84375 
Q 18.109375 37.203125 18.109375 27.296875 
Q 18.109375 17.390625 22.1875 11.75 
Q 26.265625 6.109375 33.40625 6.109375 
Q 40.53125 6.109375 44.609375 11.75 
Q 48.6875 17.390625 48.6875 27.296875 
z
M 18.109375 46.390625 
Q 20.953125 51.265625 25.265625 53.625 
Q 29.59375 56 35.59375 56 
Q 45.5625 56 51.78125 48.09375 
Q 58.015625 40.1875 58.015625 27.296875 
Q 58.015625 14.40625 51.78125 6.484375 
Q 45.5625 -1.421875 35.59375 -1.421875 
Q 29.59375 -1.421875 25.265625 0.953125 
Q 20.953125 3.328125 18.109375 8.203125 
L 18.109375 0 
L 9.078125 0 
L 9.078125 75.984375 
L 18.109375 75.984375 
z
" id="DejaVuSans-98"/>
      <path d="M 34.28125 27.484375 
Q 23.390625 27.484375 19.1875 25 
Q 14.984375 22.515625 14.984375 16.5 
Q 14.984375 11.71875 18.140625 8.90625 
Q 21.296875 6.109375 26.703125 6.109375 
Q 34.1875 6.109375 38.703125 11.40625 
Q 43.21875 16.703125 43.21875 25.484375 
L 43.21875 27.484375 
z
M 52.203125 31.203125 
L 52.203125 0 
L 43.21875 0 
L 43.21875 8.296875 
Q 40.140625 3.328125 35.546875 0.953125 
Q 30.953125 -1.421875 24.3125 -1.421875 
Q 15.921875 -1.421875 10.953125 3.296875 
Q 6 8.015625 6 15.921875 
Q 6 25.140625 12.171875 29.828125 
Q 18.359375 34.515625 30.609375 34.515625 
L 43.21875 34.515625 
L 43.21875 35.40625 
Q 43.21875 41.609375 39.140625 45 
Q 35.0625 48.390625 27.6875 48.390625 
Q 23 48.390625 18.546875 47.265625 
Q 14.109375 46.140625 10.015625 43.890625 
L 10.015625 52.203125 
Q 14.9375 54.109375 19.578125 55.046875 
Q 24.21875 56 28.609375 56 
Q 40.484375 56 46.34375 49.84375 
Q 52.203125 43.703125 52.203125 31.203125 
z
" id="DejaVuSans-97"/>
      <path d="M 9.421875 54.6875 
L 18.40625 54.6875 
L 18.40625 0 
L 9.421875 0 
z
M 9.421875 75.984375 
L 18.40625 75.984375 
L 18.40625 64.59375 
L 9.421875 64.59375 
z
" id="DejaVuSans-105"/>
      <path d="M 9.421875 75.984375 
L 18.40625 75.984375 
L 18.40625 0 
L 9.421875 0 
z
" id="DejaVuSans-108"/>
      <path d="M 18.3125 70.21875 
L 18.3125 54.6875 
L 36.8125 54.6875 
L 36.8125 47.703125 
L 18.3125 47.703125 
L 18.3125 18.015625 
Q 18.3125 11.328125 20.140625 9.421875 
Q 21.96875 7.515625 27.59375 7.515625 
L 36.8125 7.515625 
L 36.8125 0 
L 27.59375 0 
Q 17.1875 0 13.234375 3.875 
Q 9.28125 7.765625 9.28125 18.015625 
L 9.28125 47.703125 
L 2.6875 47.703125 
L 2.6875 54.6875 
L 9.28125 54.6875 
L 9.28125 70.21875 
z
" id="DejaVuSans-116"/>
      <path d="M 56.203125 29.59375 
L 56.203125 25.203125 
L 14.890625 25.203125 
Q 15.484375 15.921875 20.484375 11.0625 
Q 25.484375 6.203125 34.421875 6.203125 
Q 39.59375 6.203125 44.453125 7.46875 
Q 49.3125 8.734375 54.109375 11.28125 
L 54.109375 2.78125 
Q 49.265625 0.734375 44.1875 -0.34375 
Q 39.109375 -1.421875 33.890625 -1.421875 
Q 20.796875 -1.421875 13.15625 6.1875 
Q 5.515625 13.8125 5.515625 26.8125 
Q 5.515625 40.234375 12.765625 48.109375 
Q 20.015625 56 32.328125 56 
Q 43.359375 56 49.78125 48.890625 
Q 56.203125 41.796875 56.203125 29.59375 
z
M 47.21875 32.234375 
Q 47.125 39.59375 43.09375 43.984375 
Q 39.0625 48.390625 32.421875 48.390625 
Q 24.90625 48.390625 20.390625 44.140625 
Q 15.875 39.890625 15.1875 32.171875 
z
" id="DejaVuSans-101"/>
      <path d="M 44.28125 53.078125 
L 44.28125 44.578125 
Q 40.484375 46.53125 36.375 47.5 
Q 32.28125 48.484375 27.875 48.484375 
Q 21.1875 48.484375 17.84375 46.4375 
Q 14.5 44.390625 14.5 40.28125 
Q 14.5 37.15625 16.890625 35.375 
Q 19.28125 33.59375 26.515625 31.984375 
L 29.59375 31.296875 
Q 39.15625 29.25 43.1875 25.515625 
Q 47.21875 21.78125 47.21875 15.09375 
Q 47.21875 7.46875 41.1875 3.015625 
Q 35.15625 -1.421875 24.609375 -1.421875 
Q 20.21875 -1.421875 15.453125 -0.5625 
Q 10.6875 0.296875 5.421875 2 
L 5.421875 11.28125 
Q 10.40625 8.6875 15.234375 7.390625 
Q 20.0625 6.109375 24.8125 6.109375 
Q 31.15625 6.109375 34.5625 8.28125 
Q 37.984375 10.453125 37.984375 14.40625 
Q 37.984375 18.0625 35.515625 20.015625 
Q 33.0625 21.96875 24.703125 23.78125 
L 21.578125 24.515625 
Q 13.234375 26.265625 9.515625 29.90625 
Q 5.8125 33.546875 5.8125 39.890625 
Q 5.8125 47.609375 11.28125 51.796875 
Q 16.75 56 26.8125 56 
Q 31.78125 56 36.171875 55.265625 
Q 40.578125 54.546875 44.28125 53.078125 
z
" id="DejaVuSans-115"/>
     </defs>
     <g transform="translate(17.837813 267.6725)rotate(-90)scale(0.14 -0.14)">
      <use xlink:href="#DejaVuSans-80"/>
      <use x="60.287109" xlink:href="#DejaVuSans-114"/>
      <use x="101.369141" xlink:href="#DejaVuSans-111"/>
      <use x="162.550781" xlink:href="#DejaVuSans-98"/>
      <use x="226.027344" xlink:href="#DejaVuSans-97"/>
      <use x="287.306641" xlink:href="#DejaVuSans-98"/>
      <use x="350.783203" xlink:href="#DejaVuSans-105"/>
      <use x="378.566406" xlink:href="#DejaVuSans-108"/>
      <use x="406.349609" xlink:href="#DejaVuSans-105"/>
      <use x="434.132812" xlink:href="#DejaVuSans-116"/>
      <use x="473.341797" xlink:href="#DejaVuSans-105"/>
      <use x="501.125" xlink:href="#DejaVuSans-101"/>
      <use x="562.648438" xlink:href="#DejaVuSans-115"/>
     </g>
    </g>
   </g>
   <g id="patch_3">
    <path clip-path="url(#pabcd4321dd)" d="M 97.192386 442.08 
L 105.244334 442.08 
L 105.244334 275.293636 
L 97.192386 275.293636 
z
" style="fill:#648fff;"/>
   </g>
   <g id="patch_4">
    <path clip-path="url(#pabcd4321dd)" d="M 113.296282 442.08 
L 121.348231 442.08 
L 121.348231 262.939091 
L 113.296282 262.939091 
z
" style="fill:#648fff;"/>
   </g>
   <g id="patch_5">
    <path clip-path="url(#pabcd4321dd)" d="M 129.400179 442.08 
L 137.452127 442.08 
L 137.452127 236.170909 
L 129.400179 236.170909 
z
" style="fill:#648fff;"/>
   </g>
   <g id="patch_6">
    <path clip-path="url(#pabcd4321dd)" d="M 145.504075 442.08 
L 153.556023 442.08 
L 153.556023 353.539091 
L 145.504075 353.539091 
z
" style="fill:#648fff;"/>
   </g>
   <g id="patch_7">
    <path clip-path="url(#pabcd4321dd)" d="M 161.607971 442.08 
L 169.659919 442.08 
L 169.659919 256.761818 
L 161.607971 256.761818 
z
" style="fill:#648fff;"/>
   </g>
   <g id="patch_8">
    <path clip-path="url(#pabcd4321dd)" d="M 177.711867 442.08 
L 185.763815 442.08 
L 185.763815 295.884545 
L 177.711867 295.884545 
z
" style="fill:#648fff;"/>
   </g>
   <g id="patch_9">
    <path clip-path="url(#pabcd4321dd)" d="M 193.815763 442.08 
L 201.867711 442.08 
L 201.867711 300.002727 
L 193.815763 300.002727 
z
" style="fill:#648fff;"/>
   </g>
   <g id="patch_10">
    <path clip-path="url(#pabcd4321dd)" d="M 209.919659 442.08 
L 217.971607 442.08 
L 217.971607 347.361818 
L 209.919659 347.361818 
z
" style="fill:#648fff;"/>
   </g>
   <g id="patch_11">
    <path clip-path="url(#pabcd4321dd)" d="M 226.023555 442.08 
L 234.075503 442.08 
L 234.075503 258.820909 
L 226.023555 258.820909 
z
" style="fill:#648fff;"/>
   </g>
   <g id="patch_12">
    <path clip-path="url(#pabcd4321dd)" d="M 242.127451 442.08 
L 250.179399 442.08 
L 250.179399 221.757273 
L 242.127451 221.757273 
z
" style="fill:#648fff;"/>
   </g>
   <g id="patch_13">
    <path clip-path="url(#pabcd4321dd)" d="M 258.231347 442.08 
L 266.283295 442.08 
L 266.283295 227.934545 
L 258.231347 227.934545 
z
" style="fill:#648fff;"/>
   </g>
   <g id="patch_14">
    <path clip-path="url(#pabcd4321dd)" d="M 274.335244 442.08 
L 282.387192 442.08 
L 282.387192 380.307273 
L 274.335244 380.307273 
z
" style="fill:#648fff;"/>
   </g>
   <g id="patch_15">
    <path clip-path="url(#pabcd4321dd)" d="M 290.43914 442.08 
L 298.491088 442.08 
L 298.491088 355.598182 
L 290.43914 355.598182 
z
" style="fill:#648fff;"/>
   </g>
   <g id="patch_16">
    <path clip-path="url(#pabcd4321dd)" d="M 306.543036 442.08 
L 314.594984 442.08 
L 314.594984 390.602727 
L 306.543036 390.602727 
z
" style="fill:#648fff;"/>
   </g>
   <g id="patch_17">
    <path clip-path="url(#pabcd4321dd)" d="M 322.646932 442.08 
L 330.69888 442.08 
L 330.69888 384.425455 
L 322.646932 384.425455 
z
" style="fill:#648fff;"/>
   </g>
   <g id="patch_18">
    <path clip-path="url(#pabcd4321dd)" d="M 338.750828 442.08 
L 346.802776 442.08 
L 346.802776 359.716364 
L 338.750828 359.716364 
z
" style="fill:#648fff;"/>
   </g>
   <g id="patch_19">
    <path clip-path="url(#pabcd4321dd)" d="M 354.854724 442.08 
L 362.906672 442.08 
L 362.906672 254.702727 
L 354.854724 254.702727 
z
" style="fill:#648fff;"/>
   </g>
   <g id="patch_20">
    <path clip-path="url(#pabcd4321dd)" d="M 370.95862 442.08 
L 379.010568 442.08 
L 379.010568 153.807273 
L 370.95862 153.807273 
z
" style="fill:#648fff;"/>
   </g>
   <g id="patch_21">
    <path clip-path="url(#pabcd4321dd)" d="M 387.062516 442.08 
L 395.114464 442.08 
L 395.114464 79.68 
L 387.062516 79.68 
z
" style="fill:#648fff;"/>
   </g>
   <g id="patch_22">
    <path clip-path="url(#pabcd4321dd)" d="M 403.166412 442.08 
L 411.21836 442.08 
L 411.21836 345.302727 
L 403.166412 345.302727 
z
" style="fill:#648fff;"/>
   </g>
   <g id="patch_23">
    <path clip-path="url(#pabcd4321dd)" d="M 419.270308 442.08 
L 427.322256 442.08 
L 427.322256 347.361818 
L 419.270308 347.361818 
z
" style="fill:#648fff;"/>
   </g>
   <g id="patch_24">
    <path clip-path="url(#pabcd4321dd)" d="M 435.374205 442.08 
L 443.426153 442.08 
L 443.426153 386.484545 
L 435.374205 386.484545 
z
" style="fill:#648fff;"/>
   </g>
   <g id="patch_25">
    <path clip-path="url(#pabcd4321dd)" d="M 451.478101 442.08 
L 459.530049 442.08 
L 459.530049 363.834545 
L 451.478101 363.834545 
z
" style="fill:#648fff;"/>
   </g>
   <g id="patch_26">
    <path clip-path="url(#pabcd4321dd)" d="M 467.581997 442.08 
L 475.633945 442.08 
L 475.633945 384.425455 
L 467.581997 384.425455 
z
" style="fill:#648fff;"/>
   </g>
   <g id="patch_27">
    <path clip-path="url(#pabcd4321dd)" d="M 483.685893 442.08 
L 491.737841 442.08 
L 491.737841 328.83 
L 483.685893 328.83 
z
" style="fill:#648fff;"/>
   </g>
   <g id="patch_28">
    <path clip-path="url(#pabcd4321dd)" d="M 499.789789 442.08 
L 507.841737 442.08 
L 507.841737 357.657273 
L 499.789789 357.657273 
z
" style="fill:#648fff;"/>
   </g>
   <g id="patch_29">
    <path clip-path="url(#pabcd4321dd)" d="M 515.893685 442.08 
L 523.945633 442.08 
L 523.945633 370.011818 
L 515.893685 370.011818 
z
" style="fill:#648fff;"/>
   </g>
   <g id="patch_30">
    <path clip-path="url(#pabcd4321dd)" d="M 531.997581 442.08 
L 540.049529 442.08 
L 540.049529 390.602727 
L 531.997581 390.602727 
z
" style="fill:#648fff;"/>
   </g>
   <g id="patch_31">
    <path clip-path="url(#pabcd4321dd)" d="M 548.101477 442.08 
L 556.153425 442.08 
L 556.153425 310.298182 
L 548.101477 310.298182 
z
" style="fill:#648fff;"/>
   </g>
   <g id="patch_32">
    <path clip-path="url(#pabcd4321dd)" d="M 564.205373 442.08 
L 572.257321 442.08 
L 572.257321 302.061818 
L 564.205373 302.061818 
z
" style="fill:#648fff;"/>
   </g>
   <g id="patch_33">
    <path clip-path="url(#pabcd4321dd)" d="M 580.309269 442.08 
L 588.361218 442.08 
L 588.361218 297.943636 
L 580.309269 297.943636 
z
" style="fill:#648fff;"/>
   </g>
   <g id="patch_34">
    <path clip-path="url(#pabcd4321dd)" d="M 596.413166 442.08 
L 604.465114 442.08 
L 604.465114 349.420909 
L 596.413166 349.420909 
z
" style="fill:#648fff;"/>
   </g>
   <g id="patch_35">
    <path d="M 71.82875 442.08 
L 71.82875 7.2 
" style="fill:none;stroke:#000000;stroke-linecap:square;stroke-linejoin:miter;stroke-width:0.8;"/>
   </g>
   <g id="patch_36">
    <path d="M 629.82875 442.08 
L 629.82875 7.2 
" style="fill:none;stroke:#000000;stroke-linecap:square;stroke-linejoin:miter;stroke-width:0.8;"/>
   </g>
   <g id="patch_37">
    <path d="M 71.82875 442.08 
L 629.82875 442.08 
" style="fill:none;stroke:#000000;stroke-linecap:square;stroke-linejoin:miter;stroke-width:0.8;"/>
   </g>
   <g id="patch_38">
    <path d="M 71.82875 7.2 
L 629.82875 7.2 
" style="fill:none;stroke:#000000;stroke-linecap:square;stroke-linejoin:miter;stroke-width:0.8;"/>
   </g>
  </g>
 </g>
 <defs>
  <clipPath id="pabcd4321dd">
   <rect height="434.88" width="558" x="71.82875" y="7.2"/>
  </clipPath>
 </defs>
</svg>
