<?xml version="1.0" encoding="utf-8" standalone="no"?>
<!DOCTYPE svg PUBLIC "-//W3C//DTD SVG 1.1//EN"
  "http://www.w3.org/Graphics/SVG/1.1/DTD/svg11.dtd">
<!-- Created with matplotlib (https://matplotlib.org/) -->
<svg height="305.2864pt" version="1.1" viewBox="0 0 1148.85696 305.2864" width="1148.85696pt" xmlns="http://www.w3.org/2000/svg" xmlns:xlink="http://www.w3.org/1999/xlink">
 <defs>
  <style type="text/css">
*{stroke-linecap:butt;stroke-linejoin:round;}
  </style>
 </defs>
 <g id="figure_1">
  <g id="patch_1">
   <path d="M 0 305.2864 
L 1148.85696 305.2864 
L 1148.85696 0 
L 0 0 
z
" style="fill:#ffffff;"/>
  </g>
  <g id="axes_1">
   <g id="patch_2">
    <path clip-path="url(#pd83e3b9b27)" d="M 903.94823 260.475697 
L 915.76549 260.475697 
L 909.85686 270.8158 
z
" style="fill:#778899;"/>
   </g>
   <g id="patch_3">
    <path clip-path="url(#pd83e3b9b27)" d="M 949.39923 260.475697 
L 961.21649 260.475697 
L 955.30786 270.8158 
z
" style="fill:#778899;"/>
   </g>
   <g id="patch_4">
    <path clip-path="url(#pd83e3b9b27)" d="M 994.85023 260.475697 
L 1006.66749 260.475697 
L 1000.75886 270.8158 
z
" style="fill:#778899;"/>
   </g>
   <g id="patch_5">
    <path clip-path="url(#pd83e3b9b27)" d="M 1040.30123 260.475697 
L 1052.11849 260.475697 
L 1046.20986 270.8158 
z
" style="fill:#778899;"/>
   </g>
   <g id="patch_6">
    <path clip-path="url(#pd83e3b9b27)" d="M 1085.75223 260.475697 
L 1097.56949 260.475697 
L 1091.66086 270.8158 
z
" style="fill:#778899;"/>
   </g>
   <g id="line2d_1">
    <path clip-path="url(#pd83e3b9b27)" d="M 114.46436 43.5608 
L 1137.11186 43.5608 
" style="fill:none;stroke:#000000;stroke-linecap:square;stroke-width:2;"/>
   </g>
   <g id="line2d_2">
    <path clip-path="url(#pd83e3b9b27)" d="M 114.46436 89.0118 
L 1137.11186 89.0118 
" style="fill:none;stroke:#000000;stroke-linecap:square;stroke-width:2;"/>
   </g>
   <g id="line2d_3">
    <path clip-path="url(#pd83e3b9b27)" d="M 114.46436 134.4628 
L 1137.11186 134.4628 
" style="fill:none;stroke:#000000;stroke-linecap:square;stroke-width:2;"/>
   </g>
   <g id="line2d_4">
    <path clip-path="url(#pd83e3b9b27)" d="M 114.46436 179.9138 
L 1137.11186 179.9138 
" style="fill:none;stroke:#000000;stroke-linecap:square;stroke-width:2;"/>
   </g>
   <g id="line2d_5">
    <path clip-path="url(#pd83e3b9b27)" d="M 114.46436 225.3648 
L 1137.11186 225.3648 
" style="fill:none;stroke:#000000;stroke-linecap:square;stroke-width:2;"/>
   </g>
   <g id="line2d_6">
    <path clip-path="url(#pd83e3b9b27)" d="M 114.46436 269.338642 
L 1137.11186 269.338642 
" style="fill:none;stroke:#778899;stroke-linecap:square;stroke-width:2;"/>
   </g>
   <g id="line2d_7">
    <path clip-path="url(#pd83e3b9b27)" d="M 114.46436 272.292957 
L 1137.11186 272.292957 
" style="fill:none;stroke:#778899;stroke-linecap:square;stroke-width:2;"/>
   </g>
   <g id="patch_7">
    <path clip-path="url(#pd83e3b9b27)" d="M 173.777915 248.0903 
L 191.503805 248.0903 
L 191.503805 20.8353 
L 173.777915 20.8353 
z
" style="fill:#bdbdbd;opacity:0.6;"/>
   </g>
   <g id="patch_8">
    <path clip-path="url(#pd83e3b9b27)" d="M 764.640915 248.0903 
L 782.366805 248.0903 
L 782.366805 20.8353 
L 764.640915 20.8353 
z
" style="fill:#bdbdbd;opacity:0.6;"/>
   </g>
   <g id="patch_9">
    <path clip-path="url(#pd83e3b9b27)" d="M 855.542915 248.0903 
L 873.268805 248.0903 
L 873.268805 20.8353 
L 855.542915 20.8353 
z
" style="fill:#bdbdbd;opacity:0.6;"/>
   </g>
   <g id="line2d_8">
    <path clip-path="url(#pd83e3b9b27)" d="M 228.09186 89.0118 
L 228.09186 43.5608 
" style="fill:none;stroke:#bb8bff;stroke-linecap:square;stroke-width:2;"/>
   </g>
   <g id="line2d_9">
    <path clip-path="url(#pd83e3b9b27)" d="M 318.99386 134.4628 
L 318.99386 43.5608 
" style="fill:none;stroke:#bb8bff;stroke-linecap:square;stroke-width:2;"/>
   </g>
   <g id="line2d_10">
    <path clip-path="url(#pd83e3b9b27)" d="M 409.89586 134.4628 
L 409.89586 89.0118 
" style="fill:none;stroke:#bb8bff;stroke-linecap:square;stroke-width:2;"/>
   </g>
   <g id="line2d_11">
    <path clip-path="url(#pd83e3b9b27)" d="M 500.79786 179.9138 
L 500.79786 134.4628 
" style="fill:none;stroke:#bb8bff;stroke-linecap:square;stroke-width:2;"/>
   </g>
   <g id="line2d_12">
    <path clip-path="url(#pd83e3b9b27)" d="M 591.69986 225.3648 
L 591.69986 179.9138 
" style="fill:none;stroke:#bb8bff;stroke-linecap:square;stroke-width:2;"/>
   </g>
   <g id="line2d_13">
    <path clip-path="url(#pd83e3b9b27)" d="M 682.60186 225.3648 
L 682.60186 134.4628 
" style="fill:none;stroke:#bb8bff;stroke-linecap:square;stroke-width:2;"/>
   </g>
   <g id="line2d_14">
    <path clip-path="url(#pd83e3b9b27)" d="M 911.334017 43.5608 
L 911.334017 260.475697 
" style="fill:none;stroke:#778899;stroke-linecap:square;stroke-width:2;"/>
   </g>
   <g id="line2d_15">
    <path clip-path="url(#pd83e3b9b27)" d="M 908.379702 43.5608 
L 908.379702 260.475697 
" style="fill:none;stroke:#778899;stroke-linecap:square;stroke-width:2;"/>
   </g>
   <g id="line2d_16">
    <path clip-path="url(#pd83e3b9b27)" d="M 956.785017 89.0118 
L 956.785017 260.475697 
" style="fill:none;stroke:#778899;stroke-linecap:square;stroke-width:2;"/>
   </g>
   <g id="line2d_17">
    <path clip-path="url(#pd83e3b9b27)" d="M 953.830702 89.0118 
L 953.830702 260.475697 
" style="fill:none;stroke:#778899;stroke-linecap:square;stroke-width:2;"/>
   </g>
   <g id="line2d_18">
    <path clip-path="url(#pd83e3b9b27)" d="M 1002.236017 134.4628 
L 1002.236017 260.475697 
" style="fill:none;stroke:#778899;stroke-linecap:square;stroke-width:2;"/>
   </g>
   <g id="line2d_19">
    <path clip-path="url(#pd83e3b9b27)" d="M 999.281702 134.4628 
L 999.281702 260.475697 
" style="fill:none;stroke:#778899;stroke-linecap:square;stroke-width:2;"/>
   </g>
   <g id="line2d_20">
    <path clip-path="url(#pd83e3b9b27)" d="M 1047.687017 179.9138 
L 1047.687017 260.475697 
" style="fill:none;stroke:#778899;stroke-linecap:square;stroke-width:2;"/>
   </g>
   <g id="line2d_21">
    <path clip-path="url(#pd83e3b9b27)" d="M 1044.732702 179.9138 
L 1044.732702 260.475697 
" style="fill:none;stroke:#778899;stroke-linecap:square;stroke-width:2;"/>
   </g>
   <g id="line2d_22">
    <path clip-path="url(#pd83e3b9b27)" d="M 1093.138017 225.3648 
L 1093.138017 260.475697 
" style="fill:none;stroke:#778899;stroke-linecap:square;stroke-width:2;"/>
   </g>
   <g id="line2d_23">
    <path clip-path="url(#pd83e3b9b27)" d="M 1090.183702 225.3648 
L 1090.183702 260.475697 
" style="fill:none;stroke:#778899;stroke-linecap:square;stroke-width:2;"/>
   </g>
   <g id="line2d_24">
    <path clip-path="url(#pd83e3b9b27)" d="M 141.73496 275.3609 
L 146.28006 266.2707 
" style="fill:none;stroke:#778899;stroke-linecap:square;stroke-width:1.5;"/>
   </g>
   <g id="patch_10">
    <path clip-path="url(#pd83e3b9b27)" d="M 122.418285 58.332375 
L 151.961435 58.332375 
L 151.961435 28.789225 
L 122.418285 28.789225 
z
" style="fill:#6fa4ff;"/>
   </g>
   <g id="patch_11">
    <path clip-path="url(#pd83e3b9b27)" d="M 122.418285 103.783375 
L 151.961435 103.783375 
L 151.961435 74.240225 
L 122.418285 74.240225 
z
" style="fill:#6fa4ff;"/>
   </g>
   <g id="patch_12">
    <path clip-path="url(#pd83e3b9b27)" d="M 122.418285 149.234375 
L 151.961435 149.234375 
L 151.961435 119.691225 
L 122.418285 119.691225 
z
" style="fill:#6fa4ff;"/>
   </g>
   <g id="patch_13">
    <path clip-path="url(#pd83e3b9b27)" d="M 122.418285 194.685375 
L 151.961435 194.685375 
L 151.961435 165.142225 
L 122.418285 165.142225 
z
" style="fill:#6fa4ff;"/>
   </g>
   <g id="patch_14">
    <path clip-path="url(#pd83e3b9b27)" d="M 122.418285 240.136375 
L 151.961435 240.136375 
L 151.961435 210.593225 
L 122.418285 210.593225 
z
" style="fill:#6fa4ff;"/>
   </g>
   <g id="patch_15">
    <path clip-path="url(#pd83e3b9b27)" d="M 228.09186 47.992272 
C 229.2671 47.992272 230.394364 47.525345 231.225384 46.694324 
C 232.056405 45.863304 232.523333 44.73604 232.523333 43.5608 
C 232.523333 42.38556 232.056405 41.258296 231.225384 40.427276 
C 230.394364 39.596255 229.2671 39.129327 228.09186 39.129327 
C 226.91662 39.129327 225.789356 39.596255 224.958336 40.427276 
C 224.127315 41.258296 223.660387 42.38556 223.660387 43.5608 
C 223.660387 44.73604 224.127315 45.863304 224.958336 46.694324 
C 225.789356 47.525345 226.91662 47.992272 228.09186 47.992272 
z
" style="fill:#bb8bff;stroke:#bb8bff;stroke-linejoin:miter;stroke-width:1.5;"/>
   </g>
   <g id="patch_16">
    <path clip-path="url(#pd83e3b9b27)" d="M 213.320285 103.783375 
L 242.863435 103.783375 
L 242.863435 74.240225 
L 213.320285 74.240225 
z
" style="fill:#bb8bff;"/>
   </g>
   <g id="patch_17">
    <path clip-path="url(#pd83e3b9b27)" d="M 258.771285 58.332375 
L 288.314435 58.332375 
L 288.314435 28.789225 
L 258.771285 28.789225 
z
" style="fill:#fa74a6;"/>
   </g>
   <g id="patch_18">
    <path clip-path="url(#pd83e3b9b27)" d="M 258.771285 103.783375 
L 288.314435 103.783375 
L 288.314435 74.240225 
L 258.771285 74.240225 
z
" style="fill:#fa74a6;"/>
   </g>
   <g id="patch_19">
    <path clip-path="url(#pd83e3b9b27)" d="M 318.99386 47.992272 
C 320.1691 47.992272 321.296364 47.525345 322.127384 46.694324 
C 322.958405 45.863304 323.425332 44.73604 323.425332 43.5608 
C 323.425332 42.38556 322.958405 41.258296 322.127384 40.427276 
C 321.296364 39.596255 320.1691 39.129327 318.99386 39.129327 
C 317.81862 39.129327 316.691356 39.596255 315.860336 40.427276 
C 315.029315 41.258296 314.562387 42.38556 314.562387 43.5608 
C 314.562387 44.73604 315.029315 45.863304 315.860336 46.694324 
C 316.691356 47.525345 317.81862 47.992272 318.99386 47.992272 
z
" style="fill:#bb8bff;stroke:#bb8bff;stroke-linejoin:miter;stroke-width:1.5;"/>
   </g>
   <g id="patch_20">
    <path clip-path="url(#pd83e3b9b27)" d="M 304.222285 149.234375 
L 333.765435 149.234375 
L 333.765435 119.691225 
L 304.222285 119.691225 
z
" style="fill:#bb8bff;"/>
   </g>
   <g id="patch_21">
    <path clip-path="url(#pd83e3b9b27)" d="M 349.673285 58.332375 
L 379.216435 58.332375 
L 379.216435 28.789225 
L 349.673285 28.789225 
z
" style="fill:#fa74a6;"/>
   </g>
   <g id="patch_22">
    <path clip-path="url(#pd83e3b9b27)" d="M 349.673285 149.234375 
L 379.216435 149.234375 
L 379.216435 119.691225 
L 349.673285 119.691225 
z
" style="fill:#fa74a6;"/>
   </g>
   <g id="patch_23">
    <path clip-path="url(#pd83e3b9b27)" d="M 409.89586 93.443272 
C 411.0711 93.443272 412.198364 92.976345 413.029384 92.145324 
C 413.860405 91.314304 414.327332 90.18704 414.327332 89.0118 
C 414.327332 87.83656 413.860405 86.709296 413.029384 85.878276 
C 412.198364 85.047255 411.0711 84.580327 409.89586 84.580327 
C 408.72062 84.580327 407.593356 85.047255 406.762336 85.878276 
C 405.931315 86.709296 405.464387 87.83656 405.464387 89.0118 
C 405.464387 90.18704 405.931315 91.314304 406.762336 92.145324 
C 407.593356 92.976345 408.72062 93.443272 409.89586 93.443272 
z
" style="fill:#bb8bff;stroke:#bb8bff;stroke-linejoin:miter;stroke-width:1.5;"/>
   </g>
   <g id="patch_24">
    <path clip-path="url(#pd83e3b9b27)" d="M 395.124285 149.234375 
L 424.667435 149.234375 
L 424.667435 119.691225 
L 395.124285 119.691225 
z
" style="fill:#bb8bff;"/>
   </g>
   <g id="patch_25">
    <path clip-path="url(#pd83e3b9b27)" d="M 440.575285 103.783375 
L 470.118435 103.783375 
L 470.118435 74.240225 
L 440.575285 74.240225 
z
" style="fill:#fa74a6;"/>
   </g>
   <g id="patch_26">
    <path clip-path="url(#pd83e3b9b27)" d="M 440.575285 149.234375 
L 470.118435 149.234375 
L 470.118435 119.691225 
L 440.575285 119.691225 
z
" style="fill:#fa74a6;"/>
   </g>
   <g id="patch_27">
    <path clip-path="url(#pd83e3b9b27)" d="M 500.79786 184.345272 
C 501.9731 184.345272 503.100364 183.878345 503.931384 183.047324 
C 504.762405 182.216304 505.229332 181.08904 505.229332 179.9138 
C 505.229332 178.73856 504.762405 177.611296 503.931384 176.780276 
C 503.100364 175.949255 501.9731 175.482327 500.79786 175.482327 
C 499.62262 175.482327 498.495356 175.949255 497.664336 176.780276 
C 496.833315 177.611296 496.366387 178.73856 496.366387 179.9138 
C 496.366387 181.08904 496.833315 182.216304 497.664336 183.047324 
C 498.495356 183.878345 499.62262 184.345272 500.79786 184.345272 
z
" style="fill:#bb8bff;stroke:#bb8bff;stroke-linejoin:miter;stroke-width:1.5;"/>
   </g>
   <g id="patch_28">
    <path clip-path="url(#pd83e3b9b27)" d="M 486.026285 149.234375 
L 515.569435 149.234375 
L 515.569435 119.691225 
L 486.026285 119.691225 
z
" style="fill:#bb8bff;"/>
   </g>
   <g id="patch_29">
    <path clip-path="url(#pd83e3b9b27)" d="M 531.477285 194.685375 
L 561.020435 194.685375 
L 561.020435 165.142225 
L 531.477285 165.142225 
z
" style="fill:#fa74a6;"/>
   </g>
   <g id="patch_30">
    <path clip-path="url(#pd83e3b9b27)" d="M 531.477285 149.234375 
L 561.020435 149.234375 
L 561.020435 119.691225 
L 531.477285 119.691225 
z
" style="fill:#fa74a6;"/>
   </g>
   <g id="patch_31">
    <path clip-path="url(#pd83e3b9b27)" d="M 591.69986 184.345272 
C 592.8751 184.345272 594.002364 183.878345 594.833384 183.047324 
C 595.664405 182.216304 596.131332 181.08904 596.131332 179.9138 
C 596.131332 178.73856 595.664405 177.611296 594.833384 176.780276 
C 594.002364 175.949255 592.8751 175.482327 591.69986 175.482327 
C 590.52462 175.482327 589.397356 175.949255 588.566336 176.780276 
C 587.735315 177.611296 587.268387 178.73856 587.268387 179.9138 
C 587.268387 181.08904 587.735315 182.216304 588.566336 183.047324 
C 589.397356 183.878345 590.52462 184.345272 591.69986 184.345272 
z
" style="fill:#bb8bff;stroke:#bb8bff;stroke-linejoin:miter;stroke-width:1.5;"/>
   </g>
   <g id="patch_32">
    <path clip-path="url(#pd83e3b9b27)" d="M 576.928285 240.136375 
L 606.471435 240.136375 
L 606.471435 210.593225 
L 576.928285 210.593225 
z
" style="fill:#bb8bff;"/>
   </g>
   <g id="patch_33">
    <path clip-path="url(#pd83e3b9b27)" d="M 622.379285 194.685375 
L 651.922435 194.685375 
L 651.922435 165.142225 
L 622.379285 165.142225 
z
" style="fill:#fa74a6;"/>
   </g>
   <g id="patch_34">
    <path clip-path="url(#pd83e3b9b27)" d="M 622.379285 240.136375 
L 651.922435 240.136375 
L 651.922435 210.593225 
L 622.379285 210.593225 
z
" style="fill:#fa74a6;"/>
   </g>
   <g id="patch_35">
    <path clip-path="url(#pd83e3b9b27)" d="M 682.60186 229.796272 
C 683.7771 229.796272 684.904364 229.329345 685.735384 228.498324 
C 686.566405 227.667304 687.033332 226.54004 687.033332 225.3648 
C 687.033332 224.18956 686.566405 223.062296 685.735384 222.231276 
C 684.904364 221.400255 683.7771 220.933327 682.60186 220.933327 
C 681.42662 220.933327 680.299356 221.400255 679.468336 222.231276 
C 678.637315 223.062296 678.170387 224.18956 678.170387 225.3648 
C 678.170387 226.54004 678.637315 227.667304 679.468336 228.498324 
C 680.299356 229.329345 681.42662 229.796272 682.60186 229.796272 
z
" style="fill:#bb8bff;stroke:#bb8bff;stroke-linejoin:miter;stroke-width:1.5;"/>
   </g>
   <g id="patch_36">
    <path clip-path="url(#pd83e3b9b27)" d="M 667.830285 149.234375 
L 697.373435 149.234375 
L 697.373435 119.691225 
L 667.830285 119.691225 
z
" style="fill:#bb8bff;"/>
   </g>
   <g id="patch_37">
    <path clip-path="url(#pd83e3b9b27)" d="M 713.281285 240.136375 
L 742.824435 240.136375 
L 742.824435 210.593225 
L 713.281285 210.593225 
z
" style="fill:#fa74a6;"/>
   </g>
   <g id="patch_38">
    <path clip-path="url(#pd83e3b9b27)" d="M 713.281285 149.234375 
L 742.824435 149.234375 
L 742.824435 119.691225 
L 713.281285 119.691225 
z
" style="fill:#fa74a6;"/>
   </g>
   <g id="patch_39">
    <path clip-path="url(#pd83e3b9b27)" d="M 804.183285 58.332375 
L 833.726435 58.332375 
L 833.726435 28.789225 
L 804.183285 28.789225 
z
" style="fill:#bb8bff;"/>
   </g>
   <g id="patch_40">
    <path clip-path="url(#pd83e3b9b27)" d="M 804.183285 103.783375 
L 833.726435 103.783375 
L 833.726435 74.240225 
L 804.183285 74.240225 
z
" style="fill:#bb8bff;"/>
   </g>
   <g id="patch_41">
    <path clip-path="url(#pd83e3b9b27)" d="M 804.183285 149.234375 
L 833.726435 149.234375 
L 833.726435 119.691225 
L 804.183285 119.691225 
z
" style="fill:#bb8bff;"/>
   </g>
   <g id="patch_42">
    <path clip-path="url(#pd83e3b9b27)" d="M 804.183285 194.685375 
L 833.726435 194.685375 
L 833.726435 165.142225 
L 804.183285 165.142225 
z
" style="fill:#bb8bff;"/>
   </g>
   <g id="patch_43">
    <path clip-path="url(#pd83e3b9b27)" d="M 804.183285 240.136375 
L 833.726435 240.136375 
L 833.726435 210.593225 
L 804.183285 210.593225 
z
" style="fill:#bb8bff;"/>
   </g>
   <g id="patch_44">
    <path clip-path="url(#pd83e3b9b27)" d="M 895.085285 58.332375 
L 924.628435 58.332375 
L 924.628435 28.789225 
L 895.085285 28.789225 
z
"/>
   </g>
   <g id="patch_45">
    <path clip-path="url(#pd83e3b9b27)" d="M 920.196962 47.992272 
C 920.196962 45.250959 919.106818 42.619118 917.168417 40.680716 
C 915.230015 38.742314 912.598174 37.65217 909.85686 37.65217 
C 907.115546 37.65217 904.483705 38.742314 902.545303 40.680716 
C 900.606902 42.619118 899.516757 45.250959 899.516757 47.992272 
" style="fill:none;stroke:#ffffff;stroke-linejoin:miter;stroke-width:2;"/>
   </g>
   <g id="patch_46">
    <path clip-path="url(#pd83e3b9b27)" d="M 940.536285 103.783375 
L 970.079435 103.783375 
L 970.079435 74.240225 
L 940.536285 74.240225 
z
"/>
   </g>
   <g id="patch_47">
    <path clip-path="url(#pd83e3b9b27)" d="M 965.647962 93.443272 
C 965.647962 90.701959 964.557818 88.070118 962.619417 86.131716 
C 960.681015 84.193314 958.049174 83.10317 955.30786 83.10317 
C 952.566546 83.10317 949.934705 84.193314 947.996303 86.131716 
C 946.057902 88.070118 944.967757 90.701959 944.967757 93.443272 
" style="fill:none;stroke:#ffffff;stroke-linejoin:miter;stroke-width:2;"/>
   </g>
   <g id="patch_48">
    <path clip-path="url(#pd83e3b9b27)" d="M 985.987285 149.234375 
L 1015.530435 149.234375 
L 1015.530435 119.691225 
L 985.987285 119.691225 
z
"/>
   </g>
   <g id="patch_49">
    <path clip-path="url(#pd83e3b9b27)" d="M 1011.098962 138.894272 
C 1011.098962 136.152959 1010.008818 133.521118 1008.070417 131.582716 
C 1006.132015 129.644314 1003.500174 128.55417 1000.75886 128.55417 
C 998.017546 128.55417 995.385705 129.644314 993.447303 131.582716 
C 991.508902 133.521118 990.418757 136.152959 990.418757 138.894272 
" style="fill:none;stroke:#ffffff;stroke-linejoin:miter;stroke-width:2;"/>
   </g>
   <g id="patch_50">
    <path clip-path="url(#pd83e3b9b27)" d="M 1031.438285 194.685375 
L 1060.981435 194.685375 
L 1060.981435 165.142225 
L 1031.438285 165.142225 
z
"/>
   </g>
   <g id="patch_51">
    <path clip-path="url(#pd83e3b9b27)" d="M 1056.549962 184.345272 
C 1056.549962 181.603959 1055.459818 178.972118 1053.521417 177.033716 
C 1051.583015 175.095314 1048.951174 174.00517 1046.20986 174.00517 
C 1043.468546 174.00517 1040.836705 175.095314 1038.898303 177.033716 
C 1036.959902 178.972118 1035.869757 181.603959 1035.869757 184.345272 
" style="fill:none;stroke:#ffffff;stroke-linejoin:miter;stroke-width:2;"/>
   </g>
   <g id="patch_52">
    <path clip-path="url(#pd83e3b9b27)" d="M 1076.889285 240.136375 
L 1106.432435 240.136375 
L 1106.432435 210.593225 
L 1076.889285 210.593225 
z
"/>
   </g>
   <g id="patch_53">
    <path clip-path="url(#pd83e3b9b27)" d="M 1102.000962 229.796272 
C 1102.000962 227.054959 1100.910818 224.423118 1098.972417 222.484716 
C 1097.034015 220.546314 1094.402174 219.45617 1091.66086 219.45617 
C 1088.919546 219.45617 1086.287705 220.546314 1084.349303 222.484716 
C 1082.410902 224.423118 1081.320757 227.054959 1081.320757 229.796272 
" style="fill:none;stroke:#ffffff;stroke-linejoin:miter;stroke-width:2;"/>
   </g>
   <g id="line2d_25">
    <path clip-path="url(#pd83e3b9b27)" d="M 909.85686 47.992272 
L 920.196962 37.65217 
" style="fill:none;stroke:#ffffff;stroke-linecap:square;stroke-width:2;"/>
   </g>
   <g id="line2d_26">
    <path clip-path="url(#pd83e3b9b27)" d="M 955.30786 93.443272 
L 965.647962 83.10317 
" style="fill:none;stroke:#ffffff;stroke-linecap:square;stroke-width:2;"/>
   </g>
   <g id="line2d_27">
    <path clip-path="url(#pd83e3b9b27)" d="M 1000.75886 138.894272 
L 1011.098962 128.55417 
" style="fill:none;stroke:#ffffff;stroke-linecap:square;stroke-width:2;"/>
   </g>
   <g id="line2d_28">
    <path clip-path="url(#pd83e3b9b27)" d="M 1046.20986 184.345272 
L 1056.549962 174.00517 
" style="fill:none;stroke:#ffffff;stroke-linecap:square;stroke-width:2;"/>
   </g>
   <g id="line2d_29">
    <path clip-path="url(#pd83e3b9b27)" d="M 1091.66086 229.796272 
L 1102.000962 219.45617 
" style="fill:none;stroke:#ffffff;stroke-linecap:square;stroke-width:2;"/>
   </g>
   <g id="line2d_30">
    <path clip-path="url(#pd83e3b9b27)" d="M 182.64086 20.8353 
L 182.64086 66.2863 
" style="fill:none;stroke:#000000;stroke-dasharray:3.7,1.6;stroke-dashoffset:0;"/>
   </g>
   <g id="line2d_31">
    <path clip-path="url(#pd83e3b9b27)" d="M 182.64086 66.2863 
L 182.64086 111.7373 
" style="fill:none;stroke:#000000;stroke-dasharray:3.7,1.6;stroke-dashoffset:0;"/>
   </g>
   <g id="line2d_32">
    <path clip-path="url(#pd83e3b9b27)" d="M 182.64086 111.7373 
L 182.64086 157.1883 
" style="fill:none;stroke:#000000;stroke-dasharray:3.7,1.6;stroke-dashoffset:0;"/>
   </g>
   <g id="line2d_33">
    <path clip-path="url(#pd83e3b9b27)" d="M 182.64086 157.1883 
L 182.64086 202.6393 
" style="fill:none;stroke:#000000;stroke-dasharray:3.7,1.6;stroke-dashoffset:0;"/>
   </g>
   <g id="line2d_34">
    <path clip-path="url(#pd83e3b9b27)" d="M 182.64086 202.6393 
L 182.64086 248.0903 
" style="fill:none;stroke:#000000;stroke-dasharray:3.7,1.6;stroke-dashoffset:0;"/>
   </g>
   <g id="line2d_35">
    <path clip-path="url(#pd83e3b9b27)" d="M 773.50386 20.8353 
L 773.50386 66.2863 
" style="fill:none;stroke:#000000;stroke-dasharray:3.7,1.6;stroke-dashoffset:0;"/>
   </g>
   <g id="line2d_36">
    <path clip-path="url(#pd83e3b9b27)" d="M 773.50386 66.2863 
L 773.50386 111.7373 
" style="fill:none;stroke:#000000;stroke-dasharray:3.7,1.6;stroke-dashoffset:0;"/>
   </g>
   <g id="line2d_37">
    <path clip-path="url(#pd83e3b9b27)" d="M 773.50386 111.7373 
L 773.50386 157.1883 
" style="fill:none;stroke:#000000;stroke-dasharray:3.7,1.6;stroke-dashoffset:0;"/>
   </g>
   <g id="line2d_38">
    <path clip-path="url(#pd83e3b9b27)" d="M 773.50386 157.1883 
L 773.50386 202.6393 
" style="fill:none;stroke:#000000;stroke-dasharray:3.7,1.6;stroke-dashoffset:0;"/>
   </g>
   <g id="line2d_39">
    <path clip-path="url(#pd83e3b9b27)" d="M 773.50386 202.6393 
L 773.50386 248.0903 
" style="fill:none;stroke:#000000;stroke-dasharray:3.7,1.6;stroke-dashoffset:0;"/>
   </g>
   <g id="line2d_40">
    <path clip-path="url(#pd83e3b9b27)" d="M 864.40586 20.8353 
L 864.40586 66.2863 
" style="fill:none;stroke:#000000;stroke-dasharray:3.7,1.6;stroke-dashoffset:0;"/>
   </g>
   <g id="line2d_41">
    <path clip-path="url(#pd83e3b9b27)" d="M 864.40586 66.2863 
L 864.40586 111.7373 
" style="fill:none;stroke:#000000;stroke-dasharray:3.7,1.6;stroke-dashoffset:0;"/>
   </g>
   <g id="line2d_42">
    <path clip-path="url(#pd83e3b9b27)" d="M 864.40586 111.7373 
L 864.40586 157.1883 
" style="fill:none;stroke:#000000;stroke-dasharray:3.7,1.6;stroke-dashoffset:0;"/>
   </g>
   <g id="line2d_43">
    <path clip-path="url(#pd83e3b9b27)" d="M 864.40586 157.1883 
L 864.40586 202.6393 
" style="fill:none;stroke:#000000;stroke-dasharray:3.7,1.6;stroke-dashoffset:0;"/>
   </g>
   <g id="line2d_44">
    <path clip-path="url(#pd83e3b9b27)" d="M 864.40586 202.6393 
L 864.40586 248.0903 
" style="fill:none;stroke:#000000;stroke-dasharray:3.7,1.6;stroke-dashoffset:0;"/>
   </g>
   <g id="text_1">
    <g clip-path="url(#pd83e3b9b27)">
     <!-- $H$ -->
     <defs>
      <path d="M 16.890625 72.90625 
L 26.8125 72.90625 
L 21 43.015625 
L 56.78125 43.015625 
L 62.59375 72.90625 
L 72.515625 72.90625 
L 58.296875 0 
L 48.390625 0 
L 55.171875 34.71875 
L 19.390625 34.71875 
L 12.59375 0 
L 2.6875 0 
z
" id="DejaVuSans-Oblique-72"/>
     </defs>
     <g transform="translate(132.24986 47.147987)scale(0.13 -0.13)">
      <use transform="translate(0 0.09375)" xlink:href="#DejaVuSans-Oblique-72"/>
     </g>
    </g>
   </g>
   <g id="text_2">
    <g clip-path="url(#pd83e3b9b27)">
     <!-- $H$ -->
     <g transform="translate(132.24986 92.598987)scale(0.13 -0.13)">
      <use transform="translate(0 0.09375)" xlink:href="#DejaVuSans-Oblique-72"/>
     </g>
    </g>
   </g>
   <g id="text_3">
    <g clip-path="url(#pd83e3b9b27)">
     <!-- $H$ -->
     <g transform="translate(132.24986 138.049987)scale(0.13 -0.13)">
      <use transform="translate(0 0.09375)" xlink:href="#DejaVuSans-Oblique-72"/>
     </g>
    </g>
   </g>
   <g id="text_4">
    <g clip-path="url(#pd83e3b9b27)">
     <!-- $H$ -->
     <g transform="translate(132.24986 183.500987)scale(0.13 -0.13)">
      <use transform="translate(0 0.09375)" xlink:href="#DejaVuSans-Oblique-72"/>
     </g>
    </g>
   </g>
   <g id="text_5">
    <g clip-path="url(#pd83e3b9b27)">
     <!-- $H$ -->
     <g transform="translate(132.24986 228.951987)scale(0.13 -0.13)">
      <use transform="translate(0 0.09375)" xlink:href="#DejaVuSans-Oblique-72"/>
     </g>
    </g>
   </g>
   <g id="text_6">
    <g clip-path="url(#pd83e3b9b27)">
     <!-- $U_1$ -->
     <defs>
      <path d="M 15.484375 72.90625 
L 25.390625 72.90625 
L 16.796875 28.609375 
Q 16.265625 25.640625 16.046875 23.703125 
Q 15.828125 21.78125 15.828125 20.3125 
Q 15.828125 13.578125 19.578125 10.078125 
Q 23.34375 6.59375 30.609375 6.59375 
Q 40.046875 6.59375 45.28125 11.765625 
Q 50.53125 16.9375 52.78125 28.609375 
L 61.375 72.90625 
L 71.296875 72.90625 
L 62.5 27.390625 
Q 59.625 12.640625 51.5625 5.609375 
Q 43.5 -1.421875 29.5 -1.421875 
Q 18.5625 -1.421875 12.1875 4.078125 
Q 5.8125 9.578125 5.8125 19 
Q 5.8125 20.703125 6.046875 22.828125 
Q 6.296875 24.953125 6.78125 27.390625 
z
" id="DejaVuSans-Oblique-85"/>
      <path d="M 12.40625 8.296875 
L 28.515625 8.296875 
L 28.515625 63.921875 
L 10.984375 60.40625 
L 10.984375 69.390625 
L 28.421875 72.90625 
L 38.28125 72.90625 
L 38.28125 8.296875 
L 54.390625 8.296875 
L 54.390625 0 
L 12.40625 0 
z
" id="DejaVuSans-49"/>
     </defs>
     <g transform="translate(220.22686 88.167515)scale(0.13 -0.13)">
      <use transform="translate(0 0.09375)" xlink:href="#DejaVuSans-Oblique-85"/>
      <use transform="translate(73.193359 -16.3125)scale(0.7)" xlink:href="#DejaVuSans-49"/>
     </g>
    </g>
   </g>
   <g id="text_7">
    <g clip-path="url(#pd83e3b9b27)">
     <!-- $-$3.8 -->
     <defs>
      <path d="M 10.59375 35.5 
L 73.1875 35.5 
L 73.1875 27.203125 
L 10.59375 27.203125 
z
" id="DejaVuSans-8722"/>
      <path d="M 40.578125 39.3125 
Q 47.65625 37.796875 51.625 33 
Q 55.609375 28.21875 55.609375 21.1875 
Q 55.609375 10.40625 48.1875 4.484375 
Q 40.765625 -1.421875 27.09375 -1.421875 
Q 22.515625 -1.421875 17.65625 -0.515625 
Q 12.796875 0.390625 7.625 2.203125 
L 7.625 11.71875 
Q 11.71875 9.328125 16.59375 8.109375 
Q 21.484375 6.890625 26.8125 6.890625 
Q 36.078125 6.890625 40.9375 10.546875 
Q 45.796875 14.203125 45.796875 21.1875 
Q 45.796875 27.640625 41.28125 31.265625 
Q 36.765625 34.90625 28.71875 34.90625 
L 20.21875 34.90625 
L 20.21875 43.015625 
L 29.109375 43.015625 
Q 36.375 43.015625 40.234375 45.921875 
Q 44.09375 48.828125 44.09375 54.296875 
Q 44.09375 59.90625 40.109375 62.90625 
Q 36.140625 65.921875 28.71875 65.921875 
Q 24.65625 65.921875 20.015625 65.03125 
Q 15.375 64.15625 9.8125 62.3125 
L 9.8125 71.09375 
Q 15.4375 72.65625 20.34375 73.4375 
Q 25.25 74.21875 29.59375 74.21875 
Q 40.828125 74.21875 47.359375 69.109375 
Q 53.90625 64.015625 53.90625 55.328125 
Q 53.90625 49.265625 50.4375 45.09375 
Q 46.96875 40.921875 40.578125 39.3125 
z
" id="DejaVuSans-51"/>
      <path d="M 10.6875 12.40625 
L 21 12.40625 
L 21 0 
L 10.6875 0 
z
" id="DejaVuSans-46"/>
      <path d="M 31.78125 34.625 
Q 24.75 34.625 20.71875 30.859375 
Q 16.703125 27.09375 16.703125 20.515625 
Q 16.703125 13.921875 20.71875 10.15625 
Q 24.75 6.390625 31.78125 6.390625 
Q 38.8125 6.390625 42.859375 10.171875 
Q 46.921875 13.96875 46.921875 20.515625 
Q 46.921875 27.09375 42.890625 30.859375 
Q 38.875 34.625 31.78125 34.625 
z
M 21.921875 38.8125 
Q 15.578125 40.375 12.03125 44.71875 
Q 8.5 49.078125 8.5 55.328125 
Q 8.5 64.0625 14.71875 69.140625 
Q 20.953125 74.21875 31.78125 74.21875 
Q 42.671875 74.21875 48.875 69.140625 
Q 55.078125 64.0625 55.078125 55.328125 
Q 55.078125 49.078125 51.53125 44.71875 
Q 48 40.375 41.703125 38.8125 
Q 48.828125 37.15625 52.796875 32.3125 
Q 56.78125 27.484375 56.78125 20.515625 
Q 56.78125 9.90625 50.3125 4.234375 
Q 43.84375 -1.421875 31.78125 -1.421875 
Q 19.734375 -1.421875 13.25 4.234375 
Q 6.78125 9.90625 6.78125 20.515625 
Q 6.78125 27.484375 10.78125 32.3125 
Q 14.796875 37.15625 21.921875 38.8125 
z
M 18.3125 54.390625 
Q 18.3125 48.734375 21.84375 45.5625 
Q 25.390625 42.390625 31.78125 42.390625 
Q 38.140625 42.390625 41.71875 45.5625 
Q 45.3125 48.734375 45.3125 54.390625 
Q 45.3125 60.0625 41.71875 63.234375 
Q 38.140625 66.40625 31.78125 66.40625 
Q 25.390625 66.40625 21.84375 63.234375 
Q 18.3125 60.0625 18.3125 54.390625 
z
" id="DejaVuSans-56"/>
     </defs>
     <g transform="translate(218.37186 100.082245)scale(0.08 -0.08)">
      <use transform="translate(0 0.78125)" xlink:href="#DejaVuSans-8722"/>
      <use transform="translate(83.789062 0.78125)" xlink:href="#DejaVuSans-51"/>
      <use transform="translate(147.412109 0.78125)" xlink:href="#DejaVuSans-46"/>
      <use transform="translate(179.167969 0.78125)" xlink:href="#DejaVuSans-56"/>
     </g>
    </g>
   </g>
   <g id="text_8">
    <g clip-path="url(#pd83e3b9b27)">
     <!-- $U_1$ -->
     <g transform="translate(265.67786 42.716515)scale(0.13 -0.13)">
      <use transform="translate(0 0.09375)" xlink:href="#DejaVuSans-Oblique-85"/>
      <use transform="translate(73.193359 -16.3125)scale(0.7)" xlink:href="#DejaVuSans-49"/>
     </g>
    </g>
   </g>
   <g id="text_9">
    <g clip-path="url(#pd83e3b9b27)">
     <!-- 1.9 -->
     <defs>
      <path d="M 10.984375 1.515625 
L 10.984375 10.5 
Q 14.703125 8.734375 18.5 7.8125 
Q 22.3125 6.890625 25.984375 6.890625 
Q 35.75 6.890625 40.890625 13.453125 
Q 46.046875 20.015625 46.78125 33.40625 
Q 43.953125 29.203125 39.59375 26.953125 
Q 35.25 24.703125 29.984375 24.703125 
Q 19.046875 24.703125 12.671875 31.3125 
Q 6.296875 37.9375 6.296875 49.421875 
Q 6.296875 60.640625 12.9375 67.421875 
Q 19.578125 74.21875 30.609375 74.21875 
Q 43.265625 74.21875 49.921875 64.515625 
Q 56.59375 54.828125 56.59375 36.375 
Q 56.59375 19.140625 48.40625 8.859375 
Q 40.234375 -1.421875 26.421875 -1.421875 
Q 22.703125 -1.421875 18.890625 -0.6875 
Q 15.09375 0.046875 10.984375 1.515625 
z
M 30.609375 32.421875 
Q 37.25 32.421875 41.125 36.953125 
Q 45.015625 41.5 45.015625 49.421875 
Q 45.015625 57.28125 41.125 61.84375 
Q 37.25 66.40625 30.609375 66.40625 
Q 23.96875 66.40625 20.09375 61.84375 
Q 16.21875 57.28125 16.21875 49.421875 
Q 16.21875 41.5 20.09375 36.953125 
Q 23.96875 32.421875 30.609375 32.421875 
z
" id="DejaVuSans-57"/>
     </defs>
     <g transform="translate(267.18161 54.631245)scale(0.08 -0.08)">
      <use xlink:href="#DejaVuSans-49"/>
      <use x="63.623047" xlink:href="#DejaVuSans-46"/>
      <use x="95.410156" xlink:href="#DejaVuSans-57"/>
     </g>
    </g>
   </g>
   <g id="text_10">
    <g clip-path="url(#pd83e3b9b27)">
     <!-- $U_1$ -->
     <g transform="translate(265.67786 88.167515)scale(0.13 -0.13)">
      <use transform="translate(0 0.09375)" xlink:href="#DejaVuSans-Oblique-85"/>
      <use transform="translate(73.193359 -16.3125)scale(0.7)" xlink:href="#DejaVuSans-49"/>
     </g>
    </g>
   </g>
   <g id="text_11">
    <g clip-path="url(#pd83e3b9b27)">
     <!-- 1.9 -->
     <g transform="translate(267.18161 100.082245)scale(0.08 -0.08)">
      <use xlink:href="#DejaVuSans-49"/>
      <use x="63.623047" xlink:href="#DejaVuSans-46"/>
      <use x="95.410156" xlink:href="#DejaVuSans-57"/>
     </g>
    </g>
   </g>
   <g id="text_12">
    <g clip-path="url(#pd83e3b9b27)">
     <!-- $U_1$ -->
     <g transform="translate(311.12886 133.618515)scale(0.13 -0.13)">
      <use transform="translate(0 0.09375)" xlink:href="#DejaVuSans-Oblique-85"/>
      <use transform="translate(73.193359 -16.3125)scale(0.7)" xlink:href="#DejaVuSans-49"/>
     </g>
    </g>
   </g>
   <g id="text_13">
    <g clip-path="url(#pd83e3b9b27)">
     <!-- $-$3.8 -->
     <g transform="translate(309.27386 145.533245)scale(0.08 -0.08)">
      <use transform="translate(0 0.78125)" xlink:href="#DejaVuSans-8722"/>
      <use transform="translate(83.789062 0.78125)" xlink:href="#DejaVuSans-51"/>
      <use transform="translate(147.412109 0.78125)" xlink:href="#DejaVuSans-46"/>
      <use transform="translate(179.167969 0.78125)" xlink:href="#DejaVuSans-56"/>
     </g>
    </g>
   </g>
   <g id="text_14">
    <g clip-path="url(#pd83e3b9b27)">
     <!-- $U_1$ -->
     <g transform="translate(356.57986 42.716515)scale(0.13 -0.13)">
      <use transform="translate(0 0.09375)" xlink:href="#DejaVuSans-Oblique-85"/>
      <use transform="translate(73.193359 -16.3125)scale(0.7)" xlink:href="#DejaVuSans-49"/>
     </g>
    </g>
   </g>
   <g id="text_15">
    <g clip-path="url(#pd83e3b9b27)">
     <!-- 1.9 -->
     <g transform="translate(358.08361 54.631245)scale(0.08 -0.08)">
      <use xlink:href="#DejaVuSans-49"/>
      <use x="63.623047" xlink:href="#DejaVuSans-46"/>
      <use x="95.410156" xlink:href="#DejaVuSans-57"/>
     </g>
    </g>
   </g>
   <g id="text_16">
    <g clip-path="url(#pd83e3b9b27)">
     <!-- $U_1$ -->
     <g transform="translate(356.57986 133.618515)scale(0.13 -0.13)">
      <use transform="translate(0 0.09375)" xlink:href="#DejaVuSans-Oblique-85"/>
      <use transform="translate(73.193359 -16.3125)scale(0.7)" xlink:href="#DejaVuSans-49"/>
     </g>
    </g>
   </g>
   <g id="text_17">
    <g clip-path="url(#pd83e3b9b27)">
     <!-- 1.9 -->
     <g transform="translate(358.08361 145.533245)scale(0.08 -0.08)">
      <use xlink:href="#DejaVuSans-49"/>
      <use x="63.623047" xlink:href="#DejaVuSans-46"/>
      <use x="95.410156" xlink:href="#DejaVuSans-57"/>
     </g>
    </g>
   </g>
   <g id="text_18">
    <g clip-path="url(#pd83e3b9b27)">
     <!-- $U_1$ -->
     <g transform="translate(402.03086 133.618515)scale(0.13 -0.13)">
      <use transform="translate(0 0.09375)" xlink:href="#DejaVuSans-Oblique-85"/>
      <use transform="translate(73.193359 -16.3125)scale(0.7)" xlink:href="#DejaVuSans-49"/>
     </g>
    </g>
   </g>
   <g id="text_19">
    <g clip-path="url(#pd83e3b9b27)">
     <!-- $-$3.8 -->
     <g transform="translate(400.17586 145.533245)scale(0.08 -0.08)">
      <use transform="translate(0 0.78125)" xlink:href="#DejaVuSans-8722"/>
      <use transform="translate(83.789062 0.78125)" xlink:href="#DejaVuSans-51"/>
      <use transform="translate(147.412109 0.78125)" xlink:href="#DejaVuSans-46"/>
      <use transform="translate(179.167969 0.78125)" xlink:href="#DejaVuSans-56"/>
     </g>
    </g>
   </g>
   <g id="text_20">
    <g clip-path="url(#pd83e3b9b27)">
     <!-- $U_1$ -->
     <g transform="translate(447.48186 88.167515)scale(0.13 -0.13)">
      <use transform="translate(0 0.09375)" xlink:href="#DejaVuSans-Oblique-85"/>
      <use transform="translate(73.193359 -16.3125)scale(0.7)" xlink:href="#DejaVuSans-49"/>
     </g>
    </g>
   </g>
   <g id="text_21">
    <g clip-path="url(#pd83e3b9b27)">
     <!-- 1.9 -->
     <g transform="translate(448.98561 100.082245)scale(0.08 -0.08)">
      <use xlink:href="#DejaVuSans-49"/>
      <use x="63.623047" xlink:href="#DejaVuSans-46"/>
      <use x="95.410156" xlink:href="#DejaVuSans-57"/>
     </g>
    </g>
   </g>
   <g id="text_22">
    <g clip-path="url(#pd83e3b9b27)">
     <!-- $U_1$ -->
     <g transform="translate(447.48186 133.618515)scale(0.13 -0.13)">
      <use transform="translate(0 0.09375)" xlink:href="#DejaVuSans-Oblique-85"/>
      <use transform="translate(73.193359 -16.3125)scale(0.7)" xlink:href="#DejaVuSans-49"/>
     </g>
    </g>
   </g>
   <g id="text_23">
    <g clip-path="url(#pd83e3b9b27)">
     <!-- 1.9 -->
     <g transform="translate(448.98561 145.533245)scale(0.08 -0.08)">
      <use xlink:href="#DejaVuSans-49"/>
      <use x="63.623047" xlink:href="#DejaVuSans-46"/>
      <use x="95.410156" xlink:href="#DejaVuSans-57"/>
     </g>
    </g>
   </g>
   <g id="text_24">
    <g clip-path="url(#pd83e3b9b27)">
     <!-- $U_1$ -->
     <g transform="translate(492.93286 133.618515)scale(0.13 -0.13)">
      <use transform="translate(0 0.09375)" xlink:href="#DejaVuSans-Oblique-85"/>
      <use transform="translate(73.193359 -16.3125)scale(0.7)" xlink:href="#DejaVuSans-49"/>
     </g>
    </g>
   </g>
   <g id="text_25">
    <g clip-path="url(#pd83e3b9b27)">
     <!-- $-$3.8 -->
     <g transform="translate(491.07786 145.533245)scale(0.08 -0.08)">
      <use transform="translate(0 0.78125)" xlink:href="#DejaVuSans-8722"/>
      <use transform="translate(83.789062 0.78125)" xlink:href="#DejaVuSans-51"/>
      <use transform="translate(147.412109 0.78125)" xlink:href="#DejaVuSans-46"/>
      <use transform="translate(179.167969 0.78125)" xlink:href="#DejaVuSans-56"/>
     </g>
    </g>
   </g>
   <g id="text_26">
    <g clip-path="url(#pd83e3b9b27)">
     <!-- $U_1$ -->
     <g transform="translate(538.38386 179.069515)scale(0.13 -0.13)">
      <use transform="translate(0 0.09375)" xlink:href="#DejaVuSans-Oblique-85"/>
      <use transform="translate(73.193359 -16.3125)scale(0.7)" xlink:href="#DejaVuSans-49"/>
     </g>
    </g>
   </g>
   <g id="text_27">
    <g clip-path="url(#pd83e3b9b27)">
     <!-- 1.9 -->
     <g transform="translate(539.88761 190.984245)scale(0.08 -0.08)">
      <use xlink:href="#DejaVuSans-49"/>
      <use x="63.623047" xlink:href="#DejaVuSans-46"/>
      <use x="95.410156" xlink:href="#DejaVuSans-57"/>
     </g>
    </g>
   </g>
   <g id="text_28">
    <g clip-path="url(#pd83e3b9b27)">
     <!-- $U_1$ -->
     <g transform="translate(538.38386 133.618515)scale(0.13 -0.13)">
      <use transform="translate(0 0.09375)" xlink:href="#DejaVuSans-Oblique-85"/>
      <use transform="translate(73.193359 -16.3125)scale(0.7)" xlink:href="#DejaVuSans-49"/>
     </g>
    </g>
   </g>
   <g id="text_29">
    <g clip-path="url(#pd83e3b9b27)">
     <!-- 1.9 -->
     <g transform="translate(539.88761 145.533245)scale(0.08 -0.08)">
      <use xlink:href="#DejaVuSans-49"/>
      <use x="63.623047" xlink:href="#DejaVuSans-46"/>
      <use x="95.410156" xlink:href="#DejaVuSans-57"/>
     </g>
    </g>
   </g>
   <g id="text_30">
    <g clip-path="url(#pd83e3b9b27)">
     <!-- $U_1$ -->
     <g transform="translate(583.83486 224.520515)scale(0.13 -0.13)">
      <use transform="translate(0 0.09375)" xlink:href="#DejaVuSans-Oblique-85"/>
      <use transform="translate(73.193359 -16.3125)scale(0.7)" xlink:href="#DejaVuSans-49"/>
     </g>
    </g>
   </g>
   <g id="text_31">
    <g clip-path="url(#pd83e3b9b27)">
     <!-- $-$3.8 -->
     <g transform="translate(581.97986 236.435245)scale(0.08 -0.08)">
      <use transform="translate(0 0.78125)" xlink:href="#DejaVuSans-8722"/>
      <use transform="translate(83.789062 0.78125)" xlink:href="#DejaVuSans-51"/>
      <use transform="translate(147.412109 0.78125)" xlink:href="#DejaVuSans-46"/>
      <use transform="translate(179.167969 0.78125)" xlink:href="#DejaVuSans-56"/>
     </g>
    </g>
   </g>
   <g id="text_32">
    <g clip-path="url(#pd83e3b9b27)">
     <!-- $U_1$ -->
     <g transform="translate(629.28586 179.069515)scale(0.13 -0.13)">
      <use transform="translate(0 0.09375)" xlink:href="#DejaVuSans-Oblique-85"/>
      <use transform="translate(73.193359 -16.3125)scale(0.7)" xlink:href="#DejaVuSans-49"/>
     </g>
    </g>
   </g>
   <g id="text_33">
    <g clip-path="url(#pd83e3b9b27)">
     <!-- 1.9 -->
     <g transform="translate(630.78961 190.984245)scale(0.08 -0.08)">
      <use xlink:href="#DejaVuSans-49"/>
      <use x="63.623047" xlink:href="#DejaVuSans-46"/>
      <use x="95.410156" xlink:href="#DejaVuSans-57"/>
     </g>
    </g>
   </g>
   <g id="text_34">
    <g clip-path="url(#pd83e3b9b27)">
     <!-- $U_1$ -->
     <g transform="translate(629.28586 224.520515)scale(0.13 -0.13)">
      <use transform="translate(0 0.09375)" xlink:href="#DejaVuSans-Oblique-85"/>
      <use transform="translate(73.193359 -16.3125)scale(0.7)" xlink:href="#DejaVuSans-49"/>
     </g>
    </g>
   </g>
   <g id="text_35">
    <g clip-path="url(#pd83e3b9b27)">
     <!-- 1.9 -->
     <g transform="translate(630.78961 236.435245)scale(0.08 -0.08)">
      <use xlink:href="#DejaVuSans-49"/>
      <use x="63.623047" xlink:href="#DejaVuSans-46"/>
      <use x="95.410156" xlink:href="#DejaVuSans-57"/>
     </g>
    </g>
   </g>
   <g id="text_36">
    <g clip-path="url(#pd83e3b9b27)">
     <!-- $U_1$ -->
     <g transform="translate(674.73686 133.618515)scale(0.13 -0.13)">
      <use transform="translate(0 0.09375)" xlink:href="#DejaVuSans-Oblique-85"/>
      <use transform="translate(73.193359 -16.3125)scale(0.7)" xlink:href="#DejaVuSans-49"/>
     </g>
    </g>
   </g>
   <g id="text_37">
    <g clip-path="url(#pd83e3b9b27)">
     <!-- $-$3.8 -->
     <g transform="translate(672.88186 145.533245)scale(0.08 -0.08)">
      <use transform="translate(0 0.78125)" xlink:href="#DejaVuSans-8722"/>
      <use transform="translate(83.789062 0.78125)" xlink:href="#DejaVuSans-51"/>
      <use transform="translate(147.412109 0.78125)" xlink:href="#DejaVuSans-46"/>
      <use transform="translate(179.167969 0.78125)" xlink:href="#DejaVuSans-56"/>
     </g>
    </g>
   </g>
   <g id="text_38">
    <g clip-path="url(#pd83e3b9b27)">
     <!-- $U_1$ -->
     <g transform="translate(720.18786 224.520515)scale(0.13 -0.13)">
      <use transform="translate(0 0.09375)" xlink:href="#DejaVuSans-Oblique-85"/>
      <use transform="translate(73.193359 -16.3125)scale(0.7)" xlink:href="#DejaVuSans-49"/>
     </g>
    </g>
   </g>
   <g id="text_39">
    <g clip-path="url(#pd83e3b9b27)">
     <!-- 1.9 -->
     <g transform="translate(721.69161 236.435245)scale(0.08 -0.08)">
      <use xlink:href="#DejaVuSans-49"/>
      <use x="63.623047" xlink:href="#DejaVuSans-46"/>
      <use x="95.410156" xlink:href="#DejaVuSans-57"/>
     </g>
    </g>
   </g>
   <g id="text_40">
    <g clip-path="url(#pd83e3b9b27)">
     <!-- $U_1$ -->
     <g transform="translate(720.18786 133.618515)scale(0.13 -0.13)">
      <use transform="translate(0 0.09375)" xlink:href="#DejaVuSans-Oblique-85"/>
      <use transform="translate(73.193359 -16.3125)scale(0.7)" xlink:href="#DejaVuSans-49"/>
     </g>
    </g>
   </g>
   <g id="text_41">
    <g clip-path="url(#pd83e3b9b27)">
     <!-- 1.9 -->
     <g transform="translate(721.69161 145.533245)scale(0.08 -0.08)">
      <use xlink:href="#DejaVuSans-49"/>
      <use x="63.623047" xlink:href="#DejaVuSans-46"/>
      <use x="95.410156" xlink:href="#DejaVuSans-57"/>
     </g>
    </g>
   </g>
   <g id="text_42">
    <g clip-path="url(#pd83e3b9b27)">
     <!-- $R_x$ -->
     <defs>
      <path d="M 25.203125 64.796875 
L 20.21875 38.921875 
L 32.90625 38.921875 
Q 40.375 38.921875 44.984375 43.046875 
Q 49.609375 47.171875 49.609375 53.8125 
Q 49.609375 59.125 46.5 61.953125 
Q 43.40625 64.796875 37.59375 64.796875 
z
M 43.3125 35.015625 
Q 46.4375 34.28125 48.515625 31.390625 
Q 50.59375 28.515625 53.328125 19.921875 
L 59.515625 0 
L 49.125 0 
L 43.40625 18.703125 
Q 41.21875 25.921875 38.328125 28.359375 
Q 35.453125 30.8125 29.5 30.8125 
L 18.609375 30.8125 
L 12.59375 0 
L 2.6875 0 
L 16.890625 72.90625 
L 39.109375 72.90625 
Q 49.21875 72.90625 54.609375 68.328125 
Q 60.015625 63.765625 60.015625 55.171875 
Q 60.015625 47.5625 55.421875 41.984375 
Q 50.828125 36.421875 43.3125 35.015625 
z
" id="DejaVuSans-Oblique-82"/>
      <path d="M 60.015625 54.6875 
L 34.90625 27.875 
L 50.296875 0 
L 39.984375 0 
L 28.421875 21.6875 
L 8.296875 0 
L -2.59375 0 
L 24.3125 28.8125 
L 10.015625 54.6875 
L 20.3125 54.6875 
L 30.8125 34.90625 
L 49.125 54.6875 
z
" id="DejaVuSans-Oblique-120"/>
     </defs>
     <g transform="translate(811.54486 42.716515)scale(0.13 -0.13)">
      <use transform="translate(0 0.09375)" xlink:href="#DejaVuSans-Oblique-82"/>
      <use transform="translate(69.482422 -16.3125)scale(0.7)" xlink:href="#DejaVuSans-Oblique-120"/>
     </g>
    </g>
   </g>
   <g id="text_43">
    <g clip-path="url(#pd83e3b9b27)">
     <!-- 0.4 -->
     <defs>
      <path d="M 31.78125 66.40625 
Q 24.171875 66.40625 20.328125 58.90625 
Q 16.5 51.421875 16.5 36.375 
Q 16.5 21.390625 20.328125 13.890625 
Q 24.171875 6.390625 31.78125 6.390625 
Q 39.453125 6.390625 43.28125 13.890625 
Q 47.125 21.390625 47.125 36.375 
Q 47.125 51.421875 43.28125 58.90625 
Q 39.453125 66.40625 31.78125 66.40625 
z
M 31.78125 74.21875 
Q 44.046875 74.21875 50.515625 64.515625 
Q 56.984375 54.828125 56.984375 36.375 
Q 56.984375 17.96875 50.515625 8.265625 
Q 44.046875 -1.421875 31.78125 -1.421875 
Q 19.53125 -1.421875 13.0625 8.265625 
Q 6.59375 17.96875 6.59375 36.375 
Q 6.59375 54.828125 13.0625 64.515625 
Q 19.53125 74.21875 31.78125 74.21875 
z
" id="DejaVuSans-48"/>
      <path d="M 37.796875 64.3125 
L 12.890625 25.390625 
L 37.796875 25.390625 
z
M 35.203125 72.90625 
L 47.609375 72.90625 
L 47.609375 25.390625 
L 58.015625 25.390625 
L 58.015625 17.1875 
L 47.609375 17.1875 
L 47.609375 0 
L 37.796875 0 
L 37.796875 17.1875 
L 4.890625 17.1875 
L 4.890625 26.703125 
z
" id="DejaVuSans-52"/>
     </defs>
     <g transform="translate(812.59361 54.631245)scale(0.08 -0.08)">
      <use xlink:href="#DejaVuSans-48"/>
      <use x="63.623047" xlink:href="#DejaVuSans-46"/>
      <use x="95.410156" xlink:href="#DejaVuSans-52"/>
     </g>
    </g>
   </g>
   <g id="text_44">
    <g clip-path="url(#pd83e3b9b27)">
     <!-- $R_x$ -->
     <g transform="translate(811.54486 88.167515)scale(0.13 -0.13)">
      <use transform="translate(0 0.09375)" xlink:href="#DejaVuSans-Oblique-82"/>
      <use transform="translate(69.482422 -16.3125)scale(0.7)" xlink:href="#DejaVuSans-Oblique-120"/>
     </g>
    </g>
   </g>
   <g id="text_45">
    <g clip-path="url(#pd83e3b9b27)">
     <!-- 0.4 -->
     <g transform="translate(812.59361 100.082245)scale(0.08 -0.08)">
      <use xlink:href="#DejaVuSans-48"/>
      <use x="63.623047" xlink:href="#DejaVuSans-46"/>
      <use x="95.410156" xlink:href="#DejaVuSans-52"/>
     </g>
    </g>
   </g>
   <g id="text_46">
    <g clip-path="url(#pd83e3b9b27)">
     <!-- $R_x$ -->
     <g transform="translate(811.54486 133.618515)scale(0.13 -0.13)">
      <use transform="translate(0 0.09375)" xlink:href="#DejaVuSans-Oblique-82"/>
      <use transform="translate(69.482422 -16.3125)scale(0.7)" xlink:href="#DejaVuSans-Oblique-120"/>
     </g>
    </g>
   </g>
   <g id="text_47">
    <g clip-path="url(#pd83e3b9b27)">
     <!-- 0.4 -->
     <g transform="translate(812.59361 145.533245)scale(0.08 -0.08)">
      <use xlink:href="#DejaVuSans-48"/>
      <use x="63.623047" xlink:href="#DejaVuSans-46"/>
      <use x="95.410156" xlink:href="#DejaVuSans-52"/>
     </g>
    </g>
   </g>
   <g id="text_48">
    <g clip-path="url(#pd83e3b9b27)">
     <!-- $R_x$ -->
     <g transform="translate(811.54486 179.069515)scale(0.13 -0.13)">
      <use transform="translate(0 0.09375)" xlink:href="#DejaVuSans-Oblique-82"/>
      <use transform="translate(69.482422 -16.3125)scale(0.7)" xlink:href="#DejaVuSans-Oblique-120"/>
     </g>
    </g>
   </g>
   <g id="text_49">
    <g clip-path="url(#pd83e3b9b27)">
     <!-- 0.4 -->
     <g transform="translate(812.59361 190.984245)scale(0.08 -0.08)">
      <use xlink:href="#DejaVuSans-48"/>
      <use x="63.623047" xlink:href="#DejaVuSans-46"/>
      <use x="95.410156" xlink:href="#DejaVuSans-52"/>
     </g>
    </g>
   </g>
   <g id="text_50">
    <g clip-path="url(#pd83e3b9b27)">
     <!-- $R_x$ -->
     <g transform="translate(811.54486 224.520515)scale(0.13 -0.13)">
      <use transform="translate(0 0.09375)" xlink:href="#DejaVuSans-Oblique-82"/>
      <use transform="translate(69.482422 -16.3125)scale(0.7)" xlink:href="#DejaVuSans-Oblique-120"/>
     </g>
    </g>
   </g>
   <g id="text_51">
    <g clip-path="url(#pd83e3b9b27)">
     <!-- 0.4 -->
     <g transform="translate(812.59361 236.435245)scale(0.08 -0.08)">
      <use xlink:href="#DejaVuSans-48"/>
      <use x="63.623047" xlink:href="#DejaVuSans-46"/>
      <use x="95.410156" xlink:href="#DejaVuSans-52"/>
     </g>
    </g>
   </g>
   <g id="text_52">
    <g clip-path="url(#pd83e3b9b27)">
     <!-- 0 -->
     <g transform="translate(921.21961 264.107825)scale(0.104 -0.104)">
      <use xlink:href="#DejaVuSans-48"/>
     </g>
    </g>
   </g>
   <g id="text_53">
    <g clip-path="url(#pd83e3b9b27)">
     <!-- 1 -->
     <g transform="translate(966.67061 264.107825)scale(0.104 -0.104)">
      <use xlink:href="#DejaVuSans-49"/>
     </g>
    </g>
   </g>
   <g id="text_54">
    <g clip-path="url(#pd83e3b9b27)">
     <!-- 2 -->
     <defs>
      <path d="M 19.1875 8.296875 
L 53.609375 8.296875 
L 53.609375 0 
L 7.328125 0 
L 7.328125 8.296875 
Q 12.9375 14.109375 22.625 23.890625 
Q 32.328125 33.6875 34.8125 36.53125 
Q 39.546875 41.84375 41.421875 45.53125 
Q 43.3125 49.21875 43.3125 52.78125 
Q 43.3125 58.59375 39.234375 62.25 
Q 35.15625 65.921875 28.609375 65.921875 
Q 23.96875 65.921875 18.8125 64.3125 
Q 13.671875 62.703125 7.8125 59.421875 
L 7.8125 69.390625 
Q 13.765625 71.78125 18.9375 73 
Q 24.125 74.21875 28.421875 74.21875 
Q 39.75 74.21875 46.484375 68.546875 
Q 53.21875 62.890625 53.21875 53.421875 
Q 53.21875 48.921875 51.53125 44.890625 
Q 49.859375 40.875 45.40625 35.40625 
Q 44.1875 33.984375 37.640625 27.21875 
Q 31.109375 20.453125 19.1875 8.296875 
z
" id="DejaVuSans-50"/>
     </defs>
     <g transform="translate(1012.12161 264.107825)scale(0.104 -0.104)">
      <use xlink:href="#DejaVuSans-50"/>
     </g>
    </g>
   </g>
   <g id="text_55">
    <g clip-path="url(#pd83e3b9b27)">
     <!-- 3 -->
     <g transform="translate(1057.57261 264.107825)scale(0.104 -0.104)">
      <use xlink:href="#DejaVuSans-51"/>
     </g>
    </g>
   </g>
   <g id="text_56">
    <g clip-path="url(#pd83e3b9b27)">
     <!-- 4 -->
     <g transform="translate(1103.02361 264.107825)scale(0.104 -0.104)">
      <use xlink:href="#DejaVuSans-52"/>
     </g>
    </g>
   </g>
   <g id="text_57">
    <g clip-path="url(#pd83e3b9b27)">
     <!-- ${q}_{0}$ -->
     <defs>
      <path d="M 41.703125 8.203125 
Q 38.09375 3.46875 33.171875 1.015625 
Q 28.265625 -1.421875 22.3125 -1.421875 
Q 14.015625 -1.421875 9.296875 4.171875 
Q 4.59375 9.765625 4.59375 19.578125 
Q 4.59375 27.484375 7.5 34.859375 
Q 10.40625 42.234375 15.828125 48.09375 
Q 19.34375 51.90625 23.90625 53.953125 
Q 28.46875 56 33.5 56 
Q 39.546875 56 43.453125 53.609375 
Q 47.359375 51.21875 49.125 46.390625 
L 50.6875 54.59375 
L 59.71875 54.59375 
L 45.125 -20.609375 
L 36.078125 -20.609375 
z
M 13.921875 20.90625 
Q 13.921875 13.671875 16.9375 9.890625 
Q 19.96875 6.109375 25.6875 6.109375 
Q 34.1875 6.109375 40.1875 14.234375 
Q 46.1875 22.359375 46.1875 33.984375 
Q 46.1875 41.015625 43.078125 44.75 
Q 39.984375 48.484375 34.1875 48.484375 
Q 29.9375 48.484375 26.3125 46.5 
Q 22.703125 44.53125 20.015625 40.71875 
Q 17.1875 36.71875 15.546875 31.34375 
Q 13.921875 25.984375 13.921875 20.90625 
z
" id="DejaVuSans-Oblique-113"/>
     </defs>
     <g transform="translate(73.70136 48.011777)scale(0.1625 -0.1625)">
      <use xlink:href="#DejaVuSans-Oblique-113"/>
      <use transform="translate(63.476562 -16.40625)scale(0.7)" xlink:href="#DejaVuSans-48"/>
     </g>
    </g>
   </g>
   <g id="text_58">
    <g clip-path="url(#pd83e3b9b27)">
     <!-- ${q}_{1}$ -->
     <g transform="translate(73.70136 93.462777)scale(0.1625 -0.1625)">
      <use xlink:href="#DejaVuSans-Oblique-113"/>
      <use transform="translate(63.476562 -16.40625)scale(0.7)" xlink:href="#DejaVuSans-49"/>
     </g>
    </g>
   </g>
   <g id="text_59">
    <g clip-path="url(#pd83e3b9b27)">
     <!-- ${q}_{2}$ -->
     <g transform="translate(73.70136 138.913777)scale(0.1625 -0.1625)">
      <use xlink:href="#DejaVuSans-Oblique-113"/>
      <use transform="translate(63.476562 -16.40625)scale(0.7)" xlink:href="#DejaVuSans-50"/>
     </g>
    </g>
   </g>
   <g id="text_60">
    <g clip-path="url(#pd83e3b9b27)">
     <!-- ${q}_{3}$ -->
     <g transform="translate(73.70136 184.364777)scale(0.1625 -0.1625)">
      <use xlink:href="#DejaVuSans-Oblique-113"/>
      <use transform="translate(63.476562 -16.40625)scale(0.7)" xlink:href="#DejaVuSans-51"/>
     </g>
    </g>
   </g>
   <g id="text_61">
    <g clip-path="url(#pd83e3b9b27)">
     <!-- ${q}_{4}$ -->
     <g transform="translate(73.70136 229.815777)scale(0.1625 -0.1625)">
      <use xlink:href="#DejaVuSans-Oblique-113"/>
      <use transform="translate(63.476562 -16.40625)scale(0.7)" xlink:href="#DejaVuSans-52"/>
     </g>
    </g>
   </g>
   <g id="text_62">
    <g clip-path="url(#pd83e3b9b27)">
     <!-- 5 -->
     <defs>
      <path d="M 10.796875 72.90625 
L 49.515625 72.90625 
L 49.515625 64.59375 
L 19.828125 64.59375 
L 19.828125 46.734375 
Q 21.96875 47.46875 24.109375 47.828125 
Q 26.265625 48.1875 28.421875 48.1875 
Q 40.625 48.1875 47.75 41.5 
Q 54.890625 34.8125 54.890625 23.390625 
Q 54.890625 11.625 47.5625 5.09375 
Q 40.234375 -1.421875 26.90625 -1.421875 
Q 22.3125 -1.421875 17.546875 -0.640625 
Q 12.796875 0.140625 7.71875 1.703125 
L 7.71875 11.625 
Q 12.109375 9.234375 16.796875 8.0625 
Q 21.484375 6.890625 26.703125 6.890625 
Q 35.15625 6.890625 40.078125 11.328125 
Q 45.015625 15.765625 45.015625 23.390625 
Q 45.015625 31 40.078125 35.4375 
Q 35.15625 39.890625 26.703125 39.890625 
Q 22.75 39.890625 18.8125 39.015625 
Q 14.890625 38.140625 10.796875 36.28125 
z
" id="DejaVuSans-53"/>
     </defs>
     <g transform="translate(137.18986 264.107825)scale(0.104 -0.104)">
      <use xlink:href="#DejaVuSans-53"/>
     </g>
    </g>
   </g>
   <g id="text_63">
    <g clip-path="url(#pd83e3b9b27)">
     <!-- $c$ -->
     <defs>
      <path d="M 53.609375 52.59375 
L 51.8125 43.703125 
Q 48.578125 46.046875 44.9375 47.21875 
Q 41.3125 48.390625 37.40625 48.390625 
Q 33.109375 48.390625 29.21875 46.875 
Q 25.34375 45.359375 22.703125 42.578125 
Q 18.5 38.328125 16.203125 32.609375 
Q 13.921875 26.90625 13.921875 20.796875 
Q 13.921875 13.421875 17.609375 9.8125 
Q 21.296875 6.203125 28.8125 6.203125 
Q 32.515625 6.203125 36.6875 7.328125 
Q 40.875 8.453125 45.40625 10.6875 
L 43.703125 1.8125 
Q 39.796875 0.203125 35.671875 -0.609375 
Q 31.546875 -1.421875 27.203125 -1.421875 
Q 16.3125 -1.421875 10.453125 4.015625 
Q 4.59375 9.46875 4.59375 19.578125 
Q 4.59375 28.078125 7.640625 35.234375 
Q 10.6875 42.390625 16.703125 48.09375 
Q 20.796875 52 26.3125 54 
Q 31.84375 56 38.375 56 
Q 42.1875 56 45.9375 55.140625 
Q 49.703125 54.296875 53.609375 52.59375 
z
" id="DejaVuSans-Oblique-99"/>
     </defs>
     <g transform="translate(81.01386 276.196581)scale(0.195 -0.195)">
      <use xlink:href="#DejaVuSans-Oblique-99"/>
     </g>
    </g>
   </g>
  </g>
 </g>
 <defs>
  <clipPath id="pd83e3b9b27">
   <rect height="290.8864" width="1134.45696" x="7.2" y="7.2"/>
  </clipPath>
 </defs>
</svg>
