<?xml version="1.0" encoding="utf-8" standalone="no"?>
<!DOCTYPE svg PUBLIC "-//W3C//DTD SVG 1.1//EN"
  "http://www.w3.org/Graphics/SVG/1.1/DTD/svg11.dtd">
<!-- Created with matplotlib (https://matplotlib.org/) -->
<svg height="259.8354pt" version="1.1" viewBox="0 0 876.15096 259.8354" width="876.15096pt" xmlns="http://www.w3.org/2000/svg" xmlns:xlink="http://www.w3.org/1999/xlink">
 <defs>
  <style type="text/css">
*{stroke-linecap:butt;stroke-linejoin:round;}
  </style>
 </defs>
 <g id="figure_1">
  <g id="patch_1">
   <path d="M 0 259.8354 
L 876.15096 259.8354 
L 876.15096 0 
L 0 0 
z
" style="fill:#ffffff;"/>
  </g>
  <g id="axes_1">
   <g id="patch_2">
    <path clip-path="url(#p31930c5517)" d="M 722.14423 215.024698 
L 733.96149 215.024698 
L 728.05286 225.3648 
z
" style="fill:#778899;"/>
   </g>
   <g id="patch_3">
    <path clip-path="url(#p31930c5517)" d="M 767.59523 215.024698 
L 779.41249 215.024698 
L 773.50386 225.3648 
z
" style="fill:#778899;"/>
   </g>
   <g id="patch_4">
    <path clip-path="url(#p31930c5517)" d="M 813.04623 215.024698 
L 824.86349 215.024698 
L 818.95486 225.3648 
z
" style="fill:#778899;"/>
   </g>
   <g id="line2d_1">
    <path clip-path="url(#p31930c5517)" d="M 114.46436 43.5608 
L 864.40586 43.5608 
" style="fill:none;stroke:#000000;stroke-linecap:square;stroke-width:2;"/>
   </g>
   <g id="line2d_2">
    <path clip-path="url(#p31930c5517)" d="M 114.46436 89.0118 
L 864.40586 89.0118 
" style="fill:none;stroke:#000000;stroke-linecap:square;stroke-width:2;"/>
   </g>
   <g id="line2d_3">
    <path clip-path="url(#p31930c5517)" d="M 114.46436 134.4628 
L 864.40586 134.4628 
" style="fill:none;stroke:#000000;stroke-linecap:square;stroke-width:2;"/>
   </g>
   <g id="line2d_4">
    <path clip-path="url(#p31930c5517)" d="M 114.46436 179.9138 
L 864.40586 179.9138 
" style="fill:none;stroke:#000000;stroke-linecap:square;stroke-width:2;"/>
   </g>
   <g id="line2d_5">
    <path clip-path="url(#p31930c5517)" d="M 114.46436 223.887643 
L 864.40586 223.887643 
" style="fill:none;stroke:#778899;stroke-linecap:square;stroke-width:2;"/>
   </g>
   <g id="line2d_6">
    <path clip-path="url(#p31930c5517)" d="M 114.46436 226.841958 
L 864.40586 226.841958 
" style="fill:none;stroke:#778899;stroke-linecap:square;stroke-width:2;"/>
   </g>
   <g id="line2d_7">
    <path clip-path="url(#p31930c5517)" d="M 182.64086 179.9138 
L 182.64086 43.5608 
" style="fill:none;stroke:#bb8bff;stroke-linecap:square;stroke-width:2;"/>
   </g>
   <g id="line2d_8">
    <path clip-path="url(#p31930c5517)" d="M 228.09186 179.9138 
L 228.09186 43.5608 
" style="fill:none;stroke:#bb8bff;stroke-linecap:square;stroke-width:2;"/>
   </g>
   <g id="line2d_9">
    <path clip-path="url(#p31930c5517)" d="M 273.54286 179.9138 
L 273.54286 43.5608 
" style="fill:none;stroke:#bb8bff;stroke-linecap:square;stroke-width:2;"/>
   </g>
   <g id="line2d_10">
    <path clip-path="url(#p31930c5517)" d="M 318.99386 179.9138 
L 318.99386 43.5608 
" style="fill:none;stroke:#bb8bff;stroke-linecap:square;stroke-width:2;"/>
   </g>
   <g id="line2d_11">
    <path clip-path="url(#p31930c5517)" d="M 364.44486 179.9138 
L 364.44486 89.0118 
" style="fill:none;stroke:#bb8bff;stroke-linecap:square;stroke-width:2;"/>
   </g>
   <g id="line2d_12">
    <path clip-path="url(#p31930c5517)" d="M 409.89586 179.9138 
L 409.89586 89.0118 
" style="fill:none;stroke:#bb8bff;stroke-linecap:square;stroke-width:2;"/>
   </g>
   <g id="line2d_13">
    <path clip-path="url(#p31930c5517)" d="M 455.34686 179.9138 
L 455.34686 134.4628 
" style="fill:none;stroke:#bb8bff;stroke-linecap:square;stroke-width:2;"/>
   </g>
   <g id="line2d_14">
    <path clip-path="url(#p31930c5517)" d="M 500.79786 134.4628 
L 500.79786 43.5608 
" style="fill:none;stroke:#bb8bff;stroke-linecap:square;stroke-width:2;"/>
   </g>
   <g id="line2d_15">
    <path clip-path="url(#p31930c5517)" d="M 591.69986 134.4628 
L 591.69986 89.0118 
" style="fill:none;stroke:#bb8bff;stroke-linecap:square;stroke-width:2;"/>
   </g>
   <g id="line2d_16">
    <path clip-path="url(#p31930c5517)" d="M 682.60186 134.4628 
L 682.60186 43.5608 
" style="fill:none;stroke:#bb8bff;stroke-linecap:square;stroke-width:2;"/>
   </g>
   <g id="line2d_17">
    <path clip-path="url(#p31930c5517)" d="M 728.05286 89.0118 
L 728.05286 43.5608 
" style="fill:none;stroke:#bb8bff;stroke-linecap:square;stroke-width:2;"/>
   </g>
   <g id="line2d_18">
    <path clip-path="url(#p31930c5517)" d="M 729.530017 134.4628 
L 729.530017 215.024698 
" style="fill:none;stroke:#778899;stroke-linecap:square;stroke-width:2;"/>
   </g>
   <g id="line2d_19">
    <path clip-path="url(#p31930c5517)" d="M 726.575702 134.4628 
L 726.575702 215.024698 
" style="fill:none;stroke:#778899;stroke-linecap:square;stroke-width:2;"/>
   </g>
   <g id="line2d_20">
    <path clip-path="url(#p31930c5517)" d="M 774.981017 89.0118 
L 774.981017 215.024698 
" style="fill:none;stroke:#778899;stroke-linecap:square;stroke-width:2;"/>
   </g>
   <g id="line2d_21">
    <path clip-path="url(#p31930c5517)" d="M 772.026702 89.0118 
L 772.026702 215.024698 
" style="fill:none;stroke:#778899;stroke-linecap:square;stroke-width:2;"/>
   </g>
   <g id="line2d_22">
    <path clip-path="url(#p31930c5517)" d="M 820.432017 43.5608 
L 820.432017 215.024698 
" style="fill:none;stroke:#778899;stroke-linecap:square;stroke-width:2;"/>
   </g>
   <g id="line2d_23">
    <path clip-path="url(#p31930c5517)" d="M 817.477702 43.5608 
L 817.477702 215.024698 
" style="fill:none;stroke:#778899;stroke-linecap:square;stroke-width:2;"/>
   </g>
   <g id="line2d_24">
    <path clip-path="url(#p31930c5517)" d="M 141.73496 229.9099 
L 146.28006 220.8197 
" style="fill:none;stroke:#778899;stroke-linecap:square;stroke-width:1.5;"/>
   </g>
   <g id="line2d_25">
    <path clip-path="url(#p31930c5517)" d="M 494.88923 49.46943 
L 506.70649 37.65217 
" style="fill:none;stroke:#bb8bff;stroke-linecap:square;stroke-width:2;"/>
   </g>
   <g id="line2d_26">
    <path clip-path="url(#p31930c5517)" d="M 494.88923 37.65217 
L 506.70649 49.46943 
" style="fill:none;stroke:#bb8bff;stroke-linecap:square;stroke-width:2;"/>
   </g>
   <g id="line2d_27">
    <path clip-path="url(#p31930c5517)" d="M 494.88923 140.37143 
L 506.70649 128.55417 
" style="fill:none;stroke:#bb8bff;stroke-linecap:square;stroke-width:2;"/>
   </g>
   <g id="line2d_28">
    <path clip-path="url(#p31930c5517)" d="M 494.88923 128.55417 
L 506.70649 140.37143 
" style="fill:none;stroke:#bb8bff;stroke-linecap:square;stroke-width:2;"/>
   </g>
   <g id="patch_5">
    <path clip-path="url(#p31930c5517)" d="M 122.418285 194.685375 
L 151.961435 194.685375 
L 151.961435 165.142225 
L 122.418285 165.142225 
z
" style="fill:#05bab6;"/>
   </g>
   <g id="patch_6">
    <path clip-path="url(#p31930c5517)" d="M 122.418285 58.332375 
L 151.961435 58.332375 
L 151.961435 28.789225 
L 122.418285 28.789225 
z
" style="fill:#6fa4ff;"/>
   </g>
   <g id="patch_7">
    <path clip-path="url(#p31930c5517)" d="M 122.418285 103.783375 
L 151.961435 103.783375 
L 151.961435 74.240225 
L 122.418285 74.240225 
z
" style="fill:#6fa4ff;"/>
   </g>
   <g id="patch_8">
    <path clip-path="url(#p31930c5517)" d="M 122.418285 149.234375 
L 151.961435 149.234375 
L 151.961435 119.691225 
L 122.418285 119.691225 
z
" style="fill:#6fa4ff;"/>
   </g>
   <g id="patch_9">
    <path clip-path="url(#p31930c5517)" d="M 182.64086 47.992272 
C 183.8161 47.992272 184.943364 47.525345 185.774384 46.694324 
C 186.605405 45.863304 187.072332 44.73604 187.072332 43.5608 
C 187.072332 42.38556 186.605405 41.258296 185.774384 40.427276 
C 184.943364 39.596255 183.8161 39.129328 182.64086 39.129328 
C 181.46562 39.129328 180.338356 39.596255 179.507336 40.427276 
C 178.676315 41.258296 178.209387 42.38556 178.209387 43.5608 
C 178.209387 44.73604 178.676315 45.863304 179.507336 46.694324 
C 180.338356 47.525345 181.46562 47.992272 182.64086 47.992272 
z
" style="fill:#bb8bff;stroke:#bb8bff;stroke-linejoin:miter;stroke-width:1.5;"/>
   </g>
   <g id="patch_10">
    <path clip-path="url(#p31930c5517)" d="M 167.869285 194.685375 
L 197.412435 194.685375 
L 197.412435 165.142225 
L 167.869285 165.142225 
z
" style="fill:#bb8bff;"/>
   </g>
   <g id="patch_11">
    <path clip-path="url(#p31930c5517)" d="M 228.09186 47.992272 
C 229.2671 47.992272 230.394364 47.525345 231.225384 46.694324 
C 232.056405 45.863304 232.523332 44.73604 232.523332 43.5608 
C 232.523332 42.38556 232.056405 41.258296 231.225384 40.427276 
C 230.394364 39.596255 229.2671 39.129328 228.09186 39.129328 
C 226.91662 39.129328 225.789356 39.596255 224.958336 40.427276 
C 224.127315 41.258296 223.660387 42.38556 223.660387 43.5608 
C 223.660387 44.73604 224.127315 45.863304 224.958336 46.694324 
C 225.789356 47.525345 226.91662 47.992272 228.09186 47.992272 
z
" style="fill:#bb8bff;stroke:#bb8bff;stroke-linejoin:miter;stroke-width:1.5;"/>
   </g>
   <g id="patch_12">
    <path clip-path="url(#p31930c5517)" d="M 213.320285 194.685375 
L 242.863435 194.685375 
L 242.863435 165.142225 
L 213.320285 165.142225 
z
" style="fill:#bb8bff;"/>
   </g>
   <g id="patch_13">
    <path clip-path="url(#p31930c5517)" d="M 273.54286 47.992272 
C 274.7181 47.992272 275.845364 47.525345 276.676384 46.694324 
C 277.507405 45.863304 277.974332 44.73604 277.974332 43.5608 
C 277.974332 42.38556 277.507405 41.258296 276.676384 40.427276 
C 275.845364 39.596255 274.7181 39.129328 273.54286 39.129328 
C 272.36762 39.129328 271.240356 39.596255 270.409336 40.427276 
C 269.578315 41.258296 269.111387 42.38556 269.111387 43.5608 
C 269.111387 44.73604 269.578315 45.863304 270.409336 46.694324 
C 271.240356 47.525345 272.36762 47.992272 273.54286 47.992272 
z
" style="fill:#bb8bff;stroke:#bb8bff;stroke-linejoin:miter;stroke-width:1.5;"/>
   </g>
   <g id="patch_14">
    <path clip-path="url(#p31930c5517)" d="M 258.771285 194.685375 
L 288.314435 194.685375 
L 288.314435 165.142225 
L 258.771285 165.142225 
z
" style="fill:#bb8bff;"/>
   </g>
   <g id="patch_15">
    <path clip-path="url(#p31930c5517)" d="M 318.99386 47.992272 
C 320.1691 47.992272 321.296364 47.525345 322.127384 46.694324 
C 322.958405 45.863304 323.425332 44.73604 323.425332 43.5608 
C 323.425332 42.38556 322.958405 41.258296 322.127384 40.427276 
C 321.296364 39.596255 320.1691 39.129328 318.99386 39.129328 
C 317.81862 39.129328 316.691356 39.596255 315.860336 40.427276 
C 315.029315 41.258296 314.562387 42.38556 314.562387 43.5608 
C 314.562387 44.73604 315.029315 45.863304 315.860336 46.694324 
C 316.691356 47.525345 317.81862 47.992272 318.99386 47.992272 
z
" style="fill:#bb8bff;stroke:#bb8bff;stroke-linejoin:miter;stroke-width:1.5;"/>
   </g>
   <g id="patch_16">
    <path clip-path="url(#p31930c5517)" d="M 304.222285 194.685375 
L 333.765435 194.685375 
L 333.765435 165.142225 
L 304.222285 165.142225 
z
" style="fill:#bb8bff;"/>
   </g>
   <g id="patch_17">
    <path clip-path="url(#p31930c5517)" d="M 364.44486 93.443272 
C 365.6201 93.443272 366.747364 92.976345 367.578384 92.145324 
C 368.409405 91.314304 368.876332 90.18704 368.876332 89.0118 
C 368.876332 87.83656 368.409405 86.709296 367.578384 85.878276 
C 366.747364 85.047255 365.6201 84.580327 364.44486 84.580327 
C 363.26962 84.580327 362.142356 85.047255 361.311336 85.878276 
C 360.480315 86.709296 360.013387 87.83656 360.013387 89.0118 
C 360.013387 90.18704 360.480315 91.314304 361.311336 92.145324 
C 362.142356 92.976345 363.26962 93.443272 364.44486 93.443272 
z
" style="fill:#bb8bff;stroke:#bb8bff;stroke-linejoin:miter;stroke-width:1.5;"/>
   </g>
   <g id="patch_18">
    <path clip-path="url(#p31930c5517)" d="M 349.673285 194.685375 
L 379.216435 194.685375 
L 379.216435 165.142225 
L 349.673285 165.142225 
z
" style="fill:#bb8bff;"/>
   </g>
   <g id="patch_19">
    <path clip-path="url(#p31930c5517)" d="M 409.89586 93.443272 
C 411.0711 93.443272 412.198364 92.976345 413.029384 92.145324 
C 413.860405 91.314304 414.327332 90.18704 414.327332 89.0118 
C 414.327332 87.83656 413.860405 86.709296 413.029384 85.878276 
C 412.198364 85.047255 411.0711 84.580327 409.89586 84.580327 
C 408.72062 84.580327 407.593356 85.047255 406.762336 85.878276 
C 405.931315 86.709296 405.464387 87.83656 405.464387 89.0118 
C 405.464387 90.18704 405.931315 91.314304 406.762336 92.145324 
C 407.593356 92.976345 408.72062 93.443272 409.89586 93.443272 
z
" style="fill:#bb8bff;stroke:#bb8bff;stroke-linejoin:miter;stroke-width:1.5;"/>
   </g>
   <g id="patch_20">
    <path clip-path="url(#p31930c5517)" d="M 395.124285 194.685375 
L 424.667435 194.685375 
L 424.667435 165.142225 
L 395.124285 165.142225 
z
" style="fill:#bb8bff;"/>
   </g>
   <g id="patch_21">
    <path clip-path="url(#p31930c5517)" d="M 455.34686 138.894273 
C 456.5221 138.894273 457.649364 138.427345 458.480384 137.596324 
C 459.311405 136.765304 459.778332 135.63804 459.778332 134.4628 
C 459.778332 133.28756 459.311405 132.160296 458.480384 131.329276 
C 457.649364 130.498255 456.5221 130.031328 455.34686 130.031328 
C 454.17162 130.031328 453.044356 130.498255 452.213336 131.329276 
C 451.382315 132.160296 450.915388 133.28756 450.915388 134.4628 
C 450.915388 135.63804 451.382315 136.765304 452.213336 137.596324 
C 453.044356 138.427345 454.17162 138.894273 455.34686 138.894273 
z
" style="fill:#bb8bff;stroke:#bb8bff;stroke-linejoin:miter;stroke-width:1.5;"/>
   </g>
   <g id="patch_22">
    <path clip-path="url(#p31930c5517)" d="M 440.575285 194.685375 
L 470.118435 194.685375 
L 470.118435 165.142225 
L 440.575285 165.142225 
z
" style="fill:#bb8bff;"/>
   </g>
   <g id="patch_23">
    <path clip-path="url(#p31930c5517)" d="M 531.477285 149.234375 
L 561.020435 149.234375 
L 561.020435 119.691225 
L 531.477285 119.691225 
z
" style="fill:#6fa4ff;"/>
   </g>
   <g id="patch_24">
    <path clip-path="url(#p31930c5517)" d="M 591.69986 138.894273 
C 592.8751 138.894273 594.002364 138.427345 594.833384 137.596324 
C 595.664405 136.765304 596.131332 135.63804 596.131332 134.4628 
C 596.131332 133.28756 595.664405 132.160296 594.833384 131.329276 
C 594.002364 130.498255 592.8751 130.031328 591.69986 130.031328 
C 590.52462 130.031328 589.397356 130.498255 588.566336 131.329276 
C 587.735315 132.160296 587.268387 133.28756 587.268387 134.4628 
C 587.268387 135.63804 587.735315 136.765304 588.566336 137.596324 
C 589.397356 138.427345 590.52462 138.894273 591.69986 138.894273 
z
" style="fill:#bb8bff;stroke:#bb8bff;stroke-linejoin:miter;stroke-width:1.5;"/>
   </g>
   <g id="patch_25">
    <path clip-path="url(#p31930c5517)" d="M 576.928285 103.783375 
L 606.471435 103.783375 
L 606.471435 74.240225 
L 576.928285 74.240225 
z
" style="fill:#bb8bff;"/>
   </g>
   <g id="patch_26">
    <path clip-path="url(#p31930c5517)" d="M 622.379285 103.783375 
L 651.922435 103.783375 
L 651.922435 74.240225 
L 622.379285 74.240225 
z
" style="fill:#6fa4ff;"/>
   </g>
   <g id="patch_27">
    <path clip-path="url(#p31930c5517)" d="M 682.60186 138.894273 
C 683.7771 138.894273 684.904364 138.427345 685.735384 137.596324 
C 686.566405 136.765304 687.033332 135.63804 687.033332 134.4628 
C 687.033332 133.28756 686.566405 132.160296 685.735384 131.329276 
C 684.904364 130.498255 683.7771 130.031328 682.60186 130.031328 
C 681.42662 130.031328 680.299356 130.498255 679.468336 131.329276 
C 678.637315 132.160296 678.170387 133.28756 678.170387 134.4628 
C 678.170387 135.63804 678.637315 136.765304 679.468336 137.596324 
C 680.299356 138.427345 681.42662 138.894273 682.60186 138.894273 
z
" style="fill:#bb8bff;stroke:#bb8bff;stroke-linejoin:miter;stroke-width:1.5;"/>
   </g>
   <g id="patch_28">
    <path clip-path="url(#p31930c5517)" d="M 667.830285 58.332375 
L 697.373435 58.332375 
L 697.373435 28.789225 
L 667.830285 28.789225 
z
" style="fill:#bb8bff;"/>
   </g>
   <g id="patch_29">
    <path clip-path="url(#p31930c5517)" d="M 728.05286 93.443272 
C 729.2281 93.443272 730.355364 92.976345 731.186384 92.145324 
C 732.017405 91.314304 732.484332 90.18704 732.484332 89.0118 
C 732.484332 87.83656 732.017405 86.709296 731.186384 85.878276 
C 730.355364 85.047255 729.2281 84.580327 728.05286 84.580327 
C 726.87762 84.580327 725.750356 85.047255 724.919336 85.878276 
C 724.088315 86.709296 723.621387 87.83656 723.621387 89.0118 
C 723.621387 90.18704 724.088315 91.314304 724.919336 92.145324 
C 725.750356 92.976345 726.87762 93.443272 728.05286 93.443272 
z
" style="fill:#bb8bff;stroke:#bb8bff;stroke-linejoin:miter;stroke-width:1.5;"/>
   </g>
   <g id="patch_30">
    <path clip-path="url(#p31930c5517)" d="M 713.281285 58.332375 
L 742.824435 58.332375 
L 742.824435 28.789225 
L 713.281285 28.789225 
z
" style="fill:#bb8bff;"/>
   </g>
   <g id="patch_31">
    <path clip-path="url(#p31930c5517)" d="M 713.281285 149.234375 
L 742.824435 149.234375 
L 742.824435 119.691225 
L 713.281285 119.691225 
z
"/>
   </g>
   <g id="patch_32">
    <path clip-path="url(#p31930c5517)" d="M 738.392962 138.894273 
C 738.392962 136.152959 737.302818 133.521118 735.364417 131.582716 
C 733.426015 129.644314 730.794174 128.55417 728.05286 128.55417 
C 725.311546 128.55417 722.679705 129.644314 720.741303 131.582716 
C 718.802902 133.521118 717.712757 136.152959 717.712757 138.894273 
" style="fill:none;stroke:#ffffff;stroke-linejoin:miter;stroke-width:2;"/>
   </g>
   <g id="patch_33">
    <path clip-path="url(#p31930c5517)" d="M 758.732285 58.332375 
L 788.275435 58.332375 
L 788.275435 28.789225 
L 758.732285 28.789225 
z
" style="fill:#6fa4ff;"/>
   </g>
   <g id="patch_34">
    <path clip-path="url(#p31930c5517)" d="M 758.732285 103.783375 
L 788.275435 103.783375 
L 788.275435 74.240225 
L 758.732285 74.240225 
z
"/>
   </g>
   <g id="patch_35">
    <path clip-path="url(#p31930c5517)" d="M 783.843962 93.443273 
C 783.843962 90.701959 782.753818 88.070118 780.815417 86.131716 
C 778.877015 84.193314 776.245174 83.10317 773.50386 83.10317 
C 770.762546 83.10317 768.130705 84.193314 766.192303 86.131716 
C 764.253902 88.070118 763.163757 90.701959 763.163757 93.443273 
" style="fill:none;stroke:#ffffff;stroke-linejoin:miter;stroke-width:2;"/>
   </g>
   <g id="patch_36">
    <path clip-path="url(#p31930c5517)" d="M 804.183285 58.332375 
L 833.726435 58.332375 
L 833.726435 28.789225 
L 804.183285 28.789225 
z
"/>
   </g>
   <g id="patch_37">
    <path clip-path="url(#p31930c5517)" d="M 829.294962 47.992273 
C 829.294962 45.250959 828.204818 42.619118 826.266417 40.680716 
C 824.328015 38.742314 821.696174 37.65217 818.95486 37.65217 
C 816.213546 37.65217 813.581705 38.742314 811.643303 40.680716 
C 809.704902 42.619118 808.614757 45.250959 808.614757 47.992273 
" style="fill:none;stroke:#ffffff;stroke-linejoin:miter;stroke-width:2;"/>
   </g>
   <g id="line2d_29">
    <path clip-path="url(#p31930c5517)" d="M 728.05286 138.894273 
L 738.392962 128.55417 
" style="fill:none;stroke:#ffffff;stroke-linecap:square;stroke-width:2;"/>
   </g>
   <g id="line2d_30">
    <path clip-path="url(#p31930c5517)" d="M 773.50386 93.443273 
L 783.843962 83.10317 
" style="fill:none;stroke:#ffffff;stroke-linecap:square;stroke-width:2;"/>
   </g>
   <g id="line2d_31">
    <path clip-path="url(#p31930c5517)" d="M 818.95486 47.992272 
L 829.294962 37.65217 
" style="fill:none;stroke:#ffffff;stroke-linecap:square;stroke-width:2;"/>
   </g>
   <g id="text_1">
    <g clip-path="url(#p31930c5517)">
     <!-- $X$ -->
     <defs>
      <path d="M 13.71875 72.90625 
L 23.6875 72.90625 
L 36.1875 46.578125 
L 58.796875 72.90625 
L 70.3125 72.90625 
L 40.28125 38.09375 
L 58.40625 0 
L 48.484375 0 
L 33.796875 30.71875 
L 7.171875 0 
L -4.296875 0 
L 29.78125 39.203125 
z
" id="DejaVuSans-Oblique-88"/>
     </defs>
     <g transform="translate(132.70486 183.500988)scale(0.13 -0.13)">
      <use transform="translate(0 0.09375)" xlink:href="#DejaVuSans-Oblique-88"/>
     </g>
    </g>
   </g>
   <g id="text_2">
    <g clip-path="url(#p31930c5517)">
     <!-- $H$ -->
     <defs>
      <path d="M 16.890625 72.90625 
L 26.8125 72.90625 
L 21 43.015625 
L 56.78125 43.015625 
L 62.59375 72.90625 
L 72.515625 72.90625 
L 58.296875 0 
L 48.390625 0 
L 55.171875 34.71875 
L 19.390625 34.71875 
L 12.59375 0 
L 2.6875 0 
z
" id="DejaVuSans-Oblique-72"/>
     </defs>
     <g transform="translate(132.24986 47.147987)scale(0.13 -0.13)">
      <use transform="translate(0 0.09375)" xlink:href="#DejaVuSans-Oblique-72"/>
     </g>
    </g>
   </g>
   <g id="text_3">
    <g clip-path="url(#p31930c5517)">
     <!-- $H$ -->
     <g transform="translate(132.24986 92.598987)scale(0.13 -0.13)">
      <use transform="translate(0 0.09375)" xlink:href="#DejaVuSans-Oblique-72"/>
     </g>
    </g>
   </g>
   <g id="text_4">
    <g clip-path="url(#p31930c5517)">
     <!-- $H$ -->
     <g transform="translate(132.24986 138.049988)scale(0.13 -0.13)">
      <use transform="translate(0 0.09375)" xlink:href="#DejaVuSans-Oblique-72"/>
     </g>
    </g>
   </g>
   <g id="text_5">
    <g clip-path="url(#p31930c5517)">
     <!-- $U_1$ -->
     <defs>
      <path d="M 15.484375 72.90625 
L 25.390625 72.90625 
L 16.796875 28.609375 
Q 16.265625 25.640625 16.046875 23.703125 
Q 15.828125 21.78125 15.828125 20.3125 
Q 15.828125 13.578125 19.578125 10.078125 
Q 23.34375 6.59375 30.609375 6.59375 
Q 40.046875 6.59375 45.28125 11.765625 
Q 50.53125 16.9375 52.78125 28.609375 
L 61.375 72.90625 
L 71.296875 72.90625 
L 62.5 27.390625 
Q 59.625 12.640625 51.5625 5.609375 
Q 43.5 -1.421875 29.5 -1.421875 
Q 18.5625 -1.421875 12.1875 4.078125 
Q 5.8125 9.578125 5.8125 19 
Q 5.8125 20.703125 6.046875 22.828125 
Q 6.296875 24.953125 6.78125 27.390625 
z
" id="DejaVuSans-Oblique-85"/>
      <path d="M 12.40625 8.296875 
L 28.515625 8.296875 
L 28.515625 63.921875 
L 10.984375 60.40625 
L 10.984375 69.390625 
L 28.421875 72.90625 
L 38.28125 72.90625 
L 38.28125 8.296875 
L 54.390625 8.296875 
L 54.390625 0 
L 12.40625 0 
z
" id="DejaVuSans-49"/>
     </defs>
     <g transform="translate(174.77586 179.069515)scale(0.13 -0.13)">
      <use transform="translate(0 0.09375)" xlink:href="#DejaVuSans-Oblique-85"/>
      <use transform="translate(73.193359 -16.3125)scale(0.7)" xlink:href="#DejaVuSans-49"/>
     </g>
    </g>
   </g>
   <g id="text_6">
    <g clip-path="url(#p31930c5517)">
     <!-- $\pi$/4 -->
     <defs>
      <path d="M 9.125 54.6875 
L 61.53125 54.6875 
L 59.765625 45.703125 
L 52.875 45.703125 
L 46.34375 12.109375 
Q 45.65625 8.59375 46.578125 7.03125 
Q 47.46875 5.515625 50.140625 5.515625 
Q 50.875 5.515625 51.953125 5.671875 
Q 53.078125 5.765625 53.421875 5.8125 
L 52.15625 -0.6875 
Q 50.34375 -1.3125 48.484375 -1.609375 
Q 46.578125 -1.90625 44.78125 -1.90625 
Q 38.921875 -1.90625 37.3125 1.265625 
Q 35.6875 4.5 37.359375 13.09375 
L 43.703125 45.703125 
L 23.53125 45.703125 
L 14.65625 0 
L 5.46875 0 
L 14.359375 45.703125 
L 7.375 45.703125 
z
" id="DejaVuSans-Oblique-960"/>
      <path d="M 25.390625 72.90625 
L 33.6875 72.90625 
L 8.296875 -9.28125 
L 0 -9.28125 
z
" id="DejaVuSans-47"/>
      <path d="M 37.796875 64.3125 
L 12.890625 25.390625 
L 37.796875 25.390625 
z
M 35.203125 72.90625 
L 47.609375 72.90625 
L 47.609375 25.390625 
L 58.015625 25.390625 
L 58.015625 17.1875 
L 47.609375 17.1875 
L 47.609375 0 
L 37.796875 0 
L 37.796875 17.1875 
L 4.890625 17.1875 
L 4.890625 26.703125 
z
" id="DejaVuSans-52"/>
     </defs>
     <g transform="translate(176.32086 190.984245)scale(0.08 -0.08)">
      <use transform="translate(0 0.09375)" xlink:href="#DejaVuSans-Oblique-960"/>
      <use transform="translate(60.205078 0.09375)" xlink:href="#DejaVuSans-47"/>
      <use transform="translate(93.896484 0.09375)" xlink:href="#DejaVuSans-52"/>
     </g>
    </g>
   </g>
   <g id="text_7">
    <g clip-path="url(#p31930c5517)">
     <!-- $U_1$ -->
     <g transform="translate(220.22686 179.069515)scale(0.13 -0.13)">
      <use transform="translate(0 0.09375)" xlink:href="#DejaVuSans-Oblique-85"/>
      <use transform="translate(73.193359 -16.3125)scale(0.7)" xlink:href="#DejaVuSans-49"/>
     </g>
    </g>
   </g>
   <g id="text_8">
    <g clip-path="url(#p31930c5517)">
     <!-- $\pi$/4 -->
     <g transform="translate(221.77186 190.984245)scale(0.08 -0.08)">
      <use transform="translate(0 0.09375)" xlink:href="#DejaVuSans-Oblique-960"/>
      <use transform="translate(60.205078 0.09375)" xlink:href="#DejaVuSans-47"/>
      <use transform="translate(93.896484 0.09375)" xlink:href="#DejaVuSans-52"/>
     </g>
    </g>
   </g>
   <g id="text_9">
    <g clip-path="url(#p31930c5517)">
     <!-- $U_1$ -->
     <g transform="translate(265.67786 179.069515)scale(0.13 -0.13)">
      <use transform="translate(0 0.09375)" xlink:href="#DejaVuSans-Oblique-85"/>
      <use transform="translate(73.193359 -16.3125)scale(0.7)" xlink:href="#DejaVuSans-49"/>
     </g>
    </g>
   </g>
   <g id="text_10">
    <g clip-path="url(#p31930c5517)">
     <!-- $\pi$/4 -->
     <g transform="translate(267.22286 190.984245)scale(0.08 -0.08)">
      <use transform="translate(0 0.09375)" xlink:href="#DejaVuSans-Oblique-960"/>
      <use transform="translate(60.205078 0.09375)" xlink:href="#DejaVuSans-47"/>
      <use transform="translate(93.896484 0.09375)" xlink:href="#DejaVuSans-52"/>
     </g>
    </g>
   </g>
   <g id="text_11">
    <g clip-path="url(#p31930c5517)">
     <!-- $U_1$ -->
     <g transform="translate(311.12886 179.069515)scale(0.13 -0.13)">
      <use transform="translate(0 0.09375)" xlink:href="#DejaVuSans-Oblique-85"/>
      <use transform="translate(73.193359 -16.3125)scale(0.7)" xlink:href="#DejaVuSans-49"/>
     </g>
    </g>
   </g>
   <g id="text_12">
    <g clip-path="url(#p31930c5517)">
     <!-- $\pi$/4 -->
     <g transform="translate(312.67386 190.984245)scale(0.08 -0.08)">
      <use transform="translate(0 0.09375)" xlink:href="#DejaVuSans-Oblique-960"/>
      <use transform="translate(60.205078 0.09375)" xlink:href="#DejaVuSans-47"/>
      <use transform="translate(93.896484 0.09375)" xlink:href="#DejaVuSans-52"/>
     </g>
    </g>
   </g>
   <g id="text_13">
    <g clip-path="url(#p31930c5517)">
     <!-- $U_1$ -->
     <g transform="translate(356.57986 179.069515)scale(0.13 -0.13)">
      <use transform="translate(0 0.09375)" xlink:href="#DejaVuSans-Oblique-85"/>
      <use transform="translate(73.193359 -16.3125)scale(0.7)" xlink:href="#DejaVuSans-49"/>
     </g>
    </g>
   </g>
   <g id="text_14">
    <g clip-path="url(#p31930c5517)">
     <!-- $\pi$/4 -->
     <g transform="translate(358.12486 190.984245)scale(0.08 -0.08)">
      <use transform="translate(0 0.09375)" xlink:href="#DejaVuSans-Oblique-960"/>
      <use transform="translate(60.205078 0.09375)" xlink:href="#DejaVuSans-47"/>
      <use transform="translate(93.896484 0.09375)" xlink:href="#DejaVuSans-52"/>
     </g>
    </g>
   </g>
   <g id="text_15">
    <g clip-path="url(#p31930c5517)">
     <!-- $U_1$ -->
     <g transform="translate(402.03086 179.069515)scale(0.13 -0.13)">
      <use transform="translate(0 0.09375)" xlink:href="#DejaVuSans-Oblique-85"/>
      <use transform="translate(73.193359 -16.3125)scale(0.7)" xlink:href="#DejaVuSans-49"/>
     </g>
    </g>
   </g>
   <g id="text_16">
    <g clip-path="url(#p31930c5517)">
     <!-- $\pi$/4 -->
     <g transform="translate(403.57586 190.984245)scale(0.08 -0.08)">
      <use transform="translate(0 0.09375)" xlink:href="#DejaVuSans-Oblique-960"/>
      <use transform="translate(60.205078 0.09375)" xlink:href="#DejaVuSans-47"/>
      <use transform="translate(93.896484 0.09375)" xlink:href="#DejaVuSans-52"/>
     </g>
    </g>
   </g>
   <g id="text_17">
    <g clip-path="url(#p31930c5517)">
     <!-- $U_1$ -->
     <g transform="translate(447.48186 179.069515)scale(0.13 -0.13)">
      <use transform="translate(0 0.09375)" xlink:href="#DejaVuSans-Oblique-85"/>
      <use transform="translate(73.193359 -16.3125)scale(0.7)" xlink:href="#DejaVuSans-49"/>
     </g>
    </g>
   </g>
   <g id="text_18">
    <g clip-path="url(#p31930c5517)">
     <!-- $\pi$/4 -->
     <g transform="translate(449.02686 190.984245)scale(0.08 -0.08)">
      <use transform="translate(0 0.09375)" xlink:href="#DejaVuSans-Oblique-960"/>
      <use transform="translate(60.205078 0.09375)" xlink:href="#DejaVuSans-47"/>
      <use transform="translate(93.896484 0.09375)" xlink:href="#DejaVuSans-52"/>
     </g>
    </g>
   </g>
   <g id="text_19">
    <g clip-path="url(#p31930c5517)">
     <!-- $H$ -->
     <g transform="translate(541.30886 138.049988)scale(0.13 -0.13)">
      <use transform="translate(0 0.09375)" xlink:href="#DejaVuSans-Oblique-72"/>
     </g>
    </g>
   </g>
   <g id="text_20">
    <g clip-path="url(#p31930c5517)">
     <!-- $U_1$ -->
     <g transform="translate(583.83486 88.167515)scale(0.13 -0.13)">
      <use transform="translate(0 0.09375)" xlink:href="#DejaVuSans-Oblique-85"/>
      <use transform="translate(73.193359 -16.3125)scale(0.7)" xlink:href="#DejaVuSans-49"/>
     </g>
    </g>
   </g>
   <g id="text_21">
    <g clip-path="url(#p31930c5517)">
     <!-- $-$$\pi$/2 -->
     <defs>
      <path d="M 10.59375 35.5 
L 73.1875 35.5 
L 73.1875 27.203125 
L 10.59375 27.203125 
z
" id="DejaVuSans-8722"/>
      <path d="M 19.1875 8.296875 
L 53.609375 8.296875 
L 53.609375 0 
L 7.328125 0 
L 7.328125 8.296875 
Q 12.9375 14.109375 22.625 23.890625 
Q 32.328125 33.6875 34.8125 36.53125 
Q 39.546875 41.84375 41.421875 45.53125 
Q 43.3125 49.21875 43.3125 52.78125 
Q 43.3125 58.59375 39.234375 62.25 
Q 35.15625 65.921875 28.609375 65.921875 
Q 23.96875 65.921875 18.8125 64.3125 
Q 13.671875 62.703125 7.8125 59.421875 
L 7.8125 69.390625 
Q 13.765625 71.78125 18.9375 73 
Q 24.125 74.21875 28.421875 74.21875 
Q 39.75 74.21875 46.484375 68.546875 
Q 53.21875 62.890625 53.21875 53.421875 
Q 53.21875 48.921875 51.53125 44.890625 
Q 49.859375 40.875 45.40625 35.40625 
Q 44.1875 33.984375 37.640625 27.21875 
Q 31.109375 20.453125 19.1875 8.296875 
z
" id="DejaVuSans-50"/>
     </defs>
     <g transform="translate(582.01986 100.082245)scale(0.08 -0.08)">
      <use transform="translate(0 0.78125)" xlink:href="#DejaVuSans-8722"/>
      <use transform="translate(83.789062 0.78125)" xlink:href="#DejaVuSans-Oblique-960"/>
      <use transform="translate(143.994141 0.78125)" xlink:href="#DejaVuSans-47"/>
      <use transform="translate(177.638672 0.78125)" xlink:href="#DejaVuSans-50"/>
     </g>
    </g>
   </g>
   <g id="text_22">
    <g clip-path="url(#p31930c5517)">
     <!-- $H$ -->
     <g transform="translate(632.21086 92.598987)scale(0.13 -0.13)">
      <use transform="translate(0 0.09375)" xlink:href="#DejaVuSans-Oblique-72"/>
     </g>
    </g>
   </g>
   <g id="text_23">
    <g clip-path="url(#p31930c5517)">
     <!-- $U_1$ -->
     <g transform="translate(674.73686 42.716515)scale(0.13 -0.13)">
      <use transform="translate(0 0.09375)" xlink:href="#DejaVuSans-Oblique-85"/>
      <use transform="translate(73.193359 -16.3125)scale(0.7)" xlink:href="#DejaVuSans-49"/>
     </g>
    </g>
   </g>
   <g id="text_24">
    <g clip-path="url(#p31930c5517)">
     <!-- $-$$\pi$/4 -->
     <g transform="translate(672.92186 54.631245)scale(0.08 -0.08)">
      <use transform="translate(0 0.09375)" xlink:href="#DejaVuSans-8722"/>
      <use transform="translate(83.789062 0.09375)" xlink:href="#DejaVuSans-Oblique-960"/>
      <use transform="translate(143.994141 0.09375)" xlink:href="#DejaVuSans-47"/>
      <use transform="translate(177.685547 0.09375)" xlink:href="#DejaVuSans-52"/>
     </g>
    </g>
   </g>
   <g id="text_25">
    <g clip-path="url(#p31930c5517)">
     <!-- $U_1$ -->
     <g transform="translate(720.18786 42.716515)scale(0.13 -0.13)">
      <use transform="translate(0 0.09375)" xlink:href="#DejaVuSans-Oblique-85"/>
      <use transform="translate(73.193359 -16.3125)scale(0.7)" xlink:href="#DejaVuSans-49"/>
     </g>
    </g>
   </g>
   <g id="text_26">
    <g clip-path="url(#p31930c5517)">
     <!-- $-$$\pi$/2 -->
     <g transform="translate(718.37286 54.631245)scale(0.08 -0.08)">
      <use transform="translate(0 0.78125)" xlink:href="#DejaVuSans-8722"/>
      <use transform="translate(83.789062 0.78125)" xlink:href="#DejaVuSans-Oblique-960"/>
      <use transform="translate(143.994141 0.78125)" xlink:href="#DejaVuSans-47"/>
      <use transform="translate(177.638672 0.78125)" xlink:href="#DejaVuSans-50"/>
     </g>
    </g>
   </g>
   <g id="text_27">
    <g clip-path="url(#p31930c5517)">
     <!-- 0 -->
     <defs>
      <path d="M 31.78125 66.40625 
Q 24.171875 66.40625 20.328125 58.90625 
Q 16.5 51.421875 16.5 36.375 
Q 16.5 21.390625 20.328125 13.890625 
Q 24.171875 6.390625 31.78125 6.390625 
Q 39.453125 6.390625 43.28125 13.890625 
Q 47.125 21.390625 47.125 36.375 
Q 47.125 51.421875 43.28125 58.90625 
Q 39.453125 66.40625 31.78125 66.40625 
z
M 31.78125 74.21875 
Q 44.046875 74.21875 50.515625 64.515625 
Q 56.984375 54.828125 56.984375 36.375 
Q 56.984375 17.96875 50.515625 8.265625 
Q 44.046875 -1.421875 31.78125 -1.421875 
Q 19.53125 -1.421875 13.0625 8.265625 
Q 6.59375 17.96875 6.59375 36.375 
Q 6.59375 54.828125 13.0625 64.515625 
Q 19.53125 74.21875 31.78125 74.21875 
z
" id="DejaVuSans-48"/>
     </defs>
     <g transform="translate(739.41561 218.656825)scale(0.104 -0.104)">
      <use xlink:href="#DejaVuSans-48"/>
     </g>
    </g>
   </g>
   <g id="text_28">
    <g clip-path="url(#p31930c5517)">
     <!-- $H$ -->
     <g transform="translate(768.56386 47.147987)scale(0.13 -0.13)">
      <use transform="translate(0 0.09375)" xlink:href="#DejaVuSans-Oblique-72"/>
     </g>
    </g>
   </g>
   <g id="text_29">
    <g clip-path="url(#p31930c5517)">
     <!-- 1 -->
     <g transform="translate(784.86661 218.656825)scale(0.104 -0.104)">
      <use xlink:href="#DejaVuSans-49"/>
     </g>
    </g>
   </g>
   <g id="text_30">
    <g clip-path="url(#p31930c5517)">
     <!-- 2 -->
     <g transform="translate(830.31761 218.656825)scale(0.104 -0.104)">
      <use xlink:href="#DejaVuSans-50"/>
     </g>
    </g>
   </g>
   <g id="text_31">
    <g clip-path="url(#p31930c5517)">
     <!-- ${q}_{0}$ -->
     <defs>
      <path d="M 41.703125 8.203125 
Q 38.09375 3.46875 33.171875 1.015625 
Q 28.265625 -1.421875 22.3125 -1.421875 
Q 14.015625 -1.421875 9.296875 4.171875 
Q 4.59375 9.765625 4.59375 19.578125 
Q 4.59375 27.484375 7.5 34.859375 
Q 10.40625 42.234375 15.828125 48.09375 
Q 19.34375 51.90625 23.90625 53.953125 
Q 28.46875 56 33.5 56 
Q 39.546875 56 43.453125 53.609375 
Q 47.359375 51.21875 49.125 46.390625 
L 50.6875 54.59375 
L 59.71875 54.59375 
L 45.125 -20.609375 
L 36.078125 -20.609375 
z
M 13.921875 20.90625 
Q 13.921875 13.671875 16.9375 9.890625 
Q 19.96875 6.109375 25.6875 6.109375 
Q 34.1875 6.109375 40.1875 14.234375 
Q 46.1875 22.359375 46.1875 33.984375 
Q 46.1875 41.015625 43.078125 44.75 
Q 39.984375 48.484375 34.1875 48.484375 
Q 29.9375 48.484375 26.3125 46.5 
Q 22.703125 44.53125 20.015625 40.71875 
Q 17.1875 36.71875 15.546875 31.34375 
Q 13.921875 25.984375 13.921875 20.90625 
z
" id="DejaVuSans-Oblique-113"/>
     </defs>
     <g transform="translate(73.70136 48.011777)scale(0.1625 -0.1625)">
      <use xlink:href="#DejaVuSans-Oblique-113"/>
      <use transform="translate(63.476562 -16.40625)scale(0.7)" xlink:href="#DejaVuSans-48"/>
     </g>
    </g>
   </g>
   <g id="text_32">
    <g clip-path="url(#p31930c5517)">
     <!-- ${q}_{1}$ -->
     <g transform="translate(73.70136 93.462777)scale(0.1625 -0.1625)">
      <use xlink:href="#DejaVuSans-Oblique-113"/>
      <use transform="translate(63.476562 -16.40625)scale(0.7)" xlink:href="#DejaVuSans-49"/>
     </g>
    </g>
   </g>
   <g id="text_33">
    <g clip-path="url(#p31930c5517)">
     <!-- ${q}_{2}$ -->
     <g transform="translate(73.70136 138.913777)scale(0.1625 -0.1625)">
      <use xlink:href="#DejaVuSans-Oblique-113"/>
      <use transform="translate(63.476562 -16.40625)scale(0.7)" xlink:href="#DejaVuSans-50"/>
     </g>
    </g>
   </g>
   <g id="text_34">
    <g clip-path="url(#p31930c5517)">
     <!-- ${q}_{3}$ -->
     <defs>
      <path d="M 40.578125 39.3125 
Q 47.65625 37.796875 51.625 33 
Q 55.609375 28.21875 55.609375 21.1875 
Q 55.609375 10.40625 48.1875 4.484375 
Q 40.765625 -1.421875 27.09375 -1.421875 
Q 22.515625 -1.421875 17.65625 -0.515625 
Q 12.796875 0.390625 7.625 2.203125 
L 7.625 11.71875 
Q 11.71875 9.328125 16.59375 8.109375 
Q 21.484375 6.890625 26.8125 6.890625 
Q 36.078125 6.890625 40.9375 10.546875 
Q 45.796875 14.203125 45.796875 21.1875 
Q 45.796875 27.640625 41.28125 31.265625 
Q 36.765625 34.90625 28.71875 34.90625 
L 20.21875 34.90625 
L 20.21875 43.015625 
L 29.109375 43.015625 
Q 36.375 43.015625 40.234375 45.921875 
Q 44.09375 48.828125 44.09375 54.296875 
Q 44.09375 59.90625 40.109375 62.90625 
Q 36.140625 65.921875 28.71875 65.921875 
Q 24.65625 65.921875 20.015625 65.03125 
Q 15.375 64.15625 9.8125 62.3125 
L 9.8125 71.09375 
Q 15.4375 72.65625 20.34375 73.4375 
Q 25.25 74.21875 29.59375 74.21875 
Q 40.828125 74.21875 47.359375 69.109375 
Q 53.90625 64.015625 53.90625 55.328125 
Q 53.90625 49.265625 50.4375 45.09375 
Q 46.96875 40.921875 40.578125 39.3125 
z
" id="DejaVuSans-51"/>
     </defs>
     <g transform="translate(73.70136 184.364777)scale(0.1625 -0.1625)">
      <use xlink:href="#DejaVuSans-Oblique-113"/>
      <use transform="translate(63.476562 -16.40625)scale(0.7)" xlink:href="#DejaVuSans-51"/>
     </g>
    </g>
   </g>
   <g id="text_35">
    <g clip-path="url(#p31930c5517)">
     <!-- 3 -->
     <g transform="translate(137.18986 218.656825)scale(0.104 -0.104)">
      <use xlink:href="#DejaVuSans-51"/>
     </g>
    </g>
   </g>
   <g id="text_36">
    <g clip-path="url(#p31930c5517)">
     <!-- $c$ -->
     <defs>
      <path d="M 53.609375 52.59375 
L 51.8125 43.703125 
Q 48.578125 46.046875 44.9375 47.21875 
Q 41.3125 48.390625 37.40625 48.390625 
Q 33.109375 48.390625 29.21875 46.875 
Q 25.34375 45.359375 22.703125 42.578125 
Q 18.5 38.328125 16.203125 32.609375 
Q 13.921875 26.90625 13.921875 20.796875 
Q 13.921875 13.421875 17.609375 9.8125 
Q 21.296875 6.203125 28.8125 6.203125 
Q 32.515625 6.203125 36.6875 7.328125 
Q 40.875 8.453125 45.40625 10.6875 
L 43.703125 1.8125 
Q 39.796875 0.203125 35.671875 -0.609375 
Q 31.546875 -1.421875 27.203125 -1.421875 
Q 16.3125 -1.421875 10.453125 4.015625 
Q 4.59375 9.46875 4.59375 19.578125 
Q 4.59375 28.078125 7.640625 35.234375 
Q 10.6875 42.390625 16.703125 48.09375 
Q 20.796875 52 26.3125 54 
Q 31.84375 56 38.375 56 
Q 42.1875 56 45.9375 55.140625 
Q 49.703125 54.296875 53.609375 52.59375 
z
" id="DejaVuSans-Oblique-99"/>
     </defs>
     <g transform="translate(81.01386 230.745581)scale(0.195 -0.195)">
      <use xlink:href="#DejaVuSans-Oblique-99"/>
     </g>
    </g>
   </g>
  </g>
 </g>
 <defs>
  <clipPath id="p31930c5517">
   <rect height="245.4354" width="861.75096" x="7.2" y="7.2"/>
  </clipPath>
 </defs>
</svg>
