<?xml version="1.0" encoding="utf-8" standalone="no"?>
<!DOCTYPE svg PUBLIC "-//W3C//DTD SVG 1.1//EN"
  "http://www.w3.org/Graphics/SVG/1.1/DTD/svg11.dtd">
<!-- Created with matplotlib (https://matplotlib.org/) -->
<svg height="168.9334pt" version="1.1" viewBox="0 0 330.73896 168.9334" width="330.73896pt" xmlns="http://www.w3.org/2000/svg" xmlns:xlink="http://www.w3.org/1999/xlink">
 <defs>
  <style type="text/css">
*{stroke-linecap:butt;stroke-linejoin:round;}
  </style>
 </defs>
 <g id="figure_1">
  <g id="patch_1">
   <path d="M 0 168.9334 
L 330.73896 168.9334 
L 330.73896 0 
L 0 0 
z
" style="fill:#ffffff;"/>
  </g>
  <g id="axes_1">
   <g id="patch_2">
    <path clip-path="url(#p2eeb8c57f4)" d="M 222.18323 124.122697 
L 234.00049 124.122697 
L 228.09186 134.4628 
z
" style="fill:#778899;"/>
   </g>
   <g id="patch_3">
    <path clip-path="url(#p2eeb8c57f4)" d="M 267.63423 124.122697 
L 279.45149 124.122697 
L 273.54286 134.4628 
z
" style="fill:#778899;"/>
   </g>
   <g id="line2d_1">
    <path clip-path="url(#p2eeb8c57f4)" d="M 114.46436 43.5608 
L 318.99386 43.5608 
" style="fill:none;stroke:#000000;stroke-linecap:square;stroke-width:2;"/>
   </g>
   <g id="line2d_2">
    <path clip-path="url(#p2eeb8c57f4)" d="M 114.46436 89.0118 
L 318.99386 89.0118 
" style="fill:none;stroke:#000000;stroke-linecap:square;stroke-width:2;"/>
   </g>
   <g id="line2d_3">
    <path clip-path="url(#p2eeb8c57f4)" d="M 114.46436 132.985642 
L 318.99386 132.985642 
" style="fill:none;stroke:#778899;stroke-linecap:square;stroke-width:2;"/>
   </g>
   <g id="line2d_4">
    <path clip-path="url(#p2eeb8c57f4)" d="M 114.46436 135.939957 
L 318.99386 135.939957 
" style="fill:none;stroke:#778899;stroke-linecap:square;stroke-width:2;"/>
   </g>
   <g id="line2d_5">
    <path clip-path="url(#p2eeb8c57f4)" d="M 182.64086 89.0118 
L 182.64086 43.5608 
" style="fill:none;stroke:#6fa4ff;stroke-linecap:square;stroke-width:2;"/>
   </g>
   <g id="line2d_6">
    <path clip-path="url(#p2eeb8c57f4)" d="M 229.569017 43.5608 
L 229.569017 124.122697 
" style="fill:none;stroke:#778899;stroke-linecap:square;stroke-width:2;"/>
   </g>
   <g id="line2d_7">
    <path clip-path="url(#p2eeb8c57f4)" d="M 226.614702 43.5608 
L 226.614702 124.122697 
" style="fill:none;stroke:#778899;stroke-linecap:square;stroke-width:2;"/>
   </g>
   <g id="line2d_8">
    <path clip-path="url(#p2eeb8c57f4)" d="M 275.020017 89.0118 
L 275.020017 124.122697 
" style="fill:none;stroke:#778899;stroke-linecap:square;stroke-width:2;"/>
   </g>
   <g id="line2d_9">
    <path clip-path="url(#p2eeb8c57f4)" d="M 272.065702 89.0118 
L 272.065702 124.122697 
" style="fill:none;stroke:#778899;stroke-linecap:square;stroke-width:2;"/>
   </g>
   <g id="line2d_10">
    <path clip-path="url(#p2eeb8c57f4)" d="M 141.73496 139.0079 
L 146.28006 129.9177 
" style="fill:none;stroke:#778899;stroke-linecap:square;stroke-width:1.5;"/>
   </g>
   <g id="patch_4">
    <path clip-path="url(#p2eeb8c57f4)" d="M 122.418285 58.332375 
L 151.961435 58.332375 
L 151.961435 28.789225 
L 122.418285 28.789225 
z
" style="fill:#05bab6;"/>
   </g>
   <g id="patch_5">
    <path clip-path="url(#p2eeb8c57f4)" d="M 182.64086 47.992273 
C 183.8161 47.992273 184.943364 47.525345 185.774384 46.694324 
C 186.605405 45.863304 187.072332 44.73604 187.072332 43.5608 
C 187.072332 42.38556 186.605405 41.258296 185.774384 40.427276 
C 184.943364 39.596255 183.8161 39.129328 182.64086 39.129328 
C 181.46562 39.129328 180.338356 39.596255 179.507336 40.427276 
C 178.676315 41.258296 178.209387 42.38556 178.209387 43.5608 
C 178.209387 44.73604 178.676315 45.863304 179.507336 46.694324 
C 180.338356 47.525345 181.46562 47.992273 182.64086 47.992273 
z
" style="fill:#6fa4ff;stroke:#6fa4ff;stroke-linejoin:miter;stroke-width:1.5;"/>
   </g>
   <g id="patch_6">
    <path clip-path="url(#p2eeb8c57f4)" d="M 182.64086 99.351903 
C 185.383087 99.351903 188.013369 98.262404 189.952417 96.323357 
C 191.891464 94.384309 192.980962 91.754027 192.980962 89.0118 
C 192.980962 86.269573 191.891464 83.639291 189.952417 81.700243 
C 188.013369 79.761196 185.383087 78.671698 182.64086 78.671698 
C 179.898633 78.671698 177.268351 79.761196 175.329303 81.700243 
C 173.390256 83.639291 172.300757 86.269573 172.300757 89.0118 
C 172.300757 91.754027 173.390256 94.384309 175.329303 96.323357 
C 177.268351 98.262404 179.898633 99.351903 182.64086 99.351903 
z
" style="fill:#6fa4ff;stroke:#6fa4ff;stroke-linejoin:miter;stroke-width:2;"/>
   </g>
   <g id="patch_7">
    <path clip-path="url(#p2eeb8c57f4)" d="M 213.320285 58.332375 
L 242.863435 58.332375 
L 242.863435 28.789225 
L 213.320285 28.789225 
z
"/>
   </g>
   <g id="patch_8">
    <path clip-path="url(#p2eeb8c57f4)" d="M 238.431962 47.992273 
C 238.431962 45.250959 237.341818 42.619118 235.403417 40.680716 
C 233.465015 38.742314 230.833174 37.65217 228.09186 37.65217 
C 225.350546 37.65217 222.718705 38.742314 220.780303 40.680716 
C 218.841902 42.619118 217.751757 45.250959 217.751757 47.992273 
" style="fill:none;stroke:#ffffff;stroke-linejoin:miter;stroke-width:2;"/>
   </g>
   <g id="patch_9">
    <path clip-path="url(#p2eeb8c57f4)" d="M 258.771285 103.783375 
L 288.314435 103.783375 
L 288.314435 74.240225 
L 258.771285 74.240225 
z
"/>
   </g>
   <g id="patch_10">
    <path clip-path="url(#p2eeb8c57f4)" d="M 283.882962 93.443273 
C 283.882962 90.701959 282.792818 88.070118 280.854417 86.131716 
C 278.916015 84.193314 276.284174 83.10317 273.54286 83.10317 
C 270.801546 83.10317 268.169705 84.193314 266.231303 86.131716 
C 264.292902 88.070118 263.202757 90.701959 263.202757 93.443273 
" style="fill:none;stroke:#ffffff;stroke-linejoin:miter;stroke-width:2;"/>
   </g>
   <g id="line2d_11">
    <path clip-path="url(#p2eeb8c57f4)" d="M 228.09186 47.992273 
L 238.431962 37.65217 
" style="fill:none;stroke:#ffffff;stroke-linecap:square;stroke-width:2;"/>
   </g>
   <g id="line2d_12">
    <path clip-path="url(#p2eeb8c57f4)" d="M 273.54286 93.443273 
L 283.882962 83.10317 
" style="fill:none;stroke:#ffffff;stroke-linecap:square;stroke-width:2;"/>
   </g>
   <g id="line2d_13">
    <path clip-path="url(#p2eeb8c57f4)" d="M 182.64086 94.92043 
L 182.64086 83.10317 
" style="fill:none;stroke:#ffffff;stroke-linecap:square;stroke-width:2;"/>
   </g>
   <g id="line2d_14">
    <path clip-path="url(#p2eeb8c57f4)" d="M 176.73223 89.0118 
L 188.54949 89.0118 
" style="fill:none;stroke:#ffffff;stroke-linecap:square;stroke-width:2;"/>
   </g>
   <g id="text_1">
    <g clip-path="url(#p2eeb8c57f4)">
     <!-- $X$ -->
     <defs>
      <path d="M 13.71875 72.90625 
L 23.6875 72.90625 
L 36.1875 46.578125 
L 58.796875 72.90625 
L 70.3125 72.90625 
L 40.28125 38.09375 
L 58.40625 0 
L 48.484375 0 
L 33.796875 30.71875 
L 7.171875 0 
L -4.296875 0 
L 29.78125 39.203125 
z
" id="DejaVuSans-Oblique-88"/>
     </defs>
     <g transform="translate(132.70486 47.147988)scale(0.13 -0.13)">
      <use transform="translate(0 0.09375)" xlink:href="#DejaVuSans-Oblique-88"/>
     </g>
    </g>
   </g>
   <g id="text_2">
    <g clip-path="url(#p2eeb8c57f4)">
     <!-- 0 -->
     <defs>
      <path d="M 31.78125 66.40625 
Q 24.171875 66.40625 20.328125 58.90625 
Q 16.5 51.421875 16.5 36.375 
Q 16.5 21.390625 20.328125 13.890625 
Q 24.171875 6.390625 31.78125 6.390625 
Q 39.453125 6.390625 43.28125 13.890625 
Q 47.125 21.390625 47.125 36.375 
Q 47.125 51.421875 43.28125 58.90625 
Q 39.453125 66.40625 31.78125 66.40625 
z
M 31.78125 74.21875 
Q 44.046875 74.21875 50.515625 64.515625 
Q 56.984375 54.828125 56.984375 36.375 
Q 56.984375 17.96875 50.515625 8.265625 
Q 44.046875 -1.421875 31.78125 -1.421875 
Q 19.53125 -1.421875 13.0625 8.265625 
Q 6.59375 17.96875 6.59375 36.375 
Q 6.59375 54.828125 13.0625 64.515625 
Q 19.53125 74.21875 31.78125 74.21875 
z
" id="DejaVuSans-48"/>
     </defs>
     <g transform="translate(239.45461 127.754825)scale(0.104 -0.104)">
      <use xlink:href="#DejaVuSans-48"/>
     </g>
    </g>
   </g>
   <g id="text_3">
    <g clip-path="url(#p2eeb8c57f4)">
     <!-- 1 -->
     <defs>
      <path d="M 12.40625 8.296875 
L 28.515625 8.296875 
L 28.515625 63.921875 
L 10.984375 60.40625 
L 10.984375 69.390625 
L 28.421875 72.90625 
L 38.28125 72.90625 
L 38.28125 8.296875 
L 54.390625 8.296875 
L 54.390625 0 
L 12.40625 0 
z
" id="DejaVuSans-49"/>
     </defs>
     <g transform="translate(284.90561 127.754825)scale(0.104 -0.104)">
      <use xlink:href="#DejaVuSans-49"/>
     </g>
    </g>
   </g>
   <g id="text_4">
    <g clip-path="url(#p2eeb8c57f4)">
     <!-- ${q}_{0}$ -->
     <defs>
      <path d="M 41.703125 8.203125 
Q 38.09375 3.46875 33.171875 1.015625 
Q 28.265625 -1.421875 22.3125 -1.421875 
Q 14.015625 -1.421875 9.296875 4.171875 
Q 4.59375 9.765625 4.59375 19.578125 
Q 4.59375 27.484375 7.5 34.859375 
Q 10.40625 42.234375 15.828125 48.09375 
Q 19.34375 51.90625 23.90625 53.953125 
Q 28.46875 56 33.5 56 
Q 39.546875 56 43.453125 53.609375 
Q 47.359375 51.21875 49.125 46.390625 
L 50.6875 54.59375 
L 59.71875 54.59375 
L 45.125 -20.609375 
L 36.078125 -20.609375 
z
M 13.921875 20.90625 
Q 13.921875 13.671875 16.9375 9.890625 
Q 19.96875 6.109375 25.6875 6.109375 
Q 34.1875 6.109375 40.1875 14.234375 
Q 46.1875 22.359375 46.1875 33.984375 
Q 46.1875 41.015625 43.078125 44.75 
Q 39.984375 48.484375 34.1875 48.484375 
Q 29.9375 48.484375 26.3125 46.5 
Q 22.703125 44.53125 20.015625 40.71875 
Q 17.1875 36.71875 15.546875 31.34375 
Q 13.921875 25.984375 13.921875 20.90625 
z
" id="DejaVuSans-Oblique-113"/>
     </defs>
     <g transform="translate(73.70136 48.011777)scale(0.1625 -0.1625)">
      <use xlink:href="#DejaVuSans-Oblique-113"/>
      <use transform="translate(63.476562 -16.40625)scale(0.7)" xlink:href="#DejaVuSans-48"/>
     </g>
    </g>
   </g>
   <g id="text_5">
    <g clip-path="url(#p2eeb8c57f4)">
     <!-- ${q}_{1}$ -->
     <g transform="translate(73.70136 93.462777)scale(0.1625 -0.1625)">
      <use xlink:href="#DejaVuSans-Oblique-113"/>
      <use transform="translate(63.476562 -16.40625)scale(0.7)" xlink:href="#DejaVuSans-49"/>
     </g>
    </g>
   </g>
   <g id="text_6">
    <g clip-path="url(#p2eeb8c57f4)">
     <!-- 2 -->
     <defs>
      <path d="M 19.1875 8.296875 
L 53.609375 8.296875 
L 53.609375 0 
L 7.328125 0 
L 7.328125 8.296875 
Q 12.9375 14.109375 22.625 23.890625 
Q 32.328125 33.6875 34.8125 36.53125 
Q 39.546875 41.84375 41.421875 45.53125 
Q 43.3125 49.21875 43.3125 52.78125 
Q 43.3125 58.59375 39.234375 62.25 
Q 35.15625 65.921875 28.609375 65.921875 
Q 23.96875 65.921875 18.8125 64.3125 
Q 13.671875 62.703125 7.8125 59.421875 
L 7.8125 69.390625 
Q 13.765625 71.78125 18.9375 73 
Q 24.125 74.21875 28.421875 74.21875 
Q 39.75 74.21875 46.484375 68.546875 
Q 53.21875 62.890625 53.21875 53.421875 
Q 53.21875 48.921875 51.53125 44.890625 
Q 49.859375 40.875 45.40625 35.40625 
Q 44.1875 33.984375 37.640625 27.21875 
Q 31.109375 20.453125 19.1875 8.296875 
z
" id="DejaVuSans-50"/>
     </defs>
     <g transform="translate(137.18986 127.754825)scale(0.104 -0.104)">
      <use xlink:href="#DejaVuSans-50"/>
     </g>
    </g>
   </g>
   <g id="text_7">
    <g clip-path="url(#p2eeb8c57f4)">
     <!-- $c$ -->
     <defs>
      <path d="M 53.609375 52.59375 
L 51.8125 43.703125 
Q 48.578125 46.046875 44.9375 47.21875 
Q 41.3125 48.390625 37.40625 48.390625 
Q 33.109375 48.390625 29.21875 46.875 
Q 25.34375 45.359375 22.703125 42.578125 
Q 18.5 38.328125 16.203125 32.609375 
Q 13.921875 26.90625 13.921875 20.796875 
Q 13.921875 13.421875 17.609375 9.8125 
Q 21.296875 6.203125 28.8125 6.203125 
Q 32.515625 6.203125 36.6875 7.328125 
Q 40.875 8.453125 45.40625 10.6875 
L 43.703125 1.8125 
Q 39.796875 0.203125 35.671875 -0.609375 
Q 31.546875 -1.421875 27.203125 -1.421875 
Q 16.3125 -1.421875 10.453125 4.015625 
Q 4.59375 9.46875 4.59375 19.578125 
Q 4.59375 28.078125 7.640625 35.234375 
Q 10.6875 42.390625 16.703125 48.09375 
Q 20.796875 52 26.3125 54 
Q 31.84375 56 38.375 56 
Q 42.1875 56 45.9375 55.140625 
Q 49.703125 54.296875 53.609375 52.59375 
z
" id="DejaVuSans-Oblique-99"/>
     </defs>
     <g transform="translate(81.01386 139.843581)scale(0.195 -0.195)">
      <use xlink:href="#DejaVuSans-Oblique-99"/>
     </g>
    </g>
   </g>
  </g>
 </g>
 <defs>
  <clipPath id="p2eeb8c57f4">
   <rect height="154.5334" width="316.33896" x="7.2" y="7.2"/>
  </clipPath>
 </defs>
</svg>
