<?xml version="1.0" encoding="utf-8" standalone="no"?>
<!DOCTYPE svg PUBLIC "-//W3C//DTD SVG 1.1//EN"
  "http://www.w3.org/Graphics/SVG/1.1/DTD/svg11.dtd">
<!-- Created with matplotlib (https://matplotlib.org/) -->
<svg height="259.8354pt" version="1.1" viewBox="0 0 512.54296 259.8354" width="512.54296pt" xmlns="http://www.w3.org/2000/svg" xmlns:xlink="http://www.w3.org/1999/xlink">
 <defs>
  <style type="text/css">
*{stroke-linecap:butt;stroke-linejoin:round;}
  </style>
 </defs>
 <g id="figure_1">
  <g id="patch_1">
   <path d="M 0 259.8354 
L 512.54296 259.8354 
L 512.54296 0 
L 0 0 
z
" style="fill:#ffffff;"/>
  </g>
  <g id="axes_1">
   <g id="patch_2">
    <path clip-path="url(#p08f13410a8)" d="M 403.98723 215.024697 
L 415.80449 215.024697 
L 409.89586 225.3648 
z
" style="fill:#778899;"/>
   </g>
   <g id="patch_3">
    <path clip-path="url(#p08f13410a8)" d="M 449.43823 215.024697 
L 461.25549 215.024697 
L 455.34686 225.3648 
z
" style="fill:#778899;"/>
   </g>
   <g id="line2d_1">
    <path clip-path="url(#p08f13410a8)" d="M 114.46436 43.5608 
L 500.79786 43.5608 
" style="fill:none;stroke:#000000;stroke-linecap:square;stroke-width:2;"/>
   </g>
   <g id="line2d_2">
    <path clip-path="url(#p08f13410a8)" d="M 114.46436 89.0118 
L 500.79786 89.0118 
" style="fill:none;stroke:#000000;stroke-linecap:square;stroke-width:2;"/>
   </g>
   <g id="line2d_3">
    <path clip-path="url(#p08f13410a8)" d="M 114.46436 134.4628 
L 500.79786 134.4628 
" style="fill:none;stroke:#000000;stroke-linecap:square;stroke-width:2;"/>
   </g>
   <g id="line2d_4">
    <path clip-path="url(#p08f13410a8)" d="M 114.46436 179.9138 
L 500.79786 179.9138 
" style="fill:none;stroke:#000000;stroke-linecap:square;stroke-width:2;"/>
   </g>
   <g id="line2d_5">
    <path clip-path="url(#p08f13410a8)" d="M 114.46436 223.887642 
L 500.79786 223.887642 
" style="fill:none;stroke:#778899;stroke-linecap:square;stroke-width:2;"/>
   </g>
   <g id="line2d_6">
    <path clip-path="url(#p08f13410a8)" d="M 114.46436 226.841957 
L 500.79786 226.841957 
" style="fill:none;stroke:#778899;stroke-linecap:square;stroke-width:2;"/>
   </g>
   <g id="patch_4">
    <path clip-path="url(#p08f13410a8)" d="M 173.777915 202.6393 
L 191.503805 202.6393 
L 191.503805 20.8353 
L 173.777915 20.8353 
z
" style="fill:#bdbdbd;opacity:0.6;"/>
   </g>
   <g id="patch_5">
    <path clip-path="url(#p08f13410a8)" d="M 355.581915 202.6393 
L 373.307805 202.6393 
L 373.307805 20.8353 
L 355.581915 20.8353 
z
" style="fill:#bdbdbd;opacity:0.6;"/>
   </g>
   <g id="line2d_7">
    <path clip-path="url(#p08f13410a8)" d="M 228.09186 134.4628 
L 228.09186 43.5608 
" style="fill:none;stroke:#6fa4ff;stroke-linecap:square;stroke-width:2;"/>
   </g>
   <g id="line2d_8">
    <path clip-path="url(#p08f13410a8)" d="M 273.54286 134.4628 
L 273.54286 89.0118 
" style="fill:none;stroke:#6fa4ff;stroke-linecap:square;stroke-width:2;"/>
   </g>
   <g id="line2d_9">
    <path clip-path="url(#p08f13410a8)" d="M 318.99386 179.9138 
L 318.99386 43.5608 
" style="fill:none;stroke:#bb8bff;stroke-linecap:square;stroke-width:2;"/>
   </g>
   <g id="line2d_10">
    <path clip-path="url(#p08f13410a8)" d="M 411.373018 134.4628 
L 411.373018 215.024697 
" style="fill:none;stroke:#778899;stroke-linecap:square;stroke-width:2;"/>
   </g>
   <g id="line2d_11">
    <path clip-path="url(#p08f13410a8)" d="M 408.418703 134.4628 
L 408.418703 215.024697 
" style="fill:none;stroke:#778899;stroke-linecap:square;stroke-width:2;"/>
   </g>
   <g id="line2d_12">
    <path clip-path="url(#p08f13410a8)" d="M 456.824018 179.9138 
L 456.824018 215.024697 
" style="fill:none;stroke:#778899;stroke-linecap:square;stroke-width:2;"/>
   </g>
   <g id="line2d_13">
    <path clip-path="url(#p08f13410a8)" d="M 453.869703 179.9138 
L 453.869703 215.024697 
" style="fill:none;stroke:#778899;stroke-linecap:square;stroke-width:2;"/>
   </g>
   <g id="line2d_14">
    <path clip-path="url(#p08f13410a8)" d="M 141.73496 229.9099 
L 146.28006 220.8197 
" style="fill:none;stroke:#778899;stroke-linecap:square;stroke-width:1.5;"/>
   </g>
   <g id="patch_6">
    <path clip-path="url(#p08f13410a8)" d="M 122.418285 58.332375 
L 151.961435 58.332375 
L 151.961435 28.789225 
L 122.418285 28.789225 
z
" style="fill:#05bab6;"/>
   </g>
   <g id="patch_7">
    <path clip-path="url(#p08f13410a8)" d="M 122.418285 103.783375 
L 151.961435 103.783375 
L 151.961435 74.240225 
L 122.418285 74.240225 
z
" style="fill:#05bab6;"/>
   </g>
   <g id="patch_8">
    <path clip-path="url(#p08f13410a8)" d="M 228.09186 47.992272 
C 229.2671 47.992272 230.394364 47.525345 231.225384 46.694324 
C 232.056405 45.863304 232.523333 44.73604 232.523333 43.5608 
C 232.523333 42.38556 232.056405 41.258296 231.225384 40.427276 
C 230.394364 39.596255 229.2671 39.129327 228.09186 39.129327 
C 226.91662 39.129327 225.789356 39.596255 224.958336 40.427276 
C 224.127315 41.258296 223.660387 42.38556 223.660387 43.5608 
C 223.660387 44.73604 224.127315 45.863304 224.958336 46.694324 
C 225.789356 47.525345 226.91662 47.992272 228.09186 47.992272 
z
" style="fill:#6fa4ff;stroke:#6fa4ff;stroke-linejoin:miter;stroke-width:1.5;"/>
   </g>
   <g id="patch_9">
    <path clip-path="url(#p08f13410a8)" d="M 228.09186 144.802902 
C 230.834087 144.802902 233.464369 143.713404 235.403417 141.774357 
C 237.342464 139.835309 238.431962 137.205027 238.431962 134.4628 
C 238.431962 131.720573 237.342464 129.090291 235.403417 127.151243 
C 233.464369 125.212196 230.834087 124.122697 228.09186 124.122697 
C 225.349633 124.122697 222.719351 125.212196 220.780303 127.151243 
C 218.841256 129.090291 217.751757 131.720573 217.751757 134.4628 
C 217.751757 137.205027 218.841256 139.835309 220.780303 141.774357 
C 222.719351 143.713404 225.349633 144.802902 228.09186 144.802902 
z
" style="fill:#6fa4ff;stroke:#6fa4ff;stroke-linejoin:miter;stroke-width:2;"/>
   </g>
   <g id="patch_10">
    <path clip-path="url(#p08f13410a8)" d="M 273.54286 93.443272 
C 274.7181 93.443272 275.845364 92.976345 276.676384 92.145324 
C 277.507405 91.314304 277.974333 90.18704 277.974333 89.0118 
C 277.974333 87.83656 277.507405 86.709296 276.676384 85.878276 
C 275.845364 85.047255 274.7181 84.580327 273.54286 84.580327 
C 272.36762 84.580327 271.240356 85.047255 270.409336 85.878276 
C 269.578315 86.709296 269.111388 87.83656 269.111388 89.0118 
C 269.111388 90.18704 269.578315 91.314304 270.409336 92.145324 
C 271.240356 92.976345 272.36762 93.443272 273.54286 93.443272 
z
" style="fill:#6fa4ff;stroke:#6fa4ff;stroke-linejoin:miter;stroke-width:1.5;"/>
   </g>
   <g id="patch_11">
    <path clip-path="url(#p08f13410a8)" d="M 273.54286 144.802902 
C 276.285087 144.802902 278.915369 143.713404 280.854417 141.774357 
C 282.793464 139.835309 283.882963 137.205027 283.882963 134.4628 
C 283.882963 131.720573 282.793464 129.090291 280.854417 127.151243 
C 278.915369 125.212196 276.285087 124.122697 273.54286 124.122697 
C 270.800633 124.122697 268.170351 125.212196 266.231303 127.151243 
C 264.292256 129.090291 263.202758 131.720573 263.202758 134.4628 
C 263.202758 137.205027 264.292256 139.835309 266.231303 141.774357 
C 268.170351 143.713404 270.800633 144.802902 273.54286 144.802902 
z
" style="fill:#6fa4ff;stroke:#6fa4ff;stroke-linejoin:miter;stroke-width:2;"/>
   </g>
   <g id="patch_12">
    <path clip-path="url(#p08f13410a8)" d="M 318.99386 47.992272 
C 320.1691 47.992272 321.296364 47.525345 322.127384 46.694324 
C 322.958405 45.863304 323.425333 44.73604 323.425333 43.5608 
C 323.425333 42.38556 322.958405 41.258296 322.127384 40.427276 
C 321.296364 39.596255 320.1691 39.129327 318.99386 39.129327 
C 317.81862 39.129327 316.691356 39.596255 315.860336 40.427276 
C 315.029315 41.258296 314.562388 42.38556 314.562388 43.5608 
C 314.562388 44.73604 315.029315 45.863304 315.860336 46.694324 
C 316.691356 47.525345 317.81862 47.992272 318.99386 47.992272 
z
" style="fill:#bb8bff;stroke:#bb8bff;stroke-linejoin:miter;stroke-width:1.5;"/>
   </g>
   <g id="patch_13">
    <path clip-path="url(#p08f13410a8)" d="M 318.99386 93.443272 
C 320.1691 93.443272 321.296364 92.976345 322.127384 92.145324 
C 322.958405 91.314304 323.425333 90.18704 323.425333 89.0118 
C 323.425333 87.83656 322.958405 86.709296 322.127384 85.878276 
C 321.296364 85.047255 320.1691 84.580327 318.99386 84.580327 
C 317.81862 84.580327 316.691356 85.047255 315.860336 85.878276 
C 315.029315 86.709296 314.562388 87.83656 314.562388 89.0118 
C 314.562388 90.18704 315.029315 91.314304 315.860336 92.145324 
C 316.691356 92.976345 317.81862 93.443272 318.99386 93.443272 
z
" style="fill:#bb8bff;stroke:#bb8bff;stroke-linejoin:miter;stroke-width:1.5;"/>
   </g>
   <g id="patch_14">
    <path clip-path="url(#p08f13410a8)" d="M 318.99386 190.253902 
C 321.736087 190.253902 324.366369 189.164404 326.305417 187.225357 
C 328.244464 185.286309 329.333963 182.656027 329.333963 179.9138 
C 329.333963 177.171573 328.244464 174.541291 326.305417 172.602243 
C 324.366369 170.663196 321.736087 169.573697 318.99386 169.573697 
C 316.251633 169.573697 313.621351 170.663196 311.682303 172.602243 
C 309.743256 174.541291 308.653758 177.171573 308.653758 179.9138 
C 308.653758 182.656027 309.743256 185.286309 311.682303 187.225357 
C 313.621351 189.164404 316.251633 190.253902 318.99386 190.253902 
z
" style="fill:#bb8bff;stroke:#bb8bff;stroke-linejoin:miter;stroke-width:2;"/>
   </g>
   <g id="patch_15">
    <path clip-path="url(#p08f13410a8)" d="M 395.124285 149.234375 
L 424.667435 149.234375 
L 424.667435 119.691225 
L 395.124285 119.691225 
z
"/>
   </g>
   <g id="patch_16">
    <path clip-path="url(#p08f13410a8)" d="M 420.235963 138.894272 
C 420.235963 136.152959 419.145818 133.521118 417.207417 131.582716 
C 415.269015 129.644314 412.637174 128.55417 409.89586 128.55417 
C 407.154546 128.55417 404.522705 129.644314 402.584303 131.582716 
C 400.645902 133.521118 399.555758 136.152959 399.555758 138.894272 
" style="fill:none;stroke:#ffffff;stroke-linejoin:miter;stroke-width:2;"/>
   </g>
   <g id="patch_17">
    <path clip-path="url(#p08f13410a8)" d="M 440.575285 194.685375 
L 470.118435 194.685375 
L 470.118435 165.142225 
L 440.575285 165.142225 
z
"/>
   </g>
   <g id="patch_18">
    <path clip-path="url(#p08f13410a8)" d="M 465.686963 184.345272 
C 465.686963 181.603959 464.596818 178.972118 462.658417 177.033716 
C 460.720015 175.095314 458.088174 174.00517 455.34686 174.00517 
C 452.605546 174.00517 449.973705 175.095314 448.035303 177.033716 
C 446.096902 178.972118 445.006758 181.603959 445.006758 184.345272 
" style="fill:none;stroke:#ffffff;stroke-linejoin:miter;stroke-width:2;"/>
   </g>
   <g id="line2d_15">
    <path clip-path="url(#p08f13410a8)" d="M 409.89586 138.894272 
L 420.235963 128.55417 
" style="fill:none;stroke:#ffffff;stroke-linecap:square;stroke-width:2;"/>
   </g>
   <g id="line2d_16">
    <path clip-path="url(#p08f13410a8)" d="M 455.34686 184.345272 
L 465.686963 174.00517 
" style="fill:none;stroke:#ffffff;stroke-linecap:square;stroke-width:2;"/>
   </g>
   <g id="line2d_17">
    <path clip-path="url(#p08f13410a8)" d="M 182.64086 20.8353 
L 182.64086 66.2863 
" style="fill:none;stroke:#000000;stroke-dasharray:3.7,1.6;stroke-dashoffset:0;"/>
   </g>
   <g id="line2d_18">
    <path clip-path="url(#p08f13410a8)" d="M 182.64086 66.2863 
L 182.64086 111.7373 
" style="fill:none;stroke:#000000;stroke-dasharray:3.7,1.6;stroke-dashoffset:0;"/>
   </g>
   <g id="line2d_19">
    <path clip-path="url(#p08f13410a8)" d="M 182.64086 111.7373 
L 182.64086 157.1883 
" style="fill:none;stroke:#000000;stroke-dasharray:3.7,1.6;stroke-dashoffset:0;"/>
   </g>
   <g id="line2d_20">
    <path clip-path="url(#p08f13410a8)" d="M 182.64086 157.1883 
L 182.64086 202.6393 
" style="fill:none;stroke:#000000;stroke-dasharray:3.7,1.6;stroke-dashoffset:0;"/>
   </g>
   <g id="line2d_21">
    <path clip-path="url(#p08f13410a8)" d="M 228.09186 140.37143 
L 228.09186 128.55417 
" style="fill:none;stroke:#ffffff;stroke-linecap:square;stroke-width:2;"/>
   </g>
   <g id="line2d_22">
    <path clip-path="url(#p08f13410a8)" d="M 222.18323 134.4628 
L 234.00049 134.4628 
" style="fill:none;stroke:#ffffff;stroke-linecap:square;stroke-width:2;"/>
   </g>
   <g id="line2d_23">
    <path clip-path="url(#p08f13410a8)" d="M 273.54286 140.37143 
L 273.54286 128.55417 
" style="fill:none;stroke:#ffffff;stroke-linecap:square;stroke-width:2;"/>
   </g>
   <g id="line2d_24">
    <path clip-path="url(#p08f13410a8)" d="M 267.63423 134.4628 
L 279.45149 134.4628 
" style="fill:none;stroke:#ffffff;stroke-linecap:square;stroke-width:2;"/>
   </g>
   <g id="line2d_25">
    <path clip-path="url(#p08f13410a8)" d="M 318.99386 185.82243 
L 318.99386 174.00517 
" style="fill:none;stroke:#ffffff;stroke-linecap:square;stroke-width:2;"/>
   </g>
   <g id="line2d_26">
    <path clip-path="url(#p08f13410a8)" d="M 313.08523 179.9138 
L 324.90249 179.9138 
" style="fill:none;stroke:#ffffff;stroke-linecap:square;stroke-width:2;"/>
   </g>
   <g id="line2d_27">
    <path clip-path="url(#p08f13410a8)" d="M 364.44486 20.8353 
L 364.44486 66.2863 
" style="fill:none;stroke:#000000;stroke-dasharray:3.7,1.6;stroke-dashoffset:0;"/>
   </g>
   <g id="line2d_28">
    <path clip-path="url(#p08f13410a8)" d="M 364.44486 66.2863 
L 364.44486 111.7373 
" style="fill:none;stroke:#000000;stroke-dasharray:3.7,1.6;stroke-dashoffset:0;"/>
   </g>
   <g id="line2d_29">
    <path clip-path="url(#p08f13410a8)" d="M 364.44486 111.7373 
L 364.44486 157.1883 
" style="fill:none;stroke:#000000;stroke-dasharray:3.7,1.6;stroke-dashoffset:0;"/>
   </g>
   <g id="line2d_30">
    <path clip-path="url(#p08f13410a8)" d="M 364.44486 157.1883 
L 364.44486 202.6393 
" style="fill:none;stroke:#000000;stroke-dasharray:3.7,1.6;stroke-dashoffset:0;"/>
   </g>
   <g id="text_1">
    <g clip-path="url(#p08f13410a8)">
     <!-- $X$ -->
     <defs>
      <path d="M 13.71875 72.90625 
L 23.6875 72.90625 
L 36.1875 46.578125 
L 58.796875 72.90625 
L 70.3125 72.90625 
L 40.28125 38.09375 
L 58.40625 0 
L 48.484375 0 
L 33.796875 30.71875 
L 7.171875 0 
L -4.296875 0 
L 29.78125 39.203125 
z
" id="DejaVuSans-Oblique-88"/>
     </defs>
     <g transform="translate(132.70486 47.147987)scale(0.13 -0.13)">
      <use transform="translate(0 0.09375)" xlink:href="#DejaVuSans-Oblique-88"/>
     </g>
    </g>
   </g>
   <g id="text_2">
    <g clip-path="url(#p08f13410a8)">
     <!-- $X$ -->
     <g transform="translate(132.70486 92.598987)scale(0.13 -0.13)">
      <use transform="translate(0 0.09375)" xlink:href="#DejaVuSans-Oblique-88"/>
     </g>
    </g>
   </g>
   <g id="text_3">
    <g clip-path="url(#p08f13410a8)">
     <!-- 0 -->
     <defs>
      <path d="M 31.78125 66.40625 
Q 24.171875 66.40625 20.328125 58.90625 
Q 16.5 51.421875 16.5 36.375 
Q 16.5 21.390625 20.328125 13.890625 
Q 24.171875 6.390625 31.78125 6.390625 
Q 39.453125 6.390625 43.28125 13.890625 
Q 47.125 21.390625 47.125 36.375 
Q 47.125 51.421875 43.28125 58.90625 
Q 39.453125 66.40625 31.78125 66.40625 
z
M 31.78125 74.21875 
Q 44.046875 74.21875 50.515625 64.515625 
Q 56.984375 54.828125 56.984375 36.375 
Q 56.984375 17.96875 50.515625 8.265625 
Q 44.046875 -1.421875 31.78125 -1.421875 
Q 19.53125 -1.421875 13.0625 8.265625 
Q 6.59375 17.96875 6.59375 36.375 
Q 6.59375 54.828125 13.0625 64.515625 
Q 19.53125 74.21875 31.78125 74.21875 
z
" id="DejaVuSans-48"/>
     </defs>
     <g transform="translate(421.25861 218.656825)scale(0.104 -0.104)">
      <use xlink:href="#DejaVuSans-48"/>
     </g>
    </g>
   </g>
   <g id="text_4">
    <g clip-path="url(#p08f13410a8)">
     <!-- 1 -->
     <defs>
      <path d="M 12.40625 8.296875 
L 28.515625 8.296875 
L 28.515625 63.921875 
L 10.984375 60.40625 
L 10.984375 69.390625 
L 28.421875 72.90625 
L 38.28125 72.90625 
L 38.28125 8.296875 
L 54.390625 8.296875 
L 54.390625 0 
L 12.40625 0 
z
" id="DejaVuSans-49"/>
     </defs>
     <g transform="translate(466.70961 218.656825)scale(0.104 -0.104)">
      <use xlink:href="#DejaVuSans-49"/>
     </g>
    </g>
   </g>
   <g id="text_5">
    <g clip-path="url(#p08f13410a8)">
     <!-- ${q}_{0}$ -->
     <defs>
      <path d="M 41.703125 8.203125 
Q 38.09375 3.46875 33.171875 1.015625 
Q 28.265625 -1.421875 22.3125 -1.421875 
Q 14.015625 -1.421875 9.296875 4.171875 
Q 4.59375 9.765625 4.59375 19.578125 
Q 4.59375 27.484375 7.5 34.859375 
Q 10.40625 42.234375 15.828125 48.09375 
Q 19.34375 51.90625 23.90625 53.953125 
Q 28.46875 56 33.5 56 
Q 39.546875 56 43.453125 53.609375 
Q 47.359375 51.21875 49.125 46.390625 
L 50.6875 54.59375 
L 59.71875 54.59375 
L 45.125 -20.609375 
L 36.078125 -20.609375 
z
M 13.921875 20.90625 
Q 13.921875 13.671875 16.9375 9.890625 
Q 19.96875 6.109375 25.6875 6.109375 
Q 34.1875 6.109375 40.1875 14.234375 
Q 46.1875 22.359375 46.1875 33.984375 
Q 46.1875 41.015625 43.078125 44.75 
Q 39.984375 48.484375 34.1875 48.484375 
Q 29.9375 48.484375 26.3125 46.5 
Q 22.703125 44.53125 20.015625 40.71875 
Q 17.1875 36.71875 15.546875 31.34375 
Q 13.921875 25.984375 13.921875 20.90625 
z
" id="DejaVuSans-Oblique-113"/>
     </defs>
     <g transform="translate(73.70136 48.011777)scale(0.1625 -0.1625)">
      <use xlink:href="#DejaVuSans-Oblique-113"/>
      <use transform="translate(63.476562 -16.40625)scale(0.7)" xlink:href="#DejaVuSans-48"/>
     </g>
    </g>
   </g>
   <g id="text_6">
    <g clip-path="url(#p08f13410a8)">
     <!-- ${q}_{1}$ -->
     <g transform="translate(73.70136 93.462777)scale(0.1625 -0.1625)">
      <use xlink:href="#DejaVuSans-Oblique-113"/>
      <use transform="translate(63.476562 -16.40625)scale(0.7)" xlink:href="#DejaVuSans-49"/>
     </g>
    </g>
   </g>
   <g id="text_7">
    <g clip-path="url(#p08f13410a8)">
     <!-- ${q}_{2}$ -->
     <defs>
      <path d="M 19.1875 8.296875 
L 53.609375 8.296875 
L 53.609375 0 
L 7.328125 0 
L 7.328125 8.296875 
Q 12.9375 14.109375 22.625 23.890625 
Q 32.328125 33.6875 34.8125 36.53125 
Q 39.546875 41.84375 41.421875 45.53125 
Q 43.3125 49.21875 43.3125 52.78125 
Q 43.3125 58.59375 39.234375 62.25 
Q 35.15625 65.921875 28.609375 65.921875 
Q 23.96875 65.921875 18.8125 64.3125 
Q 13.671875 62.703125 7.8125 59.421875 
L 7.8125 69.390625 
Q 13.765625 71.78125 18.9375 73 
Q 24.125 74.21875 28.421875 74.21875 
Q 39.75 74.21875 46.484375 68.546875 
Q 53.21875 62.890625 53.21875 53.421875 
Q 53.21875 48.921875 51.53125 44.890625 
Q 49.859375 40.875 45.40625 35.40625 
Q 44.1875 33.984375 37.640625 27.21875 
Q 31.109375 20.453125 19.1875 8.296875 
z
" id="DejaVuSans-50"/>
     </defs>
     <g transform="translate(73.70136 138.913777)scale(0.1625 -0.1625)">
      <use xlink:href="#DejaVuSans-Oblique-113"/>
      <use transform="translate(63.476562 -16.40625)scale(0.7)" xlink:href="#DejaVuSans-50"/>
     </g>
    </g>
   </g>
   <g id="text_8">
    <g clip-path="url(#p08f13410a8)">
     <!-- ${q}_{3}$ -->
     <defs>
      <path d="M 40.578125 39.3125 
Q 47.65625 37.796875 51.625 33 
Q 55.609375 28.21875 55.609375 21.1875 
Q 55.609375 10.40625 48.1875 4.484375 
Q 40.765625 -1.421875 27.09375 -1.421875 
Q 22.515625 -1.421875 17.65625 -0.515625 
Q 12.796875 0.390625 7.625 2.203125 
L 7.625 11.71875 
Q 11.71875 9.328125 16.59375 8.109375 
Q 21.484375 6.890625 26.8125 6.890625 
Q 36.078125 6.890625 40.9375 10.546875 
Q 45.796875 14.203125 45.796875 21.1875 
Q 45.796875 27.640625 41.28125 31.265625 
Q 36.765625 34.90625 28.71875 34.90625 
L 20.21875 34.90625 
L 20.21875 43.015625 
L 29.109375 43.015625 
Q 36.375 43.015625 40.234375 45.921875 
Q 44.09375 48.828125 44.09375 54.296875 
Q 44.09375 59.90625 40.109375 62.90625 
Q 36.140625 65.921875 28.71875 65.921875 
Q 24.65625 65.921875 20.015625 65.03125 
Q 15.375 64.15625 9.8125 62.3125 
L 9.8125 71.09375 
Q 15.4375 72.65625 20.34375 73.4375 
Q 25.25 74.21875 29.59375 74.21875 
Q 40.828125 74.21875 47.359375 69.109375 
Q 53.90625 64.015625 53.90625 55.328125 
Q 53.90625 49.265625 50.4375 45.09375 
Q 46.96875 40.921875 40.578125 39.3125 
z
" id="DejaVuSans-51"/>
     </defs>
     <g transform="translate(73.70136 184.364777)scale(0.1625 -0.1625)">
      <use xlink:href="#DejaVuSans-Oblique-113"/>
      <use transform="translate(63.476562 -16.40625)scale(0.7)" xlink:href="#DejaVuSans-51"/>
     </g>
    </g>
   </g>
   <g id="text_9">
    <g clip-path="url(#p08f13410a8)">
     <!-- 2 -->
     <g transform="translate(137.18986 218.656825)scale(0.104 -0.104)">
      <use xlink:href="#DejaVuSans-50"/>
     </g>
    </g>
   </g>
   <g id="text_10">
    <g clip-path="url(#p08f13410a8)">
     <!-- $c$ -->
     <defs>
      <path d="M 53.609375 52.59375 
L 51.8125 43.703125 
Q 48.578125 46.046875 44.9375 47.21875 
Q 41.3125 48.390625 37.40625 48.390625 
Q 33.109375 48.390625 29.21875 46.875 
Q 25.34375 45.359375 22.703125 42.578125 
Q 18.5 38.328125 16.203125 32.609375 
Q 13.921875 26.90625 13.921875 20.796875 
Q 13.921875 13.421875 17.609375 9.8125 
Q 21.296875 6.203125 28.8125 6.203125 
Q 32.515625 6.203125 36.6875 7.328125 
Q 40.875 8.453125 45.40625 10.6875 
L 43.703125 1.8125 
Q 39.796875 0.203125 35.671875 -0.609375 
Q 31.546875 -1.421875 27.203125 -1.421875 
Q 16.3125 -1.421875 10.453125 4.015625 
Q 4.59375 9.46875 4.59375 19.578125 
Q 4.59375 28.078125 7.640625 35.234375 
Q 10.6875 42.390625 16.703125 48.09375 
Q 20.796875 52 26.3125 54 
Q 31.84375 56 38.375 56 
Q 42.1875 56 45.9375 55.140625 
Q 49.703125 54.296875 53.609375 52.59375 
z
" id="DejaVuSans-Oblique-99"/>
     </defs>
     <g transform="translate(81.01386 230.745581)scale(0.195 -0.195)">
      <use xlink:href="#DejaVuSans-Oblique-99"/>
     </g>
    </g>
   </g>
  </g>
 </g>
 <defs>
  <clipPath id="p08f13410a8">
   <rect height="245.4354" width="498.14296" x="7.2" y="7.2"/>
  </clipPath>
 </defs>
</svg>
