<?xml version="1.0" encoding="utf-8" standalone="no"?>
<!DOCTYPE svg PUBLIC "-//W3C//DTD SVG 1.1//EN"
  "http://www.w3.org/Graphics/SVG/1.1/DTD/svg11.dtd">
<!-- Created with matplotlib (https://matplotlib.org/) -->
<svg height="214.3844pt" version="1.1" viewBox="0 0 557.99396 214.3844" width="557.99396pt" xmlns="http://www.w3.org/2000/svg" xmlns:xlink="http://www.w3.org/1999/xlink">
 <defs>
  <style type="text/css">
*{stroke-linecap:butt;stroke-linejoin:round;}
  </style>
 </defs>
 <g id="figure_1">
  <g id="patch_1">
   <path d="M 0 214.3844 
L 557.99396 214.3844 
L 557.99396 0 
L 0 0 
z
" style="fill:#ffffff;"/>
  </g>
  <g id="axes_1">
   <g id="line2d_1">
    <path clip-path="url(#p4285f2795e)" d="M 114.46436 43.5608 
L 546.24886 43.5608 
" style="fill:none;stroke:#000000;stroke-linecap:square;stroke-width:2;"/>
   </g>
   <g id="line2d_2">
    <path clip-path="url(#p4285f2795e)" d="M 114.46436 89.0118 
L 546.24886 89.0118 
" style="fill:none;stroke:#000000;stroke-linecap:square;stroke-width:2;"/>
   </g>
   <g id="line2d_3">
    <path clip-path="url(#p4285f2795e)" d="M 114.46436 134.4628 
L 546.24886 134.4628 
" style="fill:none;stroke:#000000;stroke-linecap:square;stroke-width:2;"/>
   </g>
   <g id="line2d_4">
    <path clip-path="url(#p4285f2795e)" d="M 114.46436 179.9138 
L 546.24886 179.9138 
" style="fill:none;stroke:#000000;stroke-linecap:square;stroke-width:2;"/>
   </g>
   <g id="line2d_5">
    <path clip-path="url(#p4285f2795e)" d="M 182.64086 134.4628 
L 182.64086 89.0118 
" style="fill:none;stroke:#bb8bff;stroke-linecap:square;stroke-width:2;"/>
   </g>
   <g id="line2d_6">
    <path clip-path="url(#p4285f2795e)" d="M 228.09186 179.9138 
L 228.09186 89.0118 
" style="fill:none;stroke:#bb8bff;stroke-linecap:square;stroke-width:2;"/>
   </g>
   <g id="line2d_7">
    <path clip-path="url(#p4285f2795e)" d="M 318.99386 179.9138 
L 318.99386 134.4628 
" style="fill:none;stroke:#bb8bff;stroke-linecap:square;stroke-width:2;"/>
   </g>
   <g id="line2d_8">
    <path clip-path="url(#p4285f2795e)" d="M 364.44486 179.9138 
L 364.44486 89.0118 
" style="fill:none;stroke:#bb8bff;stroke-linecap:square;stroke-width:2;"/>
   </g>
   <g id="line2d_9">
    <path clip-path="url(#p4285f2795e)" d="M 455.34686 179.9138 
L 455.34686 43.5608 
" style="fill:none;stroke:#bb8bff;stroke-linecap:square;stroke-width:2;"/>
   </g>
   <g id="patch_2">
    <path clip-path="url(#p4285f2795e)" d="M 122.418285 58.332375 
L 151.961435 58.332375 
L 151.961435 28.789225 
L 122.418285 28.789225 
z
" style="fill:#6fa4ff;"/>
   </g>
   <g id="patch_3">
    <path clip-path="url(#p4285f2795e)" d="M 122.418285 103.783375 
L 151.961435 103.783375 
L 151.961435 74.240225 
L 122.418285 74.240225 
z
" style="fill:#bb8bff;"/>
   </g>
   <g id="patch_4">
    <path clip-path="url(#p4285f2795e)" d="M 122.418285 149.234375 
L 151.961435 149.234375 
L 151.961435 119.691225 
L 122.418285 119.691225 
z
" style="fill:#bb8bff;"/>
   </g>
   <g id="patch_5">
    <path clip-path="url(#p4285f2795e)" d="M 122.418285 194.685375 
L 151.961435 194.685375 
L 151.961435 165.142225 
L 122.418285 165.142225 
z
" style="fill:#bb8bff;"/>
   </g>
   <g id="patch_6">
    <path clip-path="url(#p4285f2795e)" d="M 182.64086 93.443273 
C 183.8161 93.443273 184.943364 92.976345 185.774384 92.145324 
C 186.605405 91.314304 187.072332 90.18704 187.072332 89.0118 
C 187.072332 87.83656 186.605405 86.709296 185.774384 85.878276 
C 184.943364 85.047255 183.8161 84.580328 182.64086 84.580328 
C 181.46562 84.580328 180.338356 85.047255 179.507336 85.878276 
C 178.676315 86.709296 178.209387 87.83656 178.209387 89.0118 
C 178.209387 90.18704 178.676315 91.314304 179.507336 92.145324 
C 180.338356 92.976345 181.46562 93.443273 182.64086 93.443273 
z
" style="fill:#bb8bff;stroke:#bb8bff;stroke-linejoin:miter;stroke-width:1.5;"/>
   </g>
   <g id="patch_7">
    <path clip-path="url(#p4285f2795e)" d="M 167.869285 149.234375 
L 197.412435 149.234375 
L 197.412435 119.691225 
L 167.869285 119.691225 
z
" style="fill:#bb8bff;"/>
   </g>
   <g id="patch_8">
    <path clip-path="url(#p4285f2795e)" d="M 228.09186 184.345272 
C 229.2671 184.345272 230.394364 183.878345 231.225384 183.047324 
C 232.056405 182.216304 232.523332 181.08904 232.523332 179.9138 
C 232.523332 178.73856 232.056405 177.611296 231.225384 176.780276 
C 230.394364 175.949255 229.2671 175.482327 228.09186 175.482327 
C 226.91662 175.482327 225.789356 175.949255 224.958336 176.780276 
C 224.127315 177.611296 223.660387 178.73856 223.660387 179.9138 
C 223.660387 181.08904 224.127315 182.216304 224.958336 183.047324 
C 225.789356 183.878345 226.91662 184.345272 228.09186 184.345272 
z
" style="fill:#bb8bff;stroke:#bb8bff;stroke-linejoin:miter;stroke-width:1.5;"/>
   </g>
   <g id="patch_9">
    <path clip-path="url(#p4285f2795e)" d="M 213.320285 103.783375 
L 242.863435 103.783375 
L 242.863435 74.240225 
L 213.320285 74.240225 
z
" style="fill:#bb8bff;"/>
   </g>
   <g id="patch_10">
    <path clip-path="url(#p4285f2795e)" d="M 258.771285 149.234375 
L 288.314435 149.234375 
L 288.314435 119.691225 
L 258.771285 119.691225 
z
" style="fill:#bb8bff;"/>
   </g>
   <g id="patch_11">
    <path clip-path="url(#p4285f2795e)" d="M 258.771285 103.783375 
L 288.314435 103.783375 
L 288.314435 74.240225 
L 258.771285 74.240225 
z
" style="fill:#bb8bff;"/>
   </g>
   <g id="patch_12">
    <path clip-path="url(#p4285f2795e)" d="M 258.771285 194.685375 
L 288.314435 194.685375 
L 288.314435 165.142225 
L 258.771285 165.142225 
z
" style="fill:#bb8bff;"/>
   </g>
   <g id="patch_13">
    <path clip-path="url(#p4285f2795e)" d="M 318.99386 138.894273 
C 320.1691 138.894273 321.296364 138.427345 322.127384 137.596324 
C 322.958405 136.765304 323.425332 135.63804 323.425332 134.4628 
C 323.425332 133.28756 322.958405 132.160296 322.127384 131.329276 
C 321.296364 130.498255 320.1691 130.031328 318.99386 130.031328 
C 317.81862 130.031328 316.691356 130.498255 315.860336 131.329276 
C 315.029315 132.160296 314.562387 133.28756 314.562387 134.4628 
C 314.562387 135.63804 315.029315 136.765304 315.860336 137.596324 
C 316.691356 138.427345 317.81862 138.894273 318.99386 138.894273 
z
" style="fill:#bb8bff;stroke:#bb8bff;stroke-linejoin:miter;stroke-width:1.5;"/>
   </g>
   <g id="patch_14">
    <path clip-path="url(#p4285f2795e)" d="M 304.222285 194.685375 
L 333.765435 194.685375 
L 333.765435 165.142225 
L 304.222285 165.142225 
z
" style="fill:#bb8bff;"/>
   </g>
   <g id="patch_15">
    <path clip-path="url(#p4285f2795e)" d="M 364.44486 184.345272 
C 365.6201 184.345272 366.747364 183.878345 367.578384 183.047324 
C 368.409405 182.216304 368.876332 181.08904 368.876332 179.9138 
C 368.876332 178.73856 368.409405 177.611296 367.578384 176.780276 
C 366.747364 175.949255 365.6201 175.482327 364.44486 175.482327 
C 363.26962 175.482327 362.142356 175.949255 361.311336 176.780276 
C 360.480315 177.611296 360.013387 178.73856 360.013387 179.9138 
C 360.013387 181.08904 360.480315 182.216304 361.311336 183.047324 
C 362.142356 183.878345 363.26962 184.345272 364.44486 184.345272 
z
" style="fill:#bb8bff;stroke:#bb8bff;stroke-linejoin:miter;stroke-width:1.5;"/>
   </g>
   <g id="patch_16">
    <path clip-path="url(#p4285f2795e)" d="M 349.673285 103.783375 
L 379.216435 103.783375 
L 379.216435 74.240225 
L 349.673285 74.240225 
z
" style="fill:#bb8bff;"/>
   </g>
   <g id="patch_17">
    <path clip-path="url(#p4285f2795e)" d="M 395.124285 149.234375 
L 424.667435 149.234375 
L 424.667435 119.691225 
L 395.124285 119.691225 
z
" style="fill:#bb8bff;"/>
   </g>
   <g id="patch_18">
    <path clip-path="url(#p4285f2795e)" d="M 395.124285 103.783375 
L 424.667435 103.783375 
L 424.667435 74.240225 
L 395.124285 74.240225 
z
" style="fill:#bb8bff;"/>
   </g>
   <g id="patch_19">
    <path clip-path="url(#p4285f2795e)" d="M 395.124285 194.685375 
L 424.667435 194.685375 
L 424.667435 165.142225 
L 395.124285 165.142225 
z
" style="fill:#bb8bff;"/>
   </g>
   <g id="patch_20">
    <path clip-path="url(#p4285f2795e)" d="M 455.34686 47.992273 
C 456.5221 47.992273 457.649364 47.525345 458.480384 46.694324 
C 459.311405 45.863304 459.778332 44.73604 459.778332 43.5608 
C 459.778332 42.38556 459.311405 41.258296 458.480384 40.427276 
C 457.649364 39.596255 456.5221 39.129328 455.34686 39.129328 
C 454.17162 39.129328 453.044356 39.596255 452.213336 40.427276 
C 451.382315 41.258296 450.915387 42.38556 450.915387 43.5608 
C 450.915387 44.73604 451.382315 45.863304 452.213336 46.694324 
C 453.044356 47.525345 454.17162 47.992273 455.34686 47.992273 
z
" style="fill:#bb8bff;stroke:#bb8bff;stroke-linejoin:miter;stroke-width:1.5;"/>
   </g>
   <g id="patch_21">
    <path clip-path="url(#p4285f2795e)" d="M 440.575285 194.685375 
L 470.118435 194.685375 
L 470.118435 165.142225 
L 440.575285 165.142225 
z
" style="fill:#bb8bff;"/>
   </g>
   <g id="patch_22">
    <path clip-path="url(#p4285f2795e)" d="M 486.026285 58.332375 
L 515.569435 58.332375 
L 515.569435 28.789225 
L 486.026285 28.789225 
z
" style="fill:#6fa4ff;"/>
   </g>
   <g id="text_1">
    <g clip-path="url(#p4285f2795e)">
     <!-- $H$ -->
     <defs>
      <path d="M 16.890625 72.90625 
L 26.8125 72.90625 
L 21 43.015625 
L 56.78125 43.015625 
L 62.59375 72.90625 
L 72.515625 72.90625 
L 58.296875 0 
L 48.390625 0 
L 55.171875 34.71875 
L 19.390625 34.71875 
L 12.59375 0 
L 2.6875 0 
z
" id="DejaVuSans-Oblique-72"/>
     </defs>
     <g transform="translate(132.24986 47.147988)scale(0.13 -0.13)">
      <use transform="translate(0 0.09375)" xlink:href="#DejaVuSans-Oblique-72"/>
     </g>
    </g>
   </g>
   <g id="text_2">
    <g clip-path="url(#p4285f2795e)">
     <!-- $R_y$ -->
     <defs>
      <path d="M 25.203125 64.796875 
L 20.21875 38.921875 
L 32.90625 38.921875 
Q 40.375 38.921875 44.984375 43.046875 
Q 49.609375 47.171875 49.609375 53.8125 
Q 49.609375 59.125 46.5 61.953125 
Q 43.40625 64.796875 37.59375 64.796875 
z
M 43.3125 35.015625 
Q 46.4375 34.28125 48.515625 31.390625 
Q 50.59375 28.515625 53.328125 19.921875 
L 59.515625 0 
L 49.125 0 
L 43.40625 18.703125 
Q 41.21875 25.921875 38.328125 28.359375 
Q 35.453125 30.8125 29.5 30.8125 
L 18.609375 30.8125 
L 12.59375 0 
L 2.6875 0 
L 16.890625 72.90625 
L 39.109375 72.90625 
Q 49.21875 72.90625 54.609375 68.328125 
Q 60.015625 63.765625 60.015625 55.171875 
Q 60.015625 47.5625 55.421875 41.984375 
Q 50.828125 36.421875 43.3125 35.015625 
z
" id="DejaVuSans-Oblique-82"/>
      <path d="M 24.8125 -5.078125 
Q 18.5625 -15.578125 14.625 -18.1875 
Q 10.6875 -20.796875 4.59375 -20.796875 
L -2.484375 -20.796875 
L -0.984375 -13.28125 
L 4.203125 -13.28125 
Q 7.953125 -13.28125 10.59375 -11.234375 
Q 13.234375 -9.1875 16.5 -3.21875 
L 19.28125 2 
L 7.171875 54.6875 
L 16.703125 54.6875 
L 25.78125 12.796875 
L 50.875 54.6875 
L 60.296875 54.6875 
z
" id="DejaVuSans-Oblique-121"/>
     </defs>
     <g transform="translate(129.77986 87.310328)scale(0.13 -0.13)">
      <use transform="translate(0 0.09375)" xlink:href="#DejaVuSans-Oblique-82"/>
      <use transform="translate(69.482422 -16.3125)scale(0.7)" xlink:href="#DejaVuSans-Oblique-121"/>
     </g>
    </g>
   </g>
   <g id="text_3">
    <g clip-path="url(#p4285f2795e)">
     <!-- 1 -->
     <defs>
      <path d="M 12.40625 8.296875 
L 28.515625 8.296875 
L 28.515625 63.921875 
L 10.984375 60.40625 
L 10.984375 69.390625 
L 28.421875 72.90625 
L 38.28125 72.90625 
L 38.28125 8.296875 
L 54.390625 8.296875 
L 54.390625 0 
L 12.40625 0 
z
" id="DejaVuSans-49"/>
     </defs>
     <g transform="translate(134.64486 100.082245)scale(0.08 -0.08)">
      <use xlink:href="#DejaVuSans-49"/>
     </g>
    </g>
   </g>
   <g id="text_4">
    <g clip-path="url(#p4285f2795e)">
     <!-- $R_y$ -->
     <g transform="translate(129.77986 132.761327)scale(0.13 -0.13)">
      <use transform="translate(0 0.09375)" xlink:href="#DejaVuSans-Oblique-82"/>
      <use transform="translate(69.482422 -16.3125)scale(0.7)" xlink:href="#DejaVuSans-Oblique-121"/>
     </g>
    </g>
   </g>
   <g id="text_5">
    <g clip-path="url(#p4285f2795e)">
     <!-- 1 -->
     <g transform="translate(134.64486 145.533245)scale(0.08 -0.08)">
      <use xlink:href="#DejaVuSans-49"/>
     </g>
    </g>
   </g>
   <g id="text_6">
    <g clip-path="url(#p4285f2795e)">
     <!-- $R_y$ -->
     <g transform="translate(129.77986 178.212327)scale(0.13 -0.13)">
      <use transform="translate(0 0.09375)" xlink:href="#DejaVuSans-Oblique-82"/>
      <use transform="translate(69.482422 -16.3125)scale(0.7)" xlink:href="#DejaVuSans-Oblique-121"/>
     </g>
    </g>
   </g>
   <g id="text_7">
    <g clip-path="url(#p4285f2795e)">
     <!-- 1 -->
     <g transform="translate(134.64486 190.984245)scale(0.08 -0.08)">
      <use xlink:href="#DejaVuSans-49"/>
     </g>
    </g>
   </g>
   <g id="text_8">
    <g clip-path="url(#p4285f2795e)">
     <!-- $Z$ -->
     <defs>
      <path d="M 13.09375 72.90625 
L 70.3125 72.90625 
L 68.890625 65.375 
L 12.40625 8.296875 
L 58.890625 8.296875 
L 57.328125 0 
L -2.203125 0 
L -0.78125 7.515625 
L 55.71875 64.59375 
L 11.53125 64.59375 
z
" id="DejaVuSans-Oblique-90"/>
     </defs>
     <g transform="translate(178.15586 138.049987)scale(0.13 -0.13)">
      <use transform="translate(0 0.09375)" xlink:href="#DejaVuSans-Oblique-90"/>
     </g>
    </g>
   </g>
   <g id="text_9">
    <g clip-path="url(#p4285f2795e)">
     <!-- $Z$ -->
     <g transform="translate(223.60686 92.598988)scale(0.13 -0.13)">
      <use transform="translate(0 0.09375)" xlink:href="#DejaVuSans-Oblique-90"/>
     </g>
    </g>
   </g>
   <g id="text_10">
    <g clip-path="url(#p4285f2795e)">
     <!-- $R_y$ -->
     <g transform="translate(266.13286 132.761327)scale(0.13 -0.13)">
      <use transform="translate(0 0.09375)" xlink:href="#DejaVuSans-Oblique-82"/>
      <use transform="translate(69.482422 -16.3125)scale(0.7)" xlink:href="#DejaVuSans-Oblique-121"/>
     </g>
    </g>
   </g>
   <g id="text_11">
    <g clip-path="url(#p4285f2795e)">
     <!-- 1 -->
     <g transform="translate(270.99786 145.533245)scale(0.08 -0.08)">
      <use xlink:href="#DejaVuSans-49"/>
     </g>
    </g>
   </g>
   <g id="text_12">
    <g clip-path="url(#p4285f2795e)">
     <!-- $R_y$ -->
     <g transform="translate(266.13286 87.310328)scale(0.13 -0.13)">
      <use transform="translate(0 0.09375)" xlink:href="#DejaVuSans-Oblique-82"/>
      <use transform="translate(69.482422 -16.3125)scale(0.7)" xlink:href="#DejaVuSans-Oblique-121"/>
     </g>
    </g>
   </g>
   <g id="text_13">
    <g clip-path="url(#p4285f2795e)">
     <!-- 1 -->
     <g transform="translate(270.99786 100.082245)scale(0.08 -0.08)">
      <use xlink:href="#DejaVuSans-49"/>
     </g>
    </g>
   </g>
   <g id="text_14">
    <g clip-path="url(#p4285f2795e)">
     <!-- $R_y$ -->
     <g transform="translate(266.13286 178.212327)scale(0.13 -0.13)">
      <use transform="translate(0 0.09375)" xlink:href="#DejaVuSans-Oblique-82"/>
      <use transform="translate(69.482422 -16.3125)scale(0.7)" xlink:href="#DejaVuSans-Oblique-121"/>
     </g>
    </g>
   </g>
   <g id="text_15">
    <g clip-path="url(#p4285f2795e)">
     <!-- 1 -->
     <g transform="translate(270.99786 190.984245)scale(0.08 -0.08)">
      <use xlink:href="#DejaVuSans-49"/>
     </g>
    </g>
   </g>
   <g id="text_16">
    <g clip-path="url(#p4285f2795e)">
     <!-- $Z$ -->
     <g transform="translate(314.50886 183.500987)scale(0.13 -0.13)">
      <use transform="translate(0 0.09375)" xlink:href="#DejaVuSans-Oblique-90"/>
     </g>
    </g>
   </g>
   <g id="text_17">
    <g clip-path="url(#p4285f2795e)">
     <!-- $Z$ -->
     <g transform="translate(359.95986 92.598988)scale(0.13 -0.13)">
      <use transform="translate(0 0.09375)" xlink:href="#DejaVuSans-Oblique-90"/>
     </g>
    </g>
   </g>
   <g id="text_18">
    <g clip-path="url(#p4285f2795e)">
     <!-- $R_y$ -->
     <g transform="translate(402.48586 132.761327)scale(0.13 -0.13)">
      <use transform="translate(0 0.09375)" xlink:href="#DejaVuSans-Oblique-82"/>
      <use transform="translate(69.482422 -16.3125)scale(0.7)" xlink:href="#DejaVuSans-Oblique-121"/>
     </g>
    </g>
   </g>
   <g id="text_19">
    <g clip-path="url(#p4285f2795e)">
     <!-- 1 -->
     <g transform="translate(407.35086 145.533245)scale(0.08 -0.08)">
      <use xlink:href="#DejaVuSans-49"/>
     </g>
    </g>
   </g>
   <g id="text_20">
    <g clip-path="url(#p4285f2795e)">
     <!-- $R_y$ -->
     <g transform="translate(402.48586 87.310328)scale(0.13 -0.13)">
      <use transform="translate(0 0.09375)" xlink:href="#DejaVuSans-Oblique-82"/>
      <use transform="translate(69.482422 -16.3125)scale(0.7)" xlink:href="#DejaVuSans-Oblique-121"/>
     </g>
    </g>
   </g>
   <g id="text_21">
    <g clip-path="url(#p4285f2795e)">
     <!-- 1 -->
     <g transform="translate(407.35086 100.082245)scale(0.08 -0.08)">
      <use xlink:href="#DejaVuSans-49"/>
     </g>
    </g>
   </g>
   <g id="text_22">
    <g clip-path="url(#p4285f2795e)">
     <!-- $R_y$ -->
     <g transform="translate(402.48586 178.212327)scale(0.13 -0.13)">
      <use transform="translate(0 0.09375)" xlink:href="#DejaVuSans-Oblique-82"/>
      <use transform="translate(69.482422 -16.3125)scale(0.7)" xlink:href="#DejaVuSans-Oblique-121"/>
     </g>
    </g>
   </g>
   <g id="text_23">
    <g clip-path="url(#p4285f2795e)">
     <!-- 1 -->
     <g transform="translate(407.35086 190.984245)scale(0.08 -0.08)">
      <use xlink:href="#DejaVuSans-49"/>
     </g>
    </g>
   </g>
   <g id="text_24">
    <g clip-path="url(#p4285f2795e)">
     <!-- $Z$ -->
     <g transform="translate(450.86186 183.500987)scale(0.13 -0.13)">
      <use transform="translate(0 0.09375)" xlink:href="#DejaVuSans-Oblique-90"/>
     </g>
    </g>
   </g>
   <g id="text_25">
    <g clip-path="url(#p4285f2795e)">
     <!-- $H$ -->
     <g transform="translate(495.85786 47.147988)scale(0.13 -0.13)">
      <use transform="translate(0 0.09375)" xlink:href="#DejaVuSans-Oblique-72"/>
     </g>
    </g>
   </g>
   <g id="text_26">
    <g clip-path="url(#p4285f2795e)">
     <!-- ${q}_{0}$ -->
     <defs>
      <path d="M 41.703125 8.203125 
Q 38.09375 3.46875 33.171875 1.015625 
Q 28.265625 -1.421875 22.3125 -1.421875 
Q 14.015625 -1.421875 9.296875 4.171875 
Q 4.59375 9.765625 4.59375 19.578125 
Q 4.59375 27.484375 7.5 34.859375 
Q 10.40625 42.234375 15.828125 48.09375 
Q 19.34375 51.90625 23.90625 53.953125 
Q 28.46875 56 33.5 56 
Q 39.546875 56 43.453125 53.609375 
Q 47.359375 51.21875 49.125 46.390625 
L 50.6875 54.59375 
L 59.71875 54.59375 
L 45.125 -20.609375 
L 36.078125 -20.609375 
z
M 13.921875 20.90625 
Q 13.921875 13.671875 16.9375 9.890625 
Q 19.96875 6.109375 25.6875 6.109375 
Q 34.1875 6.109375 40.1875 14.234375 
Q 46.1875 22.359375 46.1875 33.984375 
Q 46.1875 41.015625 43.078125 44.75 
Q 39.984375 48.484375 34.1875 48.484375 
Q 29.9375 48.484375 26.3125 46.5 
Q 22.703125 44.53125 20.015625 40.71875 
Q 17.1875 36.71875 15.546875 31.34375 
Q 13.921875 25.984375 13.921875 20.90625 
z
" id="DejaVuSans-Oblique-113"/>
      <path d="M 31.78125 66.40625 
Q 24.171875 66.40625 20.328125 58.90625 
Q 16.5 51.421875 16.5 36.375 
Q 16.5 21.390625 20.328125 13.890625 
Q 24.171875 6.390625 31.78125 6.390625 
Q 39.453125 6.390625 43.28125 13.890625 
Q 47.125 21.390625 47.125 36.375 
Q 47.125 51.421875 43.28125 58.90625 
Q 39.453125 66.40625 31.78125 66.40625 
z
M 31.78125 74.21875 
Q 44.046875 74.21875 50.515625 64.515625 
Q 56.984375 54.828125 56.984375 36.375 
Q 56.984375 17.96875 50.515625 8.265625 
Q 44.046875 -1.421875 31.78125 -1.421875 
Q 19.53125 -1.421875 13.0625 8.265625 
Q 6.59375 17.96875 6.59375 36.375 
Q 6.59375 54.828125 13.0625 64.515625 
Q 19.53125 74.21875 31.78125 74.21875 
z
" id="DejaVuSans-48"/>
     </defs>
     <g transform="translate(73.70136 48.011777)scale(0.1625 -0.1625)">
      <use xlink:href="#DejaVuSans-Oblique-113"/>
      <use transform="translate(63.476562 -16.40625)scale(0.7)" xlink:href="#DejaVuSans-48"/>
     </g>
    </g>
   </g>
   <g id="text_27">
    <g clip-path="url(#p4285f2795e)">
     <!-- ${q}_{1}$ -->
     <g transform="translate(73.70136 93.462777)scale(0.1625 -0.1625)">
      <use xlink:href="#DejaVuSans-Oblique-113"/>
      <use transform="translate(63.476562 -16.40625)scale(0.7)" xlink:href="#DejaVuSans-49"/>
     </g>
    </g>
   </g>
   <g id="text_28">
    <g clip-path="url(#p4285f2795e)">
     <!-- ${q}_{2}$ -->
     <defs>
      <path d="M 19.1875 8.296875 
L 53.609375 8.296875 
L 53.609375 0 
L 7.328125 0 
L 7.328125 8.296875 
Q 12.9375 14.109375 22.625 23.890625 
Q 32.328125 33.6875 34.8125 36.53125 
Q 39.546875 41.84375 41.421875 45.53125 
Q 43.3125 49.21875 43.3125 52.78125 
Q 43.3125 58.59375 39.234375 62.25 
Q 35.15625 65.921875 28.609375 65.921875 
Q 23.96875 65.921875 18.8125 64.3125 
Q 13.671875 62.703125 7.8125 59.421875 
L 7.8125 69.390625 
Q 13.765625 71.78125 18.9375 73 
Q 24.125 74.21875 28.421875 74.21875 
Q 39.75 74.21875 46.484375 68.546875 
Q 53.21875 62.890625 53.21875 53.421875 
Q 53.21875 48.921875 51.53125 44.890625 
Q 49.859375 40.875 45.40625 35.40625 
Q 44.1875 33.984375 37.640625 27.21875 
Q 31.109375 20.453125 19.1875 8.296875 
z
" id="DejaVuSans-50"/>
     </defs>
     <g transform="translate(73.70136 138.913777)scale(0.1625 -0.1625)">
      <use xlink:href="#DejaVuSans-Oblique-113"/>
      <use transform="translate(63.476562 -16.40625)scale(0.7)" xlink:href="#DejaVuSans-50"/>
     </g>
    </g>
   </g>
   <g id="text_29">
    <g clip-path="url(#p4285f2795e)">
     <!-- ${q}_{3}$ -->
     <defs>
      <path d="M 40.578125 39.3125 
Q 47.65625 37.796875 51.625 33 
Q 55.609375 28.21875 55.609375 21.1875 
Q 55.609375 10.40625 48.1875 4.484375 
Q 40.765625 -1.421875 27.09375 -1.421875 
Q 22.515625 -1.421875 17.65625 -0.515625 
Q 12.796875 0.390625 7.625 2.203125 
L 7.625 11.71875 
Q 11.71875 9.328125 16.59375 8.109375 
Q 21.484375 6.890625 26.8125 6.890625 
Q 36.078125 6.890625 40.9375 10.546875 
Q 45.796875 14.203125 45.796875 21.1875 
Q 45.796875 27.640625 41.28125 31.265625 
Q 36.765625 34.90625 28.71875 34.90625 
L 20.21875 34.90625 
L 20.21875 43.015625 
L 29.109375 43.015625 
Q 36.375 43.015625 40.234375 45.921875 
Q 44.09375 48.828125 44.09375 54.296875 
Q 44.09375 59.90625 40.109375 62.90625 
Q 36.140625 65.921875 28.71875 65.921875 
Q 24.65625 65.921875 20.015625 65.03125 
Q 15.375 64.15625 9.8125 62.3125 
L 9.8125 71.09375 
Q 15.4375 72.65625 20.34375 73.4375 
Q 25.25 74.21875 29.59375 74.21875 
Q 40.828125 74.21875 47.359375 69.109375 
Q 53.90625 64.015625 53.90625 55.328125 
Q 53.90625 49.265625 50.4375 45.09375 
Q 46.96875 40.921875 40.578125 39.3125 
z
" id="DejaVuSans-51"/>
     </defs>
     <g transform="translate(73.70136 184.364777)scale(0.1625 -0.1625)">
      <use xlink:href="#DejaVuSans-Oblique-113"/>
      <use transform="translate(63.476562 -16.40625)scale(0.7)" xlink:href="#DejaVuSans-51"/>
     </g>
    </g>
   </g>
  </g>
 </g>
 <defs>
  <clipPath id="p4285f2795e">
   <rect height="199.9844" width="543.59396" x="7.2" y="7.2"/>
  </clipPath>
 </defs>
</svg>
