<?xml version="1.0" encoding="utf-8" standalone="no"?>
<!DOCTYPE svg PUBLIC "-//W3C//DTD SVG 1.1//EN"
  "http://www.w3.org/Graphics/SVG/1.1/DTD/svg11.dtd">
<!-- Created with matplotlib (https://matplotlib.org/) -->
<svg height="1350.6594pt" version="1.1" viewBox="0 0 1293.39114 1350.6594" width="1293.39114pt" xmlns="http://www.w3.org/2000/svg" xmlns:xlink="http://www.w3.org/1999/xlink">
 <defs>
  <style type="text/css">
*{stroke-linecap:butt;stroke-linejoin:round;}
  </style>
 </defs>
 <g id="figure_1">
  <g id="patch_1">
   <path d="M -0 1350.6594 
L 1293.39114 1350.6594 
L 1293.39114 0 
L -0 0 
z
" style="fill:#ffffff;"/>
  </g>
  <g id="axes_1">
   <g id="patch_2">
    <path clip-path="url(#p95d89dc48b)" d="M 866.67841 1305.848697 
L 878.49567 1305.848697 
L 872.58704 1316.1888 
z
" style="fill:#778899;"/>
   </g>
   <g id="patch_3">
    <path clip-path="url(#p95d89dc48b)" d="M 912.12941 1305.848697 
L 923.94667 1305.848697 
L 918.03804 1316.1888 
z
" style="fill:#778899;"/>
   </g>
   <g id="patch_4">
    <path clip-path="url(#p95d89dc48b)" d="M 957.58041 1305.848697 
L 969.39767 1305.848697 
L 963.48904 1316.1888 
z
" style="fill:#778899;"/>
   </g>
   <g id="patch_5">
    <path clip-path="url(#p95d89dc48b)" d="M 1003.03141 1305.848697 
L 1014.84867 1305.848697 
L 1008.94004 1316.1888 
z
" style="fill:#778899;"/>
   </g>
   <g id="line2d_1">
    <path clip-path="url(#p95d89dc48b)" d="M 122.64554 43.5608 
L 1281.64604 43.5608 
" style="fill:none;stroke:#000000;stroke-linecap:square;stroke-width:2;"/>
   </g>
   <g id="line2d_2">
    <path clip-path="url(#p95d89dc48b)" d="M 122.64554 89.0118 
L 1281.64604 89.0118 
" style="fill:none;stroke:#000000;stroke-linecap:square;stroke-width:2;"/>
   </g>
   <g id="line2d_3">
    <path clip-path="url(#p95d89dc48b)" d="M 122.64554 134.4628 
L 1281.64604 134.4628 
" style="fill:none;stroke:#000000;stroke-linecap:square;stroke-width:2;"/>
   </g>
   <g id="line2d_4">
    <path clip-path="url(#p95d89dc48b)" d="M 122.64554 179.9138 
L 1281.64604 179.9138 
" style="fill:none;stroke:#000000;stroke-linecap:square;stroke-width:2;"/>
   </g>
   <g id="line2d_5">
    <path clip-path="url(#p95d89dc48b)" d="M 122.64554 225.3648 
L 1281.64604 225.3648 
" style="fill:none;stroke:#000000;stroke-linecap:square;stroke-width:2;"/>
   </g>
   <g id="line2d_6">
    <path clip-path="url(#p95d89dc48b)" d="M 122.64554 270.8158 
L 1281.64604 270.8158 
" style="fill:none;stroke:#000000;stroke-linecap:square;stroke-width:2;"/>
   </g>
   <g id="line2d_7">
    <path clip-path="url(#p95d89dc48b)" d="M 122.64554 316.2668 
L 1281.64604 316.2668 
" style="fill:none;stroke:#000000;stroke-linecap:square;stroke-width:2;"/>
   </g>
   <g id="line2d_8">
    <path clip-path="url(#p95d89dc48b)" d="M 122.64554 361.7178 
L 1281.64604 361.7178 
" style="fill:none;stroke:#000000;stroke-linecap:square;stroke-width:2;"/>
   </g>
   <g id="line2d_9">
    <path clip-path="url(#p95d89dc48b)" d="M 122.64554 405.691642 
L 1281.64604 405.691642 
" style="fill:none;stroke:#778899;stroke-linecap:square;stroke-width:2;"/>
   </g>
   <g id="line2d_10">
    <path clip-path="url(#p95d89dc48b)" d="M 122.64554 408.645957 
L 1281.64604 408.645957 
" style="fill:none;stroke:#778899;stroke-linecap:square;stroke-width:2;"/>
   </g>
   <g id="line2d_11">
    <path clip-path="url(#p95d89dc48b)" d="M 122.64554 498.0708 
L 1281.64604 498.0708 
" style="fill:none;stroke:#000000;stroke-linecap:square;stroke-width:2;"/>
   </g>
   <g id="line2d_12">
    <path clip-path="url(#p95d89dc48b)" d="M 122.64554 543.5218 
L 1281.64604 543.5218 
" style="fill:none;stroke:#000000;stroke-linecap:square;stroke-width:2;"/>
   </g>
   <g id="line2d_13">
    <path clip-path="url(#p95d89dc48b)" d="M 122.64554 588.9728 
L 1281.64604 588.9728 
" style="fill:none;stroke:#000000;stroke-linecap:square;stroke-width:2;"/>
   </g>
   <g id="line2d_14">
    <path clip-path="url(#p95d89dc48b)" d="M 122.64554 634.4238 
L 1281.64604 634.4238 
" style="fill:none;stroke:#000000;stroke-linecap:square;stroke-width:2;"/>
   </g>
   <g id="line2d_15">
    <path clip-path="url(#p95d89dc48b)" d="M 122.64554 679.8748 
L 1281.64604 679.8748 
" style="fill:none;stroke:#000000;stroke-linecap:square;stroke-width:2;"/>
   </g>
   <g id="line2d_16">
    <path clip-path="url(#p95d89dc48b)" d="M 122.64554 725.3258 
L 1281.64604 725.3258 
" style="fill:none;stroke:#000000;stroke-linecap:square;stroke-width:2;"/>
   </g>
   <g id="line2d_17">
    <path clip-path="url(#p95d89dc48b)" d="M 122.64554 770.7768 
L 1281.64604 770.7768 
" style="fill:none;stroke:#000000;stroke-linecap:square;stroke-width:2;"/>
   </g>
   <g id="line2d_18">
    <path clip-path="url(#p95d89dc48b)" d="M 122.64554 816.2278 
L 1281.64604 816.2278 
" style="fill:none;stroke:#000000;stroke-linecap:square;stroke-width:2;"/>
   </g>
   <g id="line2d_19">
    <path clip-path="url(#p95d89dc48b)" d="M 122.64554 860.201642 
L 1281.64604 860.201642 
" style="fill:none;stroke:#778899;stroke-linecap:square;stroke-width:2;"/>
   </g>
   <g id="line2d_20">
    <path clip-path="url(#p95d89dc48b)" d="M 122.64554 863.155957 
L 1281.64604 863.155957 
" style="fill:none;stroke:#778899;stroke-linecap:square;stroke-width:2;"/>
   </g>
   <g id="line2d_21">
    <path clip-path="url(#p95d89dc48b)" d="M 122.64554 952.5808 
L 1281.64604 952.5808 
" style="fill:none;stroke:#000000;stroke-linecap:square;stroke-width:2;"/>
   </g>
   <g id="line2d_22">
    <path clip-path="url(#p95d89dc48b)" d="M 122.64554 998.0318 
L 1281.64604 998.0318 
" style="fill:none;stroke:#000000;stroke-linecap:square;stroke-width:2;"/>
   </g>
   <g id="line2d_23">
    <path clip-path="url(#p95d89dc48b)" d="M 122.64554 1043.4828 
L 1281.64604 1043.4828 
" style="fill:none;stroke:#000000;stroke-linecap:square;stroke-width:2;"/>
   </g>
   <g id="line2d_24">
    <path clip-path="url(#p95d89dc48b)" d="M 122.64554 1088.9338 
L 1281.64604 1088.9338 
" style="fill:none;stroke:#000000;stroke-linecap:square;stroke-width:2;"/>
   </g>
   <g id="line2d_25">
    <path clip-path="url(#p95d89dc48b)" d="M 122.64554 1134.3848 
L 1281.64604 1134.3848 
" style="fill:none;stroke:#000000;stroke-linecap:square;stroke-width:2;"/>
   </g>
   <g id="line2d_26">
    <path clip-path="url(#p95d89dc48b)" d="M 122.64554 1179.8358 
L 1281.64604 1179.8358 
" style="fill:none;stroke:#000000;stroke-linecap:square;stroke-width:2;"/>
   </g>
   <g id="line2d_27">
    <path clip-path="url(#p95d89dc48b)" d="M 122.64554 1225.2868 
L 1281.64604 1225.2868 
" style="fill:none;stroke:#000000;stroke-linecap:square;stroke-width:2;"/>
   </g>
   <g id="line2d_28">
    <path clip-path="url(#p95d89dc48b)" d="M 122.64554 1270.7378 
L 1281.64604 1270.7378 
" style="fill:none;stroke:#000000;stroke-linecap:square;stroke-width:2;"/>
   </g>
   <g id="line2d_29">
    <path clip-path="url(#p95d89dc48b)" d="M 122.64554 1314.711642 
L 1281.64604 1314.711642 
" style="fill:none;stroke:#778899;stroke-linecap:square;stroke-width:2;"/>
   </g>
   <g id="line2d_30">
    <path clip-path="url(#p95d89dc48b)" d="M 122.64554 1317.665957 
L 1281.64604 1317.665957 
" style="fill:none;stroke:#778899;stroke-linecap:square;stroke-width:2;"/>
   </g>
   <g id="line2d_31">
    <path clip-path="url(#p95d89dc48b)" d="M 258.99854 361.7178 
L 258.99854 179.9138 
" style="fill:none;stroke:#bb8bff;stroke-linecap:square;stroke-width:2;"/>
   </g>
   <g id="line2d_32">
    <path clip-path="url(#p95d89dc48b)" d="M 440.80254 361.7178 
L 440.80254 134.4628 
" style="fill:none;stroke:#bb8bff;stroke-linecap:square;stroke-width:2;"/>
   </g>
   <g id="line2d_33">
    <path clip-path="url(#p95d89dc48b)" d="M 622.60654 361.7178 
L 622.60654 134.4628 
" style="fill:none;stroke:#bb8bff;stroke-linecap:square;stroke-width:2;"/>
   </g>
   <g id="line2d_34">
    <path clip-path="url(#p95d89dc48b)" d="M 804.41054 361.7178 
L 804.41054 89.0118 
" style="fill:none;stroke:#bb8bff;stroke-linecap:square;stroke-width:2;"/>
   </g>
   <g id="line2d_35">
    <path clip-path="url(#p95d89dc48b)" d="M 986.21454 361.7178 
L 986.21454 89.0118 
" style="fill:none;stroke:#bb8bff;stroke-linecap:square;stroke-width:2;"/>
   </g>
   <g id="line2d_36">
    <path clip-path="url(#p95d89dc48b)" d="M 1168.01854 361.7178 
L 1168.01854 89.0118 
" style="fill:none;stroke:#bb8bff;stroke-linecap:square;stroke-width:2;"/>
   </g>
   <g id="line2d_37">
    <path clip-path="url(#p95d89dc48b)" d="M 213.54754 816.2278 
L 213.54754 543.5218 
" style="fill:none;stroke:#bb8bff;stroke-linecap:square;stroke-width:2;"/>
   </g>
   <g id="line2d_38">
    <path clip-path="url(#p95d89dc48b)" d="M 395.35154 816.2278 
L 395.35154 498.0708 
" style="fill:none;stroke:#bb8bff;stroke-linecap:square;stroke-width:2;"/>
   </g>
   <g id="line2d_39">
    <path clip-path="url(#p95d89dc48b)" d="M 577.15554 816.2278 
L 577.15554 498.0708 
" style="fill:none;stroke:#bb8bff;stroke-linecap:square;stroke-width:2;"/>
   </g>
   <g id="line2d_40">
    <path clip-path="url(#p95d89dc48b)" d="M 758.95954 816.2278 
L 758.95954 498.0708 
" style="fill:none;stroke:#bb8bff;stroke-linecap:square;stroke-width:2;"/>
   </g>
   <g id="line2d_41">
    <path clip-path="url(#p95d89dc48b)" d="M 940.76354 816.2278 
L 940.76354 498.0708 
" style="fill:none;stroke:#bb8bff;stroke-linecap:square;stroke-width:2;"/>
   </g>
   <g id="line2d_42">
    <path clip-path="url(#p95d89dc48b)" d="M 1122.56754 816.2278 
L 1122.56754 498.0708 
" style="fill:none;stroke:#bb8bff;stroke-linecap:square;stroke-width:2;"/>
   </g>
   <g id="line2d_43">
    <path clip-path="url(#p95d89dc48b)" d="M 213.54754 1270.7378 
L 213.54754 952.5808 
" style="fill:none;stroke:#bb8bff;stroke-linecap:square;stroke-width:2;"/>
   </g>
   <g id="line2d_44">
    <path clip-path="url(#p95d89dc48b)" d="M 395.35154 1270.7378 
L 395.35154 952.5808 
" style="fill:none;stroke:#bb8bff;stroke-linecap:square;stroke-width:2;"/>
   </g>
   <g id="line2d_45">
    <path clip-path="url(#p95d89dc48b)" d="M 577.15554 1270.7378 
L 577.15554 952.5808 
" style="fill:none;stroke:#bb8bff;stroke-linecap:square;stroke-width:2;"/>
   </g>
   <g id="line2d_46">
    <path clip-path="url(#p95d89dc48b)" d="M 874.064197 952.5808 
L 874.064197 1305.848697 
" style="fill:none;stroke:#778899;stroke-linecap:square;stroke-width:2;"/>
   </g>
   <g id="line2d_47">
    <path clip-path="url(#p95d89dc48b)" d="M 871.109882 952.5808 
L 871.109882 1305.848697 
" style="fill:none;stroke:#778899;stroke-linecap:square;stroke-width:2;"/>
   </g>
   <g id="line2d_48">
    <path clip-path="url(#p95d89dc48b)" d="M 919.515197 998.0318 
L 919.515197 1305.848697 
" style="fill:none;stroke:#778899;stroke-linecap:square;stroke-width:2;"/>
   </g>
   <g id="line2d_49">
    <path clip-path="url(#p95d89dc48b)" d="M 916.560882 998.0318 
L 916.560882 1305.848697 
" style="fill:none;stroke:#778899;stroke-linecap:square;stroke-width:2;"/>
   </g>
   <g id="line2d_50">
    <path clip-path="url(#p95d89dc48b)" d="M 964.966197 1043.4828 
L 964.966197 1305.848697 
" style="fill:none;stroke:#778899;stroke-linecap:square;stroke-width:2;"/>
   </g>
   <g id="line2d_51">
    <path clip-path="url(#p95d89dc48b)" d="M 962.011882 1043.4828 
L 962.011882 1305.848697 
" style="fill:none;stroke:#778899;stroke-linecap:square;stroke-width:2;"/>
   </g>
   <g id="line2d_52">
    <path clip-path="url(#p95d89dc48b)" d="M 1010.417197 1088.9338 
L 1010.417197 1305.848697 
" style="fill:none;stroke:#778899;stroke-linecap:square;stroke-width:2;"/>
   </g>
   <g id="line2d_53">
    <path clip-path="url(#p95d89dc48b)" d="M 1007.462882 1088.9338 
L 1007.462882 1305.848697 
" style="fill:none;stroke:#778899;stroke-linecap:square;stroke-width:2;"/>
   </g>
   <g id="line2d_54">
    <path clip-path="url(#p95d89dc48b)" d="M 149.91614 411.7139 
L 154.46124 402.6237 
" style="fill:none;stroke:#778899;stroke-linecap:square;stroke-width:1.5;"/>
   </g>
   <g id="line2d_55">
    <path clip-path="url(#p95d89dc48b)" d="M 1270.7378 43.5608 
L 1270.7378 407.1688 
" style="fill:none;stroke:#000000;stroke-linecap:square;stroke-width:1.5;"/>
   </g>
   <g id="line2d_56">
    <path clip-path="url(#p95d89dc48b)" d="M 1279.828 43.5608 
L 1279.828 407.1688 
" style="fill:none;stroke:#000000;stroke-linecap:square;stroke-width:1.5;"/>
   </g>
   <g id="line2d_57">
    <path clip-path="url(#p95d89dc48b)" d="M 149.91614 866.2239 
L 154.46124 857.1337 
" style="fill:none;stroke:#778899;stroke-linecap:square;stroke-width:1.5;"/>
   </g>
   <g id="line2d_58">
    <path clip-path="url(#p95d89dc48b)" d="M 1270.7378 498.0708 
L 1270.7378 861.6788 
" style="fill:none;stroke:#000000;stroke-linecap:square;stroke-width:1.5;"/>
   </g>
   <g id="line2d_59">
    <path clip-path="url(#p95d89dc48b)" d="M 1279.828 498.0708 
L 1279.828 861.6788 
" style="fill:none;stroke:#000000;stroke-linecap:square;stroke-width:1.5;"/>
   </g>
   <g id="line2d_60">
    <path clip-path="url(#p95d89dc48b)" d="M 98.102 498.0708 
L 98.102 861.6788 
" style="fill:none;stroke:#000000;stroke-linecap:square;stroke-width:1.5;"/>
   </g>
   <g id="line2d_61">
    <path clip-path="url(#p95d89dc48b)" d="M 107.1922 498.0708 
L 107.1922 861.6788 
" style="fill:none;stroke:#000000;stroke-linecap:square;stroke-width:1.5;"/>
   </g>
   <g id="line2d_62">
    <path clip-path="url(#p95d89dc48b)" d="M 149.91614 1320.7339 
L 154.46124 1311.6437 
" style="fill:none;stroke:#778899;stroke-linecap:square;stroke-width:1.5;"/>
   </g>
   <g id="line2d_63">
    <path clip-path="url(#p95d89dc48b)" d="M 98.102 952.5808 
L 98.102 1316.1888 
" style="fill:none;stroke:#000000;stroke-linecap:square;stroke-width:1.5;"/>
   </g>
   <g id="line2d_64">
    <path clip-path="url(#p95d89dc48b)" d="M 107.1922 952.5808 
L 107.1922 1316.1888 
" style="fill:none;stroke:#000000;stroke-linecap:square;stroke-width:1.5;"/>
   </g>
   <g id="patch_6">
    <path clip-path="url(#p95d89dc48b)" d="M 130.599465 58.332375 
L 160.142615 58.332375 
L 160.142615 28.789225 
L 130.599465 28.789225 
z
" style="fill:#6fa4ff;"/>
   </g>
   <g id="patch_7">
    <path clip-path="url(#p95d89dc48b)" d="M 130.599465 103.783375 
L 160.142615 103.783375 
L 160.142615 74.240225 
L 130.599465 74.240225 
z
" style="fill:#6fa4ff;"/>
   </g>
   <g id="patch_8">
    <path clip-path="url(#p95d89dc48b)" d="M 130.599465 149.234375 
L 160.142615 149.234375 
L 160.142615 119.691225 
L 130.599465 119.691225 
z
" style="fill:#6fa4ff;"/>
   </g>
   <g id="patch_9">
    <path clip-path="url(#p95d89dc48b)" d="M 130.599465 194.685375 
L 160.142615 194.685375 
L 160.142615 165.142225 
L 130.599465 165.142225 
z
" style="fill:#6fa4ff;"/>
   </g>
   <g id="patch_10">
    <path clip-path="url(#p95d89dc48b)" d="M 130.599465 240.136375 
L 160.142615 240.136375 
L 160.142615 210.593225 
L 130.599465 210.593225 
z
" style="fill:#6fa4ff;"/>
   </g>
   <g id="patch_11">
    <path clip-path="url(#p95d89dc48b)" d="M 130.599465 285.587375 
L 160.142615 285.587375 
L 160.142615 256.044225 
L 130.599465 256.044225 
z
" style="fill:#6fa4ff;"/>
   </g>
   <g id="patch_12">
    <path clip-path="url(#p95d89dc48b)" d="M 130.599465 331.038375 
L 160.142615 331.038375 
L 160.142615 301.495225 
L 130.599465 301.495225 
z
" style="fill:#6fa4ff;"/>
   </g>
   <g id="patch_13">
    <path clip-path="url(#p95d89dc48b)" d="M 130.599465 376.489375 
L 160.142615 376.489375 
L 160.142615 346.946225 
L 130.599465 346.946225 
z
" style="fill:#6fa4ff;"/>
   </g>
   <g id="patch_14">
    <path clip-path="url(#p95d89dc48b)" d="M 258.99854 184.345273 
C 260.17378 184.345273 261.301044 183.878345 262.132064 183.047324 
C 262.963085 182.216304 263.430012 181.08904 263.430012 179.9138 
C 263.430012 178.73856 262.963085 177.611296 262.132064 176.780276 
C 261.301044 175.949255 260.17378 175.482328 258.99854 175.482328 
C 257.8233 175.482328 256.696036 175.949255 255.865016 176.780276 
C 255.033995 177.611296 254.567067 178.73856 254.567067 179.9138 
C 254.567067 181.08904 255.033995 182.216304 255.865016 183.047324 
C 256.696036 183.878345 257.8233 184.345273 258.99854 184.345273 
z
" style="fill:#bb8bff;stroke:#bb8bff;stroke-linejoin:miter;stroke-width:1.5;"/>
   </g>
   <g id="patch_15">
    <path clip-path="url(#p95d89dc48b)" d="M 185.140665 376.489375 
L 332.856415 376.489375 
L 332.856415 210.593225 
L 185.140665 210.593225 
z
" style="fill:#bb8bff;stroke:#bb8bff;stroke-linejoin:miter;stroke-width:1.5;"/>
   </g>
   <g id="patch_16">
    <path clip-path="url(#p95d89dc48b)" d="M 440.80254 138.894273 
C 441.97778 138.894273 443.105044 138.427345 443.936064 137.596324 
C 444.767085 136.765304 445.234012 135.63804 445.234012 134.4628 
C 445.234012 133.28756 444.767085 132.160296 443.936064 131.329276 
C 443.105044 130.498255 441.97778 130.031328 440.80254 130.031328 
C 439.6273 130.031328 438.500036 130.498255 437.669016 131.329276 
C 436.837995 132.160296 436.371067 133.28756 436.371067 134.4628 
C 436.371067 135.63804 436.837995 136.765304 437.669016 137.596324 
C 438.500036 138.427345 439.6273 138.894273 440.80254 138.894273 
z
" style="fill:#bb8bff;stroke:#bb8bff;stroke-linejoin:miter;stroke-width:1.5;"/>
   </g>
   <g id="patch_17">
    <path clip-path="url(#p95d89dc48b)" d="M 366.944665 376.489375 
L 514.660415 376.489375 
L 514.660415 210.593225 
L 366.944665 210.593225 
z
" style="fill:#bb8bff;stroke:#bb8bff;stroke-linejoin:miter;stroke-width:1.5;"/>
   </g>
   <g id="patch_18">
    <path clip-path="url(#p95d89dc48b)" d="M 622.60654 138.894273 
C 623.78178 138.894273 624.909044 138.427345 625.740064 137.596324 
C 626.571085 136.765304 627.038012 135.63804 627.038012 134.4628 
C 627.038012 133.28756 626.571085 132.160296 625.740064 131.329276 
C 624.909044 130.498255 623.78178 130.031328 622.60654 130.031328 
C 621.4313 130.031328 620.304036 130.498255 619.473016 131.329276 
C 618.641995 132.160296 618.175067 133.28756 618.175067 134.4628 
C 618.175067 135.63804 618.641995 136.765304 619.473016 137.596324 
C 620.304036 138.427345 621.4313 138.894273 622.60654 138.894273 
z
" style="fill:#bb8bff;stroke:#bb8bff;stroke-linejoin:miter;stroke-width:1.5;"/>
   </g>
   <g id="patch_19">
    <path clip-path="url(#p95d89dc48b)" d="M 548.748665 376.489375 
L 696.464415 376.489375 
L 696.464415 210.593225 
L 548.748665 210.593225 
z
" style="fill:#bb8bff;stroke:#bb8bff;stroke-linejoin:miter;stroke-width:1.5;"/>
   </g>
   <g id="patch_20">
    <path clip-path="url(#p95d89dc48b)" d="M 804.41054 93.443272 
C 805.58578 93.443272 806.713044 92.976345 807.544064 92.145324 
C 808.375085 91.314304 808.842012 90.18704 808.842012 89.0118 
C 808.842012 87.83656 808.375085 86.709296 807.544064 85.878276 
C 806.713044 85.047255 805.58578 84.580327 804.41054 84.580327 
C 803.2353 84.580327 802.108036 85.047255 801.277016 85.878276 
C 800.445995 86.709296 799.979067 87.83656 799.979067 89.0118 
C 799.979067 90.18704 800.445995 91.314304 801.277016 92.145324 
C 802.108036 92.976345 803.2353 93.443272 804.41054 93.443272 
z
" style="fill:#bb8bff;stroke:#bb8bff;stroke-linejoin:miter;stroke-width:1.5;"/>
   </g>
   <g id="patch_21">
    <path clip-path="url(#p95d89dc48b)" d="M 730.552665 376.489375 
L 878.268415 376.489375 
L 878.268415 210.593225 
L 730.552665 210.593225 
z
" style="fill:#bb8bff;stroke:#bb8bff;stroke-linejoin:miter;stroke-width:1.5;"/>
   </g>
   <g id="patch_22">
    <path clip-path="url(#p95d89dc48b)" d="M 986.21454 93.443272 
C 987.38978 93.443272 988.517044 92.976345 989.348064 92.145324 
C 990.179085 91.314304 990.646012 90.18704 990.646012 89.0118 
C 990.646012 87.83656 990.179085 86.709296 989.348064 85.878276 
C 988.517044 85.047255 987.38978 84.580327 986.21454 84.580327 
C 985.0393 84.580327 983.912036 85.047255 983.081016 85.878276 
C 982.249995 86.709296 981.783067 87.83656 981.783067 89.0118 
C 981.783067 90.18704 982.249995 91.314304 983.081016 92.145324 
C 983.912036 92.976345 985.0393 93.443272 986.21454 93.443272 
z
" style="fill:#bb8bff;stroke:#bb8bff;stroke-linejoin:miter;stroke-width:1.5;"/>
   </g>
   <g id="patch_23">
    <path clip-path="url(#p95d89dc48b)" d="M 912.356665 376.489375 
L 1060.072415 376.489375 
L 1060.072415 210.593225 
L 912.356665 210.593225 
z
" style="fill:#bb8bff;stroke:#bb8bff;stroke-linejoin:miter;stroke-width:1.5;"/>
   </g>
   <g id="patch_24">
    <path clip-path="url(#p95d89dc48b)" d="M 1168.01854 93.443272 
C 1169.19378 93.443272 1170.321044 92.976345 1171.152064 92.145324 
C 1171.983085 91.314304 1172.450012 90.18704 1172.450012 89.0118 
C 1172.450012 87.83656 1171.983085 86.709296 1171.152064 85.878276 
C 1170.321044 85.047255 1169.19378 84.580327 1168.01854 84.580327 
C 1166.8433 84.580327 1165.716036 85.047255 1164.885016 85.878276 
C 1164.053995 86.709296 1163.587067 87.83656 1163.587067 89.0118 
C 1163.587067 90.18704 1164.053995 91.314304 1164.885016 92.145324 
C 1165.716036 92.976345 1166.8433 93.443272 1168.01854 93.443272 
z
" style="fill:#bb8bff;stroke:#bb8bff;stroke-linejoin:miter;stroke-width:1.5;"/>
   </g>
   <g id="patch_25">
    <path clip-path="url(#p95d89dc48b)" d="M 1094.160665 376.489375 
L 1241.876415 376.489375 
L 1241.876415 210.593225 
L 1094.160665 210.593225 
z
" style="fill:#bb8bff;stroke:#bb8bff;stroke-linejoin:miter;stroke-width:1.5;"/>
   </g>
   <g id="patch_26">
    <path clip-path="url(#p95d89dc48b)" d="M 213.54754 547.953272 
C 214.72278 547.953272 215.850044 547.486345 216.681064 546.655324 
C 217.512085 545.824304 217.979012 544.69704 217.979012 543.5218 
C 217.979012 542.34656 217.512085 541.219296 216.681064 540.388276 
C 215.850044 539.557255 214.72278 539.090327 213.54754 539.090327 
C 212.3723 539.090327 211.245036 539.557255 210.414016 540.388276 
C 209.582995 541.219296 209.116067 542.34656 209.116067 543.5218 
C 209.116067 544.69704 209.582995 545.824304 210.414016 546.655324 
C 211.245036 547.486345 212.3723 547.953272 213.54754 547.953272 
z
" style="fill:#bb8bff;stroke:#bb8bff;stroke-linejoin:miter;stroke-width:1.5;"/>
   </g>
   <g id="patch_27">
    <path clip-path="url(#p95d89dc48b)" d="M 139.689665 830.999375 
L 287.405415 830.999375 
L 287.405415 665.103225 
L 139.689665 665.103225 
z
" style="fill:#bb8bff;stroke:#bb8bff;stroke-linejoin:miter;stroke-width:1.5;"/>
   </g>
   <g id="patch_28">
    <path clip-path="url(#p95d89dc48b)" d="M 395.35154 502.502272 
C 396.52678 502.502272 397.654044 502.035345 398.485064 501.204324 
C 399.316085 500.373304 399.783012 499.24604 399.783012 498.0708 
C 399.783012 496.89556 399.316085 495.768296 398.485064 494.937276 
C 397.654044 494.106255 396.52678 493.639327 395.35154 493.639327 
C 394.1763 493.639327 393.049036 494.106255 392.218016 494.937276 
C 391.386995 495.768296 390.920067 496.89556 390.920067 498.0708 
C 390.920067 499.24604 391.386995 500.373304 392.218016 501.204324 
C 393.049036 502.035345 394.1763 502.502272 395.35154 502.502272 
z
" style="fill:#bb8bff;stroke:#bb8bff;stroke-linejoin:miter;stroke-width:1.5;"/>
   </g>
   <g id="patch_29">
    <path clip-path="url(#p95d89dc48b)" d="M 321.493665 830.999375 
L 469.209415 830.999375 
L 469.209415 665.103225 
L 321.493665 665.103225 
z
" style="fill:#bb8bff;stroke:#bb8bff;stroke-linejoin:miter;stroke-width:1.5;"/>
   </g>
   <g id="patch_30">
    <path clip-path="url(#p95d89dc48b)" d="M 577.15554 502.502272 
C 578.33078 502.502272 579.458044 502.035345 580.289064 501.204324 
C 581.120085 500.373304 581.587012 499.24604 581.587012 498.0708 
C 581.587012 496.89556 581.120085 495.768296 580.289064 494.937276 
C 579.458044 494.106255 578.33078 493.639327 577.15554 493.639327 
C 575.9803 493.639327 574.853036 494.106255 574.022016 494.937276 
C 573.190995 495.768296 572.724067 496.89556 572.724067 498.0708 
C 572.724067 499.24604 573.190995 500.373304 574.022016 501.204324 
C 574.853036 502.035345 575.9803 502.502272 577.15554 502.502272 
z
" style="fill:#bb8bff;stroke:#bb8bff;stroke-linejoin:miter;stroke-width:1.5;"/>
   </g>
   <g id="patch_31">
    <path clip-path="url(#p95d89dc48b)" d="M 503.297665 830.999375 
L 651.013415 830.999375 
L 651.013415 665.103225 
L 503.297665 665.103225 
z
" style="fill:#bb8bff;stroke:#bb8bff;stroke-linejoin:miter;stroke-width:1.5;"/>
   </g>
   <g id="patch_32">
    <path clip-path="url(#p95d89dc48b)" d="M 758.95954 502.502272 
C 760.13478 502.502272 761.262044 502.035345 762.093064 501.204324 
C 762.924085 500.373304 763.391012 499.24604 763.391012 498.0708 
C 763.391012 496.89556 762.924085 495.768296 762.093064 494.937276 
C 761.262044 494.106255 760.13478 493.639327 758.95954 493.639327 
C 757.7843 493.639327 756.657036 494.106255 755.826016 494.937276 
C 754.994995 495.768296 754.528067 496.89556 754.528067 498.0708 
C 754.528067 499.24604 754.994995 500.373304 755.826016 501.204324 
C 756.657036 502.035345 757.7843 502.502272 758.95954 502.502272 
z
" style="fill:#bb8bff;stroke:#bb8bff;stroke-linejoin:miter;stroke-width:1.5;"/>
   </g>
   <g id="patch_33">
    <path clip-path="url(#p95d89dc48b)" d="M 685.101665 830.999375 
L 832.817415 830.999375 
L 832.817415 665.103225 
L 685.101665 665.103225 
z
" style="fill:#bb8bff;stroke:#bb8bff;stroke-linejoin:miter;stroke-width:1.5;"/>
   </g>
   <g id="patch_34">
    <path clip-path="url(#p95d89dc48b)" d="M 940.76354 502.502272 
C 941.93878 502.502272 943.066044 502.035345 943.897064 501.204324 
C 944.728085 500.373304 945.195012 499.24604 945.195012 498.0708 
C 945.195012 496.89556 944.728085 495.768296 943.897064 494.937276 
C 943.066044 494.106255 941.93878 493.639327 940.76354 493.639327 
C 939.5883 493.639327 938.461036 494.106255 937.630016 494.937276 
C 936.798995 495.768296 936.332067 496.89556 936.332067 498.0708 
C 936.332067 499.24604 936.798995 500.373304 937.630016 501.204324 
C 938.461036 502.035345 939.5883 502.502272 940.76354 502.502272 
z
" style="fill:#bb8bff;stroke:#bb8bff;stroke-linejoin:miter;stroke-width:1.5;"/>
   </g>
   <g id="patch_35">
    <path clip-path="url(#p95d89dc48b)" d="M 866.905665 830.999375 
L 1014.621415 830.999375 
L 1014.621415 665.103225 
L 866.905665 665.103225 
z
" style="fill:#bb8bff;stroke:#bb8bff;stroke-linejoin:miter;stroke-width:1.5;"/>
   </g>
   <g id="patch_36">
    <path clip-path="url(#p95d89dc48b)" d="M 1122.56754 502.502272 
C 1123.74278 502.502272 1124.870044 502.035345 1125.701064 501.204324 
C 1126.532085 500.373304 1126.999012 499.24604 1126.999012 498.0708 
C 1126.999012 496.89556 1126.532085 495.768296 1125.701064 494.937276 
C 1124.870044 494.106255 1123.74278 493.639327 1122.56754 493.639327 
C 1121.3923 493.639327 1120.265036 494.106255 1119.434016 494.937276 
C 1118.602995 495.768296 1118.136067 496.89556 1118.136067 498.0708 
C 1118.136067 499.24604 1118.602995 500.373304 1119.434016 501.204324 
C 1120.265036 502.035345 1121.3923 502.502272 1122.56754 502.502272 
z
" style="fill:#bb8bff;stroke:#bb8bff;stroke-linejoin:miter;stroke-width:1.5;"/>
   </g>
   <g id="patch_37">
    <path clip-path="url(#p95d89dc48b)" d="M 1048.709665 830.999375 
L 1196.425415 830.999375 
L 1196.425415 665.103225 
L 1048.709665 665.103225 
z
" style="fill:#bb8bff;stroke:#bb8bff;stroke-linejoin:miter;stroke-width:1.5;"/>
   </g>
   <g id="patch_38">
    <path clip-path="url(#p95d89dc48b)" d="M 213.54754 957.012272 
C 214.72278 957.012272 215.850044 956.545345 216.681064 955.714324 
C 217.512085 954.883304 217.979012 953.75604 217.979012 952.5808 
C 217.979012 951.40556 217.512085 950.278296 216.681064 949.447276 
C 215.850044 948.616255 214.72278 948.149327 213.54754 948.149327 
C 212.3723 948.149327 211.245036 948.616255 210.414016 949.447276 
C 209.582995 950.278296 209.116067 951.40556 209.116067 952.5808 
C 209.116067 953.75604 209.582995 954.883304 210.414016 955.714324 
C 211.245036 956.545345 212.3723 957.012272 213.54754 957.012272 
z
" style="fill:#bb8bff;stroke:#bb8bff;stroke-linejoin:miter;stroke-width:1.5;"/>
   </g>
   <g id="patch_39">
    <path clip-path="url(#p95d89dc48b)" d="M 139.689665 1285.509375 
L 287.405415 1285.509375 
L 287.405415 1119.613225 
L 139.689665 1119.613225 
z
" style="fill:#bb8bff;stroke:#bb8bff;stroke-linejoin:miter;stroke-width:1.5;"/>
   </g>
   <g id="patch_40">
    <path clip-path="url(#p95d89dc48b)" d="M 395.35154 957.012272 
C 396.52678 957.012272 397.654044 956.545345 398.485064 955.714324 
C 399.316085 954.883304 399.783012 953.75604 399.783012 952.5808 
C 399.783012 951.40556 399.316085 950.278296 398.485064 949.447276 
C 397.654044 948.616255 396.52678 948.149327 395.35154 948.149327 
C 394.1763 948.149327 393.049036 948.616255 392.218016 949.447276 
C 391.386995 950.278296 390.920067 951.40556 390.920067 952.5808 
C 390.920067 953.75604 391.386995 954.883304 392.218016 955.714324 
C 393.049036 956.545345 394.1763 957.012272 395.35154 957.012272 
z
" style="fill:#bb8bff;stroke:#bb8bff;stroke-linejoin:miter;stroke-width:1.5;"/>
   </g>
   <g id="patch_41">
    <path clip-path="url(#p95d89dc48b)" d="M 321.493665 1285.509375 
L 469.209415 1285.509375 
L 469.209415 1119.613225 
L 321.493665 1119.613225 
z
" style="fill:#bb8bff;stroke:#bb8bff;stroke-linejoin:miter;stroke-width:1.5;"/>
   </g>
   <g id="patch_42">
    <path clip-path="url(#p95d89dc48b)" d="M 577.15554 957.012272 
C 578.33078 957.012272 579.458044 956.545345 580.289064 955.714324 
C 581.120085 954.883304 581.587012 953.75604 581.587012 952.5808 
C 581.587012 951.40556 581.120085 950.278296 580.289064 949.447276 
C 579.458044 948.616255 578.33078 948.149327 577.15554 948.149327 
C 575.9803 948.149327 574.853036 948.616255 574.022016 949.447276 
C 573.190995 950.278296 572.724067 951.40556 572.724067 952.5808 
C 572.724067 953.75604 573.190995 954.883304 574.022016 955.714324 
C 574.853036 956.545345 575.9803 957.012272 577.15554 957.012272 
z
" style="fill:#bb8bff;stroke:#bb8bff;stroke-linejoin:miter;stroke-width:1.5;"/>
   </g>
   <g id="patch_43">
    <path clip-path="url(#p95d89dc48b)" d="M 503.297665 1285.509375 
L 651.013415 1285.509375 
L 651.013415 1119.613225 
L 503.297665 1119.613225 
z
" style="fill:#bb8bff;stroke:#bb8bff;stroke-linejoin:miter;stroke-width:1.5;"/>
   </g>
   <g id="patch_44">
    <path clip-path="url(#p95d89dc48b)" d="M 685.101665 1103.705375 
L 832.817415 1103.705375 
L 832.817415 937.809225 
L 685.101665 937.809225 
z
" style="fill:#bb8bff;stroke:#bb8bff;stroke-linejoin:miter;stroke-width:1.5;"/>
   </g>
   <g id="patch_45">
    <path clip-path="url(#p95d89dc48b)" d="M 857.815465 967.352375 
L 887.358615 967.352375 
L 887.358615 937.809225 
L 857.815465 937.809225 
z
"/>
   </g>
   <g id="patch_46">
    <path clip-path="url(#p95d89dc48b)" d="M 882.927142 957.012272 
C 882.927142 954.270959 881.836998 951.639118 879.898597 949.700716 
C 877.960195 947.762314 875.328354 946.67217 872.58704 946.67217 
C 869.845726 946.67217 867.213885 947.762314 865.275483 949.700716 
C 863.337082 951.639118 862.246937 954.270959 862.246937 957.012272 
" style="fill:none;stroke:#ffffff;stroke-linejoin:miter;stroke-width:2;"/>
   </g>
   <g id="patch_47">
    <path clip-path="url(#p95d89dc48b)" d="M 903.266465 1012.803375 
L 932.809615 1012.803375 
L 932.809615 983.260225 
L 903.266465 983.260225 
z
"/>
   </g>
   <g id="patch_48">
    <path clip-path="url(#p95d89dc48b)" d="M 928.378142 1002.463272 
C 928.378142 999.721959 927.287998 997.090118 925.349597 995.151716 
C 923.411195 993.213314 920.779354 992.12317 918.03804 992.12317 
C 915.296726 992.12317 912.664885 993.213314 910.726483 995.151716 
C 908.788082 997.090118 907.697937 999.721959 907.697937 1002.463272 
" style="fill:none;stroke:#ffffff;stroke-linejoin:miter;stroke-width:2;"/>
   </g>
   <g id="patch_49">
    <path clip-path="url(#p95d89dc48b)" d="M 948.717465 1058.254375 
L 978.260615 1058.254375 
L 978.260615 1028.711225 
L 948.717465 1028.711225 
z
"/>
   </g>
   <g id="patch_50">
    <path clip-path="url(#p95d89dc48b)" d="M 973.829142 1047.914272 
C 973.829142 1045.172959 972.738998 1042.541118 970.800597 1040.602716 
C 968.862195 1038.664314 966.230354 1037.57417 963.48904 1037.57417 
C 960.747726 1037.57417 958.115885 1038.664314 956.177483 1040.602716 
C 954.239082 1042.541118 953.148937 1045.172959 953.148937 1047.914272 
" style="fill:none;stroke:#ffffff;stroke-linejoin:miter;stroke-width:2;"/>
   </g>
   <g id="patch_51">
    <path clip-path="url(#p95d89dc48b)" d="M 994.168465 1103.705375 
L 1023.711615 1103.705375 
L 1023.711615 1074.162225 
L 994.168465 1074.162225 
z
"/>
   </g>
   <g id="patch_52">
    <path clip-path="url(#p95d89dc48b)" d="M 1019.280142 1093.365272 
C 1019.280142 1090.623959 1018.189998 1087.992118 1016.251597 1086.053716 
C 1014.313195 1084.115314 1011.681354 1083.02517 1008.94004 1083.02517 
C 1006.198726 1083.02517 1003.566885 1084.115314 1001.628483 1086.053716 
C 999.690082 1087.992118 998.599937 1090.623959 998.599937 1093.365272 
" style="fill:none;stroke:#ffffff;stroke-linejoin:miter;stroke-width:2;"/>
   </g>
   <g id="line2d_65">
    <path clip-path="url(#p95d89dc48b)" d="M 872.58704 957.012272 
L 882.927142 946.67217 
" style="fill:none;stroke:#ffffff;stroke-linecap:square;stroke-width:2;"/>
   </g>
   <g id="line2d_66">
    <path clip-path="url(#p95d89dc48b)" d="M 918.03804 1002.463272 
L 928.378142 992.12317 
" style="fill:none;stroke:#ffffff;stroke-linecap:square;stroke-width:2;"/>
   </g>
   <g id="line2d_67">
    <path clip-path="url(#p95d89dc48b)" d="M 963.48904 1047.914272 
L 973.829142 1037.57417 
" style="fill:none;stroke:#ffffff;stroke-linecap:square;stroke-width:2;"/>
   </g>
   <g id="line2d_68">
    <path clip-path="url(#p95d89dc48b)" d="M 1008.94004 1093.365272 
L 1019.280142 1083.02517 
" style="fill:none;stroke:#ffffff;stroke-linecap:square;stroke-width:2;"/>
   </g>
   <g id="text_1">
    <g clip-path="url(#p95d89dc48b)">
     <!-- $H$ -->
     <defs>
      <path d="M 16.890625 72.90625 
L 26.8125 72.90625 
L 21 43.015625 
L 56.78125 43.015625 
L 62.59375 72.90625 
L 72.515625 72.90625 
L 58.296875 0 
L 48.390625 0 
L 55.171875 34.71875 
L 19.390625 34.71875 
L 12.59375 0 
L 2.6875 0 
z
" id="DejaVuSans-Oblique-72"/>
     </defs>
     <g transform="translate(140.43104 47.147987)scale(0.13 -0.13)">
      <use transform="translate(0 0.09375)" xlink:href="#DejaVuSans-Oblique-72"/>
     </g>
    </g>
   </g>
   <g id="text_2">
    <g clip-path="url(#p95d89dc48b)">
     <!-- $H$ -->
     <g transform="translate(140.43104 92.598988)scale(0.13 -0.13)">
      <use transform="translate(0 0.09375)" xlink:href="#DejaVuSans-Oblique-72"/>
     </g>
    </g>
   </g>
   <g id="text_3">
    <g clip-path="url(#p95d89dc48b)">
     <!-- $H$ -->
     <g transform="translate(140.43104 138.049988)scale(0.13 -0.13)">
      <use transform="translate(0 0.09375)" xlink:href="#DejaVuSans-Oblique-72"/>
     </g>
    </g>
   </g>
   <g id="text_4">
    <g clip-path="url(#p95d89dc48b)">
     <!-- $H$ -->
     <g transform="translate(140.43104 183.500988)scale(0.13 -0.13)">
      <use transform="translate(0 0.09375)" xlink:href="#DejaVuSans-Oblique-72"/>
     </g>
    </g>
   </g>
   <g id="text_5">
    <g clip-path="url(#p95d89dc48b)">
     <!-- $H$ -->
     <g transform="translate(140.43104 228.951987)scale(0.13 -0.13)">
      <use transform="translate(0 0.09375)" xlink:href="#DejaVuSans-Oblique-72"/>
     </g>
    </g>
   </g>
   <g id="text_6">
    <g clip-path="url(#p95d89dc48b)">
     <!-- $H$ -->
     <g transform="translate(140.43104 274.402987)scale(0.13 -0.13)">
      <use transform="translate(0 0.09375)" xlink:href="#DejaVuSans-Oblique-72"/>
     </g>
    </g>
   </g>
   <g id="text_7">
    <g clip-path="url(#p95d89dc48b)">
     <!-- $H$ -->
     <g transform="translate(140.43104 319.853987)scale(0.13 -0.13)">
      <use transform="translate(0 0.09375)" xlink:href="#DejaVuSans-Oblique-72"/>
     </g>
    </g>
   </g>
   <g id="text_8">
    <g clip-path="url(#p95d89dc48b)">
     <!-- $H$ -->
     <g transform="translate(140.43104 365.304987)scale(0.13 -0.13)">
      <use transform="translate(0 0.09375)" xlink:href="#DejaVuSans-Oblique-72"/>
     </g>
    </g>
   </g>
   <g id="text_9">
    <g clip-path="url(#p95d89dc48b)">
     <!-- 0 -->
     <defs>
      <path d="M 31.78125 66.40625 
Q 24.171875 66.40625 20.328125 58.90625 
Q 16.5 51.421875 16.5 36.375 
Q 16.5 21.390625 20.328125 13.890625 
Q 24.171875 6.390625 31.78125 6.390625 
Q 39.453125 6.390625 43.28125 13.890625 
Q 47.125 21.390625 47.125 36.375 
Q 47.125 51.421875 43.28125 58.90625 
Q 39.453125 66.40625 31.78125 66.40625 
z
M 31.78125 74.21875 
Q 44.046875 74.21875 50.515625 64.515625 
Q 56.984375 54.828125 56.984375 36.375 
Q 56.984375 17.96875 50.515625 8.265625 
Q 44.046875 -1.421875 31.78125 -1.421875 
Q 19.53125 -1.421875 13.0625 8.265625 
Q 6.59375 17.96875 6.59375 36.375 
Q 6.59375 54.828125 13.0625 64.515625 
Q 19.53125 74.21875 31.78125 74.21875 
z
" id="DejaVuSans-48"/>
     </defs>
     <g transform="translate(192.526452 228.951987)scale(0.13 -0.13)">
      <use xlink:href="#DejaVuSans-48"/>
     </g>
    </g>
   </g>
   <g id="text_10">
    <g clip-path="url(#p95d89dc48b)">
     <!-- 1 -->
     <defs>
      <path d="M 12.40625 8.296875 
L 28.515625 8.296875 
L 28.515625 63.921875 
L 10.984375 60.40625 
L 10.984375 69.390625 
L 28.421875 72.90625 
L 38.28125 72.90625 
L 38.28125 8.296875 
L 54.390625 8.296875 
L 54.390625 0 
L 12.40625 0 
z
" id="DejaVuSans-49"/>
     </defs>
     <g transform="translate(192.526452 274.402987)scale(0.13 -0.13)">
      <use xlink:href="#DejaVuSans-49"/>
     </g>
    </g>
   </g>
   <g id="text_11">
    <g clip-path="url(#p95d89dc48b)">
     <!-- 2 -->
     <defs>
      <path d="M 19.1875 8.296875 
L 53.609375 8.296875 
L 53.609375 0 
L 7.328125 0 
L 7.328125 8.296875 
Q 12.9375 14.109375 22.625 23.890625 
Q 32.328125 33.6875 34.8125 36.53125 
Q 39.546875 41.84375 41.421875 45.53125 
Q 43.3125 49.21875 43.3125 52.78125 
Q 43.3125 58.59375 39.234375 62.25 
Q 35.15625 65.921875 28.609375 65.921875 
Q 23.96875 65.921875 18.8125 64.3125 
Q 13.671875 62.703125 7.8125 59.421875 
L 7.8125 69.390625 
Q 13.765625 71.78125 18.9375 73 
Q 24.125 74.21875 28.421875 74.21875 
Q 39.75 74.21875 46.484375 68.546875 
Q 53.21875 62.890625 53.21875 53.421875 
Q 53.21875 48.921875 51.53125 44.890625 
Q 49.859375 40.875 45.40625 35.40625 
Q 44.1875 33.984375 37.640625 27.21875 
Q 31.109375 20.453125 19.1875 8.296875 
z
" id="DejaVuSans-50"/>
     </defs>
     <g transform="translate(192.526452 319.853987)scale(0.13 -0.13)">
      <use xlink:href="#DejaVuSans-50"/>
     </g>
    </g>
   </g>
   <g id="text_12">
    <g clip-path="url(#p95d89dc48b)">
     <!-- 3 -->
     <defs>
      <path d="M 40.578125 39.3125 
Q 47.65625 37.796875 51.625 33 
Q 55.609375 28.21875 55.609375 21.1875 
Q 55.609375 10.40625 48.1875 4.484375 
Q 40.765625 -1.421875 27.09375 -1.421875 
Q 22.515625 -1.421875 17.65625 -0.515625 
Q 12.796875 0.390625 7.625 2.203125 
L 7.625 11.71875 
Q 11.71875 9.328125 16.59375 8.109375 
Q 21.484375 6.890625 26.8125 6.890625 
Q 36.078125 6.890625 40.9375 10.546875 
Q 45.796875 14.203125 45.796875 21.1875 
Q 45.796875 27.640625 41.28125 31.265625 
Q 36.765625 34.90625 28.71875 34.90625 
L 20.21875 34.90625 
L 20.21875 43.015625 
L 29.109375 43.015625 
Q 36.375 43.015625 40.234375 45.921875 
Q 44.09375 48.828125 44.09375 54.296875 
Q 44.09375 59.90625 40.109375 62.90625 
Q 36.140625 65.921875 28.71875 65.921875 
Q 24.65625 65.921875 20.015625 65.03125 
Q 15.375 64.15625 9.8125 62.3125 
L 9.8125 71.09375 
Q 15.4375 72.65625 20.34375 73.4375 
Q 25.25 74.21875 29.59375 74.21875 
Q 40.828125 74.21875 47.359375 69.109375 
Q 53.90625 64.015625 53.90625 55.328125 
Q 53.90625 49.265625 50.4375 45.09375 
Q 46.96875 40.921875 40.578125 39.3125 
z
" id="DejaVuSans-51"/>
     </defs>
     <g transform="translate(192.526452 365.304987)scale(0.13 -0.13)">
      <use xlink:href="#DejaVuSans-51"/>
     </g>
    </g>
   </g>
   <g id="text_13">
    <g clip-path="url(#p95d89dc48b)">
     <!-- circuit1 -->
     <defs>
      <path d="M 48.78125 52.59375 
L 48.78125 44.1875 
Q 44.96875 46.296875 41.140625 47.34375 
Q 37.3125 48.390625 33.40625 48.390625 
Q 24.65625 48.390625 19.8125 42.84375 
Q 14.984375 37.3125 14.984375 27.296875 
Q 14.984375 17.28125 19.8125 11.734375 
Q 24.65625 6.203125 33.40625 6.203125 
Q 37.3125 6.203125 41.140625 7.25 
Q 44.96875 8.296875 48.78125 10.40625 
L 48.78125 2.09375 
Q 45.015625 0.34375 40.984375 -0.53125 
Q 36.96875 -1.421875 32.421875 -1.421875 
Q 20.0625 -1.421875 12.78125 6.34375 
Q 5.515625 14.109375 5.515625 27.296875 
Q 5.515625 40.671875 12.859375 48.328125 
Q 20.21875 56 33.015625 56 
Q 37.15625 56 41.109375 55.140625 
Q 45.0625 54.296875 48.78125 52.59375 
z
" id="DejaVuSans-99"/>
      <path d="M 9.421875 54.6875 
L 18.40625 54.6875 
L 18.40625 0 
L 9.421875 0 
z
M 9.421875 75.984375 
L 18.40625 75.984375 
L 18.40625 64.59375 
L 9.421875 64.59375 
z
" id="DejaVuSans-105"/>
      <path d="M 41.109375 46.296875 
Q 39.59375 47.171875 37.8125 47.578125 
Q 36.03125 48 33.890625 48 
Q 26.265625 48 22.1875 43.046875 
Q 18.109375 38.09375 18.109375 28.8125 
L 18.109375 0 
L 9.078125 0 
L 9.078125 54.6875 
L 18.109375 54.6875 
L 18.109375 46.1875 
Q 20.953125 51.171875 25.484375 53.578125 
Q 30.03125 56 36.53125 56 
Q 37.453125 56 38.578125 55.875 
Q 39.703125 55.765625 41.0625 55.515625 
z
" id="DejaVuSans-114"/>
      <path d="M 8.5 21.578125 
L 8.5 54.6875 
L 17.484375 54.6875 
L 17.484375 21.921875 
Q 17.484375 14.15625 20.5 10.265625 
Q 23.53125 6.390625 29.59375 6.390625 
Q 36.859375 6.390625 41.078125 11.03125 
Q 45.3125 15.671875 45.3125 23.6875 
L 45.3125 54.6875 
L 54.296875 54.6875 
L 54.296875 0 
L 45.3125 0 
L 45.3125 8.40625 
Q 42.046875 3.421875 37.71875 1 
Q 33.40625 -1.421875 27.6875 -1.421875 
Q 18.265625 -1.421875 13.375 4.4375 
Q 8.5 10.296875 8.5 21.578125 
z
M 31.109375 56 
z
" id="DejaVuSans-117"/>
      <path d="M 18.3125 70.21875 
L 18.3125 54.6875 
L 36.8125 54.6875 
L 36.8125 47.703125 
L 18.3125 47.703125 
L 18.3125 18.015625 
Q 18.3125 11.328125 20.140625 9.421875 
Q 21.96875 7.515625 27.59375 7.515625 
L 36.8125 7.515625 
L 36.8125 0 
L 27.59375 0 
Q 17.1875 0 13.234375 3.875 
Q 9.28125 7.765625 9.28125 18.015625 
L 9.28125 47.703125 
L 2.6875 47.703125 
L 2.6875 54.6875 
L 9.28125 54.6875 
L 9.28125 70.21875 
z
" id="DejaVuSans-116"/>
     </defs>
     <g transform="translate(234.765727 297.128487)scale(0.13 -0.13)">
      <use xlink:href="#DejaVuSans-99"/>
      <use x="54.980469" xlink:href="#DejaVuSans-105"/>
      <use x="82.763672" xlink:href="#DejaVuSans-114"/>
      <use x="123.845703" xlink:href="#DejaVuSans-99"/>
      <use x="178.826172" xlink:href="#DejaVuSans-117"/>
      <use x="242.205078" xlink:href="#DejaVuSans-105"/>
      <use x="269.988281" xlink:href="#DejaVuSans-116"/>
      <use x="309.197266" xlink:href="#DejaVuSans-49"/>
     </g>
    </g>
   </g>
   <g id="text_14">
    <g clip-path="url(#p95d89dc48b)">
     <!-- 0 -->
     <g transform="translate(374.330452 228.951987)scale(0.13 -0.13)">
      <use xlink:href="#DejaVuSans-48"/>
     </g>
    </g>
   </g>
   <g id="text_15">
    <g clip-path="url(#p95d89dc48b)">
     <!-- 1 -->
     <g transform="translate(374.330452 274.402987)scale(0.13 -0.13)">
      <use xlink:href="#DejaVuSans-49"/>
     </g>
    </g>
   </g>
   <g id="text_16">
    <g clip-path="url(#p95d89dc48b)">
     <!-- 2 -->
     <g transform="translate(374.330452 319.853987)scale(0.13 -0.13)">
      <use xlink:href="#DejaVuSans-50"/>
     </g>
    </g>
   </g>
   <g id="text_17">
    <g clip-path="url(#p95d89dc48b)">
     <!-- 3 -->
     <g transform="translate(374.330452 365.304987)scale(0.13 -0.13)">
      <use xlink:href="#DejaVuSans-51"/>
     </g>
    </g>
   </g>
   <g id="text_18">
    <g clip-path="url(#p95d89dc48b)">
     <!-- circuit1 -->
     <g transform="translate(416.569727 297.128487)scale(0.13 -0.13)">
      <use xlink:href="#DejaVuSans-99"/>
      <use x="54.980469" xlink:href="#DejaVuSans-105"/>
      <use x="82.763672" xlink:href="#DejaVuSans-114"/>
      <use x="123.845703" xlink:href="#DejaVuSans-99"/>
      <use x="178.826172" xlink:href="#DejaVuSans-117"/>
      <use x="242.205078" xlink:href="#DejaVuSans-105"/>
      <use x="269.988281" xlink:href="#DejaVuSans-116"/>
      <use x="309.197266" xlink:href="#DejaVuSans-49"/>
     </g>
    </g>
   </g>
   <g id="text_19">
    <g clip-path="url(#p95d89dc48b)">
     <!-- 0 -->
     <g transform="translate(556.134452 228.951987)scale(0.13 -0.13)">
      <use xlink:href="#DejaVuSans-48"/>
     </g>
    </g>
   </g>
   <g id="text_20">
    <g clip-path="url(#p95d89dc48b)">
     <!-- 1 -->
     <g transform="translate(556.134452 274.402987)scale(0.13 -0.13)">
      <use xlink:href="#DejaVuSans-49"/>
     </g>
    </g>
   </g>
   <g id="text_21">
    <g clip-path="url(#p95d89dc48b)">
     <!-- 2 -->
     <g transform="translate(556.134452 319.853987)scale(0.13 -0.13)">
      <use xlink:href="#DejaVuSans-50"/>
     </g>
    </g>
   </g>
   <g id="text_22">
    <g clip-path="url(#p95d89dc48b)">
     <!-- 3 -->
     <g transform="translate(556.134452 365.304987)scale(0.13 -0.13)">
      <use xlink:href="#DejaVuSans-51"/>
     </g>
    </g>
   </g>
   <g id="text_23">
    <g clip-path="url(#p95d89dc48b)">
     <!-- circuit1 -->
     <g transform="translate(598.373727 297.128487)scale(0.13 -0.13)">
      <use xlink:href="#DejaVuSans-99"/>
      <use x="54.980469" xlink:href="#DejaVuSans-105"/>
      <use x="82.763672" xlink:href="#DejaVuSans-114"/>
      <use x="123.845703" xlink:href="#DejaVuSans-99"/>
      <use x="178.826172" xlink:href="#DejaVuSans-117"/>
      <use x="242.205078" xlink:href="#DejaVuSans-105"/>
      <use x="269.988281" xlink:href="#DejaVuSans-116"/>
      <use x="309.197266" xlink:href="#DejaVuSans-49"/>
     </g>
    </g>
   </g>
   <g id="text_24">
    <g clip-path="url(#p95d89dc48b)">
     <!-- 0 -->
     <g transform="translate(737.938452 228.951987)scale(0.13 -0.13)">
      <use xlink:href="#DejaVuSans-48"/>
     </g>
    </g>
   </g>
   <g id="text_25">
    <g clip-path="url(#p95d89dc48b)">
     <!-- 1 -->
     <g transform="translate(737.938452 274.402987)scale(0.13 -0.13)">
      <use xlink:href="#DejaVuSans-49"/>
     </g>
    </g>
   </g>
   <g id="text_26">
    <g clip-path="url(#p95d89dc48b)">
     <!-- 2 -->
     <g transform="translate(737.938452 319.853987)scale(0.13 -0.13)">
      <use xlink:href="#DejaVuSans-50"/>
     </g>
    </g>
   </g>
   <g id="text_27">
    <g clip-path="url(#p95d89dc48b)">
     <!-- 3 -->
     <g transform="translate(737.938452 365.304987)scale(0.13 -0.13)">
      <use xlink:href="#DejaVuSans-51"/>
     </g>
    </g>
   </g>
   <g id="text_28">
    <g clip-path="url(#p95d89dc48b)">
     <!-- circuit1 -->
     <g transform="translate(780.177727 297.128487)scale(0.13 -0.13)">
      <use xlink:href="#DejaVuSans-99"/>
      <use x="54.980469" xlink:href="#DejaVuSans-105"/>
      <use x="82.763672" xlink:href="#DejaVuSans-114"/>
      <use x="123.845703" xlink:href="#DejaVuSans-99"/>
      <use x="178.826172" xlink:href="#DejaVuSans-117"/>
      <use x="242.205078" xlink:href="#DejaVuSans-105"/>
      <use x="269.988281" xlink:href="#DejaVuSans-116"/>
      <use x="309.197266" xlink:href="#DejaVuSans-49"/>
     </g>
    </g>
   </g>
   <g id="text_29">
    <g clip-path="url(#p95d89dc48b)">
     <!-- 0 -->
     <g transform="translate(919.742452 228.951987)scale(0.13 -0.13)">
      <use xlink:href="#DejaVuSans-48"/>
     </g>
    </g>
   </g>
   <g id="text_30">
    <g clip-path="url(#p95d89dc48b)">
     <!-- 1 -->
     <g transform="translate(919.742452 274.402987)scale(0.13 -0.13)">
      <use xlink:href="#DejaVuSans-49"/>
     </g>
    </g>
   </g>
   <g id="text_31">
    <g clip-path="url(#p95d89dc48b)">
     <!-- 2 -->
     <g transform="translate(919.742452 319.853987)scale(0.13 -0.13)">
      <use xlink:href="#DejaVuSans-50"/>
     </g>
    </g>
   </g>
   <g id="text_32">
    <g clip-path="url(#p95d89dc48b)">
     <!-- 3 -->
     <g transform="translate(919.742452 365.304987)scale(0.13 -0.13)">
      <use xlink:href="#DejaVuSans-51"/>
     </g>
    </g>
   </g>
   <g id="text_33">
    <g clip-path="url(#p95d89dc48b)">
     <!-- circuit1 -->
     <g transform="translate(961.981727 297.128487)scale(0.13 -0.13)">
      <use xlink:href="#DejaVuSans-99"/>
      <use x="54.980469" xlink:href="#DejaVuSans-105"/>
      <use x="82.763672" xlink:href="#DejaVuSans-114"/>
      <use x="123.845703" xlink:href="#DejaVuSans-99"/>
      <use x="178.826172" xlink:href="#DejaVuSans-117"/>
      <use x="242.205078" xlink:href="#DejaVuSans-105"/>
      <use x="269.988281" xlink:href="#DejaVuSans-116"/>
      <use x="309.197266" xlink:href="#DejaVuSans-49"/>
     </g>
    </g>
   </g>
   <g id="text_34">
    <g clip-path="url(#p95d89dc48b)">
     <!-- 0 -->
     <g transform="translate(1101.546452 228.951987)scale(0.13 -0.13)">
      <use xlink:href="#DejaVuSans-48"/>
     </g>
    </g>
   </g>
   <g id="text_35">
    <g clip-path="url(#p95d89dc48b)">
     <!-- 1 -->
     <g transform="translate(1101.546452 274.402987)scale(0.13 -0.13)">
      <use xlink:href="#DejaVuSans-49"/>
     </g>
    </g>
   </g>
   <g id="text_36">
    <g clip-path="url(#p95d89dc48b)">
     <!-- 2 -->
     <g transform="translate(1101.546452 319.853987)scale(0.13 -0.13)">
      <use xlink:href="#DejaVuSans-50"/>
     </g>
    </g>
   </g>
   <g id="text_37">
    <g clip-path="url(#p95d89dc48b)">
     <!-- 3 -->
     <g transform="translate(1101.546452 365.304987)scale(0.13 -0.13)">
      <use xlink:href="#DejaVuSans-51"/>
     </g>
    </g>
   </g>
   <g id="text_38">
    <g clip-path="url(#p95d89dc48b)">
     <!-- circuit1 -->
     <g transform="translate(1143.785727 297.128487)scale(0.13 -0.13)">
      <use xlink:href="#DejaVuSans-99"/>
      <use x="54.980469" xlink:href="#DejaVuSans-105"/>
      <use x="82.763672" xlink:href="#DejaVuSans-114"/>
      <use x="123.845703" xlink:href="#DejaVuSans-99"/>
      <use x="178.826172" xlink:href="#DejaVuSans-117"/>
      <use x="242.205078" xlink:href="#DejaVuSans-105"/>
      <use x="269.988281" xlink:href="#DejaVuSans-116"/>
      <use x="309.197266" xlink:href="#DejaVuSans-49"/>
     </g>
    </g>
   </g>
   <g id="text_39">
    <g clip-path="url(#p95d89dc48b)">
     <!-- 0 -->
     <g transform="translate(147.075452 683.461987)scale(0.13 -0.13)">
      <use xlink:href="#DejaVuSans-48"/>
     </g>
    </g>
   </g>
   <g id="text_40">
    <g clip-path="url(#p95d89dc48b)">
     <!-- 1 -->
     <g transform="translate(147.075452 728.912987)scale(0.13 -0.13)">
      <use xlink:href="#DejaVuSans-49"/>
     </g>
    </g>
   </g>
   <g id="text_41">
    <g clip-path="url(#p95d89dc48b)">
     <!-- 2 -->
     <g transform="translate(147.075452 774.363987)scale(0.13 -0.13)">
      <use xlink:href="#DejaVuSans-50"/>
     </g>
    </g>
   </g>
   <g id="text_42">
    <g clip-path="url(#p95d89dc48b)">
     <!-- 3 -->
     <g transform="translate(147.075452 819.814987)scale(0.13 -0.13)">
      <use xlink:href="#DejaVuSans-51"/>
     </g>
    </g>
   </g>
   <g id="text_43">
    <g clip-path="url(#p95d89dc48b)">
     <!-- circuit1 -->
     <g transform="translate(189.314727 751.638487)scale(0.13 -0.13)">
      <use xlink:href="#DejaVuSans-99"/>
      <use x="54.980469" xlink:href="#DejaVuSans-105"/>
      <use x="82.763672" xlink:href="#DejaVuSans-114"/>
      <use x="123.845703" xlink:href="#DejaVuSans-99"/>
      <use x="178.826172" xlink:href="#DejaVuSans-117"/>
      <use x="242.205078" xlink:href="#DejaVuSans-105"/>
      <use x="269.988281" xlink:href="#DejaVuSans-116"/>
      <use x="309.197266" xlink:href="#DejaVuSans-49"/>
     </g>
    </g>
   </g>
   <g id="text_44">
    <g clip-path="url(#p95d89dc48b)">
     <!-- 0 -->
     <g transform="translate(328.879452 683.461987)scale(0.13 -0.13)">
      <use xlink:href="#DejaVuSans-48"/>
     </g>
    </g>
   </g>
   <g id="text_45">
    <g clip-path="url(#p95d89dc48b)">
     <!-- 1 -->
     <g transform="translate(328.879452 728.912987)scale(0.13 -0.13)">
      <use xlink:href="#DejaVuSans-49"/>
     </g>
    </g>
   </g>
   <g id="text_46">
    <g clip-path="url(#p95d89dc48b)">
     <!-- 2 -->
     <g transform="translate(328.879452 774.363987)scale(0.13 -0.13)">
      <use xlink:href="#DejaVuSans-50"/>
     </g>
    </g>
   </g>
   <g id="text_47">
    <g clip-path="url(#p95d89dc48b)">
     <!-- 3 -->
     <g transform="translate(328.879452 819.814987)scale(0.13 -0.13)">
      <use xlink:href="#DejaVuSans-51"/>
     </g>
    </g>
   </g>
   <g id="text_48">
    <g clip-path="url(#p95d89dc48b)">
     <!-- circuit1 -->
     <g transform="translate(371.118727 751.638487)scale(0.13 -0.13)">
      <use xlink:href="#DejaVuSans-99"/>
      <use x="54.980469" xlink:href="#DejaVuSans-105"/>
      <use x="82.763672" xlink:href="#DejaVuSans-114"/>
      <use x="123.845703" xlink:href="#DejaVuSans-99"/>
      <use x="178.826172" xlink:href="#DejaVuSans-117"/>
      <use x="242.205078" xlink:href="#DejaVuSans-105"/>
      <use x="269.988281" xlink:href="#DejaVuSans-116"/>
      <use x="309.197266" xlink:href="#DejaVuSans-49"/>
     </g>
    </g>
   </g>
   <g id="text_49">
    <g clip-path="url(#p95d89dc48b)">
     <!-- 0 -->
     <g transform="translate(510.683452 683.461987)scale(0.13 -0.13)">
      <use xlink:href="#DejaVuSans-48"/>
     </g>
    </g>
   </g>
   <g id="text_50">
    <g clip-path="url(#p95d89dc48b)">
     <!-- 1 -->
     <g transform="translate(510.683452 728.912987)scale(0.13 -0.13)">
      <use xlink:href="#DejaVuSans-49"/>
     </g>
    </g>
   </g>
   <g id="text_51">
    <g clip-path="url(#p95d89dc48b)">
     <!-- 2 -->
     <g transform="translate(510.683452 774.363987)scale(0.13 -0.13)">
      <use xlink:href="#DejaVuSans-50"/>
     </g>
    </g>
   </g>
   <g id="text_52">
    <g clip-path="url(#p95d89dc48b)">
     <!-- 3 -->
     <g transform="translate(510.683452 819.814987)scale(0.13 -0.13)">
      <use xlink:href="#DejaVuSans-51"/>
     </g>
    </g>
   </g>
   <g id="text_53">
    <g clip-path="url(#p95d89dc48b)">
     <!-- circuit1 -->
     <g transform="translate(552.922727 751.638487)scale(0.13 -0.13)">
      <use xlink:href="#DejaVuSans-99"/>
      <use x="54.980469" xlink:href="#DejaVuSans-105"/>
      <use x="82.763672" xlink:href="#DejaVuSans-114"/>
      <use x="123.845703" xlink:href="#DejaVuSans-99"/>
      <use x="178.826172" xlink:href="#DejaVuSans-117"/>
      <use x="242.205078" xlink:href="#DejaVuSans-105"/>
      <use x="269.988281" xlink:href="#DejaVuSans-116"/>
      <use x="309.197266" xlink:href="#DejaVuSans-49"/>
     </g>
    </g>
   </g>
   <g id="text_54">
    <g clip-path="url(#p95d89dc48b)">
     <!-- 0 -->
     <g transform="translate(692.487452 683.461987)scale(0.13 -0.13)">
      <use xlink:href="#DejaVuSans-48"/>
     </g>
    </g>
   </g>
   <g id="text_55">
    <g clip-path="url(#p95d89dc48b)">
     <!-- 1 -->
     <g transform="translate(692.487452 728.912987)scale(0.13 -0.13)">
      <use xlink:href="#DejaVuSans-49"/>
     </g>
    </g>
   </g>
   <g id="text_56">
    <g clip-path="url(#p95d89dc48b)">
     <!-- 2 -->
     <g transform="translate(692.487452 774.363987)scale(0.13 -0.13)">
      <use xlink:href="#DejaVuSans-50"/>
     </g>
    </g>
   </g>
   <g id="text_57">
    <g clip-path="url(#p95d89dc48b)">
     <!-- 3 -->
     <g transform="translate(692.487452 819.814987)scale(0.13 -0.13)">
      <use xlink:href="#DejaVuSans-51"/>
     </g>
    </g>
   </g>
   <g id="text_58">
    <g clip-path="url(#p95d89dc48b)">
     <!-- circuit1 -->
     <g transform="translate(734.726727 751.638487)scale(0.13 -0.13)">
      <use xlink:href="#DejaVuSans-99"/>
      <use x="54.980469" xlink:href="#DejaVuSans-105"/>
      <use x="82.763672" xlink:href="#DejaVuSans-114"/>
      <use x="123.845703" xlink:href="#DejaVuSans-99"/>
      <use x="178.826172" xlink:href="#DejaVuSans-117"/>
      <use x="242.205078" xlink:href="#DejaVuSans-105"/>
      <use x="269.988281" xlink:href="#DejaVuSans-116"/>
      <use x="309.197266" xlink:href="#DejaVuSans-49"/>
     </g>
    </g>
   </g>
   <g id="text_59">
    <g clip-path="url(#p95d89dc48b)">
     <!-- 0 -->
     <g transform="translate(874.291452 683.461987)scale(0.13 -0.13)">
      <use xlink:href="#DejaVuSans-48"/>
     </g>
    </g>
   </g>
   <g id="text_60">
    <g clip-path="url(#p95d89dc48b)">
     <!-- 1 -->
     <g transform="translate(874.291452 728.912987)scale(0.13 -0.13)">
      <use xlink:href="#DejaVuSans-49"/>
     </g>
    </g>
   </g>
   <g id="text_61">
    <g clip-path="url(#p95d89dc48b)">
     <!-- 2 -->
     <g transform="translate(874.291452 774.363987)scale(0.13 -0.13)">
      <use xlink:href="#DejaVuSans-50"/>
     </g>
    </g>
   </g>
   <g id="text_62">
    <g clip-path="url(#p95d89dc48b)">
     <!-- 3 -->
     <g transform="translate(874.291452 819.814987)scale(0.13 -0.13)">
      <use xlink:href="#DejaVuSans-51"/>
     </g>
    </g>
   </g>
   <g id="text_63">
    <g clip-path="url(#p95d89dc48b)">
     <!-- circuit1 -->
     <g transform="translate(916.530727 751.638487)scale(0.13 -0.13)">
      <use xlink:href="#DejaVuSans-99"/>
      <use x="54.980469" xlink:href="#DejaVuSans-105"/>
      <use x="82.763672" xlink:href="#DejaVuSans-114"/>
      <use x="123.845703" xlink:href="#DejaVuSans-99"/>
      <use x="178.826172" xlink:href="#DejaVuSans-117"/>
      <use x="242.205078" xlink:href="#DejaVuSans-105"/>
      <use x="269.988281" xlink:href="#DejaVuSans-116"/>
      <use x="309.197266" xlink:href="#DejaVuSans-49"/>
     </g>
    </g>
   </g>
   <g id="text_64">
    <g clip-path="url(#p95d89dc48b)">
     <!-- 0 -->
     <g transform="translate(1056.095452 683.461987)scale(0.13 -0.13)">
      <use xlink:href="#DejaVuSans-48"/>
     </g>
    </g>
   </g>
   <g id="text_65">
    <g clip-path="url(#p95d89dc48b)">
     <!-- 1 -->
     <g transform="translate(1056.095452 728.912987)scale(0.13 -0.13)">
      <use xlink:href="#DejaVuSans-49"/>
     </g>
    </g>
   </g>
   <g id="text_66">
    <g clip-path="url(#p95d89dc48b)">
     <!-- 2 -->
     <g transform="translate(1056.095452 774.363987)scale(0.13 -0.13)">
      <use xlink:href="#DejaVuSans-50"/>
     </g>
    </g>
   </g>
   <g id="text_67">
    <g clip-path="url(#p95d89dc48b)">
     <!-- 3 -->
     <g transform="translate(1056.095452 819.814987)scale(0.13 -0.13)">
      <use xlink:href="#DejaVuSans-51"/>
     </g>
    </g>
   </g>
   <g id="text_68">
    <g clip-path="url(#p95d89dc48b)">
     <!-- circuit1 -->
     <g transform="translate(1098.334727 751.638487)scale(0.13 -0.13)">
      <use xlink:href="#DejaVuSans-99"/>
      <use x="54.980469" xlink:href="#DejaVuSans-105"/>
      <use x="82.763672" xlink:href="#DejaVuSans-114"/>
      <use x="123.845703" xlink:href="#DejaVuSans-99"/>
      <use x="178.826172" xlink:href="#DejaVuSans-117"/>
      <use x="242.205078" xlink:href="#DejaVuSans-105"/>
      <use x="269.988281" xlink:href="#DejaVuSans-116"/>
      <use x="309.197266" xlink:href="#DejaVuSans-49"/>
     </g>
    </g>
   </g>
   <g id="text_69">
    <g clip-path="url(#p95d89dc48b)">
     <!-- 0 -->
     <g transform="translate(147.075452 1137.971987)scale(0.13 -0.13)">
      <use xlink:href="#DejaVuSans-48"/>
     </g>
    </g>
   </g>
   <g id="text_70">
    <g clip-path="url(#p95d89dc48b)">
     <!-- 1 -->
     <g transform="translate(147.075452 1183.422987)scale(0.13 -0.13)">
      <use xlink:href="#DejaVuSans-49"/>
     </g>
    </g>
   </g>
   <g id="text_71">
    <g clip-path="url(#p95d89dc48b)">
     <!-- 2 -->
     <g transform="translate(147.075452 1228.873987)scale(0.13 -0.13)">
      <use xlink:href="#DejaVuSans-50"/>
     </g>
    </g>
   </g>
   <g id="text_72">
    <g clip-path="url(#p95d89dc48b)">
     <!-- 3 -->
     <g transform="translate(147.075452 1274.324987)scale(0.13 -0.13)">
      <use xlink:href="#DejaVuSans-51"/>
     </g>
    </g>
   </g>
   <g id="text_73">
    <g clip-path="url(#p95d89dc48b)">
     <!-- circuit1 -->
     <g transform="translate(189.314727 1206.148487)scale(0.13 -0.13)">
      <use xlink:href="#DejaVuSans-99"/>
      <use x="54.980469" xlink:href="#DejaVuSans-105"/>
      <use x="82.763672" xlink:href="#DejaVuSans-114"/>
      <use x="123.845703" xlink:href="#DejaVuSans-99"/>
      <use x="178.826172" xlink:href="#DejaVuSans-117"/>
      <use x="242.205078" xlink:href="#DejaVuSans-105"/>
      <use x="269.988281" xlink:href="#DejaVuSans-116"/>
      <use x="309.197266" xlink:href="#DejaVuSans-49"/>
     </g>
    </g>
   </g>
   <g id="text_74">
    <g clip-path="url(#p95d89dc48b)">
     <!-- 0 -->
     <g transform="translate(328.879452 1137.971987)scale(0.13 -0.13)">
      <use xlink:href="#DejaVuSans-48"/>
     </g>
    </g>
   </g>
   <g id="text_75">
    <g clip-path="url(#p95d89dc48b)">
     <!-- 1 -->
     <g transform="translate(328.879452 1183.422987)scale(0.13 -0.13)">
      <use xlink:href="#DejaVuSans-49"/>
     </g>
    </g>
   </g>
   <g id="text_76">
    <g clip-path="url(#p95d89dc48b)">
     <!-- 2 -->
     <g transform="translate(328.879452 1228.873987)scale(0.13 -0.13)">
      <use xlink:href="#DejaVuSans-50"/>
     </g>
    </g>
   </g>
   <g id="text_77">
    <g clip-path="url(#p95d89dc48b)">
     <!-- 3 -->
     <g transform="translate(328.879452 1274.324987)scale(0.13 -0.13)">
      <use xlink:href="#DejaVuSans-51"/>
     </g>
    </g>
   </g>
   <g id="text_78">
    <g clip-path="url(#p95d89dc48b)">
     <!-- circuit1 -->
     <g transform="translate(371.118727 1206.148487)scale(0.13 -0.13)">
      <use xlink:href="#DejaVuSans-99"/>
      <use x="54.980469" xlink:href="#DejaVuSans-105"/>
      <use x="82.763672" xlink:href="#DejaVuSans-114"/>
      <use x="123.845703" xlink:href="#DejaVuSans-99"/>
      <use x="178.826172" xlink:href="#DejaVuSans-117"/>
      <use x="242.205078" xlink:href="#DejaVuSans-105"/>
      <use x="269.988281" xlink:href="#DejaVuSans-116"/>
      <use x="309.197266" xlink:href="#DejaVuSans-49"/>
     </g>
    </g>
   </g>
   <g id="text_79">
    <g clip-path="url(#p95d89dc48b)">
     <!-- 0 -->
     <g transform="translate(510.683452 1137.971987)scale(0.13 -0.13)">
      <use xlink:href="#DejaVuSans-48"/>
     </g>
    </g>
   </g>
   <g id="text_80">
    <g clip-path="url(#p95d89dc48b)">
     <!-- 1 -->
     <g transform="translate(510.683452 1183.422987)scale(0.13 -0.13)">
      <use xlink:href="#DejaVuSans-49"/>
     </g>
    </g>
   </g>
   <g id="text_81">
    <g clip-path="url(#p95d89dc48b)">
     <!-- 2 -->
     <g transform="translate(510.683452 1228.873987)scale(0.13 -0.13)">
      <use xlink:href="#DejaVuSans-50"/>
     </g>
    </g>
   </g>
   <g id="text_82">
    <g clip-path="url(#p95d89dc48b)">
     <!-- 3 -->
     <g transform="translate(510.683452 1274.324987)scale(0.13 -0.13)">
      <use xlink:href="#DejaVuSans-51"/>
     </g>
    </g>
   </g>
   <g id="text_83">
    <g clip-path="url(#p95d89dc48b)">
     <!-- circuit1 -->
     <g transform="translate(552.922727 1206.148487)scale(0.13 -0.13)">
      <use xlink:href="#DejaVuSans-99"/>
      <use x="54.980469" xlink:href="#DejaVuSans-105"/>
      <use x="82.763672" xlink:href="#DejaVuSans-114"/>
      <use x="123.845703" xlink:href="#DejaVuSans-99"/>
      <use x="178.826172" xlink:href="#DejaVuSans-117"/>
      <use x="242.205078" xlink:href="#DejaVuSans-105"/>
      <use x="269.988281" xlink:href="#DejaVuSans-116"/>
      <use x="309.197266" xlink:href="#DejaVuSans-49"/>
     </g>
    </g>
   </g>
   <g id="text_84">
    <g clip-path="url(#p95d89dc48b)">
     <!-- 0 -->
     <g transform="translate(692.487452 956.167987)scale(0.13 -0.13)">
      <use xlink:href="#DejaVuSans-48"/>
     </g>
    </g>
   </g>
   <g id="text_85">
    <g clip-path="url(#p95d89dc48b)">
     <!-- 1 -->
     <g transform="translate(692.487452 1001.618987)scale(0.13 -0.13)">
      <use xlink:href="#DejaVuSans-49"/>
     </g>
    </g>
   </g>
   <g id="text_86">
    <g clip-path="url(#p95d89dc48b)">
     <!-- 2 -->
     <g transform="translate(692.487452 1047.069987)scale(0.13 -0.13)">
      <use xlink:href="#DejaVuSans-50"/>
     </g>
    </g>
   </g>
   <g id="text_87">
    <g clip-path="url(#p95d89dc48b)">
     <!-- 3 -->
     <g transform="translate(692.487452 1092.520987)scale(0.13 -0.13)">
      <use xlink:href="#DejaVuSans-51"/>
     </g>
    </g>
   </g>
   <g id="text_88">
    <g clip-path="url(#p95d89dc48b)">
     <!-- circuit5_dg -->
     <defs>
      <path d="M 10.796875 72.90625 
L 49.515625 72.90625 
L 49.515625 64.59375 
L 19.828125 64.59375 
L 19.828125 46.734375 
Q 21.96875 47.46875 24.109375 47.828125 
Q 26.265625 48.1875 28.421875 48.1875 
Q 40.625 48.1875 47.75 41.5 
Q 54.890625 34.8125 54.890625 23.390625 
Q 54.890625 11.625 47.5625 5.09375 
Q 40.234375 -1.421875 26.90625 -1.421875 
Q 22.3125 -1.421875 17.546875 -0.640625 
Q 12.796875 0.140625 7.71875 1.703125 
L 7.71875 11.625 
Q 12.109375 9.234375 16.796875 8.0625 
Q 21.484375 6.890625 26.703125 6.890625 
Q 35.15625 6.890625 40.078125 11.328125 
Q 45.015625 15.765625 45.015625 23.390625 
Q 45.015625 31 40.078125 35.4375 
Q 35.15625 39.890625 26.703125 39.890625 
Q 22.75 39.890625 18.8125 39.015625 
Q 14.890625 38.140625 10.796875 36.28125 
z
" id="DejaVuSans-53"/>
      <path d="M 50.984375 -16.609375 
L 50.984375 -23.578125 
L -0.984375 -23.578125 
L -0.984375 -16.609375 
z
" id="DejaVuSans-95"/>
      <path d="M 45.40625 46.390625 
L 45.40625 75.984375 
L 54.390625 75.984375 
L 54.390625 0 
L 45.40625 0 
L 45.40625 8.203125 
Q 42.578125 3.328125 38.25 0.953125 
Q 33.9375 -1.421875 27.875 -1.421875 
Q 17.96875 -1.421875 11.734375 6.484375 
Q 5.515625 14.40625 5.515625 27.296875 
Q 5.515625 40.1875 11.734375 48.09375 
Q 17.96875 56 27.875 56 
Q 33.9375 56 38.25 53.625 
Q 42.578125 51.265625 45.40625 46.390625 
z
M 14.796875 27.296875 
Q 14.796875 17.390625 18.875 11.75 
Q 22.953125 6.109375 30.078125 6.109375 
Q 37.203125 6.109375 41.296875 11.75 
Q 45.40625 17.390625 45.40625 27.296875 
Q 45.40625 37.203125 41.296875 42.84375 
Q 37.203125 48.484375 30.078125 48.484375 
Q 22.953125 48.484375 18.875 42.84375 
Q 14.796875 37.203125 14.796875 27.296875 
z
" id="DejaVuSans-100"/>
      <path d="M 45.40625 27.984375 
Q 45.40625 37.75 41.375 43.109375 
Q 37.359375 48.484375 30.078125 48.484375 
Q 22.859375 48.484375 18.828125 43.109375 
Q 14.796875 37.75 14.796875 27.984375 
Q 14.796875 18.265625 18.828125 12.890625 
Q 22.859375 7.515625 30.078125 7.515625 
Q 37.359375 7.515625 41.375 12.890625 
Q 45.40625 18.265625 45.40625 27.984375 
z
M 54.390625 6.78125 
Q 54.390625 -7.171875 48.1875 -13.984375 
Q 42 -20.796875 29.203125 -20.796875 
Q 24.46875 -20.796875 20.265625 -20.09375 
Q 16.0625 -19.390625 12.109375 -17.921875 
L 12.109375 -9.1875 
Q 16.0625 -11.328125 19.921875 -12.34375 
Q 23.78125 -13.375 27.78125 -13.375 
Q 36.625 -13.375 41.015625 -8.765625 
Q 45.40625 -4.15625 45.40625 5.171875 
L 45.40625 9.625 
Q 42.625 4.78125 38.28125 2.390625 
Q 33.9375 0 27.875 0 
Q 17.828125 0 11.671875 7.65625 
Q 5.515625 15.328125 5.515625 27.984375 
Q 5.515625 40.671875 11.671875 48.328125 
Q 17.828125 56 27.875 56 
Q 33.9375 56 38.28125 53.609375 
Q 42.625 51.21875 45.40625 46.390625 
L 45.40625 54.6875 
L 54.390625 54.6875 
z
" id="DejaVuSans-103"/>
     </defs>
     <g transform="translate(723.223759 1024.163706)scale(0.13 -0.13)">
      <use xlink:href="#DejaVuSans-99"/>
      <use x="54.980469" xlink:href="#DejaVuSans-105"/>
      <use x="82.763672" xlink:href="#DejaVuSans-114"/>
      <use x="123.845703" xlink:href="#DejaVuSans-99"/>
      <use x="178.826172" xlink:href="#DejaVuSans-117"/>
      <use x="242.205078" xlink:href="#DejaVuSans-105"/>
      <use x="269.988281" xlink:href="#DejaVuSans-116"/>
      <use x="309.197266" xlink:href="#DejaVuSans-53"/>
      <use x="372.820312" xlink:href="#DejaVuSans-95"/>
      <use x="422.820312" xlink:href="#DejaVuSans-100"/>
      <use x="486.296875" xlink:href="#DejaVuSans-103"/>
     </g>
    </g>
   </g>
   <g id="text_89">
    <g clip-path="url(#p95d89dc48b)">
     <!-- 0 -->
     <g transform="translate(883.94979 1309.480825)scale(0.104 -0.104)">
      <use xlink:href="#DejaVuSans-48"/>
     </g>
    </g>
   </g>
   <g id="text_90">
    <g clip-path="url(#p95d89dc48b)">
     <!-- 1 -->
     <g transform="translate(929.40079 1309.480825)scale(0.104 -0.104)">
      <use xlink:href="#DejaVuSans-49"/>
     </g>
    </g>
   </g>
   <g id="text_91">
    <g clip-path="url(#p95d89dc48b)">
     <!-- 2 -->
     <g transform="translate(974.85179 1309.480825)scale(0.104 -0.104)">
      <use xlink:href="#DejaVuSans-50"/>
     </g>
    </g>
   </g>
   <g id="text_92">
    <g clip-path="url(#p95d89dc48b)">
     <!-- 3 -->
     <g transform="translate(1020.30279 1309.480825)scale(0.104 -0.104)">
      <use xlink:href="#DejaVuSans-51"/>
     </g>
    </g>
   </g>
   <g id="text_93">
    <g clip-path="url(#p95d89dc48b)">
     <!-- ${q0}_{0}$ -->
     <defs>
      <path d="M 41.703125 8.203125 
Q 38.09375 3.46875 33.171875 1.015625 
Q 28.265625 -1.421875 22.3125 -1.421875 
Q 14.015625 -1.421875 9.296875 4.171875 
Q 4.59375 9.765625 4.59375 19.578125 
Q 4.59375 27.484375 7.5 34.859375 
Q 10.40625 42.234375 15.828125 48.09375 
Q 19.34375 51.90625 23.90625 53.953125 
Q 28.46875 56 33.5 56 
Q 39.546875 56 43.453125 53.609375 
Q 47.359375 51.21875 49.125 46.390625 
L 50.6875 54.59375 
L 59.71875 54.59375 
L 45.125 -20.609375 
L 36.078125 -20.609375 
z
M 13.921875 20.90625 
Q 13.921875 13.671875 16.9375 9.890625 
Q 19.96875 6.109375 25.6875 6.109375 
Q 34.1875 6.109375 40.1875 14.234375 
Q 46.1875 22.359375 46.1875 33.984375 
Q 46.1875 41.015625 43.078125 44.75 
Q 39.984375 48.484375 34.1875 48.484375 
Q 29.9375 48.484375 26.3125 46.5 
Q 22.703125 44.53125 20.015625 40.71875 
Q 17.1875 36.71875 15.546875 31.34375 
Q 13.921875 25.984375 13.921875 20.90625 
z
" id="DejaVuSans-Oblique-113"/>
     </defs>
     <g transform="translate(71.32004 48.011777)scale(0.1625 -0.1625)">
      <use transform="translate(0 0.78125)" xlink:href="#DejaVuSans-Oblique-113"/>
      <use transform="translate(63.476562 0.78125)" xlink:href="#DejaVuSans-48"/>
      <use transform="translate(128.056641 -15.625)scale(0.7)" xlink:href="#DejaVuSans-48"/>
     </g>
    </g>
   </g>
   <g id="text_94">
    <g clip-path="url(#p95d89dc48b)">
     <!-- ${q0}_{1}$ -->
     <g transform="translate(71.32004 93.462777)scale(0.1625 -0.1625)">
      <use transform="translate(0 0.78125)" xlink:href="#DejaVuSans-Oblique-113"/>
      <use transform="translate(63.476562 0.78125)" xlink:href="#DejaVuSans-48"/>
      <use transform="translate(128.056641 -15.625)scale(0.7)" xlink:href="#DejaVuSans-49"/>
     </g>
    </g>
   </g>
   <g id="text_95">
    <g clip-path="url(#p95d89dc48b)">
     <!-- ${q0}_{2}$ -->
     <g transform="translate(71.32004 138.913777)scale(0.1625 -0.1625)">
      <use transform="translate(0 0.78125)" xlink:href="#DejaVuSans-Oblique-113"/>
      <use transform="translate(63.476562 0.78125)" xlink:href="#DejaVuSans-48"/>
      <use transform="translate(128.056641 -15.625)scale(0.7)" xlink:href="#DejaVuSans-50"/>
     </g>
    </g>
   </g>
   <g id="text_96">
    <g clip-path="url(#p95d89dc48b)">
     <!-- ${q0}_{3}$ -->
     <g transform="translate(71.32004 184.364777)scale(0.1625 -0.1625)">
      <use transform="translate(0 0.78125)" xlink:href="#DejaVuSans-Oblique-113"/>
      <use transform="translate(63.476562 0.78125)" xlink:href="#DejaVuSans-48"/>
      <use transform="translate(128.056641 -15.625)scale(0.7)" xlink:href="#DejaVuSans-51"/>
     </g>
    </g>
   </g>
   <g id="text_97">
    <g clip-path="url(#p95d89dc48b)">
     <!-- ${q0}_{4}$ -->
     <defs>
      <path d="M 37.796875 64.3125 
L 12.890625 25.390625 
L 37.796875 25.390625 
z
M 35.203125 72.90625 
L 47.609375 72.90625 
L 47.609375 25.390625 
L 58.015625 25.390625 
L 58.015625 17.1875 
L 47.609375 17.1875 
L 47.609375 0 
L 37.796875 0 
L 37.796875 17.1875 
L 4.890625 17.1875 
L 4.890625 26.703125 
z
" id="DejaVuSans-52"/>
     </defs>
     <g transform="translate(71.32004 229.815777)scale(0.1625 -0.1625)">
      <use transform="translate(0 0.78125)" xlink:href="#DejaVuSans-Oblique-113"/>
      <use transform="translate(63.476562 0.78125)" xlink:href="#DejaVuSans-48"/>
      <use transform="translate(128.056641 -15.625)scale(0.7)" xlink:href="#DejaVuSans-52"/>
     </g>
    </g>
   </g>
   <g id="text_98">
    <g clip-path="url(#p95d89dc48b)">
     <!-- ${q0}_{5}$ -->
     <g transform="translate(71.32004 275.266777)scale(0.1625 -0.1625)">
      <use transform="translate(0 0.78125)" xlink:href="#DejaVuSans-Oblique-113"/>
      <use transform="translate(63.476562 0.78125)" xlink:href="#DejaVuSans-48"/>
      <use transform="translate(128.056641 -15.625)scale(0.7)" xlink:href="#DejaVuSans-53"/>
     </g>
    </g>
   </g>
   <g id="text_99">
    <g clip-path="url(#p95d89dc48b)">
     <!-- ${q0}_{6}$ -->
     <defs>
      <path d="M 33.015625 40.375 
Q 26.375 40.375 22.484375 35.828125 
Q 18.609375 31.296875 18.609375 23.390625 
Q 18.609375 15.53125 22.484375 10.953125 
Q 26.375 6.390625 33.015625 6.390625 
Q 39.65625 6.390625 43.53125 10.953125 
Q 47.40625 15.53125 47.40625 23.390625 
Q 47.40625 31.296875 43.53125 35.828125 
Q 39.65625 40.375 33.015625 40.375 
z
M 52.59375 71.296875 
L 52.59375 62.3125 
Q 48.875 64.0625 45.09375 64.984375 
Q 41.3125 65.921875 37.59375 65.921875 
Q 27.828125 65.921875 22.671875 59.328125 
Q 17.53125 52.734375 16.796875 39.40625 
Q 19.671875 43.65625 24.015625 45.921875 
Q 28.375 48.1875 33.59375 48.1875 
Q 44.578125 48.1875 50.953125 41.515625 
Q 57.328125 34.859375 57.328125 23.390625 
Q 57.328125 12.15625 50.6875 5.359375 
Q 44.046875 -1.421875 33.015625 -1.421875 
Q 20.359375 -1.421875 13.671875 8.265625 
Q 6.984375 17.96875 6.984375 36.375 
Q 6.984375 53.65625 15.1875 63.9375 
Q 23.390625 74.21875 37.203125 74.21875 
Q 40.921875 74.21875 44.703125 73.484375 
Q 48.484375 72.75 52.59375 71.296875 
z
" id="DejaVuSans-54"/>
     </defs>
     <g transform="translate(71.32004 320.717777)scale(0.1625 -0.1625)">
      <use transform="translate(0 0.78125)" xlink:href="#DejaVuSans-Oblique-113"/>
      <use transform="translate(63.476562 0.78125)" xlink:href="#DejaVuSans-48"/>
      <use transform="translate(128.056641 -15.625)scale(0.7)" xlink:href="#DejaVuSans-54"/>
     </g>
    </g>
   </g>
   <g id="text_100">
    <g clip-path="url(#p95d89dc48b)">
     <!-- ${q0}_{7}$ -->
     <defs>
      <path d="M 8.203125 72.90625 
L 55.078125 72.90625 
L 55.078125 68.703125 
L 28.609375 0 
L 18.3125 0 
L 43.21875 64.59375 
L 8.203125 64.59375 
z
" id="DejaVuSans-55"/>
     </defs>
     <g transform="translate(71.32004 366.168777)scale(0.1625 -0.1625)">
      <use transform="translate(0 0.78125)" xlink:href="#DejaVuSans-Oblique-113"/>
      <use transform="translate(63.476562 0.78125)" xlink:href="#DejaVuSans-48"/>
      <use transform="translate(128.056641 -15.625)scale(0.7)" xlink:href="#DejaVuSans-55"/>
     </g>
    </g>
   </g>
   <g id="text_101">
    <g clip-path="url(#p95d89dc48b)">
     <!-- 4 -->
     <g transform="translate(145.37104 400.460825)scale(0.104 -0.104)">
      <use xlink:href="#DejaVuSans-52"/>
     </g>
    </g>
   </g>
   <g id="text_102">
    <g clip-path="url(#p95d89dc48b)">
     <!-- $c0$ -->
     <defs>
      <path d="M 53.609375 52.59375 
L 51.8125 43.703125 
Q 48.578125 46.046875 44.9375 47.21875 
Q 41.3125 48.390625 37.40625 48.390625 
Q 33.109375 48.390625 29.21875 46.875 
Q 25.34375 45.359375 22.703125 42.578125 
Q 18.5 38.328125 16.203125 32.609375 
Q 13.921875 26.90625 13.921875 20.796875 
Q 13.921875 13.421875 17.609375 9.8125 
Q 21.296875 6.203125 28.8125 6.203125 
Q 32.515625 6.203125 36.6875 7.328125 
Q 40.875 8.453125 45.40625 10.6875 
L 43.703125 1.8125 
Q 39.796875 0.203125 35.671875 -0.609375 
Q 31.546875 -1.421875 27.203125 -1.421875 
Q 16.3125 -1.421875 10.453125 4.015625 
Q 4.59375 9.46875 4.59375 19.578125 
Q 4.59375 28.078125 7.640625 35.234375 
Q 10.6875 42.390625 16.703125 48.09375 
Q 20.796875 52 26.3125 54 
Q 31.84375 56 38.375 56 
Q 42.1875 56 45.9375 55.140625 
Q 49.703125 54.296875 53.609375 52.59375 
z
" id="DejaVuSans-Oblique-99"/>
     </defs>
     <g transform="translate(76.71504 412.549581)scale(0.195 -0.195)">
      <use transform="translate(0 0.78125)" xlink:href="#DejaVuSans-Oblique-99"/>
      <use transform="translate(54.980469 0.78125)" xlink:href="#DejaVuSans-48"/>
     </g>
    </g>
   </g>
   <g id="text_103">
    <g clip-path="url(#p95d89dc48b)">
     <!-- ${q0}_{0}$ -->
     <g transform="translate(71.32004 502.521777)scale(0.1625 -0.1625)">
      <use transform="translate(0 0.78125)" xlink:href="#DejaVuSans-Oblique-113"/>
      <use transform="translate(63.476562 0.78125)" xlink:href="#DejaVuSans-48"/>
      <use transform="translate(128.056641 -15.625)scale(0.7)" xlink:href="#DejaVuSans-48"/>
     </g>
    </g>
   </g>
   <g id="text_104">
    <g clip-path="url(#p95d89dc48b)">
     <!-- ${q0}_{1}$ -->
     <g transform="translate(71.32004 547.972777)scale(0.1625 -0.1625)">
      <use transform="translate(0 0.78125)" xlink:href="#DejaVuSans-Oblique-113"/>
      <use transform="translate(63.476562 0.78125)" xlink:href="#DejaVuSans-48"/>
      <use transform="translate(128.056641 -15.625)scale(0.7)" xlink:href="#DejaVuSans-49"/>
     </g>
    </g>
   </g>
   <g id="text_105">
    <g clip-path="url(#p95d89dc48b)">
     <!-- ${q0}_{2}$ -->
     <g transform="translate(71.32004 593.423777)scale(0.1625 -0.1625)">
      <use transform="translate(0 0.78125)" xlink:href="#DejaVuSans-Oblique-113"/>
      <use transform="translate(63.476562 0.78125)" xlink:href="#DejaVuSans-48"/>
      <use transform="translate(128.056641 -15.625)scale(0.7)" xlink:href="#DejaVuSans-50"/>
     </g>
    </g>
   </g>
   <g id="text_106">
    <g clip-path="url(#p95d89dc48b)">
     <!-- ${q0}_{3}$ -->
     <g transform="translate(71.32004 638.874777)scale(0.1625 -0.1625)">
      <use transform="translate(0 0.78125)" xlink:href="#DejaVuSans-Oblique-113"/>
      <use transform="translate(63.476562 0.78125)" xlink:href="#DejaVuSans-48"/>
      <use transform="translate(128.056641 -15.625)scale(0.7)" xlink:href="#DejaVuSans-51"/>
     </g>
    </g>
   </g>
   <g id="text_107">
    <g clip-path="url(#p95d89dc48b)">
     <!-- ${q0}_{4}$ -->
     <g transform="translate(71.32004 684.325777)scale(0.1625 -0.1625)">
      <use transform="translate(0 0.78125)" xlink:href="#DejaVuSans-Oblique-113"/>
      <use transform="translate(63.476562 0.78125)" xlink:href="#DejaVuSans-48"/>
      <use transform="translate(128.056641 -15.625)scale(0.7)" xlink:href="#DejaVuSans-52"/>
     </g>
    </g>
   </g>
   <g id="text_108">
    <g clip-path="url(#p95d89dc48b)">
     <!-- ${q0}_{5}$ -->
     <g transform="translate(71.32004 729.776777)scale(0.1625 -0.1625)">
      <use transform="translate(0 0.78125)" xlink:href="#DejaVuSans-Oblique-113"/>
      <use transform="translate(63.476562 0.78125)" xlink:href="#DejaVuSans-48"/>
      <use transform="translate(128.056641 -15.625)scale(0.7)" xlink:href="#DejaVuSans-53"/>
     </g>
    </g>
   </g>
   <g id="text_109">
    <g clip-path="url(#p95d89dc48b)">
     <!-- ${q0}_{6}$ -->
     <g transform="translate(71.32004 775.227777)scale(0.1625 -0.1625)">
      <use transform="translate(0 0.78125)" xlink:href="#DejaVuSans-Oblique-113"/>
      <use transform="translate(63.476562 0.78125)" xlink:href="#DejaVuSans-48"/>
      <use transform="translate(128.056641 -15.625)scale(0.7)" xlink:href="#DejaVuSans-54"/>
     </g>
    </g>
   </g>
   <g id="text_110">
    <g clip-path="url(#p95d89dc48b)">
     <!-- ${q0}_{7}$ -->
     <g transform="translate(71.32004 820.678777)scale(0.1625 -0.1625)">
      <use transform="translate(0 0.78125)" xlink:href="#DejaVuSans-Oblique-113"/>
      <use transform="translate(63.476562 0.78125)" xlink:href="#DejaVuSans-48"/>
      <use transform="translate(128.056641 -15.625)scale(0.7)" xlink:href="#DejaVuSans-55"/>
     </g>
    </g>
   </g>
   <g id="text_111">
    <g clip-path="url(#p95d89dc48b)">
     <!-- 4 -->
     <g transform="translate(145.37104 854.970825)scale(0.104 -0.104)">
      <use xlink:href="#DejaVuSans-52"/>
     </g>
    </g>
   </g>
   <g id="text_112">
    <g clip-path="url(#p95d89dc48b)">
     <!-- $c0$ -->
     <g transform="translate(76.71504 867.059581)scale(0.195 -0.195)">
      <use transform="translate(0 0.78125)" xlink:href="#DejaVuSans-Oblique-99"/>
      <use transform="translate(54.980469 0.78125)" xlink:href="#DejaVuSans-48"/>
     </g>
    </g>
   </g>
   <g id="text_113">
    <g clip-path="url(#p95d89dc48b)">
     <!-- ${q0}_{0}$ -->
     <g transform="translate(71.32004 957.031777)scale(0.1625 -0.1625)">
      <use transform="translate(0 0.78125)" xlink:href="#DejaVuSans-Oblique-113"/>
      <use transform="translate(63.476562 0.78125)" xlink:href="#DejaVuSans-48"/>
      <use transform="translate(128.056641 -15.625)scale(0.7)" xlink:href="#DejaVuSans-48"/>
     </g>
    </g>
   </g>
   <g id="text_114">
    <g clip-path="url(#p95d89dc48b)">
     <!-- ${q0}_{1}$ -->
     <g transform="translate(71.32004 1002.482777)scale(0.1625 -0.1625)">
      <use transform="translate(0 0.78125)" xlink:href="#DejaVuSans-Oblique-113"/>
      <use transform="translate(63.476562 0.78125)" xlink:href="#DejaVuSans-48"/>
      <use transform="translate(128.056641 -15.625)scale(0.7)" xlink:href="#DejaVuSans-49"/>
     </g>
    </g>
   </g>
   <g id="text_115">
    <g clip-path="url(#p95d89dc48b)">
     <!-- ${q0}_{2}$ -->
     <g transform="translate(71.32004 1047.933777)scale(0.1625 -0.1625)">
      <use transform="translate(0 0.78125)" xlink:href="#DejaVuSans-Oblique-113"/>
      <use transform="translate(63.476562 0.78125)" xlink:href="#DejaVuSans-48"/>
      <use transform="translate(128.056641 -15.625)scale(0.7)" xlink:href="#DejaVuSans-50"/>
     </g>
    </g>
   </g>
   <g id="text_116">
    <g clip-path="url(#p95d89dc48b)">
     <!-- ${q0}_{3}$ -->
     <g transform="translate(71.32004 1093.384777)scale(0.1625 -0.1625)">
      <use transform="translate(0 0.78125)" xlink:href="#DejaVuSans-Oblique-113"/>
      <use transform="translate(63.476562 0.78125)" xlink:href="#DejaVuSans-48"/>
      <use transform="translate(128.056641 -15.625)scale(0.7)" xlink:href="#DejaVuSans-51"/>
     </g>
    </g>
   </g>
   <g id="text_117">
    <g clip-path="url(#p95d89dc48b)">
     <!-- ${q0}_{4}$ -->
     <g transform="translate(71.32004 1138.835777)scale(0.1625 -0.1625)">
      <use transform="translate(0 0.78125)" xlink:href="#DejaVuSans-Oblique-113"/>
      <use transform="translate(63.476562 0.78125)" xlink:href="#DejaVuSans-48"/>
      <use transform="translate(128.056641 -15.625)scale(0.7)" xlink:href="#DejaVuSans-52"/>
     </g>
    </g>
   </g>
   <g id="text_118">
    <g clip-path="url(#p95d89dc48b)">
     <!-- ${q0}_{5}$ -->
     <g transform="translate(71.32004 1184.286777)scale(0.1625 -0.1625)">
      <use transform="translate(0 0.78125)" xlink:href="#DejaVuSans-Oblique-113"/>
      <use transform="translate(63.476562 0.78125)" xlink:href="#DejaVuSans-48"/>
      <use transform="translate(128.056641 -15.625)scale(0.7)" xlink:href="#DejaVuSans-53"/>
     </g>
    </g>
   </g>
   <g id="text_119">
    <g clip-path="url(#p95d89dc48b)">
     <!-- ${q0}_{6}$ -->
     <g transform="translate(71.32004 1229.737777)scale(0.1625 -0.1625)">
      <use transform="translate(0 0.78125)" xlink:href="#DejaVuSans-Oblique-113"/>
      <use transform="translate(63.476562 0.78125)" xlink:href="#DejaVuSans-48"/>
      <use transform="translate(128.056641 -15.625)scale(0.7)" xlink:href="#DejaVuSans-54"/>
     </g>
    </g>
   </g>
   <g id="text_120">
    <g clip-path="url(#p95d89dc48b)">
     <!-- ${q0}_{7}$ -->
     <g transform="translate(71.32004 1275.188777)scale(0.1625 -0.1625)">
      <use transform="translate(0 0.78125)" xlink:href="#DejaVuSans-Oblique-113"/>
      <use transform="translate(63.476562 0.78125)" xlink:href="#DejaVuSans-48"/>
      <use transform="translate(128.056641 -15.625)scale(0.7)" xlink:href="#DejaVuSans-55"/>
     </g>
    </g>
   </g>
   <g id="text_121">
    <g clip-path="url(#p95d89dc48b)">
     <!-- 4 -->
     <g transform="translate(145.37104 1309.480825)scale(0.104 -0.104)">
      <use xlink:href="#DejaVuSans-52"/>
     </g>
    </g>
   </g>
   <g id="text_122">
    <g clip-path="url(#p95d89dc48b)">
     <!-- $c0$ -->
     <g transform="translate(76.71504 1321.569581)scale(0.195 -0.195)">
      <use transform="translate(0 0.78125)" xlink:href="#DejaVuSans-Oblique-99"/>
      <use transform="translate(54.980469 0.78125)" xlink:href="#DejaVuSans-48"/>
     </g>
    </g>
   </g>
  </g>
 </g>
 <defs>
  <clipPath id="p95d89dc48b">
   <rect height="1336.2594" width="1278.99114" x="7.2" y="7.2"/>
  </clipPath>
 </defs>
</svg>
